<svg id="e3638ee1-fed2-4d0c-a8bf-554b98f0b1b8" data-name="bdc6570f-65ff-4795-9bfc-cc5cb4c1509f" xmlns="http://www.w3.org/2000/svg" width="184.5098mm" height="64.322mm" viewBox="0 0 523.02 182.33">
  <defs>
    <style>
      .baa6712b-1e45-4bde-94d5-649dd4b8743a {
        fill: #4f5384;
      }

      .b900257f-d5d6-491b-bc51-89b0953eaca5 {
        fill: #bdbfe1;
      }

      .a8b58683-8136-48f4-b494-cf424433f3fb {
        fill: #eae9e9;
      }

      .bf4a14ca-01ae-46cc-b7eb-f91b5ca89868 {
        fill: #cfd0d0;
      }

      .a2726afd-5277-4975-a1ff-139a4897c76d {
        fill: #2b2c2c;
      }

      .b4b326e5-596c-4e1c-b97b-6e475a0c624f {
        fill: #fefefe;
      }

      .bc787eb3-4e7d-4e21-b765-0067d7304514 {
        fill: #484d80;
      }

      .a4dff7d9-0178-4258-acb6-fb93cbac6442 {
        fill: #231f20;
      }

      .ea45de58-df80-4770-bb35-f96c2d2f258e {
        fill: #bbbddf;
      }
    </style>
  </defs>
  <path class="baa6712b-1e45-4bde-94d5-649dd4b8743a" d="M202.77,54.85c1.44,2.44,3.94,2.94,6.41,3.67q28.08,8.28,56.13,16.7c1.32.39,2.6.86,3.95.09a1.56,1.56,0,0,1,1.73.15c3.3,2.89,7.48,2,11.26,2.45,17.2,2,34.44,3.68,51.67,5.48,3.93-1.89,7.5.76,11.28.94,16.53.81,33.05,1.84,49.58,2.78,2.67.15,5.34.27,8,.42a2.73,2.73,0,0,0,2-.44,2.7695,2.7695,0,0,1,4.14.24c.84.94,1.9.76,2.87.84q20.88,1.71,41.76,3.33c5.07.4,10.14.77,15.21,1.17,1.86.15,3.64.61,5.43-.64,1.19-.83,2.56-.19,3.33,1a2.6,2.6,0,0,1-.5,3.52,2.41,2.41,0,0,1-3.401.2219q-.0509-.0446-.099-.0919a5.18,5.18,0,0,0-3.72-1.36L421,91.53c-3-.24-6-.46-9-.74-1.45-.14-2.82-.41-4.15.69a2.1564,2.1564,0,0,1-3-.47,3.67,3.67,0,0,0-2.58-1l-58.63-3.23c-1.45-.08-2.88-.21-4.18.81a1.91,1.91,0,0,1-2.62-.22c-1.33-1.45-3-1.4-4.74-1.58q-23.26-2.44-46.53-5c-3.68-.39-7.4-1.3-11-1-3.32.24-6.46,1.29-8.92-1.89C245.4,72,225.23,65.88,205,60.06a9.8,9.8,0,0,0-7,.82q-30.18,15.93-60.3,31.86a4.08,4.08,0,0,0-2.22,2.33,2.36,2.36,0,0,1-2.71,1.54,2.58,2.58,0,0,1-2.28-2.17,4.37,4.37,0,0,0-1.32-2.68q-18.7-18.24-37.36-36.53a4.6065,4.6065,0,0,0-.62-.44l-1.54-1.56Q78.2,42,66.76,30.79a3.74,3.74,0,0,0-2.29-.93,2.74,2.74,0,0,1-2.4843-2.9738q.0057-.0633.0143-.1262a2.51,2.51,0,0,1,2.5-2.49,2.55,2.55,0,0,1,3,2.54,2.6,2.6,0,0,0,.79,1.81q13,12.58,26,25.21l1,1a6.2322,6.2322,0,0,0,.61.82Q113.42,72.76,131,89.89c1.73,1.68,3.65,1.71,5.79.57q27.75-14.8,55.55-29.55c3-1.57,6.3-2.69,7.85-6.09Z"/>
  <path class="b900257f-d5d6-491b-bc51-89b0953eaca5" d="M113,98.79a98.8844,98.8844,0,0,0,17.56,5.78c6.22,1.29,12.43,2.84,18.86,3.26s12.93,1.53,19.39,2.37q14.52,1.9,29.05,3.87a2.36,2.36,0,0,0,1.71-.2c1.83-1.1,3.44-1,4.57,1a2.71,2.71,0,0,0,1.67,1.09c20.08,7.67,40.1,15.52,60.29,22.92,4.33,1.59,9.2.94,13.91.1,10.37-1.85,20.8-3.39,31.21-5q11.55-1.83,23.11-3.63c4.5-3.81,9.7-.45,14.6-1.35,7.55-1.39,15.34-1.54,23-2.16,5.47-.43,11-.76,16.44-1.14,4.8-.34,9.91.21,14.28-1.35,3.28-1.17,5.42-.64,8.42.09,3.66.9,7.67.42,11.54.66,9.27.57,18.56.67,27.84,1.2,6.69.37,13.37.93,20.08,1a5.4891,5.4891,0,0,0,3.2-.69,2.69,2.69,0,0,1,3.39,4.15,3,3,0,0,1-4,.08,3.1328,3.1328,0,0,0-2-1c-3.71.28-7.38-.38-11.08-.53-12.28-.5-24.57-.83-36.83-1.71-4.19-.29-8.45.24-12.59-.81-.16,0-.4-.08-.5,0-3.54,2.94-7.3-.28-11,.4s-7.68.77-11.52,1.1c-9.74.85-19.48,1.71-29.23,2.52-5.13.42-10.27.76-15.41,1.09-1.05.06-2,0-2.74,1-.5.68-1.47,1.29-2.27.87-3.8-2-7.45-.08-11.07.42-10.44,1.46-20.83,3.21-31.23,5-5.89,1-11.87,1.43-17.64,3.07-1,.17-2.18-.37-3.1.5-.89.18-1.78-.15-2.66.62-2.46,2.16-3,2-5.11-.59l-.55-.54c-7.44-3.37-15.21-5.87-22.81-8.83-12.57-4.89-25.2-9.65-37.8-14.48-1.29-.49-2.49-1.07-3.94-.51a2.19,2.19,0,0,1-1.76-.12c-5.19-3.35-11.26-2.36-16.91-3.37-7.15-1.28-14.42-2-21.64-2.88l-22.17-2.9c-1.91-.24-3.76-.86-5.69.4a2.31,2.31,0,0,1-3.1176-.976l-.0124-.024a3.21,3.21,0,0,0-1.93-1.54c-8.18-2.64-16.33-5.34-24.5-8a7.6189,7.6189,0,0,0-1.27-.18c-.54-.71-1.33-.42-2-.5-1.9-1.46-4.25-1.79-6.43-2.52-8.31-2.79-16.66-5.48-25-8.2a5.86,5.86,0,0,0-4.25-.27c-1.5.58-2.64-.23-3.31-1.68a2.29,2.29,0,0,1,.7874-3.1414q.0793-.0476.1625-.0886c1.27-.82,2.75-.87,3.69.46S69,84.59,70.37,85q20,6.49,40,13a9.4642,9.4642,0,0,0,1.52.26A1.15,1.15,0,0,0,113,98.79Z"/>
  <path class="a8b58683-8136-48f4-b494-cf424433f3fb" d="M30.15,9.77H509.07v1H30.13Z"/>
  <path class="bf4a14ca-01ae-46cc-b7eb-f91b5ca89868" d="M95.24,54.81l-1-1h411.7a6.2894,6.2894,0,0,1,3.54.46c-1.25.84-2.37.52-3.38.52H206.65c-1.29,0-2.59,0-3.88.06H200.2Z"/>
  <path class="bf4a14ca-01ae-46cc-b7eb-f91b5ca89868" d="M113,98.79a1.15,1.15,0,0,1-1.07-.52H508.8v.55Z"/>
  <path class="bf4a14ca-01ae-46cc-b7eb-f91b5ca89868" d="M266.63,142.21l.55.54H31.24v-.54Z"/>
  <path class="bf4a14ca-01ae-46cc-b7eb-f91b5ca89868" d="M275,142.72c.92-.87,2.07-.33,3.1-.5H509c-.59.8-1.2.52-1.7.52H275.97Z"/>
  <path class="bf4a14ca-01ae-46cc-b7eb-f91b5ca89868" d="M89.65,53.23l1.54,1.56H30.11v-1H87.49C88.25,53.77,89.09,54,89.65,53.23Z"/>
  <path class="bf4a14ca-01ae-46cc-b7eb-f91b5ca89868" d="M101.06,98.24c.69.08,1.48-.21,2,.5H31.21v-.5Z"/>
  <path class="a2726afd-5277-4975-a1ff-139a4897c76d" d="M417.68,145.57c2.23,0,3.36,1.54,2.38,3.52-.41.81-.22,1,.19,1.65a2.32,2.32,0,0,1-.48,3.41,3.47,3.47,0,0,1-4.28,0,2.21,2.21,0,0,1-.29-3.38,1.15,1.15,0,0,0,.13-1.49C414.35,147,415.36,145.55,417.68,145.57Zm1.73,6.57c0-1.33-.78-1.68-1.87-1.65a1.55,1.55,0,0,0-1.7,1.78c.05,1.15.88,1.61,1.93,1.57s1.77-.58,1.64-1.7Zm-.1-4.16a1.57,1.57,0,0,0-1.6139-1.5248q-.0432.0012-.0861.0048a1.37,1.37,0,0,0-1.47,1.64,1.35,1.35,0,0,0,1.49,1.38,1.51,1.51,0,0,0,1.6705-1.33q.0085-.0747.01-.15Z"/>
  <path class="a2726afd-5277-4975-a1ff-139a4897c76d" d="M16.65,12.56c1-.39,1.27.25,1.75.56A2,2,0,0,0,21,13a1.91,1.91,0,0,0,.28-2.38c-.52-.95-1.38-.87-2.25-.78s-2.12,1.37-1.92-.41c.13-1.28-1.62-4,1.83-3.88a7.857,7.857,0,0,1,3.56.31c-1.25,1.59-3.27-.22-4.21,1.33-.26.43,0,1.15,0,1.78,2.14-.53,3.88-.29,4.53,1.92a2.62,2.62,0,0,1-1.5543,3.3635q-.0376.0138-.0757.0265C19.43,14.83,17.54,14.94,16.65,12.56Z"/>
  <path class="a2726afd-5277-4975-a1ff-139a4897c76d" d="M15,49.5c-.79,1.36-1.85,1-2.81,1-1.12,0-1.18.56-1.22,1.44-.07,1.26.71.78,1.3.74a2.7879,2.7879,0,0,1,3.33,2.45,2.64,2.64,0,0,1-1.9563,3.18l-.0437.01c-1.67.4-3.48.45-4.16-1.78.89-.54,1.2.21,1.76.56a1.93,1.93,0,0,0,2.91-2.37c-.5-1.12-1.42-1-2.4-.95-.71.08-2.13,1.46-1.86-.47C10,52.09,8.3,49.55,11.5,49.5Z"/>
  <path class="a2726afd-5277-4975-a1ff-139a4897c76d" d="M22.29,93.48c-.83,1.38-1.81,1-2.69,1s-1.37.19-1.41,1.27c-.06,1.34.68,1,1.4.92a2.71,2.71,0,0,1,3.25,2.54,2.63,2.63,0,0,1-2.0354,3.113l-.0346.007c-1.66.35-3.41.38-4.06-1.82,1-.55,1.26.33,1.81.63a2,2,0,0,0,2.41-.14,1.93,1.93,0,0,0,.4-2.37c-.46-1-1.31-.91-2.2-.91-.74,0-2.24,1.7-2-.53.12-1.3-1.39-4,2-3.75A30.1818,30.1818,0,0,0,22.29,93.48Z"/>
  <path class="a2726afd-5277-4975-a1ff-139a4897c76d" d="M283.36,147.36c-3.63-1-3.7-1-4.2,1.93,1.3-.26,2.62-.83,3.78.22a2.86,2.86,0,0,1,.85,2.33,2.5357,2.5357,0,0,1-2.05,2.84,2.8017,2.8017,0,0,1-3.54-1.77,8,8,0,0,1,.14-5.54,2.63,2.63,0,0,1,2.6-1.76C282,145.63,283.14,145.85,283.36,147.36Zm-.69,4.42c-.18-1-.51-2-1.89-1.89a1.55,1.55,0,0,0-1.67,1.83c.08,1.13.52,2,1.84,2s1.52-.88,1.72-1.94Z"/>
  <path class="a2726afd-5277-4975-a1ff-139a4897c76d" d="M487.76,151c-1.67.61-3.12,1-4.18-.42a3.32,3.32,0,0,1-.21-3.66c.65-1.24,1.81-1.45,3.09-1.3a2.28,2.28,0,0,1,2,1.44,7.48,7.48,0,0,1-.07,6c-.79,1.74-2.33,1.91-3.95,1.43-.54-.16-1.27-.66-.95-1.31.49-1,.85,0,1.31.23C486.75,154.23,487.43,153.11,487.76,151Zm-.09-2.59a1.79,1.79,0,0,0-1.6872-1.8872c-.0309-.0017-.0618-.0027-.0928-.0028-1.22,0-1.79,1-1.72,2.14s.55,2,1.93,1.87c1.19-.06,1.61-.76,1.57-2.08Z"/>
  <path class="a2726afd-5277-4975-a1ff-139a4897c76d" d="M215.14,146.24c-1.06.9-2.12.51-3.07.54s-1.21.64-1.25,1.5c-.07,1.31.78.7,1.31.67,1.64-.1,2.94.4,3.28,2.15.31,1.57-.12,3.09-1.81,3.49s-3.52.55-4.17-1.77c.64-.4,1-.18,1.53.33a1.84,1.84,0,0,0,2.5983.1417,1.8216,1.8216,0,0,0,.1417-.1417,1.72,1.72,0,0,0,.42-2.11c-.58-1.18-1.54-1.25-2.62-1-.71.18-1.9,1.14-1.74-.47.14-1.3-1.32-3.5,1.32-3.85A5.82,5.82,0,0,1,215.14,146.24Z"/>
  <path class="a2726afd-5277-4975-a1ff-139a4897c76d" d="M337.87,150.37a14.2867,14.2867,0,0,1-.49,2.56,2.67,2.67,0,0,1-2.8,1.83,2.6,2.6,0,0,1-2.63-2,9.6294,9.6294,0,0,1-.23-4.08c.28-1.88,1.12-3.08,3.11-3s2.7,1.25,2.84,3C337.72,149.13,337.79,149.64,337.87,150.37Zm-1.23-.09h-.13a15.4417,15.4417,0,0,0,0-1.8c-.11-1-.65-1.89-1.73-1.91a1.74,1.74,0,0,0-1.81,1.6671q-.003.0714,0,.1429a23.7924,23.7924,0,0,0,.06,3.87,1.69,1.69,0,0,0,3.29.32,15.6544,15.6544,0,0,0,.32-2.29Z"/>
  <path class="a2726afd-5277-4975-a1ff-139a4897c76d" d="M269.51,150.46a11.6618,11.6618,0,0,1-.3,2.09,2.76,2.76,0,0,1-3.56,2.12c-2.43-.61-2.37-2.77-2.35-4.59s0-4,2.55-4.41C268.26,145.25,269.54,146.87,269.51,150.46Zm-1.32-.4h0v-1.29c-.05-1.14-.5-2.16-1.71-2.2-1.38,0-1.88,1-1.9,2.27a28.9543,28.9543,0,0,0,0,3.09c.1,1,.61,1.81,1.79,1.79s1.6-.86,1.75-1.85a12.1332,12.1332,0,0,0,.07-1.81Z"/>
  <path class="a2726afd-5277-4975-a1ff-139a4897c76d" d="M23.81,142.36c0-1.29-.07-2.68.92-3.64a2.84,2.84,0,0,1,4.0089-.244q.0782.0691.1511.144c1.63,1.46,1.59,6.27-.07,7.67a2.77,2.77,0,0,1-3.9171-.0458L24.87,146.21C23.74,145.17,23.82,143.74,23.81,142.36Zm5,.14c-.06-.6-.13-1.2-.17-1.8a1.81,1.81,0,0,0-1.7045-1.91l-.0055,0c-1.14-.06-1.67.85-1.82,1.82a8.18,8.18,0,0,0,.16,4.08A1.62,1.62,0,0,0,26.94,146a1.55,1.55,0,0,0,1.58-1.41c.13-.71.17-1.4.25-2.09Z"/>
  <path class="a2726afd-5277-4975-a1ff-139a4897c76d" d="M30.15,9.77v1c-.2.66-.35,1.33-.61,2a2.66,2.66,0,0,1-3.3537,1.7041q-.1254-.041-.2463-.0941c-2.25-.78-2.14-2.87-2.11-4.78,0-1.73.06-3.53,2.25-4.11C28.41,4.89,29.37,5.9,30.15,9.77ZM28.77,10c-.06-.62-.14-1.13-.16-1.65a1.84,1.84,0,0,0-1.65-2c-1.15-.11-1.72.77-1.87,1.75a7.82,7.82,0,0,0,.21,4.31,1.6,1.6,0,0,0,1.83,1.08,1.49,1.49,0,0,0,1.38-1.32C28.66,11.4,28.7,10.62,28.77,10Z"/>
  <path class="a2726afd-5277-4975-a1ff-139a4897c76d" d="M30.13,53.75v1c-.2.66-.33,1.34-.59,2a2.67,2.67,0,0,1-3.3733,1.6966q-.1153-.0381-.2267-.0866c-2.25-.78-2.14-2.87-2.11-4.77,0-1.74.06-3.54,2.25-4.11C28.41,48.87,29.4,49.91,30.13,53.75Zm-5.23-.08a14.44,14.44,0,0,0,.21,2.2c.25,1,.8,1.84,2,1.57,2-.46,1.56-2.25,1.6-3.58S29,50.7,27,50.33c-1.12-.22-1.64.74-1.9,1.7A12.2684,12.2684,0,0,0,24.9,53.67Z"/>
  <path class="a2726afd-5277-4975-a1ff-139a4897c76d" d="M30.06,98.45a14.0609,14.0609,0,0,1-.56,2.31,2.64,2.64,0,0,1-3.6,1.59c-2.23-.79-2.12-2.88-2.09-4.78,0-1.73.07-3.53,2.25-4.1C28.52,92.83,30.11,94.63,30.06,98.45Zm-1.29-.52c-.06-.62-.14-1.14-.16-1.65a1.83,1.83,0,0,0-1.64-2c-1.15-.12-1.72.76-1.88,1.73a7.85,7.85,0,0,0,.21,4.32,1.6,1.6,0,0,0,1.82,1.09,1.49,1.49,0,0,0,1.38-1.31A20.88,20.88,0,0,0,28.77,97.93Z"/>
  <path class="a2726afd-5277-4975-a1ff-139a4897c76d" d="M400.11,150.53c0-1.92-.06-3.61,1.48-4.5a2.81,2.81,0,0,1,3.75.5c1.37,1.56,1.37,5.7,0,7.31a2.73,2.73,0,0,1-3.51.62C400.13,153.59,400.08,151.85,400.11,150.53Zm1.15-1v1.63c.15,1.22.3,2.52,1.94,2.53s1.68-1.23,1.74-2.37a26.7276,26.7276,0,0,0-.05-2.83,1.78,1.78,0,0,0-1.61-1.9355c-.02-.0018-.04-.0033-.06-.0045-1.14-.09-1.63.81-1.85,1.78a5.1171,5.1171,0,0,0-.11,1.21Z"/>
  <path class="a2726afd-5277-4975-a1ff-139a4897c76d" d="M72.58,147.71c.7-2.22,2.4-2.52,4.21-1.85s2,2.14.79,3.66c-.53.65,0,.83.33,1.2,1.21,1.44.89,2.87-.62,3.65a3.38,3.38,0,0,1-4.44-.73c-.29-.35-.48-.79-.14-1.15.61-.62.81.06,1.13.42s.47.57.75.63c.92.2,2,.46,2.5-.63a1.46,1.46,0,0,0-1-2.19c-.9-.26-.58-.65-.25-1,.75-.75,2-1.38.82-2.62-1-1-2-.58-2.8.47C73.54,148,73.13,148.05,72.58,147.71Z"/>
  <path class="a2726afd-5277-4975-a1ff-139a4897c76d" d="M201,150.16a5.45,5.45,0,0,1-.76,3.46,2.85,2.85,0,0,1-4.88-.42,7.54,7.54,0,0,1-.36-5c.42-1.66,1.33-2.62,3-2.57,1.87.05,2.68,1.3,2.9,3A7.72,7.72,0,0,1,201,150.16Zm-1.1.26a12.1683,12.1683,0,0,0-.1-1.63c-.19-1-.47-2.17-1.73-2.22s-1.78,1-2,2.24a10.9317,10.9317,0,0,0,.11,3.33c.15.85.52,1.45,1.44,1.56a1.59,1.59,0,0,0,1.8735-1.2434q.01-.048.0165-.0966a19.6841,19.6841,0,0,0,.4-1.94Z"/>
  <path class="a2726afd-5277-4975-a1ff-139a4897c76d" d="M189.36,153.38c1.54.56,3-.18,4.22.52a2.01,2.01,0,0,0,.1.49c-1.75.6-3.59.28-5.36.23-1,0-.51-.9-.28-1.36a10.81,10.81,0,0,1,3-3.11c1-.86,1.67-2,.73-3.07s-1.89-.51-2.62.41c-.31.39-.67.68-1.05.35s-.07-1,.27-1.29a3.11,3.11,0,0,1,4.22-.4c1.49,1.07,1.09,2.52.07,3.83S190.23,151.8,189.36,153.38Z"/>
  <path class="a2726afd-5277-4975-a1ff-139a4897c76d" d="M16.63,53.9c-.05-1.6.09-3.23,1.57-4.12a2.74,2.74,0,0,1,3.73.56c1.27,1.48,1.32,5.45.1,7.08-1,1.34-2.35,1.33-3.7.79C17.17,57.75,16.63,56.15,16.63,53.9Zm1.09-.2a9.008,9.008,0,0,0,.15,1.57c.28,1,.35,2.13,1.76,2.2,1.58.09,1.72-1.16,2-2.23a7.11,7.11,0,0,0-.22-3.57,1.65,1.65,0,0,0-1.65-1.36,1.59,1.59,0,0,0-1.61,1.4C18,52.46,17.82,53.21,17.72,53.7Z"/>
  <path class="a2726afd-5277-4975-a1ff-139a4897c76d" d="M121,153.36c1.5.61,3-.16,5,.94a17.311,17.311,0,0,1-6.18.29c-.91-.08-.36-1-.11-1.44a10.33,10.33,0,0,1,2.88-2.9c1-.84,1.77-1.95.91-3.08s-2-.61-2.79.42c-.32.41-.73.55-1.06.17s0-.8.27-1.12a3.11,3.11,0,0,1,4.2-.56c1.54,1,1.34,2.49.25,3.77S122.24,152.12,121,153.36Z"/>
  <path class="a2726afd-5277-4975-a1ff-139a4897c76d" d="M64.3,150.37a5.2394,5.2394,0,0,1-.6,2.86,2.66,2.66,0,0,1-3.4822,1.4233q-.1111-.0466-.2178-.1033c-1.94-.84-2-2.81-1.94-4.66,0-1.68.19-3.35,2-4.07C62.56,144.82,64.32,146.68,64.3,150.37Zm-5.17-.53a10.9963,10.9963,0,0,0,.13,1.59c.29,1,.37,2.31,2,2.29s1.54-1.17,1.78-2.15a7.1,7.1,0,0,0-.18-3.57,1.68,1.68,0,0,0-1.58-1.44,1.56,1.56,0,0,0-1.67,1.31C59.4,148.62,59.24,149.37,59.13,149.84Z"/>
  <path class="a2726afd-5277-4975-a1ff-139a4897c76d" d="M126.36,150.18c0-1.78.15-3.39,1.7-4.22a2.74,2.74,0,0,1,3.54.54c1.37,1.5,1.4,5.63.07,7.28a2.69,2.69,0,0,1-3.49.72C126.43,153.61,126.31,151.78,126.36,150.18Zm5.21-.17c-.49-1.3,0-3.55-2.21-3.39-2,.15-1.87,2.22-1.82,3.72s-.13,3.34,1.94,3.31c2.27-.03,1.61-2.19,2.09-3.65Z"/>
  <path class="a2726afd-5277-4975-a1ff-139a4897c76d" d="M468.51,150.18c0-1.78.15-3.39,1.69-4.22a2.74,2.74,0,0,1,3.54.54c1.38,1.5,1.4,5.63.08,7.28a2.71,2.71,0,0,1-3.5.72C468.57,153.61,468.45,151.78,468.51,150.18Zm5.16,0c-.36-1.47,0-3.66-2.16-3.51-2,.13-1.88,2.2-1.83,3.71s-.13,3.33,1.93,3.31c2.28-.06,1.63-2.22,2.06-3.55Z"/>
  <path class="a2726afd-5277-4975-a1ff-139a4897c76d" d="M257.72,153.53l4.32.19v.76a15.8907,15.8907,0,0,1-5.46.08c-.73-.09-.4-1,0-1.47,1-1.07,2.05-2.06,3.07-3.09.83-.83,1.59-1.79.63-2.88s-1.84-.63-2.61.32c-.35.44-.85.83-1.25.29s.15-1,.52-1.29a3.1,3.1,0,0,1,4.22-.19c1.47,1.18.89,2.57-.09,3.84S258.58,151.83,257.72,153.53Z"/>
  <path class="a2726afd-5277-4975-a1ff-139a4897c76d" d="M15.5,102.41H10.27c-1.3,0-.72-.79-.42-1.38a11.46,11.46,0,0,1,3-3.12c.92-.83,1.86-1.85.79-3-.94-1-2-.62-2.74.52a.64.64,0,0,1-1.07.11c-.16-.22,0-.81.23-1.12a3.45,3.45,0,0,1,4.43-.46,2.47,2.47,0,0,1,.2385,3.4849q-.08.0917-.1685.1751c-1.05,1.22-2.26,2.28-3.51,3.53,1.49.65,3.11-.23,4.44.58Z"/>
  <path class="a2726afd-5277-4975-a1ff-139a4897c76d" d="M461.37,154.34c.29-1.9,1.87-2.87,3.2-4,.95-.82,2-1.86,1.09-3s-2.1-.89-2.91.44a.66.66,0,0,1-.92.15c-.56-.33-.11-.79.05-1.08.68-1.22,3.23-1.66,4.4-.69a2.41,2.41,0,0,1,.23,3.65c-1,1.27-2.25,2.36-3.48,3.63,1.36.67,3-.22,5.05,1Z"/>
  <path class="a2726afd-5277-4975-a1ff-139a4897c76d" d="M52.18,153.52l4.74.22c-1.79,1.32-3.72,1-5.56.83-1-.07-.29-.92-.06-1.37a11.71,11.71,0,0,1,3-3.12c.89-.78,1.69-1.79.81-2.87s-2-.84-2.76.35c-.31.46-.78.54-1.08.25-.46-.45,0-1,.29-1.28a3.12,3.12,0,0,1,4.24-.36c1.41,1.07,1.13,2.61,0,3.84S53.64,152.13,52.18,153.52Z"/>
  <path class="a2726afd-5277-4975-a1ff-139a4897c76d" d="M393.1,148c.15-1.77,1.3-2.23,2.62-2.34a2.5,2.5,0,0,1,2.82,1.37,3,3,0,0,1-.85,3.29c-1,1-2.37,1.69-3.23,3.39h4.36v.83a16.5209,16.5209,0,0,1-5.48.08c-.85-.1-.4-1,0-1.41.9-1,1.9-2,2.85-3s2.07-1.72.91-3-2.11-.49-3,.59C394,148,393.53,147.89,393.1,148Z"/>
  <path class="a2726afd-5277-4975-a1ff-139a4897c76d" d="M326.41,153.8h4.11c-1.74,1.19-3.58.89-5.36.81-1,0-.56-.94-.2-1.36.82-1,1.77-1.86,2.64-2.8s2.38-1.72,1.24-3.18-2.21-.4-3.14.58c-.13.13-.48,0-.81.06-.06-1.73,1.12-2.13,2.4-2.28a2.55,2.55,0,0,1,2.88,1.25,2.74,2.74,0,0,1-.75,3.29c-1.05,1-2.12,2-3.18,3Z"/>
  <path class="a2726afd-5277-4975-a1ff-139a4897c76d" d="M147.57,152.34c-2,0-1.18,1.53-1.79,2.21-.21.24-.81.12-.8-.24.12-2.43-1.67-1.61-2.84-1.65s-1.93-.26-1.06-1.58c1-1.57,2.11-3.11,3.15-4.68a1.17,1.17,0,0,1,1.29-.61c.74.16.43.79.54,1.24C146.44,148.73,145.06,150.78,147.57,152.34Zm-5.67-.81c3.42.21,3.52.05,2.66-3.9Z"/>
  <path class="a2726afd-5277-4975-a1ff-139a4897c76d" d="M408,147.77c.14-1.16,1.13-1.37,1.77-1.79s1.48-.34,1.44.88.06,2.74,0,4.11c-.1,1.64,0,3.05,2.51,2.83-1.77,1.07-3.54,1.14-6,.38,4.32-1.17,1.49-4.47,2.5-6.58C409.19,147,408.85,148.25,408,147.77Z"/>
  <path class="a2726afd-5277-4975-a1ff-139a4897c76d" d="M134.38,147.7c.08-.94.9-1.22,1.51-1.6,1.06-.66,1.78-.49,1.74,1v3.85c-.08,1.59-.18,3.13,2.28,3.2a11.2,11.2,0,0,1-6,.19c4-1,2-3.93,2.32-6.06C136.35,147.45,136.13,147.42,134.38,147.7Z"/>
  <path class="a2726afd-5277-4975-a1ff-139a4897c76d" d="M482.06,154.16c-2,.71-3.89.51-6.47.4,1.44-1.12,3.39-.76,2.88-2.81-.3-1.21.13-2.59-.12-3.82-.3-1.54-1.19.57-1.78-.19-.11-.94.77-1.16,1.34-1.54,1.18-.8,1.92-.65,1.86,1,0,1.2.08,2.4,0,3.59C479.59,152.49,479.63,154,482.06,154.16Z"/>
  <path class="a2726afd-5277-4975-a1ff-139a4897c76d" d="M14,6.7c-1.51-.11-2.85-.2-4.19-.32-.1,0-.19-.25-.38-.52,1.77-.68,3.55-.28,5.29-.3,1.24,0,.81.75.43,1.37-1.27,2.13-2.6,4.24-2.64,6.84,0,.56-.35.74-.85.61s-.4-.62-.37-1C11.45,10.88,12.91,8.92,14,6.7Z"/>
  <path class="a2726afd-5277-4975-a1ff-139a4897c76d" d="M208.56,153.82a8.7,8.7,0,0,1-6.09.53c.3-1.29,3.05-.06,2.41-2.42-.35-1.28.1-2.77-.17-4.09s-1.22.59-1.81-.2c.12-1.12,1.15-1.39,1.93-1.77s1.31-.1,1.27.94v4.38C206.1,152.65,205.58,154.43,208.56,153.82Z"/>
  <path class="a2726afd-5277-4975-a1ff-139a4897c76d" d="M71.21,154.52H65.54c.52-1.33,3-.4,2.4-2.64-.35-1.28.07-2.76-.11-4.11-.16-1.19-1.36.24-1.89-.66.42-.28.87-.58,1.31-.89,1.24-.84,1.88-.66,1.81,1v3.36C69,152.26,68.81,153.94,71.21,154.52Z"/>
  <path class="a2726afd-5277-4975-a1ff-139a4897c76d" d="M350.68,147c-1.59-.56-3.13.26-4.66-.88,1.92-.71,3.62-.37,5.26-.36,1.42,0,.85,1,.46,1.57a15.5783,15.5783,0,0,0-2.57,6.36c-.07.55-.2,1.1-.9.89-.52-.15-.39-.7-.33-1.1C348.26,151.2,349.47,149.23,350.68,147Z"/>
  <path class="a2726afd-5277-4975-a1ff-139a4897c76d" d="M345.34,154c-2.31.94-4.15.69-6.06.62.28-1.69,2.24-.21,2.32-1.62a21.9959,21.9959,0,0,0-.05-5.13c-.24-1.28-1.18.48-1.83-.08-.21-1.16.91-1.27,1.52-1.68.89-.61,1.61-.52,1.55.87s-.05,2.57,0,3.86C342.84,152.27,341.9,154.43,345.34,154Z"/>
  <path class="a2726afd-5277-4975-a1ff-139a4897c76d" d="M276.74,154.07a9.66,9.66,0,0,1-6,.22c3.41-.47,2.53-2.89,2.54-4.86s0-2.06-2-1.79c.06-1.09,1.07-1.28,1.73-1.68s1.46-.29,1.41.91c-.06,1.37,0,2.75,0,4.12C274.4,152.53,274.17,154.15,276.74,154.07Z"/>
  <path class="b4b326e5-596c-4e1c-b97b-6e475a0c624f" d="M95.24,54.81h105c-1.55,3.4-4.9,4.52-7.85,6.09q-27.8,14.8-55.59,29.56c-2.14,1.14-4.06,1.11-5.79-.57Q113.4,72.78,95.85,55.63A6.2233,6.2233,0,0,1,95.24,54.81Z"/>
  <path class="a8b58683-8136-48f4-b494-cf424433f3fb" d="M419.41,152.14c.13,1.12-.55,1.66-1.64,1.7s-1.88-.42-1.93-1.57a1.55,1.55,0,0,1,1.7-1.78C418.63,150.46,419.38,150.81,419.41,152.14Z"/>
  <path class="a8b58683-8136-48f4-b494-cf424433f3fb" d="M419.31,148a1.51,1.51,0,0,1-1.68,1.5,1.35,1.35,0,0,1-1.4832-1.2022A1.4018,1.4018,0,0,1,417.61,146.48a1.57,1.57,0,0,1,1.6952,1.4339Q419.3088,147.957,419.31,148Z"/>
  <path class="a8b58683-8136-48f4-b494-cf424433f3fb" d="M282.67,151.78c-.2,1.06-.49,2-1.72,2s-1.76-.89-1.84-2a1.55,1.55,0,0,1,1.67-1.83C282.16,149.82,282.49,150.75,282.67,151.78Z"/>
  <path class="a8b58683-8136-48f4-b494-cf424433f3fb" d="M487.67,148.45c0,1.32-.38,2-1.57,2.12-1.38.12-1.86-.78-1.93-1.87a1.7709,1.7709,0,1,1,3.5028-.3428C487.6727,148.3881,487.6718,148.4191,487.67,148.45Z"/>
  <path class="a8b58683-8136-48f4-b494-cf424433f3fb" d="M336.64,150.28a15.64,15.64,0,0,1-.33,2.28,1.69,1.69,0,0,1-3.29-.32,23.8037,23.8037,0,0,1-.06-3.87,1.74,1.74,0,0,1,1.6671-1.81q.0714-.003.1429,0c1.08,0,1.62.87,1.73,1.91a15.3978,15.3978,0,0,1,0,1.8Z"/>
  <path class="a8b58683-8136-48f4-b494-cf424433f3fb" d="M268.19,150.06a12.1506,12.1506,0,0,1,0,1.81c-.15,1-.55,1.84-1.75,1.85s-1.69-.75-1.79-1.79a28.9018,28.9018,0,0,1,0-3.09c0-1.26.52-2.31,1.9-2.27,1.21,0,1.66,1.06,1.71,2.2v1.29Z"/>
  <path class="a8b58683-8136-48f4-b494-cf424433f3fb" d="M28.77,142.5c-.08.69-.12,1.38-.25,2.05A1.55,1.55,0,0,1,26.94,146a1.62,1.62,0,0,1-1.71-1.27,8.18,8.18,0,0,1-.16-4.08c.15-1,.68-1.88,1.82-1.82a1.81,1.81,0,0,1,1.71,1.9045l0,.0055C28.64,141.3,28.71,141.9,28.77,142.5Z"/>
  <path class="a8b58683-8136-48f4-b494-cf424433f3fb" d="M28.77,10c-.07.67-.11,1.45-.26,2.2a1.49,1.49,0,0,1-1.38,1.32,1.6,1.6,0,0,1-1.83-1.08,7.82,7.82,0,0,1-.21-4.31c.15-1,.72-1.86,1.87-1.75a1.84,1.84,0,0,1,1.65,2C28.63,8.82,28.71,9.33,28.77,10Z"/>
  <path class="a8b58683-8136-48f4-b494-cf424433f3fb" d="M24.9,53.67A12.2693,12.2693,0,0,1,25.08,52c.26-1,.78-1.92,1.9-1.7,2,.37,1.75,2.15,1.71,3.53s.44,3.12-1.6,3.58c-1.18.27-1.73-.6-2-1.57A14.436,14.436,0,0,1,24.9,53.67Z"/>
  <path class="a8b58683-8136-48f4-b494-cf424433f3fb" d="M28.77,97.93a20.8791,20.8791,0,0,1-.27,2.2,1.49,1.49,0,0,1-1.38,1.31,1.6,1.6,0,0,1-1.82-1.09A7.8494,7.8494,0,0,1,25.09,96c.16-1,.73-1.85,1.88-1.73a1.83,1.83,0,0,1,1.64,2C28.63,96.79,28.71,97.31,28.77,97.93Z"/>
  <path class="a8b58683-8136-48f4-b494-cf424433f3fb" d="M401.26,149.54a5.1228,5.1228,0,0,1,.12-1.2c.22-1,.71-1.87,1.85-1.78a1.78,1.78,0,0,1,1.6745,1.88c-.0011.02-.0026.04-.0045.06,0,.94.1,1.89.05,2.83-.06,1.14-.18,2.38-1.74,2.37s-1.79-1.31-1.94-2.53C401.23,150.83,401.26,150.48,401.26,149.54Z"/>
  <path class="a8b58683-8136-48f4-b494-cf424433f3fb" d="M199.91,150.42q-.1213.9779-.34,1.94a1.59,1.59,0,0,1-1.7934,1.3564q-.0486-.0066-.0966-.0164c-.92-.11-1.29-.71-1.44-1.56a10.9317,10.9317,0,0,1-.11-3.33c.17-1.22.55-2.3,2-2.24s1.54,1.19,1.73,2.22A12.1682,12.1682,0,0,1,199.91,150.42Z"/>
  <path class="a8b58683-8136-48f4-b494-cf424433f3fb" d="M17.72,53.7c.1-.49.26-1.24.4-2a1.59,1.59,0,0,1,1.61-1.4,1.65,1.65,0,0,1,1.65,1.36,7.11,7.11,0,0,1,.22,3.57c-.25,1.07-.39,2.32-2,2.23-1.41-.07-1.48-1.24-1.76-2.2A8.9969,8.9969,0,0,1,17.72,53.7Z"/>
  <path class="a8b58683-8136-48f4-b494-cf424433f3fb" d="M59.13,149.84c.11-.47.27-1.22.43-2a1.56,1.56,0,0,1,1.67-1.31A1.68,1.68,0,0,1,62.81,148a7.1,7.1,0,0,1,.18,3.57c-.24,1-.35,2.13-1.78,2.15s-1.66-1.24-2-2.29A11.0014,11.0014,0,0,1,59.13,149.84Z"/>
  <path class="a8b58683-8136-48f4-b494-cf424433f3fb" d="M131.57,150c-.48,1.45.18,3.61-2.09,3.64-2.07,0-1.89-1.93-1.94-3.31s-.17-3.57,1.82-3.72C131.58,146.46,131.08,148.71,131.57,150Z"/>
  <path class="a8b58683-8136-48f4-b494-cf424433f3fb" d="M473.67,150.14c-.43,1.33.22,3.49-2.06,3.51-2.06,0-1.88-1.94-1.93-3.31s-.17-3.58,1.83-3.71C473.69,146.48,473.31,148.67,473.67,150.14Z"/>
  <path class="bf4a14ca-01ae-46cc-b7eb-f91b5ca89868" d="M141.9,151.53l2.66-3.9C145.42,151.58,145.32,151.74,141.9,151.53Z"/>
  <rect class="bc787eb3-4e7d-4e21-b765-0067d7304514" x="22.8963" y="160.8945" width="15.54" height="15.68"/>
  <path class="a4dff7d9-0178-4258-acb6-fb93cbac6442" d="M52.0363,162.9145h6.8v1.52h-4.89v3.75h4.2v1.41h-4.2v4.08h5.22v1.49h-7.13Z"/>
  <path class="a4dff7d9-0178-4258-acb6-fb93cbac6442" d="M68.9263,165.5145a3.8787,3.8787,0,0,1,1.72-.4c1.62,0,2.57.94,2.57,3.13v6.92h-1.72v-7.15c0-1.13-.5-1.49-1.38-1.49a3.23,3.23,0,0,0-2,.74v7.9h-1.72v-7.15c0-1.13-.56-1.49-1.38-1.49a3.339,3.339,0,0,0-2,.7v7.94h-1.72v-9.85h1l.61,1.22.88-1a3.8,3.8,0,0,1,1.71-.4,3.34,3.34,0,0,1,1.7.4l.69,1.09Z"/>
  <path class="a4dff7d9-0178-4258-acb6-fb93cbac6442" d="M79.4763,174.0345a6.3693,6.3693,0,0,0,2.56-.64l.28,1.28a6.54,6.54,0,0,1-3,.75c-2.66,0-4.06-1.75-4.06-5.17s1.54-5.14,3.88-5.14,3.5,1.77,3.5,4.59v1.07h-5.59C77.1263,173.2245,77.8363,174.0345,79.4763,174.0345Zm1.55-4.5v-.3c0-2.09-.59-2.84-1.83-2.84s-2,.64-2.1,3.14Z"/>
  <path class="a4dff7d9-0178-4258-acb6-fb93cbac6442" d="M87.5563,165.4345a3,3,0,0,1,1.36-.32,2.4491,2.4491,0,0,1,1.23.28l-.31,1.58a3.18,3.18,0,0,0-1.36-.26,3.09,3.09,0,0,0-1.86.7v7.75h-1.72v-9.85h1.05l.63,1.34Z"/>
  <path class="a4dff7d9-0178-4258-acb6-fb93cbac6442" d="M99.2863,164.9045v1.62h-2.2l1.21.79a3.4175,3.4175,0,0,1,.15.94c0,2.43-1.7,3.24-3.56,3.24a4.0506,4.0506,0,0,1-1.65-.3,1.09,1.09,0,0,0-.48.88c0,.62.37.94,1.21.94h2.15c1.94,0,3,.81,3,2.45,0,2.14-1.9,3.09-4.34,3.09s-3.7-.93-3.7-2.41a2,2,0,0,1,.49-1.36l1.08-.54a1.57,1.57,0,0,1-1.21-1.64,1.9094,1.9094,0,0,1,.39-1.22l1-.57-1.11-.71a3.7509,3.7509,0,0,1-.43-1.79c0-2.39,1.88-3.2,3.6-3.2a4,4,0,0,1,2.18.59Zm-6.75,11c0,1,.69,1.4,2.23,1.4,1.81,0,2.71-.76,2.71-1.64v-.11c0-.62-.3-1.11-1.38-1.11h-2.84a1.81,1.81,0,0,0-.72,1.43Zm4.19-7.43v-.24a1.61,1.61,0,0,0-1.84-1.81c-1.31,0-1.89.62-1.89,1.79v.24c0,1.34.58,1.9,1.89,1.9s1.84-.59,1.84-1.91Z"/>
  <path class="a4dff7d9-0178-4258-acb6-fb93cbac6442" d="M104.5063,174.0345a6.36,6.36,0,0,0,2.55-.64l.28,1.28a6.49,6.49,0,0,1-2.94.75c-2.67,0-4.07-1.75-4.07-5.17s1.55-5.14,3.88-5.14,3.5,1.77,3.5,4.59v1.07h-5.59C102.1563,173.2245,102.8363,174.0345,104.5063,174.0345Zm1.55-4.5v-.3c0-2.09-.6-2.84-1.83-2.84s-2,.64-2.11,3.14Z"/>
  <path class="a4dff7d9-0178-4258-acb6-fb93cbac6442" d="M112.5063,165.5145a3.9186,3.9186,0,0,1,1.77-.4c1.64,0,2.63.94,2.63,3.13v6.92h-1.72v-7.15c0-1.11-.56-1.49-1.43-1.49a3.59,3.59,0,0,0-2.13.74v7.9h-1.71v-9.85h1l.63,1.26Z"/>
  <path class="a4dff7d9-0178-4258-acb6-fb93cbac6442" d="M118.9963,170.2345c0-3.44,1.32-5.12,3.84-5.12a6.1791,6.1791,0,0,1,2.65.59l-.27,1.31a7.4277,7.4277,0,0,0-2.27-.45c-1.42,0-2.16.62-2.16,3.46v.29c0,2.9.76,3.71,2.16,3.71a5.21,5.21,0,0,0,2.35-.64l.28,1.3a5.5,5.5,0,0,1-2.74.73C120.3563,175.4245,118.9963,173.6545,118.9963,170.2345Z"/>
  <path class="a4dff7d9-0178-4258-acb6-fb93cbac6442" d="M129.8363,174.8645l-3.18-9.55h1.77l1.76,5.76.46,2.86.5-2.86,1.74-5.76h1.62l-4.06,12.9h-1.61Z"/>
  <path class="a4dff7d9-0178-4258-acb6-fb93cbac6442" d="M140.0063,174.5645l.34-1.34a7.002,7.002,0,0,0,3,.77c1.6,0,2.35-.43,2.35-2,0-1.23-.45-1.64-2.28-2.15-2.18-.58-3.34-1.28-3.34-3.7,0-2.24,1.35-3.47,3.75-3.47a7.2485,7.2485,0,0,1,3.15.61l-.26,1.43a7.53,7.53,0,0,0-2.83-.51c-1.46,0-2.07.45-2.07,1.77s.33,1.56,2.24,2.09c2.12.56,3.45,1.33,3.45,3.7s-1.37,3.65-3.9,3.65A6.8508,6.8508,0,0,1,140.0063,174.5645Z"/>
  <path class="a4dff7d9-0178-4258-acb6-fb93cbac6442" d="M151.4563,175.1645h-1.72v-13.51h1.72v4.87l.88-1a3.9184,3.9184,0,0,1,1.77-.4c1.64,0,2.63.94,2.63,3.13v6.92h-1.72v-7.16c0-1.11-.56-1.49-1.43-1.49a3.59,3.59,0,0,0-2.13.74Z"/>
  <path class="a4dff7d9-0178-4258-acb6-fb93cbac6442" d="M162.9963,174.0345a6.3693,6.3693,0,0,0,2.56-.64l.28,1.28a6.5407,6.5407,0,0,1-2.95.75c-2.67,0-4.06-1.75-4.06-5.17s1.54-5.14,3.87-5.14,3.51,1.77,3.51,4.59v1.07h-5.59C160.6463,173.2245,161.3363,174.0345,162.9963,174.0345Zm1.55-4.5v-.3c0-2.09-.6-2.84-1.83-2.84s-2,.64-2.1,3.14Z"/>
  <path class="a4dff7d9-0178-4258-acb6-fb93cbac6442" d="M168.5163,161.6545h1.72v13.51h-1.72Z"/>
  <path class="a4dff7d9-0178-4258-acb6-fb93cbac6442" d="M173.3063,172.8345v-6.23h-1.15v-1.29h1.27l.82-2.65h.78v2.65h2.12v1.3h-2.12v6.6c0,.66.19.85.88.85h1.39l.1.92a5.391,5.391,0,0,1-2,.4C173.9463,175.3745,173.3063,174.5445,173.3063,172.8345Z"/>
  <path class="a4dff7d9-0178-4258-acb6-fb93cbac6442" d="M182.8363,174.0345a6.3693,6.3693,0,0,0,2.56-.64l.28,1.28a6.5407,6.5407,0,0,1-2.95.75c-2.67,0-4.06-1.75-4.06-5.17s1.54-5.14,3.87-5.14,3.51,1.77,3.51,4.59v1.07h-5.59C180.5063,173.2245,181.1963,174.0345,182.8363,174.0345Zm1.55-4.5v-.3c0-2.09-.6-2.84-1.83-2.84s-2,.64-2.1,3.14Z"/>
  <path class="a4dff7d9-0178-4258-acb6-fb93cbac6442" d="M190.9363,165.4345a2.9292,2.9292,0,0,1,1.36-.32,2.509,2.509,0,0,1,1.23.28l-.32,1.58a3.1787,3.1787,0,0,0-1.37-.26,3.0894,3.0894,0,0,0-1.87.7v7.75h-1.71v-9.85h1l.64,1.34Z"/>
  <path class="a4dff7d9-0178-4258-acb6-fb93cbac6442" d="M198.6363,174.0345a6.36,6.36,0,0,0,2.55-.64l.28,1.28a6.501,6.501,0,0,1-2.95.75c-2.66,0-4.06-1.75-4.06-5.17s1.55-5.14,3.88-5.14,3.5,1.77,3.5,4.59v1.07h-5.59C196.2863,173.2245,196.9763,174.0345,198.6363,174.0345Zm1.54-4.5v-.3c0-2.09-.59-2.84-1.82-2.84s-2,.64-2.11,3.14Z"/>
  <path class="a4dff7d9-0178-4258-acb6-fb93cbac6442" d="M209.2063,161.6545h1.72v13.51h-1.09l-.58-1.17-1,1.11a3.06,3.06,0,0,1-1.31.27c-2.27,0-3.48-1.77-3.48-5.16,0-3.59,1.54-5.1,3.5-5.1a3.31,3.31,0,0,1,2.24.83Zm0,5.57a3.13,3.13,0,0,0-1.92-.7c-1.31,0-2.05.66-2.05,3.37v.72c0,2.63.74,3.57,2.07,3.57a2.81,2.81,0,0,0,1.9-.9Z"/>
  <rect class="ea45de58-df80-4770-bb35-f96c2d2f258e" x="226.82" y="160.1245" width="15.54" height="15.68"/>
  <path class="a4dff7d9-0178-4258-acb6-fb93cbac6442" d="M262.22,162.1445h1.88v12.25h-1.15l-.54-1.21-.74,1a5.7,5.7,0,0,1-2.2.43c-2.37,0-3.6-1.35-3.6-4.83v-7.64h1.87v8.18c0,2.32.57,2.9,2.08,2.9a4.25,4.25,0,0,0,2.39-.68Z"/>
  <path class="a4dff7d9-0178-4258-acb6-fb93cbac6442" d="M269.59,164.7445a3.89,3.89,0,0,1,1.77-.4c1.64,0,2.63.94,2.63,3.13v6.92h-1.72v-7.15c0-1.11-.56-1.49-1.43-1.49a3.5894,3.5894,0,0,0-2.13.74v7.9h-1.72v-9.81h1.05l.63,1.26Z"/>
  <path class="a4dff7d9-0178-4258-acb6-fb93cbac6442" d="M276.06,174.0345l.2-1.28a6.1418,6.1418,0,0,0,2.46.58c1.2,0,1.85-.39,1.85-1.54s-.41-1.21-2.16-1.71c-1.38-.38-2.37-1-2.37-2.84,0-2,1.27-2.9,3.21-2.9a5.77,5.77,0,0,1,2.65.57l-.27,1.26a6.2,6.2,0,0,0-2.27-.44c-1.16,0-1.73.3-1.73,1.41s.54,1.19,2.05,1.59c1.67.45,2.57,1.12,2.57,3s-1.1,2.93-3.32,2.93A6.2309,6.2309,0,0,1,276.06,174.0345Z"/>
  <path class="a4dff7d9-0178-4258-acb6-fb93cbac6442" d="M286,174.3945h-1.72v-13.51H286v4.87l.87-1a3.9985,3.9985,0,0,1,1.77-.4c1.64,0,2.63.94,2.63,3.13v6.92h-1.71v-7.16c0-1.11-.56-1.49-1.44-1.49a3.5393,3.5393,0,0,0-2.12.74Z"/>
  <path class="a4dff7d9-0178-4258-acb6-fb93cbac6442" d="M297.54,173.2645a6.36,6.36,0,0,0,2.55-.64l.28,1.28a6.501,6.501,0,0,1-2.95.75c-2.66,0-4.06-1.75-4.06-5.17s1.55-5.14,3.88-5.14,3.5,1.77,3.5,4.59v1.07h-5.59C295.19,172.4545,295.88,173.2645,297.54,173.2645Zm1.55-4.5v-.3c0-2.09-.6-2.84-1.83-2.84s-2,.64-2.11,3.14Z"/>
  <path class="a4dff7d9-0178-4258-acb6-fb93cbac6442" d="M303.06,160.8845h1.71v13.51h-1.71Z"/>
  <path class="a4dff7d9-0178-4258-acb6-fb93cbac6442" d="M307.85,172.0645v-6.23h-1.16v-1.25h1.27l.82-2.65h.78v2.65h2.13v1.3h-2.13v6.6c0,.66.19.85.88.85h1.4l.09.92a5.2914,5.2914,0,0,1-2,.4C308.48,174.5845,307.85,173.7745,307.85,172.0645Z"/>
  <path class="a4dff7d9-0178-4258-acb6-fb93cbac6442" d="M317.41,173.2645a6.36,6.36,0,0,0,2.55-.64l.28,1.28a6.501,6.501,0,0,1-2.95.75c-2.66,0-4.06-1.75-4.06-5.17s1.55-5.14,3.88-5.14,3.5,1.77,3.5,4.59v1.07h-5.6C315.05,172.4545,315.74,173.2645,317.41,173.2645Zm1.54-4.5v-.3c0-2.09-.59-2.84-1.82-2.84s-2,.64-2.11,3.14Z"/>
  <path class="a4dff7d9-0178-4258-acb6-fb93cbac6442" d="M325.47,164.6645a3,3,0,0,1,1.36-.32,2.4491,2.4491,0,0,1,1.23.28l-.31,1.58a3.23,3.23,0,0,0-1.37-.26,3.09,3.09,0,0,0-1.86.7v7.75H322.8v-9.81h1.05l.63,1.34Z"/>
  <path class="a4dff7d9-0178-4258-acb6-fb93cbac6442" d="M333.17,173.2645a6.3693,6.3693,0,0,0,2.56-.64l.28,1.28a6.54,6.54,0,0,1-3,.75c-2.67,0-4.06-1.75-4.06-5.17s1.54-5.14,3.87-5.14,3.59,1.77,3.59,4.59v1.07h-5.59C330.82,172.4545,331.51,173.2645,333.17,173.2645Zm1.55-4.5v-.3c0-2.09-.6-2.84-1.83-2.84s-2,.64-2.1,3.14Z"/>
  <path class="a4dff7d9-0178-4258-acb6-fb93cbac6442" d="M343.74,160.8845h1.72v13.51h-1.05l-.58-1.17-1,1.11a3.0011,3.0011,0,0,1-1.3.27c-2.28,0-3.49-1.77-3.49-5.16,0-3.59,1.55-5.1,3.51-5.1a3.31,3.31,0,0,1,2.23.83Zm0,5.57a3.13,3.13,0,0,0-1.92-.7c-1.3,0-2.05.66-2.05,3.37v.72c0,2.63.75,3.57,2.07,3.57a2.79,2.79,0,0,0,1.9-.9Z"/>
</svg>
