<svg id="Layer_1" data-name="Layer 1" xmlns="http://www.w3.org/2000/svg" viewBox="0 0 526.47 373.63"><defs><style>.cls-1{fill:#ff6361;}.cls-2{fill:#e2ecf2;}.cls-3{fill:#ffd443;}.cls-4{fill:#efb47f;}.cls-5{fill:#ffcd9c;}.cls-6{fill:#eaeaea;}.cls-7{fill:#282828;}.cls-8{fill:#3d3d3d;}.cls-9{fill:#babeea;}.cls-10{fill:#484c7f;}.cls-11{fill:#ccc;}.cls-12{fill:#bababa;}</style></defs><polygon class="cls-1" points="154.05 183.3 178.9 176.57 203.76 169.84 205.14 178.28 158.6 190.88 154.05 183.3"/><polygon class="cls-1" points="212.94 225.86 198.6 229.74 184.26 233.62 181.41 228.87 212.07 220.56 212.94 225.86"/><polygon class="cls-1" points="211.41 216.52 179.23 225.24 174.53 217.42 209.99 207.81 211.41 216.52"/><polygon class="cls-1" points="205.81 182.32 207.23 191.02 165.47 202.33 160.78 194.51 205.81 182.32"/><polygon class="cls-1" points="209.32 203.77 172.35 213.78 167.66 205.97 207.9 195.07 209.32 203.77"/><polygon class="cls-2" points="158.6 190.88 205.14 178.28 205.81 182.32 160.78 194.51 158.6 190.88"/><polygon class="cls-2" points="207.9 195.07 167.66 205.97 165.47 202.33 207.23 191.02 207.9 195.07"/><polygon class="cls-2" points="209.99 207.81 174.53 217.42 172.35 213.78 209.32 203.77 209.99 207.81"/><polygon class="cls-1" points="212.07 220.56 181.41 228.87 179.23 225.24 211.41 216.52 212.07 220.56"/><polygon class="cls-3" points="152.2 188.05 208.47 172.81 205.74 165.45 149.47 180.69 152.2 188.05"/><path class="cls-4" d="M350,105.61s13.72,27,14.13,33.71S359.22,158,359.22,158l54.91-19.57L379.79,84.14Z"/><path class="cls-5" d="M314.46,79.6c1.46,24.16,22.18,43.56,36.4,39.92,13.6-3.48,43-19.19,41.54-43.35s-20.09-43-41.61-42S313,55.44,314.46,79.6Z"/><path class="cls-6" d="M361.61,140.58l43.64-16.22s14.13,8.2,24.32,27.94c24.9,48.25,17.58,129.81,17.58,129.81l-86.26,3.8s-19.35-80.62-10.95-108S361.61,140.58,361.61,140.58Z"/><path class="cls-5" d="M230.41,316.54s-47.88-11.67-41.34,12.59c4.63,17.16,19.91,26.37,50.34,28S230.41,316.54,230.41,316.54Z"/><path class="cls-7" d="M353.41,273c-2.88.15-80.34-18.55-112-3.61s-17.46,52,8.72,63.8S353.41,273,353.41,273Z"/><path class="cls-8" d="M374.86,280.56s-93.17,3.91-129.12,6.37S204.89,314.4,209,327.78s13.14,33,64.64,34.14,118.83-2.65,118.83-2.65Z"/><path class="cls-2" d="M405.25,124.36c34.74.5,51.41,29.44,68.79,55.56,14.5,21.8,18.41,66,29.42,99.45,12.73,38.7,16.36,57.5-11.93,75.39-27.11,17.13-127.73,11.17-143.7,10.48-38-1.63-33.46-58.33-30-73.42s7.4-19.22,12.43-25.47S305.06,122.93,405.25,124.36Z"/><path class="cls-9" d="M398,198.63s26.47-9.63,44.33-8.12,26.54,12.59,5.83,16.14-31.75,9.48-31.75,9.48S440.58,233,460.19,251s7,25.9-12,11.46-42-26.93-42-26.93,25.05,39.3,42,60.87-13.33,18.68-31.75-3.66a390.43,390.43,0,0,0-34.33-36.83s1.19,52.33-18.45,59.29-49.25-8.26-49.25-8.26,12.85-50.43,15.51-68.67S398,198.63,398,198.63Z"/><path class="cls-10" d="M340.69,169.74c-.79.92-1.86,18.57-3.8,27.41s.55,53.63-2.72,63.89-13.48,20.21-13.48,20.21,7.22-20.22,6.06-40.73,9.08-64.85,9.08-64.85Z"/><path class="cls-5" d="M245.74,214.59s-26.32-7-36.71-11.09-15.61-.08-11.39,2.43a52.51,52.51,0,0,1,9.34,7s-21-.59-33.15.72c-10.94,1.17-1.52,15.09,12.69,23.87,8.55,5.28,48.32.27,48.32.27Z"/><path class="cls-7" d="M358.71,86.68s-9.61,6.7-20.64,13.35c-3.1,1.87-13.68,5.81-13.68,5.81s-6.4,12.72-5.36,33c1,19.71,7.72,29.38,16.8,36.82,20.43-26.33,42-36,38.7-51.32S358.71,86.68,358.71,86.68Z"/><path class="cls-8" d="M345.42,52.23s.21,10.43,2.41,31.91,4.5,51.23-.49,60c11.15-2.69,15.46-19.75,15.46-19.75s5.32,17.64,3.69,26.73c6.95-3.85,19.67-9.89,26-14,13.91-9.06,24.9-9.07,30.11-7.16,6.92,2.54,20,10,20,10s-14.34-26.25-28.47-79.4c-10.64-40-39.46-41.64-68.1-35.84C334.4,27,292,38.46,318.17,58c4.13-6.55,8.49-9.12,14.36-9.7C337.18,51.93,345.42,52.23,345.42,52.23Z"/><path class="cls-7" d="M333.62,93.23c9.14,6.79,4.45,10.29,4.45,10.29s-14.13-2.1-20.68-3.15-.93-10-.93-10S327.69,88.82,333.62,93.23Z"/><path class="cls-10" d="M361.26,281.25s12.24,21.56,30.85,33S415.8,327,415.8,327l-8.86,6.18s-14.64-1.6-37-21.19c-14-12.27-18.85-22.09-18.85-22.09Z"/><path class="cls-10" d="M347.83,365.24s-19.58-7.46-24.38-34.32c-6.27-35.15,1.91-56.6,1.91-56.6l-.23-10.7s-9.76,14.61-11,36.35,2.53,41.43,8.24,51.07A34.3,34.3,0,0,0,339,365.24Z"/><path class="cls-11" d="M339.27,251.77c-14.94,2.5-73.22-12.47-102.53-20.42L241,214.4s11.81-.91,33.26,1.83,49.64,7.5,49.64,7.5,13.59-20.82,24.93-36.52C366.65,162.5,383,142.76,397,145.14c7.85,1.33,13.54,3.83,17.55,7.13C414,164.35,410.84,183,398,199.75,376.91,227.17,359.46,248.38,339.27,251.77Z"/><path class="cls-12" d="M344.91,265.53c-20.52,2.89-35.44-1.91-56.71-8C265,251,234.84,237.83,234.84,237.83l1.9-7.6c29.31,8,87.59,22.92,102.53,20.42,20.19-3.39,37.64-24.6,58.72-52,12.85-16.71,16-35.4,16.54-47.48a21.89,21.89,0,0,1,4.08,4.41l3.9,14.93c-.66,19.76-18.06,43.87-24.46,49.71C387.63,229.72,359.14,263.53,344.91,265.53Z"/><path class="cls-11" d="M97.12,334.94a53.52,53.52,0,0,1-22.6-13.46C64,311,63.69,310,63.69,310s-9.29,6.49-11.46,10.87-3.72,8.25-3.72,8.25l26,13.91Z"/><path class="cls-11" d="M120,306.27a66.38,66.38,0,0,1,9.59,5.14,101.69,101.69,0,0,1,8.36,6.36S123.38,332.55,118.12,336s-11.56,6.69-11.56,6.69L96.29,329.33S112.24,319.39,120,306.27Z"/><path class="cls-2" d="M51.35,348.75c-5.78-8.78-6.61-20.49-6.61-20.49l40.83.84a7.68,7.68,0,0,0-.47,3.61c.83,9.65,16.92,10.82,21.46,10s3-9.14-3.3-13.29l-.36-.22,44.94-.93S147,340,141.23,348.75c-5.27,8-24.09,8.39-44.94,8.39h-.08c.36-4.8-2-10.61-7.69-11.37-7.89-1.06-19-8.28-26.46-5.91-6,1.91-2.89,7.35-5.09,13.33A12.93,12.93,0,0,1,51.35,348.75Zm67.81-5.51c2.48,3.89,9.46,8.09,13.82,3.28,5-5.47,5-16.23,5-16.23s-16.1-.88-20.22,0S116.69,339.36,119.16,343.24Z"/><path class="cls-9" d="M117.71,330.29c4.12-.88,20.22,0,20.22,0s0,10.76-5,16.23c-4.36,4.81-11.34.61-13.82-3.28S113.58,331.17,117.71,330.29Z"/><path class="cls-9" d="M62.06,339.86c7.43-2.37,18.57,4.85,26.46,5.91,5.7.76,8,6.57,7.69,11.37-17.32,0-31.27-.26-39.24-3.95C59.17,347.21,56.08,341.77,62.06,339.86Z"/><path class="cls-9" d="M106.56,342.7c-4.54.83-20.63-.34-21.46-10a7.68,7.68,0,0,1,.47-3.61l10.72.23,6.61-.14.36.22C109.53,333.56,111.1,341.87,106.56,342.7Z"/><path class="cls-10" d="M11.63,326.52H152v1.68c0,3.23-3.06,5.86-6.85,5.86H20.45c-4.87,0-8.82-3.38-8.82-7.54Z"/></svg>