<svg id="Layer_1" data-name="Layer 1" xmlns="http://www.w3.org/2000/svg" viewBox="0 0 608.08 852.5"><defs><style>.cls-1{fill:#e1ebf1;}.cls-15,.cls-16,.cls-2{isolation:isolate;}.cls-2{font-size:21px;font-family:Amplitude-Book, Amplitude;}.cls-3{fill:#fed442;}.cls-4{fill:#f16263;}.cls-5{fill:#484d80;}.cls-6{letter-spacing:-0.02em;}.cls-7{fill:#fff;}.cls-8{letter-spacing:-0.01em;}.cls-9{letter-spacing:-0.02em;}.cls-10{letter-spacing:0em;}.cls-11{letter-spacing:-0.01em;}.cls-12{letter-spacing:-0.05em;}.cls-13{letter-spacing:-0.01em;}.cls-14{letter-spacing:0.01em;}.cls-16{font-size:35px;font-family:Amplitude-Medium, Amplitude;font-weight:500;}.cls-17{letter-spacing:0em;}.cls-18{letter-spacing:0em;}.cls-19{letter-spacing:-0.01em;}.cls-20{letter-spacing:-0.02em;}.cls-21{letter-spacing:0em;}.cls-22{letter-spacing:0em;}</style></defs><g id="Layer_1-2" data-name="Layer 1"><rect class="cls-1" y="87.5" width="608.08" height="255"/><rect class="cls-1" y="597.5" width="608.08" height="255"/><g id="L_OtherR"><text class="cls-2" transform="translate(482.8 831.7)">Other</text><rect class="cls-3" x="458.97" y="817.23" width="14.51" height="14.51"/></g><g id="L_African_American" data-name="L_African American"><text class="cls-2" transform="translate(268.65 831.7)">African American</text><rect class="cls-4" x="244.83" y="817.23" width="14.51" height="14.51"/></g><g id="L_White"><text class="cls-2" transform="translate(95.01 831.7)">White</text><rect class="cls-5" x="71.18" y="817.23" width="14.51" height="14.51"/></g><g id="H_Race"><circle class="cls-4" cx="462.19" cy="710.68" r="89.2"/><path class="cls-3" d="M504.56,660.77a89.16,89.16,0,0,0-28.67,4.71l28.67,84.6Z" transform="translate(-42.37 -39.4)"/><path class="cls-5" d="M553.87,675.53a88.78,88.78,0,0,0-49.31-14.86v89.42Z" transform="translate(-42.37 -39.4)"/><circle class="cls-1" cx="462.13" cy="712.25" r="46.46"/></g><g id="O_Race"><circle class="cls-4" cx="133.89" cy="710.78" r="89.2"/><path class="cls-3" d="M176.26,660.87a88.76,88.76,0,0,0-43.88,11.53l43.88,77.49Z" transform="translate(-42.37 -39.4)"/><path class="cls-5" d="M265.46,750a89.2,89.2,0,0,0-89.2-89.2v89.12l46.89,76A89.16,89.16,0,0,0,265.46,750Z" transform="translate(-42.37 -39.4)"/><circle class="cls-1" cx="133.95" cy="710.48" r="46.46"/></g><g id="L_OtherG"><text class="cls-2" transform="translate(482.8 576.96)">Other</text><rect class="cls-3" x="458.97" y="562.5" width="14.51" height="14.51"/></g><g id="L_Female"><text class="cls-2" transform="translate(268.65 576.96)"><tspan class="cls-6">F</tspan><tspan x="9.93" y="0">emale</tspan></text><rect class="cls-4" x="244.83" y="562.5" width="14.51" height="14.51"/></g><g id="L_Male"><text class="cls-2" transform="translate(95.01 576.96)">Male</text><rect class="cls-5" x="71.18" y="562.5" width="14.51" height="14.51"/></g><g id="H_Gender"><circle class="cls-5" cx="462.19" cy="456.31" r="89.2"/><path class="cls-4" d="M500.09,406.4a89.25,89.25,0,0,0-80.27,117l84.74-28.12Z" transform="translate(-42.37 -39.4)"/><path class="cls-3" d="M504.56,406.4c-1.5,0-3,0-4.48.11l4.48,89Z" transform="translate(-42.37 -39.4)"/><circle class="cls-7" cx="462.04" cy="457.01" r="46.46"/></g><g id="O_Gender"><circle class="cls-4" cx="133.89" cy="456.29" r="89.2"/><path class="cls-5" d="M265.46,495.59a89.2,89.2,0,0,0-89.2-89.2v89.2l7.84,88.86A89.22,89.22,0,0,0,265.46,495.59Z" transform="translate(-42.37 -39.4)"/><circle class="cls-7" cx="134.04" cy="455.61" r="46.46"/></g><g id="L_Over_24" data-name="L_Over 24"><text class="cls-2" transform="translate(482.8 321.23)">O<tspan class="cls-8" x="12.66" y="0">v</tspan><tspan x="21.9" y="0">er </tspan><tspan class="cls-9" x="44.6" y="0">2</tspan><tspan class="cls-10" x="53.97" y="0">4</tspan></text><rect class="cls-3" x="458.97" y="306.76" width="14.51" height="14.51"/></g><g id="L_18-24"><text class="cls-2" transform="translate(268.65 321.23)">1<tspan class="cls-11" x="8" y="0">8</tspan><tspan class="cls-12" x="18.84" y="0">-</tspan><tspan class="cls-9" x="24.51" y="0">2</tspan><tspan x="33.87" y="0">4 </tspan><tspan class="cls-13" x="50.42" y="0">y</tspan><tspan x="59.66" y="0">ea</tspan><tspan class="cls-14" x="79.88" y="0">r</tspan><tspan x="87.8" y="0">s old</tspan></text><rect class="cls-4" x="244.83" y="306.76" width="14.51" height="14.51"/></g><g id="L_Under_18" data-name="L_Under 18"><text class="cls-2" transform="translate(95.01 321.23)">Under 18</text><rect class="cls-5" x="71.18" y="306.76" width="14.51" height="14.51"/></g><g id="H_Age"><circle class="cls-3" cx="462.19" cy="199.74" r="89.2"/><path class="cls-4" d="M591.14,217.49a89.25,89.25,0,0,0-29.34-46.87L504.34,239.2Z" transform="translate(-42.37 -39.4)"/><path class="cls-5" d="M562,170.65a88.84,88.84,0,0,0-57.39-20.92v89.42Z" transform="translate(-42.37 -39.4)"/><circle class="cls-1" cx="462.06" cy="201.37" r="46.46"/></g><g id="O_Age"><circle class="cls-3" cx="133.89" cy="199.83" r="89.2"/><path class="cls-4" d="M260.55,209.87l-84.42,29.2,81.1,37.54a89.41,89.41,0,0,0,3.32-66.74Z" transform="translate(-42.37 -39.4)"/><path class="cls-5" d="M260.62,210a89.24,89.24,0,0,0-84.35-60.13v89.31Z" transform="translate(-42.37 -39.4)"/><circle class="cls-1" cx="133.76" cy="199.83" r="46.46"/></g><g class="cls-15"><text class="cls-16" transform="translate(23.21 29.75)"><tspan class="cls-17">O</tspan><tspan class="cls-11" x="21.63" y="0">v</tspan><tspan class="cls-18" x="37.73" y="0">e</tspan><tspan class="cls-19" x="54.84" y="0">r</tspan><tspan class="cls-18" x="68.14" y="0">all </tspan><tspan class="cls-20" x="112.28" y="0">A</tspan><tspan class="cls-21" x="131.95" y="0">tla</tspan><tspan class="cls-17" x="171.22" y="0">n</tspan><tspan x="189.73" y="0">ta</tspan></text><text class="cls-16" transform="translate(53.94 63.75)"><tspan class="cls-22">P</tspan><tspan x="19.6" y="0">opul</tspan><tspan class="cls-22" x="84.14" y="0">a</tspan><tspan class="cls-21" x="101.57" y="0">tion</tspan></text></g><g class="cls-15"><text class="cls-16" transform="translate(333.49 29.75)"><tspan class="cls-20">A</tspan><tspan x="19.67" y="0">tla</tspan><tspan class="cls-22" x="58.94" y="0">n</tspan><tspan class="cls-21" x="77.45" y="0">ta Homeless</tspan></text><text class="cls-16" transform="translate(382.02 63.75)"><tspan class="cls-22">P</tspan><tspan x="19.6" y="0">opul</tspan><tspan class="cls-22" x="84.14" y="0">a</tspan><tspan class="cls-21" x="101.57" y="0">tion</tspan></text></g></g></svg>