<svg id="Layer_1" data-name="Layer 1" xmlns="http://www.w3.org/2000/svg" viewBox="0 0 770.16 491.87"><defs><style>.cls-1{fill:#ff6361;}.cls-2{fill:#b84746;}.cls-3{fill:#e2bd81;}.cls-4{fill:#3d3d3d;}.cls-5{fill:#e57b7b;}.cls-6{fill:#d36262;}.cls-7{fill:#9b9b9b;}.cls-8{fill:#bababa;}.cls-9{fill:#fff;}.cls-10{fill:#e2ecf2;}.cls-11{fill:#babeea;}.cls-12{fill:#efb47f;}.cls-13{fill:#ffcd9c;}.cls-14{fill:#3f87a0;}.cls-15{fill:#282828;}.cls-16{fill:#5598b5;}.cls-17{fill:#ffe078;}.cls-18{fill:#ffd443;}.cls-19{fill:#ff8482;}.cls-20{fill:#484c7f;}</style></defs><path class="cls-1" d="M219.55,56.56c-9.6,5.7-9.69,41.17-7.85,59.21s1.84,45.67,7.85,58.64-4.51,44.59,0,53.93-.75,30.56,11.24,40.78c9.93,8.45,49.69,7,68.51,4.42,11.8-1.61,32.82-1.29,40.42-11.1,15.74-20.31,7.85-79.88,6.93-103.4s4.67-70.58-13.9-89.48-52.23-13-62.44-13.59S236.07,46.75,219.55,56.56Z"/><path class="cls-2" d="M215.52,159.19c-2.48,1.48-5.91,4.43.81,4.53s74.82-10.35,92.85-10.11,33.39-3.42,37.47-3.42c4.84,0,5.7-5.06-.67-4.71-6.74.37-36.55,1.31-56.58,3.4C273.43,150.55,215.52,159.19,215.52,159.19Z"/><path class="cls-2" d="M210.77,99.11c-2.49,0-4.53,5.1,0,6.09S312.94,127.14,321.2,129s25,3.93,28.24,3.92,6.83-3.41-3.46-5.5-52.82-10.93-61.59-12.67S210.77,99.11,210.77,99.11Z"/><path class="cls-2" d="M347.5,172.68c-7.48,2.73-101.66,48.4-106.92,51.85s-16.27,10-19.15,11.83-3.92,5.52.36,4.21,25.8-15.2,36.57-19.91,44.81-23.06,55.58-27.25,29.31-15.19,33.56-16.76S351.9,171.07,347.5,172.68Z"/><path class="cls-2" d="M330.32,204.42c-2,2.88-12,21.21-17.28,29.33s-26.71,26.72-26.71,26.72,23-2.09,36.48-10.74S330.32,204.42,330.32,204.42Z"/><path class="cls-2" d="M250.85,239.32s14.52,6.48,23.78,6,24.54-12.84,24.54-12.84-12.52,1.05-23.29,2.36S250.85,239.32,250.85,239.32Z"/><rect class="cls-3" x="366.61" y="124.61" width="107.15" height="151.29"/><rect class="cls-4" x="376.78" y="172.31" width="93.13" height="63.28"/><path class="cls-5" d="M253.06,364.93c4.42.84,34.33,2.69,39.28,0s29.36-7.8,39.5-3.87,36.05,7.35,47.69,3.87,17.86-12.7,26.59-19.2a17.16,17.16,0,0,1,8.88-3.57,46.3,46.3,0,0,0-1.26-9.7c-5-21.15-25.2-16-41.12-17.43-10.5-.92-33,5-42.44,4.07s-31.55-3-42.71-4.07-35.22-6.4-43.06,4.12c-5,6.7-6.11,21.65-4.7,34.05C244.51,358.38,250.57,364.45,253.06,364.93Z"/><path class="cls-6" d="M312.7,372.74c11.27,3.3,86,0,86,0A34.54,34.54,0,0,0,415,342.16a17.16,17.16,0,0,0-8.88,3.57c-8.73,6.5-14.95,15.72-26.59,19.2s-37.55.06-47.69-3.87-34.55,1.18-39.5,3.87-34.86.84-39.28,0c-2.49-.48-8.55-6.55-13.35-11.73.81,7.1,2.45,13.38,4.7,16.76C250.6,379.24,301.43,369.43,312.7,372.74Z"/><path class="cls-6" d="M252,345.34s12,7.6,16.83,7.73,23.49,0,23.49,0-10.22-6.94-18.59-7.73S252,345.34,252,345.34Z"/><path class="cls-6" d="M334.76,353.07s21.11,8,32.75,7.2a33.5,33.5,0,0,0,18.78-7.14s-16.45,3.56-23.25,2.8S334.76,353.07,334.76,353.07Z"/><path class="cls-6" d="M338.76,339.55s20.93-7.17,33.86-6,24.56,2.75,24.56,2.75-10.51,6.22-19.15,5.86S338.76,339.55,338.76,339.55Z"/><rect class="cls-7" x="276.32" y="275.89" width="16.86" height="98.31"/><path class="cls-8" d="M482.2,278.92H218L200.52,72.32l3.48.35,307.51,31.89Zm-258.87-6.06h254l27.39-162.93L206.9,79.06Z"/><polygon class="cls-8" points="249.14 276.14 233.91 79.08 239.69 78.59 254.91 275.65 249.14 276.14"/><polygon class="cls-8" points="280.9 276.14 265.97 82.69 271.74 82.2 286.68 275.65 280.9 276.14"/><polygon class="cls-8" points="309.82 276.14 295.04 84.76 300.81 84.27 315.59 275.65 309.82 276.14"/><path class="cls-8" d="M463.1,276.24l-5.75-.7s4.75-42.91,9.58-85.81c2.41-21.45,4.84-42.9,6.69-59C477.06,101,477.06,101,480,101.31l-.26,3,2.79.76C481.69,109.44,468.21,230.11,463.1,276.24Z"/><polygon class="cls-8" points="439.23 276.17 433.46 275.61 448.66 104.04 454.42 104.61 439.23 276.17"/><polygon class="cls-8" points="414.64 276.05 408.85 275.74 417.53 98.29 423.32 98.6 414.64 276.05"/><polygon class="cls-8" points="335.87 276.04 327.29 88.36 333.08 88.06 341.65 275.74 335.87 276.04"/><rect class="cls-8" x="360.15" y="90.75" width="5.79" height="185.14"/><rect class="cls-8" x="388.78" y="94.3" width="5.79" height="181.59"/><path class="cls-7" d="M211.81,393A5.92,5.92,0,0,1,206,387V324.34c0-25.55,0-54.5,31.75-54.5h118a6.06,6.06,0,0,1,0,12.1h-118c-16.41,0-20.18,7.93-20.18,42.4V387A5.93,5.93,0,0,1,211.81,393Z"/><path class="cls-7" d="M453.8,380.26H215.73a6.06,6.06,0,0,1,0-12.11H453.8a6.06,6.06,0,0,1,0,12.11Z"/><path class="cls-7" d="M489.6,223.46H215.73a6.06,6.06,0,0,1,0-12.11H489.6a6.06,6.06,0,0,1,0,12.11Z"/><path class="cls-7" d="M500.33,159.67h-.39L208.18,139.07a6,6,0,0,1-5.39-6.45A5.84,5.84,0,0,1,209,127l291.76,20.58A6,6,0,0,1,506.1,154,5.9,5.9,0,0,1,500.33,159.67Z"/><ellipse class="cls-4" cx="202.27" cy="417.97" rx="33.62" ry="35.18"/><ellipse class="cls-9" cx="202.27" cy="417.97" rx="17.39" ry="18.19"/><path class="cls-4" d="M211,418a8.7,8.7,0,1,1-8.7-9.09A8.91,8.91,0,0,1,211,418Z"/><path class="cls-8" d="M205.67,379.84S195.78,403.5,191,414.38s7.82,25.42,23.33,3.59c14.89-21,24.47-38.13,24.47-38.13Z"/><ellipse class="cls-4" cx="418.47" cy="417.97" rx="33.62" ry="35.18"/><ellipse class="cls-9" cx="418.47" cy="417.97" rx="17.39" ry="18.19"/><path class="cls-4" d="M427.16,418a8.7,8.7,0,1,1-8.69-9.09A8.9,8.9,0,0,1,427.16,418Z"/><path class="cls-8" d="M421.86,379.84s-9.88,23.66-14.7,34.54S415,439.8,430.49,418C445.38,397,455,379.84,455,379.84Z"/><path class="cls-8" d="M203.7,78.72a2.94,2.94,0,0,1-2.84-2.5c-.28-1.62-7.33-39.88-49.48-47.45A3,3,0,0,1,149,25.28a2.93,2.93,0,0,1,3.34-2.48c46.25,8.3,54.13,51.92,54.21,52.36a3,3,0,0,1-2.35,3.51A2.94,2.94,0,0,1,203.7,78.72Z"/><path class="cls-10" d="M170.19,25.75c0,8.89-6.89,16.1-15.39,16.1s-15.38-7.21-15.38-16.1,6.88-16.1,15.38-16.1S170.19,16.86,170.19,25.75Z"/><ellipse class="cls-11" cx="154.8" cy="25.75" rx="10.14" ry="10.61"/><path class="cls-11" d="M276.32,56c0,13.54,24.15,27.37,29.5,48.36S331.88,205,335.8,211.2a75.9,75.9,0,0,1,6.43,13.33l29-13.33c2.25-1-18.61-96.47-18.61-96.47s47.64,42.56,53.46,49c12.35,13.64,24.42,32.59,24.42,32.59s29.68-30.14,52.64-57.74c4.84-5.82,18.6-34.24,18.6-34.24s-27.22-18.54-57.84-28.64-78.89-30.87-96.7-29S297.65,50.74,276.32,56Z"/><path class="cls-10" d="M409.78,75.69s10.33,17.4,15.2,34.69,4.34,39.53,11.37,39.8S441,112.94,441,112.94s16.85,23.52,24.23,23.52c11.19,0,9.79-18.26-10.28-31.26C439,94.83,409.78,75.69,409.78,75.69Z"/><path class="cls-12" d="M629.06,208.4C639.78,195.52,655.14,164,655.14,164l43.13,15.07s-14,20.12-32,55.94C652.57,236.49,641,215.77,629.06,208.4Z"/><path class="cls-13" d="M706.47,149.14c-11.63,29.42-45,42.93-57.67,37.43-12.15-5.25-27.19-39.69-15.56-69.11S670.69,71.27,690.91,80,718.1,119.71,706.47,149.14Z"/><path class="cls-14" d="M248.09,381.72s-25.61-2.25-36.25-5.35-31-13.05-36.9-9.95,2.51,8.7,6.66,11.81,3,16.15,7.72,19.87,16.12,5.28,19.53,7.69c11,7.76,11,17.38,20.84,18.63,5,.62,35-9.54,35-9.54Z"/><path class="cls-15" d="M591,418.56s4.63,14.28-58.3,9.31c-16.54-1.3-89.06-18-105.71-21.74C387.41,413,352,416.84,318.73,421c-12.89,1.62-73.2,4.29-73.2,4.29s-12.47-31-2.05-56c16-4.69,59-14.38,82.59-19.7s104.68-16.75,109.43-14.9S591,418.56,591,418.56Z"/><path class="cls-16" d="M298,399.8s-27.07,8.46-40.95,6.28-31.48-7.75-38.6-5.89-2.38,8.7,3,10.56,8.31,8.08,13.06,13.67,19.59,7.45,26.71,13,19.59,19.36,29.09,14.65,30.28-23.19,30.28-23.19Z"/><path class="cls-4" d="M540.87,316.69S476,292.14,459.4,286c-25.45-9.39-42.86,6.83-100.58,48.69-22.2,16.1-81.28,61.5-81.28,61.5s-2.06,17.55,7.76,29.08c11.32,13.29,29,21,29,21S409.84,382.76,420.59,374l10.75-8.81s78,61.82,127.17,64.45S540.87,316.69,540.87,316.69Z"/><path class="cls-4" d="M659.77,138.23S652.89,158.8,647.33,164s-13.5,2.19-13.5,2.19-11.4,14-15.93,23.8c-5.79,12.58-2.12,34-2.12,34s44-20.83,50.82-28,1.24-47.4,0-51.62S659.77,138.23,659.77,138.23Z"/><path class="cls-4" d="M643.64,104.47s-1.87,24,6.2,32.46S677.6,157.71,678,168.1s2.88,16.23,2.88,16.23,6.2-4.54,6.2-6.49-2.11-12-9.08-21.51c-4.24-5.76-2.71-14.85-2.71-14.85s4.79,8.74,7.94,12.56c3.39,4.11,4.11,7.61,7.65,14,8.07,14.49,35.3,9.82,37.78,7.87s-23.16-26.1-22.34-35.06S643.64,104.47,643.64,104.47Z"/><path class="cls-17" d="M505.14,390.41c16.63-4.81,22.56,24.69,33,33.52s12.14-16.28,24.59-20.73,26.73,30.53,75.83,25.76,63.7-31.25,82.42-77.1-2.1-119.37-8.86-152.33c-3.79-18.49-16.61-29.9-27.13-36.35-25.77,10.28-51.65,28.93-65.49,37.62a169.8,169.8,0,0,0-51.41,49.74c-13,17.84-1.13,32.55-1.13,32.55a260.76,260.76,0,0,0-29.63-9.28c-11.58-2.68-18,13.31-25.83,11.2s-15.56-7.56-22.92-1.92c-5.7,4.38-23,62-22.19,104.53C479.72,392.77,493.67,393.73,505.14,390.41Z"/><path class="cls-18" d="M608.2,451.05c54.08,0,117-34.76,132.75-76.43s10.37-161.37,6.81-186.22c-1.58-11-11.4-34.78-37.21-32.08-8.2.86-16.88,3.39-25.58,6.86,10.52,6.45,23.34,17.86,27.13,36.35,6.76,33,27.58,106.48,8.86,152.33s-33.32,72.33-82.42,77.1-63.39-30.21-75.83-25.76-14.17,29.57-24.59,20.73-16.35-38.33-33-33.52c-11.47,3.32-25.42,2.36-38.77-2.79.22,12.33,1.95,23.41,5.93,31.56C492.78,461.1,582.76,451.05,608.2,451.05Z"/><path class="cls-1" d="M647.33,93S664.6,74,683,65.52c14.67-6.77,36.25-2.74,44.06-1.63,17.62,2.53,8.91,19.86,5.74,25.52-6.07,10.84-25.71,42.46-25.71,42.46S666.88,137.82,647.33,93Z"/><path class="cls-19" d="M650.18,84.56c-2.08-1.09-5.39.72-5.92,4.33-.42,2.83-1,6.08-3.42,7.79-5.58,3.9-5.81,9-5.81,9s16.5,23.7,44.91,34.83,27.18,9.18,34.75,3.87c2.53-1.78,0-5.57,1.86-9.09,2.07-3.82,5.28-9,4.19-11-2.1-3.9-18.46,1.24-35.22-7.35S650.18,84.56,650.18,84.56Z"/><path class="cls-18" d="M575.73,302.29s2.89,33.45,33.23,62.57,45.9,35.65,47,25.55-26.93-33.7-26.93-33.7S660.87,368,678,364.86s29.38-13.25,20.28-16.29S610.69,347.24,575.73,302.29Z"/><path class="cls-18" d="M530.86,298.33c.83-2.73-6.63,42.4,0,66.53,8.19,29.81,21.78-.46,15.84-13S530.86,298.33,530.86,298.33Z"/><path class="cls-4" d="M82.63,430.47C73,433.93,61.2,435,47.93,420a144.44,144.44,0,0,0-14.71-14.5,15.45,15.45,0,0,0-8.71,3.7c-9.37,8.42-6.24,33,0,44.44s36.88,16.29,86.6,13c9.63-.64,18.7-1.14,27.11-1.55-3.95-5-7.83-10.72-10-16.13C121.85,432.6,99.46,424.46,82.63,430.47Z"/><path class="cls-15" d="M196.26,463.47s13.31-47.86-13-62.91S114,397.29,67.55,405.69c-12.88,2.33-25.06-1.46-34.33-.24A144.44,144.44,0,0,1,47.93,420c13.27,15.09,25,14,34.7,10.52,16.83-6,39.22,2.13,45.63,18.43,2.13,5.41,6,11.14,10,16.13C173.21,463.35,196.26,463.47,196.26,463.47Z"/><path class="cls-12" d="M146,404.22c-3.64-2-47.06-16-53.6-5.47-11.51,18.47,24.28,12.64,35.83,19.75S146,404.22,146,404.22Z"/><path class="cls-12" d="M133.8,395.4s31.69,3.57,33.81,11c1.49,5.17,8.6,16.29,12.63,23.22,4.6,7.9,32.67-41.24,32.67-41.24s-39.7-37-38.14-32.65-18.19,7.74-31.6,7.42C134.59,362.93,133.8,395.4,133.8,395.4Z"/><path class="cls-15" d="M656.07,465c2.34-1.34,33.57-.5,51.52,2.57s38.25,3.78,40.6-12.29S741.94,433.05,738,431.6s-66.36-5.33-73.38-7.24S656.07,465,656.07,465Z"/><path class="cls-4" d="M672.46,430.47s20.3,12,37.47,18.43,32.79,2.22,32.79-16.3-1.56-18.25-19.52-24.33S677.93,397,677.93,397Z"/><path class="cls-10" d="M378.93,453.59s110.86,22.57,135.84,21.93,152-7.92,152-7.92,2.6-32.25-2.08-43.24-271.79-36-271.79-36Z"/><path class="cls-11" d="M603.76,404.22c-8.58,4.12,11.71,17.54,0,26.25s-35.91-24.08-51.52-35.6-35.91-6.65-39,0-9.37,28.29-16.4,9.35-35.91-37.66-53.08-50.34S386.52,346,386.51,346a70,70,0,0,0-7.58,4.71l15.62,62.73s69.66,32.5,95.24,35.19c14.07,1.48,40.49-4.15,56.2-3,36.7,2.64,50,1.67,60.9,0,23.42-3.58,77-3.58,77-3.58l4.26-34.31c-18.75-4.49-45.17-10.9-51.55-12.87C626.4,391.75,612.35,400.1,603.76,404.22Z"/><path class="cls-10" d="M635,382c-7.81-2-15.61.62-26.54,6.36s-22.64-3.68-46.06-7.92S500.72,382,500.72,382s-31.23-34.32-61.9-43.75c-21.18-6.51-41.66,1.92-52.31,7.76,0,0,40.05-4.81,57.22,7.86s46.06,31.4,53.08,50.34,13.27-2.69,16.4-9.35,23.42-11.51,39,0,39.81,44.31,51.52,35.6-8.58-22.13,0-26.25,22.64-12.47,32.79-9.35c6.38,2,32.8,8.38,51.55,12.87l1.54-12.34S642.8,384,635,382Z"/><path class="cls-13" d="M114.19,350.73c25.76,0,46.64,13.85,46.64,30.93S140,411.05,114.25,411.05s-46.7-12.31-46.7-29.39S88.43,350.73,114.19,350.73Z"/><path class="cls-1" d="M168.15,363.46s19,20.1,1.57,41.07c-11.84,14.19-8.89,19.3-8.89,19.3s72.9,21.06,86.95,29.76c9.09,5.63,49.28,4.28,77.29,5.26,15.28.54,29.78,2.25,34.74,2.4,14.05.4,33.22-2.4,33.22-2.4s23.37-10.61,14-49.7-7.41-45.69-7.41-45.69Z"/><path class="cls-6" d="M234.25,400.38s28,29.88,44.37,31.57,26.15-1.8,33.57,7.63,14.83,5.94,14.05,0,4.29-14.32,12.49-4.19,19.91,15,20.3,3.84,3.9-16.9,6.24-19.28S234.25,400.38,234.25,400.38Z"/><path class="cls-6" d="M375,412.7s3.4,11.76-3.12,26.88c-4.23,9.81,1.56,15.31,9.36,6.47s5.59-24.92,1.68-29.12S375,412.7,375,412.7Z"/><path class="cls-10" d="M162.7,358.86s13,22.66,25.5,29.5,56.21,30.54,85.87,35.46,114.76,8.12,114.76,8.12.78-40.94,7-61.9,11.2-32.56,11.2-32.56-12.64-5.65-22.9-1.84c-7,2.61-10.55-2.11-20.31.25-17.28,4.17-31.87,15.61-44.5,14.83-26.54-1.65-53.6-1.8-65.83-7.31s-61.15-28.81-61.15-28.81S174.56,324.73,173,338.25C171.55,350.72,162.7,358.86,162.7,358.86Z"/><path class="cls-1" d="M125.52,350.79s-6.65-.31-11.36-4.18c-5-4.16-11.84-3.23-14.92-2.2-3.64,1.2-8.37,4-19.26,4.33-5.31.17-17.64,6.3-20.34,11.18-6.31,11.41-21.63,18.81-25,28.47A14.41,14.41,0,0,0,34,396c6.39.18,15.31-.05,20.52-2.21,13-5.39,25.1-25.11,25.1-25.11s-1.82,11.89-2.43,17.47c-.87,7.92,1.81,16.29,3.71,21l5.25-.24c2.79-.11,13.54,4.14,13.54,4.14a61.22,61.22,0,0,1-2.59-31.64C100.63,360.62,125.52,350.79,125.52,350.79Z"/><path class="cls-1" d="M77.21,386.12c.61-5.58,2.43-17.47,2.43-17.47s-12.09,19.72-25.1,25.11C49.33,395.92,40.41,396.15,34,396c1.32,6.8,8,11.49,16.64,12.17,5.93.46,18.6-.41,30.26-1C79,402.41,76.34,394,77.21,386.12Z"/><path class="cls-13" d="M209.27,408.27s-26.67-2.46-39.55-3.74-15.5,1.87-15.5,1.87,14.18,17.77,22.9,18,32.15,0,32.15,0l9.37-9.47Z"/><path class="cls-11" d="M234.25,414.75c6.38-.72,14.7-7,16.25-10.53s18.36-12.16,26.56-15.85,23.42-17.62,25-24.06,3.51-13.48-2.73-22.21c-3.14-4.39-9.52-11.77-15.25-18-16.95-8.68-40.61-18.45-58.66-19.71-28.1-2-39.3,16.11-39.3,16.11,12.8,18.37,65.86,36.6,73.13,41.58-7.53,6.6-14.57,11-27.06,18.49-4.66,2.8-15.4,7.7-19.26,14.86a19.58,19.58,0,0,1-12,9.44,22.22,22.22,0,0,0,6.93,11.67C217.84,414,229.33,415.31,234.25,414.75Z"/><path class="cls-20" d="M227,424.36c4.6.51,9.66-4.67,17.9-5.41,15.41-1.38,19.87-12.11,31-19.63,10.51-7.09,28.12-17.26,31.9-22,10.93-13.78,8.93-31.14-3.8-41.38-3.1-2.5-10.49-7-19.93-11.84,5.73,6.26,12.11,13.64,15.25,18,6.24,8.73,4.29,15.76,2.73,22.21s-16.79,20.37-25,24.06-25,12.28-26.56,15.85-9.87,9.81-16.25,10.53c-4.92.56-16.41-.8-26.37,1.76C211.76,420.08,217.72,423.34,227,424.36Z"/><path class="cls-6" d="M104.92,350.73c-7.8,5.54-16.51,12.69-20.42,29.81s-1.44,28.82,4.81,32.92,16.13-2.91,16.13-2.91S94,394.16,99.07,379.13s29.19-27,29.19-27S120.53,339.65,104.92,350.73Z"/><path class="cls-13" d="M119.36,358.87c-5.83,0-9.7-11.25,5.91-9.85s15.17,8.36,15.17,8.36Z"/><path class="cls-11" d="M133,418.77c6.64,1.25,3.52,6.25,12.89,13.18s34.34,26.5,57,26.85,40.21-1.05,54.65-5.94a59.21,59.21,0,0,1,7-1.89c1.22-6.07-1.5-12.94-12.61-19-20.3-11.1-44.38-12.11-74.73-19.24-10.13-2.38-17-6.61-20.4-9.47-6.24-5.2-12.19-1.89-14.44-1a60.36,60.36,0,0,0-16.87,10.38l-.14.12C127.32,415.45,129.93,418.18,133,418.77Z"/><path class="cls-11" d="M128.26,424.36c3.12,5.15,13.74,14.36,20,19.07s14.75,12.65,29,19.85c5.53,2.8,22.39,8.37,35.68,8.1,10.94-.23,33.74-.77,43.07-7.91,3.92-3,7.59-7.48,8.59-12.5a59.21,59.21,0,0,0-7,1.89c-14.44,4.89-32,6.29-54.65,5.94s-47.62-19.92-57-26.85S139.66,420,133,418.77c-3.09-.59-5.7-3.32-7.64-6.07C117.14,419.83,125.54,419.86,128.26,424.36Z"/><path class="cls-11" d="M174.8,338.26s-13,4-14,7.89-3.61,7.4-5.69,7.73,0,8.73,0,8.73,5.73-.95,13,6,17.95,23.63,37.59,31.73c20.08,8.29,28.51,7.89,28.51,7.89s-38-25.17-43-39.62S174.8,338.26,174.8,338.26Z"/><path class="cls-20" d="M400.65,335s-8.06,18.91-11.57,30.79-7.21,54.25-7.21,66.13c6.25,1.09,3.4.6,8.77,0,.26-6.95,3-50.89,9-68.49s10.92-26.89,10.92-26.89Z"/><path class="cls-20" d="M348.1,348.9a142.09,142.09,0,0,1-9.37,19.75c-5.86,10.14-15.61,21.67-15.61,21.67s30.83,10.15,44.1-9.43,11.71-32,11.71-32-9.07,1.45-13.63,0C356.68,346.15,348.1,348.9,348.1,348.9Z"/></svg>