<svg id="Layer_1" data-name="Layer 1" xmlns="http://www.w3.org/2000/svg" viewBox="0 0 282.61 121.89"><defs><style>.cls-1{fill:#484d80;}.cls-2{fill:#bbbddf;}</style></defs><path class="cls-1" d="M22.59,76.44H12c3.92-11.56,7.76-22.88,11.6-34.22-2-.84-2.09.55-2.4,1.41-2,5.6-3.94,11.21-5.93,16.82-.26.76-.48,1.89-1.1,2.12-1.46.56-3.5,1.27-4.64.79S7.73,60.8,8.06,59.69c2.13-7,4.43-14,7-20.9,2-5.35,7.2-7.6,13.27-8a50,50,0,0,1,12.46.83,11.51,11.51,0,0,1,9.11,7.65c2.31,6.6,4.52,13.21,6.76,19.82.71,2.1,0,4-1.68,4.53a4.26,4.26,0,0,1-5.22-2.74c-2.05-5.74-4-11.5-6.15-17.23-.27-.73-1.09-1.32-1.66-2l-.8.38c0,1.3,0,2.61,0,3.91.33,19,.62,38.06,1,57.08,0,2.14-1.26,3.13-3.19,3.73a3.89,3.89,0,0,1-4.48-1.38,4.54,4.54,0,0,1-.66-2.47c-.16-7.94-.25-15.87-.36-23.81,0-.37.11-.78-.05-1.09a7.66,7.66,0,0,0-1-1.24c-.39.44-1.11.87-1.12,1.32-.12,4.19-.11,8.38-.16,12.56s-.14,8.38-.23,12.57a3.68,3.68,0,0,1-4,3.69c-2.5,0-4.33-1.57-4.33-3.75q0-12.24,0-24.47Z"/><path class="cls-1" d="M42.15,20.6c0,4.7-4.28,8.42-9.76,8.41s-9.86-3.82-9.78-8.43,4.43-8.16,9.81-8.17S42.12,16,42.15,20.6Z"/><path class="cls-2" d="M76.61,76.44H66c3.92-11.56,7.75-22.88,11.6-34.22-2-.84-2.09.55-2.4,1.41-2,5.6-3.94,11.21-5.93,16.82-.26.76-.48,1.89-1.1,2.12-1.46.56-3.5,1.27-4.64.79s-1.8-2.56-1.46-3.67c2.13-7,4.43-14,7-20.9,2-5.35,7.2-7.6,13.27-8a50,50,0,0,1,12.46.83,11.51,11.51,0,0,1,9.11,7.65c2.31,6.6,4.52,13.21,6.76,19.82.71,2.1,0,4-1.68,4.53a4.26,4.26,0,0,1-5.22-2.74c-2-5.74-4-11.5-6.15-17.23-.27-.73-1.09-1.32-1.66-2l-.8.38c0,1.3,0,2.61,0,3.91.33,19,.62,38.06,1,57.08,0,2.14-1.26,3.13-3.19,3.73a3.89,3.89,0,0,1-4.48-1.38A4.54,4.54,0,0,1,87.9,103c-.16-7.94-.25-15.87-.36-23.81,0-.37.11-.78-.05-1.09a7.66,7.66,0,0,0-1-1.24c-.39.44-1.11.87-1.12,1.32-.12,4.19-.11,8.38-.16,12.56s-.14,8.38-.23,12.57A3.68,3.68,0,0,1,81,107c-2.5,0-4.33-1.57-4.34-3.75q0-12.24,0-24.47Z"/><path class="cls-2" d="M96.17,20.6c0,4.7-4.28,8.42-9.76,8.41s-9.86-3.82-9.78-8.43,4.43-8.16,9.81-8.17S96.14,16,96.17,20.6Z"/><path class="cls-2" d="M133.8,76.44H123.2c3.92-11.56,7.75-22.88,11.6-34.22-2-.84-2.09.55-2.4,1.41-2,5.6-3.94,11.21-5.93,16.82-.27.76-.48,1.89-1.1,2.12-1.46.56-3.5,1.27-4.64.79s-1.8-2.56-1.46-3.67c2.13-7,4.43-14,7-20.9,2-5.35,7.2-7.6,13.26-8a50,50,0,0,1,12.47.83,11.51,11.51,0,0,1,9.11,7.65c2.31,6.6,4.52,13.21,6.76,19.82.71,2.1,0,4-1.68,4.53A4.28,4.28,0,0,1,161,60.92c-2-5.74-4-11.5-6.14-17.23-.27-.73-1.1-1.32-1.66-2l-.8.38c0,1.3,0,2.61,0,3.91.33,19,.62,38.06,1,57.08,0,2.14-1.26,3.13-3.19,3.73a3.89,3.89,0,0,1-4.48-1.38,4.45,4.45,0,0,1-.66-2.47c-.16-7.94-.25-15.87-.36-23.81a2.81,2.81,0,0,0,0-1.09,7.66,7.66,0,0,0-1-1.24c-.39.44-1.11.87-1.12,1.32-.12,4.19-.11,8.38-.16,12.56s-.14,8.38-.23,12.57a3.69,3.69,0,0,1-4,3.69c-2.5,0-4.32-1.57-4.33-3.75q0-12.24,0-24.47Z"/><path class="cls-2" d="M153.36,20.6c0,4.7-4.28,8.42-9.76,8.41s-9.86-3.82-9.79-8.43,4.44-8.16,9.82-8.17S153.33,16,153.36,20.6Z"/><path class="cls-2" d="M188.84,76.44h-10.6c3.92-11.56,7.76-22.88,11.6-34.22-2-.84-2.09.55-2.4,1.41-2,5.6-3.94,11.21-5.92,16.82-.27.76-.49,1.89-1.11,2.12-1.46.56-3.5,1.27-4.64.79s-1.79-2.56-1.46-3.67c2.14-7,4.43-14,7-20.9,2-5.35,7.2-7.6,13.27-8a50,50,0,0,1,12.46.83,11.51,11.51,0,0,1,9.11,7.65c2.31,6.6,4.52,13.21,6.76,19.82.71,2.1,0,4-1.68,4.53A4.26,4.26,0,0,1,216,60.92c-2.05-5.74-4-11.5-6.15-17.23-.27-.73-1.09-1.32-1.66-2l-.8.38c0,1.3,0,2.61,0,3.91.33,19,.63,38.06,1,57.08,0,2.14-1.26,3.13-3.19,3.73a3.9,3.9,0,0,1-4.48-1.38,4.54,4.54,0,0,1-.66-2.47c-.15-7.94-.25-15.87-.36-23.81,0-.37.11-.78-.05-1.09a7.66,7.66,0,0,0-1-1.24c-.39.44-1.1.87-1.12,1.32-.12,4.19-.1,8.38-.16,12.56s-.14,8.38-.23,12.57a3.68,3.68,0,0,1-4,3.69c-2.5,0-4.33-1.57-4.33-3.75q0-12.24,0-24.47Z"/><path class="cls-2" d="M208.4,20.6c0,4.7-4.28,8.42-9.75,8.41s-9.86-3.82-9.79-8.43,4.43-8.16,9.82-8.17S208.38,16,208.4,20.6Z"/><path class="cls-2" d="M243,76.44h-10.6c3.92-11.56,7.75-22.88,11.6-34.22-2-.84-2.09.55-2.4,1.41-2,5.6-3.94,11.21-5.93,16.82-.27.76-.49,1.89-1.1,2.12-1.46.56-3.5,1.27-4.64.79s-1.8-2.56-1.46-3.67c2.13-7,4.43-14,7-20.9,2-5.35,7.2-7.6,13.26-8a50.08,50.08,0,0,1,12.47.83,11.51,11.51,0,0,1,9.11,7.65c2.3,6.6,4.52,13.21,6.76,19.82.71,2.1,0,4-1.68,4.53a4.28,4.28,0,0,1-5.23-2.74c-2-5.74-4-11.5-6.14-17.23-.27-.73-1.1-1.32-1.67-2l-.79.38c0,1.3,0,2.61,0,3.91.33,19,.62,38.06,1,57.08,0,2.14-1.26,3.13-3.19,3.73a3.89,3.89,0,0,1-4.48-1.38,4.45,4.45,0,0,1-.66-2.47c-.16-7.94-.25-15.87-.37-23.81a2.63,2.63,0,0,0,0-1.09,7.66,7.66,0,0,0-1-1.24c-.39.44-1.11.87-1.12,1.32-.12,4.19-.11,8.38-.16,12.56s-.14,8.38-.23,12.57a3.69,3.69,0,0,1-4,3.69c-2.5,0-4.32-1.57-4.33-3.75q0-12.24,0-24.47Z"/><path class="cls-2" d="M262.59,20.6c0,4.7-4.28,8.42-9.76,8.41S243,25.19,243,20.58s4.44-8.16,9.82-8.17S262.56,16,262.59,20.6Z"/></svg>