<svg id="b8d49125-cb07-4b5f-9420-707e02f9b4dc" data-name="Layer 1" xmlns="http://www.w3.org/2000/svg" width="204.9" height="246.2" viewBox="0 0 204.9 246.2">
  <defs>
    <style>
      .fed58d8a-7759-484b-b7f3-4e70556b8909 {
        fill: #f16363;
      }

      .a2312e5d-d900-409a-855e-a3ebdb23a79e {
        fill: #bbbddf;
      }

      .b4acb64b-41cb-4d69-bda8-3ad7e58a88f1 {
        fill: #484d80;
      }

      .e5ae4335-c1df-427d-9f74-1d9e1c51c289 {
        fill: none;
        stroke: #d1d3d4;
        stroke-miterlimit: 10;
        stroke-width: 3px;
      }

      .f7226e0f-624f-46e5-b7ad-2735339fb594 {
        isolation: isolate;
      }

      .b6cb1999-dda6-4e68-adc6-2afa930a2a30 {
        fill: #231f20;
      }
    </style>
  </defs>
  <path class="fed58d8a-7759-484b-b7f3-4e70556b8909" d="M31.2,7.6H50.4A11.1816,11.1816,0,0,1,61.6,18.8V61.9A11.1816,11.1816,0,0,1,50.4,73.1H31.2A11.2672,11.2672,0,0,1,20,61.8v-43A11.1816,11.1816,0,0,1,31.2,7.6Z"/>
  <path class="a2312e5d-d900-409a-855e-a3ebdb23a79e" d="M20.1,41.4H61.5a.0979.0979,0,0,1,.1.1v9.7a.0979.0979,0,0,1-.1.1H20.1a.0979.0979,0,0,1-.1-.1V41.5A.0979.0979,0,0,1,20.1,41.4Z"/>
  <path class="b4acb64b-41cb-4d69-bda8-3ad7e58a88f1" d="M20.1,51.4H61.5a.0979.0979,0,0,1,.1.1V166.1a.0979.0979,0,0,1-.1.1H20.1a.0979.0979,0,0,1-.1-.1V51.6C20,51.5,20,51.4,20.1,51.4Z"/>
  <path class="fed58d8a-7759-484b-b7f3-4e70556b8909" d="M75.3,20.9H94.5a11.1816,11.1816,0,0,1,11.2,11.2V65.8A11.1816,11.1816,0,0,1,94.5,77H75.3A11.1816,11.1816,0,0,1,64.1,65.8V32.2A11.2672,11.2672,0,0,1,75.3,20.9Z"/>
  <path class="b4acb64b-41cb-4d69-bda8-3ad7e58a88f1" d="M64.2,57.8h41.4a.0979.0979,0,0,1,.1.1V166.1a.0979.0979,0,0,1-.1.1H64.2a.0979.0979,0,0,1-.1-.1V58A.3491.3491,0,0,1,64.2,57.8Z"/>
  <path class="fed58d8a-7759-484b-b7f3-4e70556b8909" d="M119.2,15h19.2a11.1816,11.1816,0,0,1,11.2,11.2v76.2a11.1816,11.1816,0,0,1-11.2,11.2H119.2A11.1816,11.1816,0,0,1,108,102.4V26.3A11.2672,11.2672,0,0,1,119.2,15Z"/>
  <path class="a2312e5d-d900-409a-855e-a3ebdb23a79e" d="M108.2,93.9h41.4a.0979.0979,0,0,1,.1.1v9.7a.0979.0979,0,0,1-.1.1H108.2a.0979.0979,0,0,1-.1-.1V94C108,93.9,108.1,93.9,108.2,93.9Z"/>
  <path class="b4acb64b-41cb-4d69-bda8-3ad7e58a88f1" d="M108.2,103.1h41.4a.0979.0979,0,0,1,.1.1v62.9a.0979.0979,0,0,1-.1.1H108.2a.0979.0979,0,0,1-.1-.1V103.2C108,103.2,108.1,103.1,108.2,103.1Z"/>
  <path class="fed58d8a-7759-484b-b7f3-4e70556b8909" d="M183.2,104.9H164a11.1816,11.1816,0,0,1-11.2-11.2V17.5A11.1816,11.1816,0,0,1,164,6.3h19.2a11.1816,11.1816,0,0,1,11.2,11.2V93.7A11.1816,11.1816,0,0,1,183.2,104.9Z"/>
  <path class="b4acb64b-41cb-4d69-bda8-3ad7e58a88f1" d="M152.9,50.8h41.4a.0979.0979,0,0,1,.1.1V165.6a.0979.0979,0,0,1-.1.1H152.9a.0979.0979,0,0,1-.1-.1V51C152.7,50.9,152.8,50.8,152.9,50.8Z"/>
  <polyline class="e5ae4335-c1df-427d-9f74-1d9e1c51c289" points="18.2 7.4 18.2 166.3 194.3 165.8"/>
  <g class="f7226e0f-624f-46e5-b7ad-2735339fb594">
    <path class="b6cb1999-dda6-4e68-adc6-2afa930a2a30" d="M4.4336,10.1064l.0605-.1787a3.8568,3.8568,0,0,1,1.5835-1.83c.6856-.5176,1.0186-.7852,1.0186-1.3033v-.125c0-.6157-.313-.7851-.9282-.7851a4.0676,4.0676,0,0,0-1.4624.3213L4.5142,5.42A3.8533,3.8533,0,0,1,6.4,4.9917c1.4219,0,2.0371.687,2.0371,1.66,0,1.0175-.7764,1.5-1.6543,2.1064-.5547.3838-1.0186.6606-1.2,1.2856l-.04.1338,1.21-.1338H8.3467V10.91H4.4336Z"/>
    <path class="b6cb1999-dda6-4e68-adc6-2afa930a2a30" d="M9.1909,10.5972l.2017-.7945a3.5639,3.5639,0,0,0,1.4824.3662c.7871,0,1.19-.2587,1.19-.9819V9.0527c0-.7944-.2925-1.0439-.8574-1.0439a.8762.8762,0,0,0-.8472.3838l-.8374-.1074.1514-3.1866H13.064v.8926H10.5928l-.05.9551-.1514.7768a1.7486,1.7486,0,0,1,1.2305-.4287,1.6781,1.6781,0,0,1,1.7851,1.8208,1.9936,1.9936,0,0,1-2.2592,1.92A3.7175,3.7175,0,0,1,9.1909,10.5972Z"/>
  </g>
  <g class="f7226e0f-624f-46e5-b7ad-2735339fb594">
    <path class="b6cb1999-dda6-4e68-adc6-2afa930a2a30" d="M4.4336,40.0068l.0605-.1787a3.8571,3.8571,0,0,1,1.5835-1.83c.6856-.5175,1.0186-.7851,1.0186-1.3032V36.57c0-.6157-.313-.7851-.9282-.7851a4.0676,4.0676,0,0,0-1.4624.3213L4.5142,35.32A3.8533,3.8533,0,0,1,6.4,34.8921c1.4219,0,2.0371.687,2.0371,1.66,0,1.0176-.7764,1.5-1.6543,2.1065-.5547.3838-1.0186.6606-1.2,1.2856l-.04.1338,1.21-.1338H8.3467V40.81H4.4336Z"/>
    <path class="b6cb1999-dda6-4e68-adc6-2afa930a2a30" d="M9.3623,37.8911c0-1.7319.8066-2.999,2.5215-2.999,1.7349,0,2.5215,1.2407,2.5215,2.9809,0,1.857-.7969,3.0621-2.5415,3.0621C10.1289,40.9351,9.3623,39.7031,9.3623,37.8911Zm3.7217.1431v-.3931c0-1.4551-.333-1.8921-1.21-1.8921s-1.2.4551-1.2,1.91v.3838c0,1.6157.3633,2.08,1.2105,2.08S13.084,39.6494,13.084,38.0342Z"/>
  </g>
  <g class="f7226e0f-624f-46e5-b7ad-2735339fb594">
    <path class="b6cb1999-dda6-4e68-adc6-2afa930a2a30" d="M4.5342,71.125h.958V67.2686h-.958v-.482l1.5635-.7676h.6455v5.106h.9179V71.83H4.5342Z"/>
    <path class="b6cb1999-dda6-4e68-adc6-2afa930a2a30" d="M8.314,71.5176l.2016-.7945a3.5648,3.5648,0,0,0,1.4824.3663c.7872,0,1.1905-.2593,1.1905-.982v-.1338c0-.7949-.2925-1.0444-.8574-1.0444a.8762.8762,0,0,0-.8472.3838l-.8374-.1074.1514-3.1866H12.187v.8926H9.7158l-.05.9551-.1513.7769a1.7479,1.7479,0,0,1,1.23-.4288A1.6782,1.6782,0,0,1,12.53,70.0356a1.9936,1.9936,0,0,1-2.2593,1.9195A3.7171,3.7171,0,0,1,8.314,71.5176Z"/>
  </g>
  <g class="f7226e0f-624f-46e5-b7ad-2735339fb594">
    <path class="b6cb1999-dda6-4e68-adc6-2afa930a2a30" d="M4.5435,102.1948h.958V98.3384h-.958v-.482l1.5634-.7675h.6455v5.1059H7.67V102.9H4.5435Z"/>
    <path class="b6cb1999-dda6-4e68-adc6-2afa930a2a30" d="M8.4946,99.981c0-1.732.8067-2.9991,2.5215-2.9991,1.7349,0,2.5215,1.2408,2.5215,2.981,0,1.8569-.7969,3.062-2.5415,3.062C9.2612,103.0249,8.4946,101.793,8.4946,99.981Zm3.7217.143v-.393c0-1.4551-.333-1.8921-1.21-1.8921s-1.2.455-1.2,1.91v.3838c0,1.6157.3632,2.08,1.21,2.08S12.2163,101.7393,12.2163,100.124Z"/>
  </g>
  <g class="f7226e0f-624f-46e5-b7ad-2735339fb594">
    <path class="b6cb1999-dda6-4e68-adc6-2afa930a2a30" d="M9.48,135.5078l.2017-.7949a3.5578,3.5578,0,0,0,1.4824.3662c.7866,0,1.19-.2588,1.19-.9814v-.1348c0-.7949-.2925-1.044-.8574-1.044a.8762.8762,0,0,0-.8472.3838l-.8374-.1074.1514-3.1865h3.3891v.8926H10.8813l-.05.955-.1514.7764a1.7528,1.7528,0,0,1,1.23-.4277,1.6777,1.6777,0,0,1,1.7851,1.82,1.9939,1.9939,0,0,1-2.2593,1.92A3.721,3.721,0,0,1,9.48,135.5078Z"/>
  </g>
  <g class="f7226e0f-624f-46e5-b7ad-2735339fb594">
    <path class="b6cb1999-dda6-4e68-adc6-2afa930a2a30" d="M9.9131,162.9805c0-1.7315.8066-2.9981,2.5215-2.9981,1.7348,0,2.5215,1.24,2.5215,2.98,0,1.8574-.7969,3.0625-2.5415,3.0625C10.68,166.0254,9.9131,164.793,9.9131,162.9805Zm3.7217.1435v-.3935c0-1.4551-.333-1.8916-1.21-1.8916s-1.2.455-1.2,1.91v.3838c0,1.6152.3633,2.08,1.21,2.08S13.6348,164.7393,13.6348,163.124Z"/>
  </g>
  <g class="f7226e0f-624f-46e5-b7ad-2735339fb594">
    <path class="b6cb1999-dda6-4e68-adc6-2afa930a2a30" d="M28.6338,176.207l.06-.18a3.8614,3.8614,0,0,1,1.5835-1.83c.6856-.5176,1.0186-.7852,1.0186-1.3028v-.125c0-.6152-.313-.7851-.9282-.7851a4.0676,4.0676,0,0,0-1.4624.3213l-.1914-.7862a3.8541,3.8541,0,0,1,1.8862-.4277c1.4219,0,2.0371.6875,2.0371,1.66,0,1.0175-.7764,1.5-1.6543,2.1064-.5547.3838-1.0186.6611-1.2,1.2861l-.04.1328,1.21-.1328h1.5938v.8653H28.6338Z"/>
    <path class="b6cb1999-dda6-4e68-adc6-2afa930a2a30" d="M33.5625,174.0908c0-1.7314.8066-2.999,2.5215-2.999,1.7348,0,2.5215,1.24,2.5215,2.9805,0,1.8574-.7969,3.0625-2.5415,3.0625C34.3291,177.1348,33.5625,175.9023,33.5625,174.0908Zm3.7217.1436v-.3936c0-1.4551-.333-1.8916-1.21-1.8916s-1.2.4551-1.2,1.91v.3828c0,1.6162.3633,2.08,1.2105,2.08S37.2842,175.85,37.2842,174.2344Z"/>
    <path class="b6cb1999-dda6-4e68-adc6-2afa930a2a30" d="M39.57,176.3047h.958v-3.8565H39.57v-.4814l1.5635-.7676h.6455v5.1055h.918v.7051H39.57Z"/>
    <path class="b6cb1999-dda6-4e68-adc6-2afa930a2a30" d="M45.8105,173.2783a1.65,1.65,0,0,1,.4742-.0713,1.768,1.768,0,0,1,1.997,1.8838c0,1.294-.8877,2.044-2.3706,2.044a2.1877,2.1877,0,0,1-2.37-2.3926c0-1.6953,1.3618-2.8555,2.4912-3.543h1.6241a6.04,6.04,0,0,0-2.7334,2.5879Zm-.9882,1.0889v.4023c0,1.1153.3325,1.57,1.1191,1.57.7568,0,1.0493-.3027,1.0493-1.1152V175.02c0-.8037-.313-1.0449-1.08-1.0449a2.3965,2.3965,0,0,0-1.0888.2774Z"/>
  </g>
  <g class="f7226e0f-624f-46e5-b7ad-2735339fb594">
    <path class="b6cb1999-dda6-4e68-adc6-2afa930a2a30" d="M73.9131,176.207l.0605-.18a3.8614,3.8614,0,0,1,1.5835-1.83c.6856-.5176,1.0186-.7852,1.0186-1.3028v-.125c0-.6152-.313-.7851-.9282-.7851a4.0676,4.0676,0,0,0-1.4624.3213l-.1914-.7862a3.8541,3.8541,0,0,1,1.8862-.4277c1.4219,0,2.0371.6875,2.0371,1.66,0,1.0175-.7764,1.5-1.6543,2.1064-.5547.3838-1.0186.6611-1.2,1.2861l-.04.1328,1.21-.1328h1.5938v.8653H73.9131Z"/>
    <path class="b6cb1999-dda6-4e68-adc6-2afa930a2a30" d="M78.8418,174.0908c0-1.7314.8066-2.999,2.5215-2.999,1.7348,0,2.5215,1.24,2.5215,2.9805,0,1.8574-.7969,3.0625-2.5415,3.0625C79.6084,177.1348,78.8418,175.9023,78.8418,174.0908Zm3.7217.1436v-.3936c0-1.4551-.333-1.8916-1.2105-1.8916s-1.2.4551-1.2,1.91v.3828c0,1.6162.3633,2.08,1.21,2.08S82.5635,175.85,82.5635,174.2344Z"/>
  </g>
  <g class="f7226e0f-624f-46e5-b7ad-2735339fb594">
    <path class="b6cb1999-dda6-4e68-adc6-2afa930a2a30" d="M84.8506,176.3047h.958v-3.8565h-.958v-.4814l1.5635-.7676H87.06v5.1055h.9179v.7051H84.8506Z"/>
  </g>
  <g class="f7226e0f-624f-46e5-b7ad-2735339fb594">
    <path class="b6cb1999-dda6-4e68-adc6-2afa930a2a30" d="M91.19,172.8594l.6655-.8487-1.1294.0811H88.6177v-.8926h4.1958v.999L90.4429,177.01H89.1421Z"/>
  </g>
  <g class="f7226e0f-624f-46e5-b7ad-2735339fb594">
    <path class="b6cb1999-dda6-4e68-adc6-2afa930a2a30" d="M120.9629,176.207l.06-.18a3.8625,3.8625,0,0,1,1.584-1.83c.6856-.5176,1.0186-.7852,1.0186-1.3028v-.125c0-.6152-.3135-.7851-.9287-.7851a4.065,4.065,0,0,0-1.4619.3213l-.1915-.7862a3.8528,3.8528,0,0,1,1.8858-.4277c1.4219,0,2.0371.6875,2.0371,1.66,0,1.0175-.7754,1.5-1.6543,2.1064-.5547.3838-1.0176.6611-1.1992,1.2861l-.041.1328,1.2109-.1328h1.5938v.8653h-3.9141Z"/>
    <path class="b6cb1999-dda6-4e68-adc6-2afa930a2a30" d="M125.8926,174.0908c0-1.7314.8066-2.999,2.5215-2.999,1.7343,0,2.5214,1.24,2.5214,2.9805,0,1.8574-.7968,3.0625-2.5419,3.0625C126.6582,177.1348,125.8926,175.9023,125.8926,174.0908Zm3.7207.1436v-.3936c0-1.4551-.332-1.8916-1.21-1.8916s-1.2.4551-1.2,1.91v.3828c0,1.6162.3633,2.08,1.211,2.08S129.6133,175.85,129.6133,174.2344Z"/>
    <path class="b6cb1999-dda6-4e68-adc6-2afa930a2a30" d="M131.8994,176.3047h.958v-3.8565h-.958v-.4814l1.5635-.7676h.6455v5.1055h.918v.7051h-3.127Z"/>
    <path class="b6cb1999-dda6-4e68-adc6-2afa930a2a30" d="M136.0625,172.6445c0-.8574.6758-1.5527,2.1387-1.5527,1.4922,0,2.0468.7324,2.0468,1.4727a1.3776,1.3776,0,0,1-.3222.9013l-.8985.3838c.8067.2852,1.5235.66,1.5235,1.625,0,.9551-.7969,1.66-2.3906,1.66-1.6739,0-2.3809-.7051-2.3809-1.6426a1.2884,1.2884,0,0,1,.4941-1.0176l.8789-.34A1.608,1.608,0,0,1,136.0625,172.6445Zm.918,2.7325v.1328c0,.58.373.8662,1.16.8662.7461,0,1.0782-.3125,1.0782-.8213v-.1426c0-.4726-.4336-.6162-1.6036-1.0176A1.1193,1.1193,0,0,0,136.9805,175.377Zm2.1582-2.7227V172.6c0-.4551-.2012-.7129-.9375-.7129-.6758,0-.878.2852-.878.7051v.0527c0,.5274.3125.6963,1.21.9825A1.0484,1.0484,0,0,0,139.1387,172.6543Z"/>
  </g>
  <g class="f7226e0f-624f-46e5-b7ad-2735339fb594">
    <path class="b6cb1999-dda6-4e68-adc6-2afa930a2a30" d="M163.0732,176.207l.0606-.18a3.8652,3.8652,0,0,1,1.583-1.83c.6855-.5176,1.0195-.7852,1.0195-1.3028v-.125c0-.6152-.3134-.7851-.9287-.7851a4.0659,4.0659,0,0,0-1.4619.3213l-.1914-.7862a3.852,3.852,0,0,1,1.8857-.4277c1.4219,0,2.0371.6875,2.0371,1.66,0,1.0175-.7763,1.5-1.6542,2.1064-.5547.3838-1.0186.6611-1.2,1.2861l-.04.1328,1.21-.1328h1.5937v.8653h-3.9131Z"/>
    <path class="b6cb1999-dda6-4e68-adc6-2afa930a2a30" d="M168.002,174.0908c0-1.7314.8066-2.999,2.5214-2.999,1.7344,0,2.5215,1.24,2.5215,2.9805,0,1.8574-.7969,3.0625-2.541,3.0625C168.7686,177.1348,168.002,175.9023,168.002,174.0908Zm3.7216.1436v-.3936c0-1.4551-.333-1.8916-1.21-1.8916s-1.2012.4551-1.2012,1.91v.3828c0,1.6162.3633,2.08,1.2109,2.08S171.7236,175.85,171.7236,174.2344Z"/>
  </g>
  <g class="f7226e0f-624f-46e5-b7ad-2735339fb594">
    <path class="b6cb1999-dda6-4e68-adc6-2afa930a2a30" d="M174.01,176.3047h.959v-3.8565h-.959v-.4814l1.5644-.7676h.6446v5.1055h.9179v.7051H174.01Z"/>
  </g>
  <g class="f7226e0f-624f-46e5-b7ad-2735339fb594">
    <path class="b6cb1999-dda6-4e68-adc6-2afa930a2a30" d="M180.248,174.9746a1.6935,1.6935,0,0,1-.4746.0713,1.7869,1.7869,0,0,1-1.997-1.91c0-1.2412.8877-2.0439,2.37-2.0439a2.1753,2.1753,0,0,1,2.3711,2.3926c0,1.6953-1.3623,2.8379-2.4922,3.5254h-1.6231a6.11,6.11,0,0,0,2.7129-2.5176Zm.9883-1.1152v-.4024c0-1.125-.3232-1.5175-1.1093-1.5175-.7676,0-1.06.2851-1.06,1.09v.2051c0,.8027.3135,1.0976,1.0791,1.0976a2.2924,2.2924,0,0,0,1.08-.2773A1.266,1.266,0,0,0,181.2363,173.8594Z"/>
  </g>
  <rect class="b4acb64b-41cb-4d69-bda8-3ad7e58a88f1" x="7.7" y="187.5" width="10" height="10"/>
  <g class="f7226e0f-624f-46e5-b7ad-2735339fb594">
    <path class="b6cb1999-dda6-4e68-adc6-2afa930a2a30" d="M25.8022,189.7744v-.9717h5.2291v.9717H29.0161v6.836H27.8169v-6.836Z"/>
  </g>
  <g class="f7226e0f-624f-46e5-b7ad-2735339fb594">
    <path class="b6cb1999-dda6-4e68-adc6-2afa930a2a30" d="M33.4727,190.41a1.9588,1.9588,0,0,1,.8754-.2041,1.5893,1.5893,0,0,1,.7915.18l-.2036,1.0079a2.0445,2.0445,0,0,0-.8755-.168,2.0139,2.0139,0,0,0-1.2.4433V196.61h-1.103v-6.2842h.6714l.4077.8515Z"/>
  </g>
  <g class="f7226e0f-624f-46e5-b7ad-2735339fb594">
    <path class="b6cb1999-dda6-4e68-adc6-2afa930a2a30" d="M39.0317,192.2451c0-.6357-.2158-1.1035-1.0073-1.1035a5.75,5.75,0,0,0-1.8589.4072l-.1679-.8515a5.2089,5.2089,0,0,1,2.0986-.4912c1.4394,0,2.0273.707,2.0273,2.4228v2.95c0,.3359.12.42.3838.42h.2515l.0361.5391a1.1326,1.1326,0,0,1-.6958.2041,1.7162,1.7162,0,0,1-.5635-.084l-.4438-.6953-.5278.6113a2.5756,2.5756,0,0,1-1.0435.2041,1.6349,1.6349,0,0,1-1.7988-1.8115c0-1.2832.6719-1.7627,2.2788-1.9541l1.0312-.12Zm0,1.3194-.9594.1191c-.9112.0967-1.2832.3721-1.2832,1.1875v.0957c0,.72.36,1.0195,1.0673,1.0195a1.4537,1.4537,0,0,0,1.1753-.5156Z"/>
    <path class="b6cb1999-dda6-4e68-adc6-2afa930a2a30" d="M43.6528,190.458a2.5869,2.5869,0,0,1,1.1392-.2519c1.0557,0,1.6914.6,1.6914,1.99V196.61H45.38v-4.5577c0-.707-.36-.9472-.9234-.9472a2.3515,2.3515,0,0,0-1.3676.4677V196.61H41.9858v-6.2842h.6714l.4077.8027Z"/>
    <path class="b6cb1999-dda6-4e68-adc6-2afa930a2a30" d="M47.8174,196.3828l.1318-.8154a3.9493,3.9493,0,0,0,1.5835.3711c.7676,0,1.187-.252,1.187-.9834,0-.6953-.2636-.791-1.415-1.0908a1.7035,1.7035,0,0,1-1.5234-1.8116c0-1.2588.8159-1.8466,2.0629-1.8466a3.7227,3.7227,0,0,1,1.7032.3593l-.168.8037a4.1233,4.1233,0,0,0-1.4629-.2753c-.7436,0-1.1157.1914-1.1157.8994,0,.6591.3481.7548,1.3193,1.0068,1.08.2881,1.6553.72,1.6553,1.9072,0,1.1035-.7075,1.8711-2.1348,1.8711A4.0271,4.0271,0,0,1,47.8174,196.3828Z"/>
    <path class="b6cb1999-dda6-4e68-adc6-2afa930a2a30" d="M52.9893,188.5625a.7033.7033,0,0,1,.72-.707.6932.6932,0,0,1,.7075.707.6843.6843,0,0,1-.7075.6963A.6944.6944,0,0,1,52.9893,188.5625Zm.1557,1.7637h1.1035V196.61H53.145Z"/>
    <path class="b6cb1999-dda6-4e68-adc6-2afa930a2a30" d="M55.69,193.4922c0-2.1465.9951-3.2861,2.53-3.2861s2.5186,1.14,2.5186,3.25c0,2.1464-.96,3.3222-2.5186,3.3222S55.69,195.6025,55.69,193.4922Zm3.8974.1074v-.1914c0-1.835-.4673-2.3271-1.3672-2.3271s-1.3789.4921-1.3789,2.2675v.2032c0,1.7988.5156,2.375,1.3789,2.375C59.0713,195.9268,59.5869,195.3506,59.5869,193.6Z"/>
    <path class="b6cb1999-dda6-4e68-adc6-2afa930a2a30" d="M63.8,190.458a2.5869,2.5869,0,0,1,1.1392-.2519c1.0556,0,1.6914.6,1.6914,1.99V196.61H65.5273v-4.5577c0-.707-.36-.9472-.9233-.9472a2.3518,2.3518,0,0,0-1.3677.4677V196.61h-1.103v-6.2842h.6714l.4077.8027Z"/>
    <path class="b6cb1999-dda6-4e68-adc6-2afa930a2a30" d="M71.2754,192.2451c0-.6357-.2158-1.1035-1.0073-1.1035a5.75,5.75,0,0,0-1.8589.4072l-.168-.8515a5.2118,5.2118,0,0,1,2.0986-.4912c1.44,0,2.0269.707,2.0269,2.4228v2.95c0,.3359.12.42.3838.42h.2519l.0362.5391a1.1328,1.1328,0,0,1-.6958.2041,1.7162,1.7162,0,0,1-.5635-.084l-.4439-.6953-.5278.6113a2.5751,2.5751,0,0,1-1.0434.2041,1.635,1.635,0,0,1-1.7989-1.8115c0-1.2832.6719-1.7627,2.2788-1.9541l1.0313-.12Zm0,1.3194-.96.1191c-.9111.0967-1.2832.3721-1.2832,1.1875v.0957c0,.72.36,1.0195,1.0674,1.0195a1.4539,1.4539,0,0,0,1.1753-.5156Z"/>
    <path class="b6cb1999-dda6-4e68-adc6-2afa930a2a30" d="M74.3008,187.999h1.1035V196.61H74.3008Z"/>
    <path class="b6cb1999-dda6-4e68-adc6-2afa930a2a30" d="M79.665,196.2266l.2159-.8516a4.5206,4.5206,0,0,0,1.9428.4922c1.0313,0,1.5113-.2764,1.5113-1.2715,0-.78-.2876-1.0439-1.4634-1.3672-1.4028-.3721-2.1465-.8154-2.1465-2.3633,0-1.4267.8633-2.206,2.4106-2.206a4.7176,4.7176,0,0,1,2.0269.3838l-.168.9111a4.8972,4.8972,0,0,0-1.8232-.3242c-.9351,0-1.3311.2881-1.3311,1.1279,0,.791.2159.9951,1.4395,1.3311,1.3672.3593,2.2187.8515,2.2187,2.3623,0,1.5234-.8759,2.3271-2.5068,2.3271A4.4157,4.4157,0,0,1,79.665,196.2266Z"/>
    <path class="b6cb1999-dda6-4e68-adc6-2afa930a2a30" d="M87.0322,196.61h-1.103V187.999h1.103v3.1065l.564-.6475a2.5869,2.5869,0,0,1,1.1392-.2519c1.0556,0,1.6914.6,1.6914,1.99V196.61H89.3232v-4.5577c0-.707-.36-.9472-.9233-.9472a2.3518,2.3518,0,0,0-1.3677.4677Z"/>
    <path class="b6cb1999-dda6-4e68-adc6-2afa930a2a30" d="M94.46,195.8906a4.1563,4.1563,0,0,0,1.643-.4072l.18.8154a4.2242,4.2242,0,0,1-1.895.48c-1.7148,0-2.6143-1.1152-2.6143-3.2978,0-2.2432.9952-3.2744,2.4947-3.2744,1.5708,0,2.2544,1.1269,2.2544,2.9257v.6836H92.9243C92.9482,195.375,93.3921,195.8906,94.46,195.8906Zm.9951-2.8662v-.1924c0-1.331-.3838-1.81-1.1753-1.81-.8154,0-1.2954.4072-1.355,2.0029Z"/>
    <path class="b6cb1999-dda6-4e68-adc6-2afa930a2a30" d="M98.0127,187.999h1.1035V196.61H98.0127Z"/>
    <path class="b6cb1999-dda6-4e68-adc6-2afa930a2a30" d="M101.0967,195.123v-3.97h-.7437v-.8271h.8155l.5278-1.6914H102.2v1.6914h1.3672v.8271H102.2v4.21c0,.42.12.539.5635.539h.8994l.0605.5879a3.4973,3.4973,0,0,1-1.2719.252C101.5044,196.7422,101.0967,196.2148,101.0967,195.123Z"/>
    <path class="b6cb1999-dda6-4e68-adc6-2afa930a2a30" d="M107.24,195.8906a4.1565,4.1565,0,0,0,1.6426-.4072l.18.8154a4.2218,4.2218,0,0,1-1.8945.48c-1.7149,0-2.6143-1.1152-2.6143-3.2978,0-2.2432.9951-3.2744,2.4942-3.2744,1.5712,0,2.2548,1.1269,2.2548,2.9257v.6836h-3.5976C105.7285,195.375,106.1729,195.8906,107.24,195.8906Zm.9952-2.8662v-.1924c0-1.331-.3838-1.81-1.1758-1.81-.8155,0-1.295.4072-1.3545,2.0029Z"/>
  </g>
  <g class="f7226e0f-624f-46e5-b7ad-2735339fb594">
    <path class="b6cb1999-dda6-4e68-adc6-2afa930a2a30" d="M112.4424,190.41a1.9613,1.9613,0,0,1,.876-.2041,1.5876,1.5876,0,0,1,.791.18l-.2031,1.0079a2.0476,2.0476,0,0,0-.876-.168,2.012,2.012,0,0,0-1.1992.4433V196.61h-1.1036v-6.2842h.6719l.4072.8515Z"/>
  </g>
  <g class="f7226e0f-624f-46e5-b7ad-2735339fb594">
    <path class="b6cb1999-dda6-4e68-adc6-2afa930a2a30" d="M117.3906,195.8906a4.1565,4.1565,0,0,0,1.6426-.4072l.18.8154a4.2218,4.2218,0,0,1-1.8945.48c-1.7149,0-2.6143-1.1152-2.6143-3.2978,0-2.2432.9951-3.2744,2.4941-3.2744,1.5713,0,2.2549,1.1269,2.2549,2.9257v.6836h-3.5976C115.8789,195.375,116.3232,195.8906,117.3906,195.8906Zm.9951-2.8662v-.1924c0-1.331-.3837-1.81-1.1757-1.81-.8155,0-1.295.4072-1.3545,2.0029Z"/>
    <path class="b6cb1999-dda6-4e68-adc6-2afa930a2a30" d="M124.1934,187.999h1.1035V196.61h-.6836l-.3711-.7432-.66.707a1.97,1.97,0,0,1-.84.168c-1.4629,0-2.2422-1.127-2.2422-3.2861,0-2.2911.9951-3.25,2.2549-3.25a2.1385,2.1385,0,0,1,1.4385.5273Zm0,3.55a2.0275,2.0275,0,0,0-1.2344-.4433c-.84,0-1.3194.42-1.3194,2.1465v.456c0,1.6787.48,2.2783,1.3311,2.2783a1.7984,1.7984,0,0,0,1.2227-.5752Z"/>
  </g>
  <rect class="a2312e5d-d900-409a-855e-a3ebdb23a79e" x="7.9" y="206" width="10" height="10"/>
  <g class="f7226e0f-624f-46e5-b7ad-2735339fb594">
    <path class="b6cb1999-dda6-4e68-adc6-2afa930a2a30" d="M26.6919,207.2725h4.3413v.9716H27.8911v2.3868h2.6983v.8994H27.8911v2.6025H31.249v.9473H26.6919Z"/>
    <path class="b6cb1999-dda6-4e68-adc6-2afa930a2a30" d="M37.561,208.9277a2.5349,2.5349,0,0,1,1.1036-.2519c1.0434,0,1.6552.6,1.6552,1.99V215.08H39.2163v-4.5576c0-.72-.3237-.9473-.8877-.9473a2.1244,2.1244,0,0,0-1.2832.4678V215.08H35.9419v-4.5576c0-.72-.36-.9473-.8872-.9473a2.1623,2.1623,0,0,0-1.2837.4434V215.08H32.668v-6.2842h.6714l.396.7793.5634-.6475a2.4918,2.4918,0,0,1,1.1035-.2519,2.1875,2.1875,0,0,1,1.0914.2519l.4438.6953Z"/>
    <path class="b6cb1999-dda6-4e68-adc6-2afa930a2a30" d="M44.3545,214.36a4.1556,4.1556,0,0,0,1.6431-.4073l.18.8155a4.2253,4.2253,0,0,1-1.895.4794c-1.7148,0-2.6142-1.1152-2.6142-3.2978,0-2.2432.9951-3.2744,2.4946-3.2744,1.5708,0,2.2544,1.1269,2.2544,2.9258v.6836H42.8193C42.8433,213.8447,43.2871,214.36,44.3545,214.36Zm.9951-2.8663v-.1923c0-1.3311-.3838-1.8106-1.1753-1.8106-.8154,0-1.2954.4072-1.355,2.0029Z"/>
  </g>
  <g class="f7226e0f-624f-46e5-b7ad-2735339fb594">
    <path class="b6cb1999-dda6-4e68-adc6-2afa930a2a30" d="M49.5527,208.88a1.96,1.96,0,0,1,.8755-.2041,1.588,1.588,0,0,1,.7915.18l-.2036,1.0078a2.0448,2.0448,0,0,0-.8755-.168,2.0132,2.0132,0,0,0-1.2.4434V215.08h-1.103v-6.2842h.6714l.4077.8516Z"/>
  </g>
  <g class="f7226e0f-624f-46e5-b7ad-2735339fb594">
    <path class="b6cb1999-dda6-4e68-adc6-2afa930a2a30" d="M57.1006,208.5439v1.0313H55.6855l.7793.5039a2.0063,2.0063,0,0,1,.0962.6c0,1.5469-1.0913,2.0625-2.2905,2.0625a2.6342,2.6342,0,0,1-1.0557-.1914.6932.6932,0,0,0-.312.5635c0,.3955.24.6.78.6H55.062c1.2471,0,1.9068.5156,1.9068,1.5586,0,1.3681-1.2232,1.9678-2.7945,1.9678-1.5591,0-2.3745-.5879-2.3745-1.5352a1.2537,1.2537,0,0,1,.3115-.8643l.6958-.3476a1,1,0,0,1-.78-1.043,1.2363,1.2363,0,0,1,.252-.78l.6719-.3593-.72-.4561a2.4178,2.4178,0,0,1-.2758-1.1387,2.043,2.043,0,0,1,2.3149-2.039,2.5805,2.5805,0,0,1,1.4028.3721Zm-4.3413,6.9922c0,.6114.4438.8877,1.4389.8877,1.1636,0,1.7393-.48,1.7393-1.0439v-.0723c0-.3955-.1919-.707-.8877-.707H53.2271A1.1565,1.1565,0,0,0,52.7593,215.5361Zm2.6982-4.7373v-.1562c0-.7559-.3716-1.1514-1.187-1.1514-.84,0-1.2114.3955-1.2114,1.14v.1552c0,.8516.3716,1.2119,1.2114,1.2119C55.0859,211.998,55.4575,211.6377,55.4575,210.7988Z"/>
    <path class="b6cb1999-dda6-4e68-adc6-2afa930a2a30" d="M60.4624,214.36a4.1556,4.1556,0,0,0,1.6431-.4073l.18.8155a4.2261,4.2261,0,0,1-1.8951.4794c-1.7148,0-2.6142-1.1152-2.6142-3.2978,0-2.2432.9951-3.2744,2.4946-3.2744,1.5708,0,2.2544,1.1269,2.2544,2.9258v.6836H58.9272C58.9512,213.8447,59.395,214.36,60.4624,214.36Zm.9951-2.8663v-.1923c0-1.3311-.3838-1.8106-1.1753-1.8106-.8154,0-1.2954.4072-1.355,2.0029Z"/>
    <path class="b6cb1999-dda6-4e68-adc6-2afa930a2a30" d="M65.61,208.9277a2.586,2.586,0,0,1,1.1391-.2519c1.0557,0,1.6914.6,1.6914,1.99V215.08H67.3374v-4.5576c0-.7071-.36-.9473-.9233-.9473a2.351,2.351,0,0,0-1.3677.4678V215.08h-1.103v-6.2842h.6713l.4078.8027Z"/>
  </g>
  <g class="f7226e0f-624f-46e5-b7ad-2735339fb594">
    <path class="b6cb1999-dda6-4e68-adc6-2afa930a2a30" d="M69.7837,211.9375c0-2.1943.8516-3.2617,2.4707-3.2617a4.0645,4.0645,0,0,1,1.7026.3721l-.1674.8388a4.7935,4.7935,0,0,0-1.4634-.2881c-.9116,0-1.3911.3965-1.3911,2.2071v.1923c0,1.8467.4917,2.3624,1.3911,2.3624a3.3985,3.3985,0,0,0,1.5112-.4073l.18.8272a3.5609,3.5609,0,0,1-1.7627.4677C70.6592,215.248,69.7837,214.1211,69.7837,211.9375Z"/>
  </g>
  <g class="f7226e0f-624f-46e5-b7ad-2735339fb594">
    <path class="b6cb1999-dda6-4e68-adc6-2afa930a2a30" d="M76.7451,214.8887l-2.0273-6.0928h1.14l1.127,3.67.3,1.8223.3242-1.8223,1.1152-3.67h1.044l-2.6153,8.2275H76.085Z"/>
    <path class="b6cb1999-dda6-4e68-adc6-2afa930a2a30" d="M83.31,214.6963l.2158-.8516a4.5189,4.5189,0,0,0,1.9424.4922c1.0322,0,1.5117-.2764,1.5117-1.2715,0-.78-.2881-1.0439-1.4639-1.3672-1.4023-.372-2.1465-.8154-2.1465-2.3632,0-1.4268.8633-2.2061,2.4112-2.2061a4.7162,4.7162,0,0,1,2.0263.3838l-.1679.9111a4.8943,4.8943,0,0,0-1.8233-.3242c-.9345,0-1.331.2881-1.331,1.1279,0,.7911.2158.9952,1.4394,1.3311,1.3672.3594,2.2188.8516,2.2188,2.3623,0,1.5234-.875,2.3271-2.5069,2.3271A4.4123,4.4123,0,0,1,83.31,214.6963Z"/>
    <path class="b6cb1999-dda6-4e68-adc6-2afa930a2a30" d="M91.876,214.36a4.155,4.155,0,0,0,1.6435-.4073l.18.8155a4.228,4.228,0,0,1-1.8955.4794c-1.7148,0-2.6142-1.1152-2.6142-3.2978,0-2.2432.9951-3.2744,2.4951-3.2744,1.57,0,2.2539,1.1269,2.2539,2.9258v.6836H90.3408C90.3652,213.8447,90.8086,214.36,91.876,214.36Zm.9951-2.8663v-.1923c0-1.3311-.3838-1.8106-1.1748-1.8106-.8154,0-1.2959.4072-1.3555,2.0029Z"/>
    <path class="b6cb1999-dda6-4e68-adc6-2afa930a2a30" d="M95.4287,206.4688h1.1035V215.08H95.4287Z"/>
    <path class="b6cb1999-dda6-4e68-adc6-2afa930a2a30" d="M98.5127,213.5928v-3.97H97.77v-.8271h.8155l.5273-1.6914h.5039v1.6914h1.3672v.8271H99.6162v4.21c0,.42.12.5391.5635.5391h.8994l.0605.5879a3.4989,3.4989,0,0,1-1.2714.2519C98.9209,215.2119,98.5127,214.6846,98.5127,213.5928Z"/>
    <path class="b6cb1999-dda6-4e68-adc6-2afa930a2a30" d="M104.6563,214.36a4.1545,4.1545,0,0,0,1.6425-.4073l.18.8155a4.2232,4.2232,0,0,1-1.8945.4794c-1.7149,0-2.6143-1.1152-2.6143-3.2978,0-2.2432.9951-3.2744,2.4942-3.2744,1.5713,0,2.2549,1.1269,2.2549,2.9258v.6836h-3.5977C103.1445,213.8447,103.5889,214.36,104.6563,214.36Zm.9951-2.8663v-.1923c0-1.3311-.3838-1.8106-1.1758-1.8106-.8154,0-1.2949.4072-1.3545,2.0029Z"/>
  </g>
  <g class="f7226e0f-624f-46e5-b7ad-2735339fb594">
    <path class="b6cb1999-dda6-4e68-adc6-2afa930a2a30" d="M109.8525,208.88a1.9616,1.9616,0,0,1,.876-.2041,1.5888,1.5888,0,0,1,.791.18l-.2031,1.0078a2.05,2.05,0,0,0-.876-.168,2.017,2.017,0,0,0-1.2.4434V215.08h-1.1025v-6.2842h.6709l.4082.8516Z"/>
  </g>
  <g class="f7226e0f-624f-46e5-b7ad-2735339fb594">
    <path class="b6cb1999-dda6-4e68-adc6-2afa930a2a30" d="M114.8008,214.36a4.1554,4.1554,0,0,0,1.6426-.4073l.18.8155a4.2229,4.2229,0,0,1-1.8945.4794c-1.7148,0-2.6142-1.1152-2.6142-3.2978,0-2.2432.9951-3.2744,2.4941-3.2744,1.5713,0,2.2549,1.1269,2.2549,2.9258v.6836h-3.5977C113.2891,213.8447,113.7334,214.36,114.8008,214.36Zm.9951-2.8663v-.1923c0-1.3311-.3838-1.8106-1.1758-1.8106-.8154,0-1.2949.4072-1.3545,2.0029Z"/>
    <path class="b6cb1999-dda6-4e68-adc6-2afa930a2a30" d="M121.6035,206.4688h1.1035V215.08h-.6836l-.3711-.7432-.66.707a1.97,1.97,0,0,1-.84.168c-1.4628,0-2.2421-1.1269-2.2421-3.2861,0-2.291.9951-3.25,2.2548-3.25a2.1383,2.1383,0,0,1,1.4385.5273Zm0,3.55a2.0269,2.0269,0,0,0-1.2344-.4434c-.84,0-1.3193.42-1.3193,2.1465v.456c0,1.6787.48,2.2784,1.3311,2.2784a1.7984,1.7984,0,0,0,1.2226-.5752Z"/>
  </g>
  <rect class="fed58d8a-7759-484b-b7f3-4e70556b8909" x="8" y="225.5" width="10" height="10"/>
  <g class="f7226e0f-624f-46e5-b7ad-2735339fb594">
    <path class="b6cb1999-dda6-4e68-adc6-2afa930a2a30" d="M30.7915,226.792h1.2109V234.6h-.7436l-.3355-.7676-.48.6592a3.701,3.701,0,0,1-1.4151.2764c-1.5234,0-2.3149-.8633-2.3149-3.0821V226.792h1.2v5.2168c0,1.4756.3716,1.8476,1.3432,1.8476a2.7463,2.7463,0,0,0,1.5352-.4326Z"/>
    <path class="b6cb1999-dda6-4e68-adc6-2afa930a2a30" d="M35.5327,228.4473a2.5853,2.5853,0,0,1,1.1392-.252c1.0556,0,1.6914.6,1.6914,1.99V234.6H37.26V230.042c0-.707-.36-.9473-.9239-.9473a2.3506,2.3506,0,0,0-1.3671.4678V234.6H33.8657v-6.2842h.6714l.4077.8028Z"/>
    <path class="b6cb1999-dda6-4e68-adc6-2afa930a2a30" d="M39.6978,234.3721l.1318-.8155a3.9493,3.9493,0,0,0,1.5835.3711c.7676,0,1.187-.2519,1.187-.9834,0-.6953-.2637-.791-1.415-1.0908a1.7034,1.7034,0,0,1-1.5235-1.8115c0-1.2588.8159-1.8467,2.063-1.8467a3.7218,3.7218,0,0,1,1.7031.3594l-.1679.8037a4.121,4.121,0,0,0-1.4629-.2754c-.7437,0-1.1157.1914-1.1157.8994,0,.6592.3481.7549,1.3193,1.0069,1.08.288,1.6553.72,1.6553,1.9072,0,1.1035-.7076,1.8711-2.1348,1.8711A4.0268,4.0268,0,0,1,39.6978,234.3721Z"/>
    <path class="b6cb1999-dda6-4e68-adc6-2afa930a2a30" d="M46.0928,234.6H44.99v-8.6113h1.1031v3.1064l.5639-.6474a2.5853,2.5853,0,0,1,1.1392-.252c1.0557,0,1.6914.6,1.6914,1.99V234.6H48.3838V230.042c0-.707-.36-.9473-.9238-.9473a2.3507,2.3507,0,0,0-1.3672.4678Z"/>
    <path class="b6cb1999-dda6-4e68-adc6-2afa930a2a30" d="M53.5205,233.88a4.1572,4.1572,0,0,0,1.6431-.4072l.18.8154a4.226,4.226,0,0,1-1.8951.48c-1.7148,0-2.6142-1.1153-2.6142-3.2979,0-2.2431.9951-3.2744,2.4946-3.2744,1.5708,0,2.2544,1.127,2.2544,2.9258v.6836H51.9854C52.0093,233.3643,52.4531,233.88,53.5205,233.88Zm.9951-2.8662v-.1924c0-1.3311-.3838-1.8106-1.1753-1.8106-.8154,0-1.2954.4073-1.3549,2.003Z"/>
    <path class="b6cb1999-dda6-4e68-adc6-2afa930a2a30" d="M57.0732,225.9883h1.1036V234.6H57.0732Z"/>
    <path class="b6cb1999-dda6-4e68-adc6-2afa930a2a30" d="M60.1572,233.1123v-3.97h-.7436v-.8272h.8154l.5278-1.6914h.5039v1.6914h1.3672v.8272H61.2607v4.21c0,.42.12.5391.5635.5391h.8994l.06.5879a3.4949,3.4949,0,0,1-1.2715.2519C60.5649,234.7314,60.1572,234.2041,60.1572,233.1123Z"/>
    <path class="b6cb1999-dda6-4e68-adc6-2afa930a2a30" d="M66.3,233.88a4.1572,4.1572,0,0,0,1.6431-.4072l.18.8154a4.2251,4.2251,0,0,1-1.895.48c-1.7148,0-2.6142-1.1153-2.6142-3.2979,0-2.2431.9951-3.2744,2.4946-3.2744,1.5708,0,2.2544,1.127,2.2544,2.9258v.6836H64.7651C64.7891,233.3643,65.2329,233.88,66.3,233.88Zm.9951-2.8662v-.1924c0-1.3311-.3838-1.8106-1.1753-1.8106-.8154,0-1.2954.4073-1.355,2.003Z"/>
  </g>
  <g class="f7226e0f-624f-46e5-b7ad-2735339fb594">
    <path class="b6cb1999-dda6-4e68-adc6-2afa930a2a30" d="M71.4927,228.3994a1.9605,1.9605,0,0,1,.8755-.2041,1.5883,1.5883,0,0,1,.7915.18l-.2036,1.0078a2.0451,2.0451,0,0,0-.8755-.168,2.0136,2.0136,0,0,0-1.2.4434V234.6H69.7778v-6.2842h.6714l.4077.8516Z"/>
  </g>
  <g class="f7226e0f-624f-46e5-b7ad-2735339fb594">
    <path class="b6cb1999-dda6-4e68-adc6-2afa930a2a30" d="M76.45,233.88a4.1574,4.1574,0,0,0,1.6436-.4072l.18.8154a4.2275,4.2275,0,0,1-1.8955.48c-1.7148,0-2.6142-1.1153-2.6142-3.2979,0-2.2431.9951-3.2744,2.4951-3.2744,1.57,0,2.2539,1.127,2.2539,2.9258v.6836H74.915C74.94,233.3643,75.3828,233.88,76.45,233.88Zm.9951-2.8662v-.1924c0-1.3311-.3838-1.8106-1.1748-1.8106-.8154,0-1.2959.4073-1.3555,2.003Z"/>
    <path class="b6cb1999-dda6-4e68-adc6-2afa930a2a30" d="M83.2539,225.9883h1.1035V234.6h-.6836l-.372-.7432-.6592.7071a1.9707,1.9707,0,0,1-.84.1679c-1.4629,0-2.2431-1.1269-2.2431-3.2861,0-2.291.9961-3.25,2.2549-3.25a2.141,2.141,0,0,1,1.4394.5274Zm0,3.55a2.033,2.033,0,0,0-1.2353-.4434c-.84,0-1.3194.42-1.3194,2.1465v.4561c0,1.6787.48,2.2783,1.3311,2.2783a1.8026,1.8026,0,0,0,1.2236-.5752Z"/>
  </g>
</svg>
