<?xml version="1.0" encoding="utf-8"?>
<!-- Generator: Adobe Illustrator 24.1.1, SVG Export Plug-In . SVG Version: 6.00 Build 0)  -->
<svg version="1.1" id="Layer_1" xmlns="http://www.w3.org/2000/svg" xmlns:xlink="http://www.w3.org/1999/xlink" x="0px" y="0px"
	 viewBox="0 0 204.9 246.2" style="enable-background:new 0 0 204.9 246.2;" xml:space="preserve">
<style type="text/css">
	.st0{fill:#F16363;}
	.st1{fill:#BBBDDF;}
	.st2{fill:#484D80;}
	.st3{fill:none;stroke:#D1D3D4;stroke-width:3;stroke-miterlimit:10;}
	.st4{enable-background:new    ;}
</style>
<path class="st0" d="M31.2,7.6h19.2c6.2,0,11.2,5,11.2,11.2v43.1c0,6.2-5,11.2-11.2,11.2H31.2C25,73.1,20,68,20,61.8v-43
	C20,12.6,25,7.6,31.2,7.6z"/>
<path class="st1" d="M20.1,41.4h41.4c0.1,0,0.1,0.1,0.1,0.1v9.7c0,0.1-0.1,0.1-0.1,0.1H20.1c-0.1,0-0.1-0.1-0.1-0.1v-9.7
	C20,41.5,20,41.4,20.1,41.4z"/>
<path class="st2" d="M20.1,51.4h41.4c0.1,0,0.1,0.1,0.1,0.1v114.6c0,0.1-0.1,0.1-0.1,0.1H20.1c-0.1,0-0.1-0.1-0.1-0.1V51.6
	C20,51.5,20,51.4,20.1,51.4z"/>
<path class="st0" d="M75.3,20.9h19.2c6.2,0,11.2,5,11.2,11.2v33.7c0,6.2-5,11.2-11.2,11.2H75.3c-6.2,0-11.2-5-11.2-11.2V32.2
	C64.1,26,69.1,20.9,75.3,20.9z"/>
<path class="st2" d="M64.2,57.8h41.4c0.1,0,0.1,0.1,0.1,0.1v108.2c0,0.1-0.1,0.1-0.1,0.1H64.2c-0.1,0-0.1-0.1-0.1-0.1V58
	C64.1,57.9,64.2,57.8,64.2,57.8z"/>
<path class="st0" d="M119.2,15h19.2c6.2,0,11.2,5,11.2,11.2v76.2c0,6.2-5,11.2-11.2,11.2h-19.2c-6.2,0-11.2-5-11.2-11.2V26.3
	C108,20.1,113,15,119.2,15z"/>
<path class="st1" d="M108.2,93.9h41.4c0.1,0,0.1,0.1,0.1,0.1v9.7c0,0.1-0.1,0.1-0.1,0.1h-41.4c-0.1,0-0.1-0.1-0.1-0.1L108.2,93.9
	C108,93.9,108.1,93.9,108.2,93.9z"/>
<path class="st2" d="M108.2,103.1h41.4c0.1,0,0.1,0.1,0.1,0.1v62.9c0,0.1-0.1,0.1-0.1,0.1h-41.4c-0.1,0-0.1-0.1-0.1-0.1v-62.9
	C108,103.2,108.1,103.1,108.2,103.1z"/>
<path class="st0" d="M183.2,104.9H164c-6.2,0-11.2-5-11.2-11.2V17.5c0-6.2,5-11.2,11.2-11.2h19.2c6.2,0,11.2,5,11.2,11.2v76.2
	C194.4,99.9,189.4,104.9,183.2,104.9z"/>
<path class="st2" d="M152.9,50.8h41.4c0.1,0,0.1,0.1,0.1,0.1v114.7c0,0.1-0.1,0.1-0.1,0.1h-41.4c-0.1,0-0.1-0.1-0.1-0.1V51
	C152.7,50.9,152.8,50.8,152.9,50.8z"/>
<polyline class="st3" points="18.2,7.4 18.2,166.3 194.3,165.8 "/>
<g class="st4">
	<path d="M4.4,10.1l0.1-0.2c0.3-0.8,0.9-1.3,1.6-1.8c0.7-0.5,1-0.8,1-1.3V6.7c0-0.6-0.3-0.8-0.9-0.8C5.6,5.9,5.2,6,4.7,6.2L4.5,5.4
		C4.9,5.2,5.4,5,6.4,5c1.4,0,2,0.7,2,1.7c0,1-0.8,1.5-1.7,2.1c-0.6,0.4-1,0.7-1.2,1.3l0,0.1L6.8,10h1.6v0.9H4.4V10.1z"/>
	<path d="M9.2,10.6l0.2-0.8c0.6,0.2,0.9,0.4,1.5,0.4c0.8,0,1.2-0.3,1.2-1V9.1c0-0.8-0.3-1-0.9-1c-0.5,0-0.7,0.1-0.8,0.4L9.5,8.3
		l0.2-3.2h3.4V6h-2.5l-0.1,1l-0.2,0.8c0.3-0.2,0.6-0.4,1.2-0.4c1,0,1.8,0.6,1.8,1.8c0,1.1-0.9,1.9-2.3,1.9
		C10.1,11,9.5,10.8,9.2,10.6z"/>
</g>
<g class="st4">
	<path d="M4.4,40l0.1-0.2C4.7,39,5.4,38.5,6.1,38c0.7-0.5,1-0.8,1-1.3v-0.1c0-0.6-0.3-0.8-0.9-0.8c-0.5,0-0.9,0.1-1.5,0.3l-0.2-0.8
		c0.4-0.2,0.9-0.4,1.9-0.4c1.4,0,2,0.7,2,1.7c0,1-0.8,1.5-1.7,2.1c-0.6,0.4-1,0.7-1.2,1.3l0,0.1l1.2-0.1h1.6v0.9H4.4V40z"/>
	<path d="M9.4,37.9c0-1.7,0.8-3,2.5-3c1.7,0,2.5,1.2,2.5,3c0,1.9-0.8,3.1-2.5,3.1C10.1,40.9,9.4,39.7,9.4,37.9z M13.1,38v-0.4
		c0-1.5-0.3-1.9-1.2-1.9s-1.2,0.5-1.2,1.9V38c0,1.6,0.4,2.1,1.2,2.1S13.1,39.6,13.1,38z"/>
</g>
<g class="st4">
	<path d="M4.5,71.1h1v-3.9h-1v-0.5L6.1,66h0.6v5.1h0.9v0.7H4.5V71.1z"/>
	<path d="M8.3,71.5l0.2-0.8c0.6,0.2,0.9,0.4,1.5,0.4c0.8,0,1.2-0.3,1.2-1V70c0-0.8-0.3-1-0.9-1c-0.5,0-0.7,0.1-0.8,0.4l-0.8-0.1
		L8.8,66h3.4v0.9H9.7l-0.1,1l-0.2,0.8c0.3-0.2,0.6-0.4,1.2-0.4c1,0,1.8,0.6,1.8,1.8c0,1.1-0.9,1.9-2.3,1.9C9.3,72,8.6,71.7,8.3,71.5
		z"/>
</g>
<g class="st4">
	<path d="M4.5,102.2h1v-3.9h-1v-0.5l1.6-0.8h0.6v5.1h0.9v0.7H4.5V102.2z"/>
	<path d="M8.5,100c0-1.7,0.8-3,2.5-3c1.7,0,2.5,1.2,2.5,3c0,1.9-0.8,3.1-2.5,3.1C9.3,103,8.5,101.8,8.5,100z M12.2,100.1v-0.4
		c0-1.5-0.3-1.9-1.2-1.9s-1.2,0.5-1.2,1.9v0.4c0,1.6,0.4,2.1,1.2,2.1S12.2,101.7,12.2,100.1z"/>
</g>
<g class="st4">
	<path d="M9.5,135.5l0.2-0.8c0.6,0.2,0.9,0.4,1.5,0.4c0.8,0,1.2-0.3,1.2-1V134c0-0.8-0.3-1-0.9-1c-0.5,0-0.7,0.1-0.8,0.4l-0.8-0.1
		L10,130h3.4v0.9h-2.5l-0.1,1l-0.2,0.8c0.3-0.2,0.6-0.4,1.2-0.4c1,0,1.8,0.6,1.8,1.8c0,1.1-0.9,1.9-2.3,1.9
		C10.4,135.9,9.8,135.7,9.5,135.5z"/>
</g>
<g class="st4">
	<path d="M9.9,163c0-1.7,0.8-3,2.5-3c1.7,0,2.5,1.2,2.5,3c0,1.9-0.8,3.1-2.5,3.1C10.7,166,9.9,164.8,9.9,163z M13.6,163.1v-0.4
		c0-1.5-0.3-1.9-1.2-1.9s-1.2,0.5-1.2,1.9v0.4c0,1.6,0.4,2.1,1.2,2.1S13.6,164.7,13.6,163.1z"/>
</g>
<rect x="7.7" y="187.5" class="st2" width="10" height="10"/>
<rect x="7.9" y="206" class="st1" width="10" height="10"/>
<rect x="8" y="225.5" class="st0" width="10" height="10"/>
<g>
	<path d="M25.8,189.8v-1H31v1h-2v6.8h-1.2v-6.8H25.8z"/>
	<path d="M33.5,190.4c0.3-0.1,0.6-0.2,0.9-0.2c0.4,0,0.6,0.1,0.8,0.2l-0.2,1c-0.2-0.1-0.5-0.2-0.9-0.2c-0.5,0-0.8,0.2-1.2,0.4v4.9
		h-1.1v-6.3h0.7l0.4,0.9L33.5,190.4z"/>
	<path d="M39,192.2c0-0.6-0.2-1.1-1-1.1c-0.6,0-1.2,0.2-1.9,0.4l-0.2-0.9c0.6-0.2,1.2-0.5,2.1-0.5c1.4,0,2,0.7,2,2.4v3
		c0,0.3,0.1,0.4,0.4,0.4h0.3l0,0.5c-0.1,0.1-0.4,0.2-0.7,0.2c-0.2,0-0.4,0-0.6-0.1l-0.4-0.7l-0.5,0.6c-0.2,0.1-0.6,0.2-1,0.2
		c-1,0-1.8-0.5-1.8-1.8c0-1.3,0.7-1.8,2.3-2l1-0.1V192.2z M39,193.6l-1,0.1c-0.9,0.1-1.3,0.4-1.3,1.2v0.1c0,0.7,0.4,1,1.1,1
		c0.6,0,0.9-0.3,1.2-0.5V193.6z"/>
	<path d="M43.7,190.5c0.3-0.1,0.6-0.3,1.1-0.3c1.1,0,1.7,0.6,1.7,2v4.4h-1.1v-4.6c0-0.7-0.4-0.9-0.9-0.9c-0.6,0-0.9,0.2-1.4,0.5v5
		H42v-6.3h0.7l0.4,0.8L43.7,190.5z"/>
	<path d="M47.8,196.4l0.1-0.8c0.4,0.2,1,0.4,1.6,0.4c0.8,0,1.2-0.3,1.2-1c0-0.7-0.3-0.8-1.4-1.1c-0.9-0.2-1.5-0.6-1.5-1.8
		c0-1.3,0.8-1.8,2.1-1.8c0.8,0,1.3,0.2,1.7,0.4l-0.2,0.8c-0.5-0.2-0.9-0.3-1.5-0.3c-0.7,0-1.1,0.2-1.1,0.9c0,0.7,0.3,0.8,1.3,1
		c1.1,0.3,1.7,0.7,1.7,1.9c0,1.1-0.7,1.9-2.1,1.9C48.8,196.8,48.2,196.6,47.8,196.4z"/>
	<path d="M53,188.6c0-0.4,0.3-0.7,0.7-0.7s0.7,0.3,0.7,0.7s-0.3,0.7-0.7,0.7S53,189,53,188.6z M53.1,190.3h1.1v6.3h-1.1V190.3z"/>
	<path d="M56.2,195.1v-4h-0.7v-0.8h0.8l0.5-1.7h0.5v1.7h1.4v0.8h-1.4v4.2c0,0.4,0.1,0.5,0.6,0.5h0.9l0.1,0.6
		c-0.3,0.1-0.7,0.3-1.3,0.3C56.6,196.7,56.2,196.2,56.2,195.1z"/>
	<path d="M59.9,188.6c0-0.4,0.3-0.7,0.7-0.7s0.7,0.3,0.7,0.7s-0.3,0.7-0.7,0.7S59.9,189,59.9,188.6z M60.1,190.3h1.1v6.3h-1.1V190.3
		z"/>
	<path d="M62.6,193.5c0-2.1,1-3.3,2.5-3.3s2.5,1.1,2.5,3.3c0,2.1-1,3.3-2.5,3.3C63.6,196.8,62.6,195.6,62.6,193.5z M66.5,193.6v-0.2
		c0-1.8-0.5-2.3-1.4-2.3s-1.4,0.5-1.4,2.3v0.2c0,1.8,0.5,2.4,1.4,2.4C66,195.9,66.5,195.4,66.5,193.6z"/>
	<path d="M70.7,190.5c0.3-0.1,0.6-0.3,1.1-0.3c1.1,0,1.7,0.6,1.7,2v4.4h-1.1v-4.6c0-0.7-0.4-0.9-0.9-0.9c-0.6,0-0.9,0.2-1.4,0.5v5
		h-1.1v-6.3h0.7l0.4,0.8L70.7,190.5z"/>
	<path d="M78.2,192.2c0-0.6-0.2-1.1-1-1.1c-0.6,0-1.2,0.2-1.9,0.4l-0.2-0.9c0.6-0.2,1.2-0.5,2.1-0.5c1.4,0,2,0.7,2,2.4v3
		c0,0.3,0.1,0.4,0.4,0.4h0.3l0,0.5c-0.1,0.1-0.4,0.2-0.7,0.2c-0.2,0-0.4,0-0.6-0.1l-0.4-0.7l-0.5,0.6c-0.2,0.1-0.6,0.2-1,0.2
		c-1,0-1.8-0.5-1.8-1.8c0-1.3,0.7-1.8,2.3-2l1-0.1V192.2z M78.2,193.6l-1,0.1c-0.9,0.1-1.3,0.4-1.3,1.2v0.1c0,0.7,0.4,1,1.1,1
		c0.6,0,0.9-0.3,1.2-0.5V193.6z"/>
	<path d="M81.2,188h1.1v8.6h-1.1V188z"/>
	<path d="M86.6,196.2l0.2-0.9c0.7,0.3,1.2,0.5,1.9,0.5c1,0,1.5-0.3,1.5-1.3c0-0.8-0.3-1-1.5-1.4c-1.4-0.4-2.1-0.8-2.1-2.4
		c0-1.4,0.9-2.2,2.4-2.2c1,0,1.5,0.2,2,0.4l-0.2,0.9c-0.6-0.2-1-0.3-1.8-0.3c-0.9,0-1.3,0.3-1.3,1.1c0,0.8,0.2,1,1.4,1.3
		c1.4,0.4,2.2,0.9,2.2,2.4c0,1.5-0.9,2.3-2.5,2.3C87.8,196.8,87.1,196.5,86.6,196.2z"/>
	<path d="M94,196.6h-1.1V188H94v3.1l0.6-0.6c0.3-0.1,0.6-0.3,1.1-0.3c1.1,0,1.7,0.6,1.7,2v4.4h-1.1v-4.6c0-0.7-0.4-0.9-0.9-0.9
		c-0.6,0-0.9,0.2-1.4,0.5V196.6z"/>
	<path d="M101.4,195.9c0.6,0,1.1-0.2,1.6-0.4l0.2,0.8c-0.4,0.2-1.1,0.5-1.9,0.5c-1.7,0-2.6-1.1-2.6-3.3c0-2.2,1-3.3,2.5-3.3
		c1.6,0,2.3,1.1,2.3,2.9v0.7h-3.6C99.9,195.4,100.3,195.9,101.4,195.9z M102.4,193v-0.2c0-1.3-0.4-1.8-1.2-1.8c-0.8,0-1.3,0.4-1.4,2
		H102.4z"/>
	<path d="M105,188h1.1v8.6H105V188z"/>
	<path d="M108,195.1v-4h-0.7v-0.8h0.8l0.5-1.7h0.5v1.7h1.4v0.8h-1.4v4.2c0,0.4,0.1,0.5,0.6,0.5h0.9l0.1,0.6
		c-0.3,0.1-0.7,0.3-1.3,0.3C108.4,196.7,108,196.2,108,195.1z"/>
	<path d="M114.2,195.9c0.6,0,1.1-0.2,1.6-0.4l0.2,0.8c-0.4,0.2-1.1,0.5-1.9,0.5c-1.7,0-2.6-1.1-2.6-3.3c0-2.2,1-3.3,2.5-3.3
		c1.6,0,2.3,1.1,2.3,2.9v0.7h-3.6C112.7,195.4,113.1,195.9,114.2,195.9z M115.2,193v-0.2c0-1.3-0.4-1.8-1.2-1.8
		c-0.8,0-1.3,0.4-1.4,2H115.2z"/>
	<path d="M119.4,190.4c0.3-0.1,0.6-0.2,0.9-0.2c0.4,0,0.6,0.1,0.8,0.2l-0.2,1c-0.2-0.1-0.5-0.2-0.9-0.2c-0.5,0-0.8,0.2-1.2,0.4v4.9
		h-1.1v-6.3h0.7l0.4,0.9L119.4,190.4z"/>
	<path d="M124.3,195.9c0.6,0,1.1-0.2,1.6-0.4l0.2,0.8c-0.4,0.2-1.1,0.5-1.9,0.5c-1.7,0-2.6-1.1-2.6-3.3c0-2.2,1-3.3,2.5-3.3
		c1.6,0,2.3,1.1,2.3,2.9v0.7h-3.6C122.8,195.4,123.3,195.9,124.3,195.9z M125.3,193v-0.2c0-1.3-0.4-1.8-1.2-1.8
		c-0.8,0-1.3,0.4-1.4,2H125.3z"/>
	<path d="M131.1,188h1.1v8.6h-0.7l-0.4-0.7l-0.7,0.7c-0.2,0.1-0.5,0.2-0.8,0.2c-1.5,0-2.2-1.1-2.2-3.3c0-2.3,1-3.3,2.3-3.3
		c0.7,0,1.1,0.3,1.4,0.5V188z M131.1,191.5c-0.3-0.2-0.7-0.4-1.2-0.4c-0.8,0-1.3,0.4-1.3,2.1v0.5c0,1.7,0.5,2.3,1.3,2.3
		c0.5,0,0.8-0.2,1.2-0.6V191.5z"/>
</g>
<g>
	<path d="M26.5,207.3h4.3v1h-3.1v2.4h2.7v0.9h-2.7v2.6H31v0.9h-4.6V207.3z"/>
	<path d="M37.3,208.9c0.3-0.1,0.6-0.3,1.1-0.3c1,0,1.7,0.6,1.7,2v4.4H39v-4.6c0-0.7-0.3-0.9-0.9-0.9c-0.5,0-0.9,0.2-1.3,0.5v5h-1.1
		v-4.6c0-0.7-0.4-0.9-0.9-0.9c-0.5,0-0.9,0.2-1.3,0.4v5.1h-1.1v-6.3h0.7l0.4,0.8l0.6-0.6c0.3-0.1,0.6-0.3,1.1-0.3
		c0.5,0,0.8,0.1,1.1,0.3l0.4,0.7L37.3,208.9z"/>
	<path d="M44.1,214.4c0.6,0,1.1-0.2,1.6-0.4l0.2,0.8c-0.4,0.2-1.1,0.5-1.9,0.5c-1.7,0-2.6-1.1-2.6-3.3c0-2.2,1-3.3,2.5-3.3
		c1.6,0,2.3,1.1,2.3,2.9v0.7h-3.6C42.6,213.8,43.1,214.4,44.1,214.4z M45.1,211.5v-0.2c0-1.3-0.4-1.8-1.2-1.8c-0.8,0-1.3,0.4-1.4,2
		H45.1z"/>
	<path d="M49.3,208.9c0.3-0.1,0.6-0.2,0.9-0.2c0.4,0,0.6,0.1,0.8,0.2l-0.2,1c-0.2-0.1-0.5-0.2-0.9-0.2c-0.5,0-0.8,0.2-1.2,0.4v4.9
		h-1.1v-6.3h0.7l0.4,0.9L49.3,208.9z"/>
	<path d="M56.9,208.5v1h-1.4l0.8,0.5c0,0.2,0.1,0.3,0.1,0.6c0,1.5-1.1,2.1-2.3,2.1c-0.4,0-0.8-0.1-1.1-0.2c-0.2,0.1-0.3,0.3-0.3,0.6
		c0,0.4,0.2,0.6,0.8,0.6h1.4c1.2,0,1.9,0.5,1.9,1.6c0,1.4-1.2,2-2.8,2c-1.6,0-2.4-0.6-2.4-1.5c0-0.5,0.2-0.7,0.3-0.9l0.7-0.3
		c-0.4-0.1-0.8-0.4-0.8-1c0-0.4,0.1-0.6,0.3-0.8l0.7-0.4l-0.7-0.5c-0.2-0.3-0.3-0.7-0.3-1.1c0-1.5,1.2-2,2.3-2c0.5,0,1,0.1,1.4,0.4
		L56.9,208.5z M52.5,215.5c0,0.6,0.4,0.9,1.4,0.9c1.2,0,1.7-0.5,1.7-1v-0.1c0-0.4-0.2-0.7-0.9-0.7H53
		C52.7,214.8,52.5,215.1,52.5,215.5z M55.2,210.8v-0.2c0-0.8-0.4-1.2-1.2-1.2c-0.8,0-1.2,0.4-1.2,1.1v0.2c0,0.9,0.4,1.2,1.2,1.2
		C54.9,212,55.2,211.6,55.2,210.8z"/>
	<path d="M60.2,214.4c0.6,0,1.1-0.2,1.6-0.4l0.2,0.8c-0.4,0.2-1.1,0.5-1.9,0.5c-1.7,0-2.6-1.1-2.6-3.3c0-2.2,1-3.3,2.5-3.3
		c1.6,0,2.3,1.1,2.3,2.9v0.7h-3.6C58.7,213.8,59.2,214.4,60.2,214.4z M61.2,211.5v-0.2c0-1.3-0.4-1.8-1.2-1.8c-0.8,0-1.3,0.4-1.4,2
		H61.2z"/>
	<path d="M65.4,208.9c0.3-0.1,0.6-0.3,1.1-0.3c1.1,0,1.7,0.6,1.7,2v4.4h-1.1v-4.6c0-0.7-0.4-0.9-0.9-0.9c-0.6,0-0.9,0.2-1.4,0.5v5
		h-1.1v-6.3h0.7l0.4,0.8L65.4,208.9z"/>
	<path d="M69.6,211.9c0-2.2,0.9-3.3,2.5-3.3c0.7,0,1.3,0.2,1.7,0.4l-0.2,0.8c-0.5-0.2-1-0.3-1.5-0.3c-0.9,0-1.4,0.4-1.4,2.2v0.2
		c0,1.8,0.5,2.4,1.4,2.4c0.6,0,1-0.2,1.5-0.4l0.2,0.8c-0.4,0.2-1,0.5-1.8,0.5C70.4,215.2,69.6,214.1,69.6,211.9z"/>
	<path d="M76.5,214.9l-2-6.1h1.1l1.1,3.7l0.3,1.8l0.3-1.8l1.1-3.7h1l-2.6,8.2h-1.1L76.5,214.9z"/>
	<path d="M83.1,214.7l0.2-0.9c0.7,0.3,1.2,0.5,1.9,0.5c1,0,1.5-0.3,1.5-1.3c0-0.8-0.3-1-1.5-1.4c-1.4-0.4-2.1-0.8-2.1-2.4
		c0-1.4,0.9-2.2,2.4-2.2c1,0,1.5,0.2,2,0.4l-0.2,0.9c-0.6-0.2-1-0.3-1.8-0.3c-0.9,0-1.3,0.3-1.3,1.1c0,0.8,0.2,1,1.4,1.3
		c1.4,0.4,2.2,0.9,2.2,2.4c0,1.5-0.9,2.3-2.5,2.3C84.3,215.2,83.6,215,83.1,214.7z"/>
	<path d="M90.4,215.1h-1.1v-8.6h1.1v3.1l0.6-0.6c0.3-0.1,0.6-0.3,1.1-0.3c1.1,0,1.7,0.6,1.7,2v4.4h-1.1v-4.6c0-0.7-0.4-0.9-0.9-0.9
		c-0.6,0-0.9,0.2-1.4,0.5V215.1z"/>
	<path d="M97.9,214.4c0.6,0,1.1-0.2,1.6-0.4l0.2,0.8c-0.4,0.2-1.1,0.5-1.9,0.5c-1.7,0-2.6-1.1-2.6-3.3c0-2.2,1-3.3,2.5-3.3
		c1.6,0,2.3,1.1,2.3,2.9v0.7h-3.6C96.4,213.8,96.8,214.4,97.9,214.4z M98.9,211.5v-0.2c0-1.3-0.4-1.8-1.2-1.8c-0.8,0-1.3,0.4-1.4,2
		H98.9z"/>
	<path d="M101.4,206.5h1.1v8.6h-1.1V206.5z"/>
	<path d="M104.5,213.6v-4h-0.7v-0.8h0.8l0.5-1.7h0.5v1.7h1.4v0.8h-1.4v4.2c0,0.4,0.1,0.5,0.6,0.5h0.9l0.1,0.6
		c-0.3,0.1-0.7,0.3-1.3,0.3C104.9,215.2,104.5,214.7,104.5,213.6z"/>
	<path d="M110.7,214.4c0.6,0,1.1-0.2,1.6-0.4l0.2,0.8c-0.4,0.2-1.1,0.5-1.9,0.5c-1.7,0-2.6-1.1-2.6-3.3c0-2.2,1-3.3,2.5-3.3
		c1.6,0,2.3,1.1,2.3,2.9v0.7h-3.6C109.1,213.8,109.6,214.4,110.7,214.4z M111.6,211.5v-0.2c0-1.3-0.4-1.8-1.2-1.8
		c-0.8,0-1.3,0.4-1.4,2H111.6z"/>
	<path d="M115.8,208.9c0.3-0.1,0.6-0.2,0.9-0.2c0.4,0,0.6,0.1,0.8,0.2l-0.2,1c-0.2-0.1-0.5-0.2-0.9-0.2c-0.5,0-0.8,0.2-1.2,0.4v4.9
		h-1.1v-6.3h0.7l0.4,0.9L115.8,208.9z"/>
	<path d="M120.8,214.4c0.6,0,1.1-0.2,1.6-0.4l0.2,0.8c-0.4,0.2-1.1,0.5-1.9,0.5c-1.7,0-2.6-1.1-2.6-3.3c0-2.2,1-3.3,2.5-3.3
		c1.6,0,2.3,1.1,2.3,2.9v0.7h-3.6C119.3,213.8,119.7,214.4,120.8,214.4z M121.8,211.5v-0.2c0-1.3-0.4-1.8-1.2-1.8
		c-0.8,0-1.3,0.4-1.4,2H121.8z"/>
	<path d="M127.6,206.5h1.1v8.6H128l-0.4-0.7L127,215c-0.2,0.1-0.5,0.2-0.8,0.2c-1.5,0-2.2-1.1-2.2-3.3c0-2.3,1-3.3,2.3-3.3
		c0.7,0,1.1,0.3,1.4,0.5V206.5z M127.6,210c-0.3-0.2-0.7-0.4-1.2-0.4c-0.8,0-1.3,0.4-1.3,2.1v0.5c0,1.7,0.5,2.3,1.3,2.3
		c0.5,0,0.8-0.2,1.2-0.6V210z"/>
</g>
<g>
	<path d="M30.5,226.8h1.2v7.8H31l-0.3-0.8l-0.5,0.7c-0.3,0.1-0.8,0.3-1.4,0.3c-1.5,0-2.3-0.9-2.3-3.1v-4.9h1.2v5.2
		c0,1.5,0.4,1.8,1.3,1.8c0.7,0,1.2-0.2,1.5-0.4V226.8z"/>
	<path d="M35.2,228.4c0.3-0.1,0.6-0.3,1.1-0.3c1.1,0,1.7,0.6,1.7,2v4.4H37V230c0-0.7-0.4-0.9-0.9-0.9c-0.6,0-0.9,0.2-1.4,0.5v5h-1.1
		v-6.3h0.7l0.4,0.8L35.2,228.4z"/>
	<path d="M39.4,234.4l0.1-0.8c0.4,0.2,1,0.4,1.6,0.4c0.8,0,1.2-0.3,1.2-1c0-0.7-0.3-0.8-1.4-1.1c-0.9-0.2-1.5-0.6-1.5-1.8
		c0-1.3,0.8-1.8,2.1-1.8c0.8,0,1.3,0.2,1.7,0.4l-0.2,0.8c-0.5-0.2-0.9-0.3-1.5-0.3c-0.7,0-1.1,0.2-1.1,0.9c0,0.7,0.3,0.8,1.3,1
		c1.1,0.3,1.7,0.7,1.7,1.9c0,1.1-0.7,1.9-2.1,1.9C40.4,234.8,39.8,234.6,39.4,234.4z"/>
	<path d="M45.8,234.6h-1.1V226h1.1v3.1l0.6-0.6c0.3-0.1,0.6-0.3,1.1-0.3c1.1,0,1.7,0.6,1.7,2v4.4h-1.1V230c0-0.7-0.4-0.9-0.9-0.9
		c-0.6,0-0.9,0.2-1.4,0.5V234.6z"/>
	<path d="M53.2,233.9c0.6,0,1.1-0.2,1.6-0.4l0.2,0.8c-0.4,0.2-1.1,0.5-1.9,0.5c-1.7,0-2.6-1.1-2.6-3.3c0-2.2,1-3.3,2.5-3.3
		c1.6,0,2.3,1.1,2.3,2.9v0.7h-3.6C51.7,233.4,52.2,233.9,53.2,233.9z M54.2,231v-0.2c0-1.3-0.4-1.8-1.2-1.8c-0.8,0-1.3,0.4-1.4,2
		H54.2z"/>
	<path d="M56.8,226h1.1v8.6h-1.1V226z"/>
	<path d="M59.9,233.1v-4h-0.7v-0.8h0.8l0.5-1.7H61v1.7h1.4v0.8H61v4.2c0,0.4,0.1,0.5,0.6,0.5h0.9l0.1,0.6c-0.3,0.1-0.7,0.3-1.3,0.3
		C60.3,234.7,59.9,234.2,59.9,233.1z"/>
	<path d="M66,233.9c0.6,0,1.1-0.2,1.6-0.4l0.2,0.8c-0.4,0.2-1.1,0.5-1.9,0.5c-1.7,0-2.6-1.1-2.6-3.3c0-2.2,1-3.3,2.5-3.3
		c1.6,0,2.3,1.1,2.3,2.9v0.7h-3.6C64.5,233.4,64.9,233.9,66,233.9z M67,231v-0.2c0-1.3-0.4-1.8-1.2-1.8c-0.8,0-1.3,0.4-1.4,2H67z"/>
	<path d="M71.2,228.4c0.3-0.1,0.6-0.2,0.9-0.2c0.4,0,0.6,0.1,0.8,0.2l-0.2,1c-0.2-0.1-0.5-0.2-0.9-0.2c-0.5,0-0.8,0.2-1.2,0.4v4.9
		h-1.1v-6.3h0.7l0.4,0.9L71.2,228.4z"/>
	<path d="M76.2,233.9c0.6,0,1.1-0.2,1.6-0.4l0.2,0.8c-0.4,0.2-1.1,0.5-1.9,0.5c-1.7,0-2.6-1.1-2.6-3.3c0-2.2,1-3.3,2.5-3.3
		c1.6,0,2.3,1.1,2.3,2.9v0.7h-3.6C74.6,233.4,75.1,233.9,76.2,233.9z M77.1,231v-0.2c0-1.3-0.4-1.8-1.2-1.8c-0.8,0-1.3,0.4-1.4,2
		H77.1z"/>
	<path d="M83,226h1.1v8.6h-0.7l-0.4-0.7l-0.7,0.7c-0.2,0.1-0.5,0.2-0.8,0.2c-1.5,0-2.2-1.1-2.2-3.3c0-2.3,1-3.3,2.3-3.3
		c0.7,0,1.1,0.3,1.4,0.5V226z M83,229.5c-0.3-0.2-0.7-0.4-1.2-0.4c-0.8,0-1.3,0.4-1.3,2.1v0.5c0,1.7,0.5,2.3,1.3,2.3
		c0.5,0,0.8-0.2,1.2-0.6V229.5z"/>
</g>
<g>
	<path d="M30.2,176.2l0.1-0.2c0.2-0.8,0.8-1.3,1.4-1.8c0.6-0.5,0.9-0.8,0.9-1.3v-0.1c0-0.6-0.3-0.8-0.8-0.8c-0.5,0-0.8,0.1-1.3,0.3
		l-0.2-0.8c0.3-0.2,0.8-0.4,1.7-0.4c1.3,0,1.8,0.7,1.8,1.7c0,1-0.7,1.5-1.5,2.1c-0.5,0.4-0.9,0.7-1.1,1.3l0,0.1l1.1-0.1h1.4v0.9
		h-3.5V176.2z"/>
	<path d="M34.6,174.1c0-1.7,0.7-3,2.2-3c1.5,0,2.2,1.2,2.2,3c0,1.9-0.7,3.1-2.3,3.1C35.3,177.1,34.6,175.9,34.6,174.1z M37.9,174.2
		v-0.4c0-1.5-0.3-1.9-1.1-1.9s-1.1,0.5-1.1,1.9v0.4c0,1.6,0.3,2.1,1.1,2.1C37.6,176.3,37.9,175.8,37.9,174.2z"/>
	<path d="M39.9,176.3h0.8v-3.9h-0.8V172l1.4-0.8h0.6v5.1h0.8v0.7h-2.8V176.3z"/>
	<path d="M45.4,173.3c0.1,0,0.2-0.1,0.4-0.1c1.1,0,1.8,0.7,1.8,1.9c0,1.3-0.8,2-2.1,2c-1.2,0-2.1-0.8-2.1-2.4c0-1.7,1.2-2.9,2.2-3.5
		h1.4c-1.1,0.7-2.1,1.6-2.4,2.6L45.4,173.3z M44.6,174.4v0.4c0,1.1,0.3,1.6,1,1.6c0.7,0,0.9-0.3,0.9-1.1V175c0-0.8-0.3-1-1-1
		c-0.4,0-0.7,0.1-1,0.3C44.6,174.3,44.6,174.3,44.6,174.4z"/>
</g>
<g>
	<path d="M74.9,176.2l0.1-0.2c0.2-0.8,0.8-1.3,1.4-1.8c0.6-0.5,0.9-0.8,0.9-1.3v-0.1c0-0.6-0.3-0.8-0.8-0.8c-0.5,0-0.8,0.1-1.3,0.3
		l-0.2-0.8c0.3-0.2,0.8-0.4,1.7-0.4c1.3,0,1.8,0.7,1.8,1.7c0,1-0.7,1.5-1.5,2.1c-0.5,0.4-0.9,0.7-1.1,1.3l0,0.1l1.1-0.1h1.4v0.9
		h-3.5V176.2z"/>
	<path d="M79.2,174.1c0-1.7,0.7-3,2.2-3c1.5,0,2.2,1.2,2.2,3c0,1.9-0.7,3.1-2.3,3.1C79.9,177.1,79.2,175.9,79.2,174.1z M82.5,174.2
		v-0.4c0-1.5-0.3-1.9-1.1-1.9s-1.1,0.5-1.1,1.9v0.4c0,1.6,0.3,2.1,1.1,2.1C82.2,176.3,82.5,175.8,82.5,174.2z"/>
	<path d="M84.5,176.3h0.8v-3.9h-0.8V172l1.4-0.8h0.6v5.1h0.8v0.7h-2.8V176.3z"/>
	<path d="M90.1,172.9l0.6-0.8l-1,0.1h-1.9v-0.9h3.7v1l-2.1,4.8h-1.2L90.1,172.9z"/>
</g>
<g>
	<path d="M121.9,176.2l0.1-0.2c0.2-0.8,0.8-1.3,1.4-1.8c0.6-0.5,0.9-0.8,0.9-1.3v-0.1c0-0.6-0.3-0.8-0.8-0.8c-0.5,0-0.8,0.1-1.3,0.3
		l-0.2-0.8c0.3-0.2,0.8-0.4,1.7-0.4c1.3,0,1.8,0.7,1.8,1.7c0,1-0.7,1.5-1.5,2.1c-0.5,0.4-0.9,0.7-1.1,1.3l0,0.1l1.1-0.1h1.4v0.9
		h-3.5V176.2z"/>
	<path d="M126.3,174.1c0-1.7,0.7-3,2.2-3c1.5,0,2.2,1.2,2.2,3c0,1.9-0.7,3.1-2.3,3.1C127,177.1,126.3,175.9,126.3,174.1z
		 M129.6,174.2v-0.4c0-1.5-0.3-1.9-1.1-1.9c-0.8,0-1.1,0.5-1.1,1.9v0.4c0,1.6,0.3,2.1,1.1,2.1S129.6,175.8,129.6,174.2z"/>
	<path d="M131.6,176.3h0.8v-3.9h-0.8V172l1.4-0.8h0.6v5.1h0.8v0.7h-2.8V176.3z"/>
	<path d="M135.3,172.6c0-0.9,0.6-1.6,1.9-1.6c1.3,0,1.8,0.7,1.8,1.5c0,0.4-0.1,0.7-0.3,0.9l-0.8,0.4c0.7,0.3,1.3,0.7,1.3,1.6
		c0,1-0.7,1.7-2.1,1.7c-1.5,0-2.1-0.7-2.1-1.6c0-0.5,0.2-0.8,0.4-1l0.8-0.3C135.7,173.8,135.3,173.4,135.3,172.6z M136.1,175.4v0.1
		c0,0.6,0.3,0.9,1,0.9c0.7,0,1-0.3,1-0.8v-0.1c0-0.5-0.4-0.6-1.4-1C136.3,174.7,136.1,175,136.1,175.4z M138,172.7L138,172.7
		c0-0.5-0.2-0.8-0.8-0.8c-0.6,0-0.8,0.3-0.8,0.7v0.1c0,0.5,0.3,0.7,1.1,1C137.9,173.3,138,173.1,138,172.7z"/>
</g>
<g>
	<path d="M164.1,176.2l0.1-0.2c0.2-0.8,0.8-1.3,1.4-1.8c0.6-0.5,0.9-0.8,0.9-1.3v-0.1c0-0.6-0.3-0.8-0.8-0.8c-0.5,0-0.8,0.1-1.3,0.3
		l-0.2-0.8c0.3-0.2,0.8-0.4,1.7-0.4c1.3,0,1.8,0.7,1.8,1.7c0,1-0.7,1.5-1.5,2.1c-0.5,0.4-0.9,0.7-1.1,1.3l0,0.1l1.1-0.1h1.4v0.9
		h-3.5V176.2z"/>
	<path d="M168.5,174.1c0-1.7,0.7-3,2.2-3c1.5,0,2.2,1.2,2.2,3c0,1.9-0.7,3.1-2.3,3.1C169.2,177.1,168.5,175.9,168.5,174.1z
		 M171.8,174.2v-0.4c0-1.5-0.3-1.9-1.1-1.9s-1.1,0.5-1.1,1.9v0.4c0,1.6,0.3,2.1,1.1,2.1C171.5,176.3,171.8,175.9,171.8,174.2z"/>
	<path d="M173.8,176.3h0.8v-3.9h-0.8V172l1.4-0.8h0.6v5.1h0.8v0.7h-2.8V176.3z"/>
	<path d="M179.3,175c-0.1,0-0.2,0.1-0.4,0.1c-1.1,0-1.8-0.7-1.8-1.9c0-1.2,0.8-2,2.1-2c1.2,0,2.1,0.8,2.1,2.4c0,1.7-1.2,2.8-2.2,3.5
		h-1.4c1.1-0.7,2.1-1.5,2.4-2.5L179.3,175z M180.2,173.9v-0.4c0-1.1-0.3-1.5-1-1.5c-0.7,0-0.9,0.3-0.9,1.1v0.2c0,0.8,0.3,1.1,1,1.1
		c0.4,0,0.7-0.1,1-0.3C180.2,174,180.2,173.9,180.2,173.9z"/>
</g>
</svg>
