<svg id="b9f4b461-bd4a-4129-92ac-e117348d5bbc" data-name="bdc6570f-65ff-4795-9bfc-cc5cb4c1509f" xmlns="http://www.w3.org/2000/svg" width="501.5556" height="249.3333" viewBox="0 0 501.5556 249.3333">
  <defs>
    <style>
      .bde1bcd1-e03f-450d-86d6-61dd9c459fca {
        fill: #4f5384;
      }

      .e75351e6-e45b-4413-a801-c3bad01c0a1d {
        fill: #bdbfe1;
      }

      .b4a31f98-3dc7-4bba-b57d-f5a6b2baf4c5 {
        fill: #eae9e9;
      }

      .b8cf1bcc-31c3-4375-a928-d7c7b78cbf75 {
        fill: #cfd0d0;
      }

      .fd0f3904-b92b-49b7-ae44-fd5f93dfe559 {
        fill: #484d80;
      }

      .a368e864-8bdb-4a47-b4f8-86370981a816 {
        fill: #231f20;
      }

      .ac53ecee-f34d-4b77-8c69-fff2c4676801 {
        fill: #bbbddf;
      }
    </style>
  </defs>
  <path class="bde1bcd1-e03f-450d-86d6-61dd9c459fca" d="M195.543,74.3861c1.3581,3.1813,3.7833,3.8441,6.2085,4.9045,18.1407,7.29,36.2814,14.7134,54.422,22.1364,1.2611.53,2.5223,1.193,3.88.1325a1.1727,1.1727,0,0,1,1.6491.2651c3.2013,3.8441,7.2757,2.6511,10.962,3.1813,16.6856,2.6511,33.3711,4.9045,50.1536,7.29,3.7834-2.5185,7.2757,1.0605,10.962,1.193,16.0065,1.0605,32.013,2.386,48.1165,3.7115,2.6192.2651,5.1414.3977,7.7607.53a2.1509,2.1509,0,0,0,1.94-.53,2.1829,2.1829,0,0,1,3.7834,0,.7613.7613,0,0,1,.194.3977c.7761,1.193,1.8432,1.06,2.8133,1.06,13.4842,1.4581,26.9684,3.0487,40.55,4.3743,4.9474.53,9.7979,1.06,14.7453,1.5906,1.8432.2651,3.4924.7953,5.2385-.7953,1.1641-1.06,2.5222-.2651,3.2013,1.3255a4.2171,4.2171,0,0,1-.4851,4.6394,1.921,1.921,0,0,1-3.2982.2651l-.0971-.1326a4.623,4.623,0,0,0-3.5893-1.8557l-47.4373-5.037c-2.91-.2651-5.8206-.6628-8.7308-.9279-1.4552-.1326-2.7163-.53-3.9774.9279-.97,1.06-2.1342.53-2.91-.6628a3.0025,3.0025,0,0,0-2.5222-1.3255l-56.8472-4.2417c-1.4551-.1326-2.8133-.2651-4.0744,1.06a1.5664,1.5664,0,0,1-2.5222-.2651c-1.2611-1.8558-2.91-1.8558-4.5595-2.1209-15.0363-2.1208-30.0727-4.3742-45.1091-6.6276-3.5893-.53-7.1786-1.7232-10.671-1.3255-3.2013.2651-6.3055,1.7231-8.6338-2.5186C236.9657,97.1853,217.467,89.1,197.7741,81.4115a7.4,7.4,0,0,0-6.7906,1.06q-29.2482,21.0759-58.4963,42.2845a5.1042,5.1042,0,0,0-2.1342,3.0487c-.3881,1.4581-1.4552,2.386-2.6193,1.9883-1.1641-.1326-2.0372-1.3255-2.2312-2.9162a7.1653,7.1653,0,0,0-1.2611-3.5789c-12.1261-16.1715-24.1552-32.21-36.2813-48.3819a2.1114,2.1114,0,0,0-.5821-.53l-1.4551-2.1209c-7.3727-9.9415-14.8424-19.883-22.215-29.6919a2.6993,2.6993,0,0,0-2.2312-1.193c-1.4552-.1325-2.5223-1.9883-2.4253-3.9766v-.1325c0-1.8558,1.0671-3.3139,2.4253-3.3139,1.3581-.2651,2.6192.9279,2.91,2.7837v.6627a3.9608,3.9608,0,0,0,.7761,2.386c8.44,11.1345,16.7825,22.2689,25.2223,33.4034l.97,1.3255a7.617,7.617,0,0,0,.582,1.06q17.0251,22.6667,34.05,45.3332c1.6491,2.2534,3.4923,2.2534,5.6265.7954q26.92-19.6842,53.9369-39.1032c2.91-2.1209,6.1116-3.579,7.6637-8.0858Z"/>
  <path class="e75351e6-e45b-4413-a801-c3bad01c0a1d" d="M108.429,132.71a78.7678,78.7678,0,0,0,17.0736,7.688c6.0145,1.7232,12.0291,3.7115,18.3346,4.3743s12.5142,1.9883,18.82,3.1813l28.23,5.17a1.5141,1.5141,0,0,0,1.6491-.2651c1.7462-1.4581,3.2983-1.3256,4.4624,1.3255a2.4608,2.4608,0,0,0,1.6492,1.4581c19.4988,10.2066,38.9,20.5457,58.4963,30.3546,4.1714,2.1209,8.9248,1.193,13.4842.1326,10.089-2.5185,20.1779-4.5068,30.2668-6.6276l22.4091-4.772c4.3654-5.037,9.41-.53,14.1633-1.8557,7.2757-1.8558,14.8423-1.9883,22.312-2.9162,5.3355-.53,10.671-1.06,15.9095-1.4581,4.6564-.3976,9.6039.2651,13.8723-1.7232,3.2012-1.5906,5.2384-.7953,8.1487.1326,3.5893,1.193,7.47.53,11.156.9279,9.0218.7953,18.0437.9278,26.9685,1.5906,6.5.53,12.9992,1.193,19.4988,1.3255a3.983,3.983,0,0,0,3.1043-.9278c1.1641-1.06,2.8132-.6628,3.5893.9278a4.632,4.632,0,0,1-.291,4.5068,2.3916,2.3916,0,0,1-3.88.1326c-.582-.6628-1.0671-1.3255-1.94-1.3255-3.5894.3976-7.1787-.53-10.768-.6628-11.9321-.6628-23.8642-1.06-35.6993-2.2534-4.0744-.3977-8.2458.2651-12.2231-1.06-.1941,0-.3881-.1326-.4851,0-3.3953,3.844-7.0816-.3977-10.6709.53s-7.47,1.06-11.1561,1.4581c-9.41,1.1929-18.9167,2.2534-28.3266,3.3138-4.9474.53-9.9919,1.06-14.9393,1.4581-.97.1325-1.94,0-2.6193,1.3255-.485.9279-1.4551,1.7232-2.2312,1.193-3.6863-2.6511-7.2756-.1326-10.768.53-10.0889,1.9883-20.1778,4.2417-30.2668,6.6277-5.7235,1.3255-11.544,1.8557-17.0735,4.1091-.97.2651-2.1342-.53-3.0073.6628-.8731.2651-1.7462-.1326-2.6193.7953-2.4252,2.9162-2.91,2.6511-4.9474-.7953l-.4851-.6628c-7.1786-4.5068-14.7453-7.8206-22.118-11.6647-12.2231-6.4951-24.4462-12.8576-36.6694-19.22-1.2611-.6628-2.4252-1.4581-3.7833-.6628a1.67,1.67,0,0,1-1.7462-.1325c-5.0444-4.3743-10.962-3.1813-16.3945-4.5068-6.8876-1.7232-13.9692-2.6511-20.9539-3.8441l-21.536-3.844c-1.8431-.2651-3.6863-1.193-5.53.53-1.0671.7953-2.4252.2651-3.0072-1.3255h0a3.103,3.103,0,0,0-1.8432-1.9883c-7.9547-3.4464-15.8125-7.0253-23.7672-10.6043a3.7221,3.7221,0,0,0-1.2611-.2651c-.485-.9278-1.2611-.53-1.94-.6627-1.8432-1.9883-4.1714-2.386-6.2086-3.3139-8.0517-3.7115-16.2-7.29-24.2522-10.8693a4.6249,4.6249,0,0,0-4.1714-.3977c-1.4551.7953-2.5222-.2651-3.2013-2.2534a3.5061,3.5061,0,0,1,.7761-4.1091c.097,0,.097-.1326.194-.1326,1.2612-1.06,2.7163-1.193,3.5894.6628s2.2312,2.2534,3.5893,2.7836c12.9022,5.7,25.9014,11.5321,38.8035,17.2319l1.4552.3977C107.5559,132.4444,108.041,132.71,108.429,132.71Z"/>
  <path class="b4a31f98-3dc7-4bba-b57d-f5a6b2baf4c5" d="M28.0086,14.7372H492.5842v1.3255H28.0086Z"/>
  <path class="b8cf1bcc-31c3-4375-a928-d7c7b78cbf75" d="M91.1614,74.3861l-.97-1.3255H489.5769a4.4656,4.4656,0,0,1,3.3953.6628c-1.2611,1.06-2.3282.6627-3.2983.6627H199.2293a36.0724,36.0724,0,0,0-3.7833.1326h-2.5223Z"/>
  <path class="b8cf1bcc-31c3-4375-a928-d7c7b78cbf75" d="M108.429,132.71a1.4183,1.4183,0,0,1-1.0671-.6628H492.39v.7953Z"/>
  <path class="b8cf1bcc-31c3-4375-a928-d7c7b78cbf75" d="M257.4347,190.2376l.485.6628H29.0757v-.6628Z"/>
  <path class="b8cf1bcc-31c3-4375-a928-d7c7b78cbf75" d="M265.5834,190.9c.8731-1.193,2.0372-.3977,3.0073-.6628H492.5842c-.5821,1.0605-1.1641.6628-1.6492.6628H265.5834Z"/>
  <path class="b8cf1bcc-31c3-4375-a928-d7c7b78cbf75" d="M85.8259,72.2653l1.4552,2.1208H28.0086V73.0606H83.6917C84.4678,73.0606,85.2439,73.3257,85.8259,72.2653Z"/>
  <path class="b8cf1bcc-31c3-4375-a928-d7c7b78cbf75" d="M96.8849,131.9142c.6791.1326,1.4552-.2651,1.94.6628H29.0757v-.6628Z"/>
  <rect class="fd0f3904-b92b-49b7-ae44-fd5f93dfe559" x="9.25" y="224.4555" width="15.5" height="15.7"/>
  <path class="a368e864-8bdb-4a47-b4f8-86370981a816" d="M38.35,226.4555h6.8v1.5h-4.9v3.8h4.2v1.4h-4.2v4.1h5.2v1.5h-7.1Z"/>
  <path class="a368e864-8bdb-4a47-b4f8-86370981a816" d="M55.25,229.0556a3.2868,3.2868,0,0,1,1.7-.4c1.6,0,2.6.9,2.6,3.1v6.9h-1.7v-7.1c0-1.1-.5-1.5-1.4-1.5a3.7216,3.7216,0,0,0-2,.7v7.9h-1.7v-7.1c0-1.1-.6-1.5-1.4-1.5a3.7216,3.7216,0,0,0-2,.7v7.9h-1.7v-9.9h1l.6,1.2.9-1a3.8134,3.8134,0,0,1,3.4,0l.7,1.1Z"/>
  <path class="a368e864-8bdb-4a47-b4f8-86370981a816" d="M65.85,237.5556a7.5954,7.5954,0,0,0,2.6-.6l.3,1.3a7.8735,7.8735,0,0,1-3,.8c-2.7,0-4.1-1.8-4.1-5.2s1.5-5.1,3.9-5.1,3.5,1.8,3.5,4.6v1.1h-5.7C63.45,236.7556,64.15,237.5556,65.85,237.5556Zm1.5-4.5v-.3c0-2.1-.6-2.8-1.8-2.8s-2,.6-2.1,3.1Z"/>
  <path class="a368e864-8bdb-4a47-b4f8-86370981a816" d="M73.95,228.9555a3.1954,3.1954,0,0,1,1.4-.3,2.3764,2.3764,0,0,1,1.2.3l-.3,1.6a3.194,3.194,0,0,0-1.4-.3,3.41,3.41,0,0,0-1.9.7v7.8h-1.7v-9.9h1l.6,1.3Z"/>
  <path class="a368e864-8bdb-4a47-b4f8-86370981a816" d="M85.65,228.4555v1.6h-2.2l1.2.8a2.7686,2.7686,0,0,1,.1.9c0,2.4-1.7,3.2-3.6,3.2a4.1456,4.1456,0,0,1-1.6-.3,1.05,1.05,0,0,0-.5.9q0,.9,1.2.9h2.1c1.9,0,3,.8,3,2.4,0,2.1-1.9,3.1-4.3,3.1s-3.7-.9-3.7-2.4a2.3893,2.3893,0,0,1,.5-1.4l1.1-.5a1.4957,1.4957,0,0,1-1.2-1.6,1.7458,1.7458,0,0,1,.4-1.2l1-.6-1.1-.7a3.9222,3.9222,0,0,1-.4-1.8c0-2.4,1.9-3.2,3.6-3.2a4.2822,4.2822,0,0,1,2.2.6Zm-6.8,11c0,1,.7,1.4,2.2,1.4,1.8,0,2.7-.8,2.7-1.6v-.1c0-.6-.3-1.1-1.4-1.1h-2.8a1.75,1.75,0,0,0-.7,1.4Zm4.2-7.4v-.2a1.5937,1.5937,0,0,0-1.4-1.8h-.5c-1.3,0-1.9.6-1.9,1.8v.2a1.9,1.9,0,0,0,3.8,0Z"/>
  <path class="a368e864-8bdb-4a47-b4f8-86370981a816" d="M90.85,237.5556a6.5644,6.5644,0,0,0,2.5-.6l.3,1.3a7.3976,7.3976,0,0,1-2.9.8c-2.7,0-4.1-1.8-4.1-5.2s1.5-5.1,3.9-5.1,3.5,1.8,3.5,4.6v1.1h-5.6C88.55,236.7556,89.15,237.5556,90.85,237.5556Zm1.6-4.5v-.3c0-2.1-.6-2.8-1.8-2.8s-2,.6-2.1,3.1Z"/>
  <path class="a368e864-8bdb-4a47-b4f8-86370981a816" d="M98.85,229.0556a3.9222,3.9222,0,0,1,1.8-.4c1.6,0,2.6.9,2.6,3.1v6.9h-1.7v-7.1c0-1.1-.6-1.5-1.4-1.5a3.7707,3.7707,0,0,0-2.1.7v7.9h-1.7v-9.9h1l.6,1.3Z"/>
  <path class="a368e864-8bdb-4a47-b4f8-86370981a816" d="M105.35,233.7556c0-3.4,1.3-5.1,3.8-5.1a5.8332,5.8332,0,0,1,2.6.6l-.3,1.3a8.5606,8.5606,0,0,0-2.3-.5c-1.4,0-2.2.6-2.2,3.5v.3c0,2.9.8,3.7,2.2,3.7a5.3242,5.3242,0,0,0,2.4-.6l.3,1.3a5.1891,5.1891,0,0,1-2.7.7C106.75,238.9555,105.35,237.2556,105.35,233.7556Z"/>
  <path class="a368e864-8bdb-4a47-b4f8-86370981a816" d="M116.15,238.4555l-3.2-9.6h1.8l1.8,5.8.5,2.9.5-2.9,1.7-5.8h1.6l-4.1,12.9h-1.6Z"/>
  <path class="a368e864-8bdb-4a47-b4f8-86370981a816" d="M126.35,238.1556l.3-1.3a7.8717,7.8717,0,0,0,3,.8c1.6,0,2.4-.4,2.4-2,0-1.2-.5-1.6-2.3-2.2-2.2-.6-3.3-1.3-3.3-3.7,0-2.2,1.4-3.5,3.8-3.5a7.79,7.79,0,0,1,3.1.6l-.3,1.4a6.92,6.92,0,0,0-2.8-.5c-1.5,0-2.1.4-2.1,1.8,0,1.3.3,1.6,2.2,2.1,2.1.6,3.5,1.3,3.5,3.7s-1.4,3.7-3.9,3.7A7.683,7.683,0,0,1,126.35,238.1556Z"/>
  <path class="a368e864-8bdb-4a47-b4f8-86370981a816" d="M137.85,238.7556h-1.7v-13.5h1.7v4.9l.9-1a3.9221,3.9221,0,0,1,1.8-.4c1.6,0,2.6.9,2.6,3.1v6.9h-1.8v-7.2c0-1.1-.6-1.5-1.4-1.5a3.7707,3.7707,0,0,0-2.1.7Z"/>
  <path class="a368e864-8bdb-4a47-b4f8-86370981a816" d="M149.35,237.5556a7.5954,7.5954,0,0,0,2.6-.6l.3,1.3a7.4163,7.4163,0,0,1-3,.8c-2.7,0-4.1-1.8-4.1-5.2s1.5-5.1,3.9-5.1,3.5,1.8,3.5,4.6v1.1h-5.6C146.95,236.7556,147.65,237.5556,149.35,237.5556Zm1.5-4.5v-.3c0-2.1-.6-2.8-1.8-2.8s-2,.6-2.1,3.1Z"/>
  <path class="a368e864-8bdb-4a47-b4f8-86370981a816" d="M154.85,225.2556h1.7v13.5h-1.7Z"/>
  <path class="a368e864-8bdb-4a47-b4f8-86370981a816" d="M159.65,236.3556v-6.2h-1.1v-1.3h1.3l.8-2.6h.8v2.6h2.1v1.3h-2.2v6.6c0,.7.2.8.9.8h1.4l.1.9a4.4774,4.4774,0,0,1-2,.4C160.25,238.9555,159.65,238.0556,159.65,236.3556Z"/>
  <path class="a368e864-8bdb-4a47-b4f8-86370981a816" d="M169.15,237.5556a7.5954,7.5954,0,0,0,2.6-.6l.3,1.3a7.4163,7.4163,0,0,1-3,.8c-2.7,0-4.1-1.8-4.1-5.2s1.5-5.1,3.9-5.1,3.5,1.8,3.5,4.6v1.1h-5.6C166.85,236.7556,167.55,237.5556,169.15,237.5556Zm1.6-4.5v-.3c0-2.1-.6-2.8-1.8-2.8s-2,.6-2.1,3.1Z"/>
  <path class="a368e864-8bdb-4a47-b4f8-86370981a816" d="M177.25,228.9555a3.1947,3.1947,0,0,1,1.4-.3,2.3764,2.3764,0,0,1,1.2.3l-.3,1.6a3.194,3.194,0,0,0-1.4-.3,3.41,3.41,0,0,0-1.9.7v7.8h-1.7v-9.9h1l.6,1.3Z"/>
  <path class="a368e864-8bdb-4a47-b4f8-86370981a816" d="M184.95,237.5556a6.5644,6.5644,0,0,0,2.5-.6l.3,1.3a7.4163,7.4163,0,0,1-3,.8c-2.7,0-4.1-1.8-4.1-5.2s1.5-5.1,3.9-5.1,3.5,1.8,3.5,4.6v1.1h-5.6C182.65,236.7556,183.35,237.5556,184.95,237.5556Zm1.6-4.5v-.3c0-2.1-.6-2.8-1.8-2.8s-2,.6-2.1,3.1Z"/>
  <path class="a368e864-8bdb-4a47-b4f8-86370981a816" d="M195.55,225.2556h1.7v13.5h-1.1l-.6-1.2-1,1.1a3.0793,3.0793,0,0,1-1.3.3c-2.3,0-3.5-1.8-3.5-5.2,0-3.6,1.5-5.1,3.5-5.1a3.4946,3.4946,0,0,1,2.2.8v-4.2Zm0,5.5a3.1571,3.1571,0,0,0-1.9-.7c-1.3,0-2,.7-2,3.4v.7c0,2.6.7,3.6,2.1,3.6a2.8416,2.8416,0,0,0,1.9-.9v-6.1Z"/>
  <rect class="ac53ecee-f34d-4b77-8c69-fff2c4676801" x="213.15" y="223.6556" width="15.5" height="15.7"/>
  <path class="a368e864-8bdb-4a47-b4f8-86370981a816" d="M248.55,225.6556h1.9v12.3h-1.1l-.5-1.2-.7,1a5.3812,5.3812,0,0,1-2.2.4c-2.4,0-3.6-1.3-3.6-4.8v-7.6h1.9v8.2c0,2.3.6,2.9,2.1,2.9a4.1956,4.1956,0,0,0,2.4-.7Z"/>
  <path class="a368e864-8bdb-4a47-b4f8-86370981a816" d="M255.95,228.2556a3.9209,3.9209,0,0,1,1.8-.4c1.6,0,2.6.9,2.6,3.1v6.9h-1.7v-7.1c0-1.1-.6-1.5-1.4-1.5a3.772,3.772,0,0,0-2.1.7v7.9h-1.8v-9.8h1l.6,1.3Z"/>
  <path class="a368e864-8bdb-4a47-b4f8-86370981a816" d="M262.45,237.5556l.2-1.3a5.4226,5.4226,0,0,0,2.5.6c1.2,0,1.9-.4,1.9-1.5,0-1.2-.4-1.2-2.2-1.7-1.4-.4-2.4-1-2.4-2.8,0-2,1.3-2.9,3.2-2.9a5.8344,5.8344,0,0,1,2.6.6l-.3,1.3a5.867,5.867,0,0,0-2.3-.4c-1.2,0-1.7.3-1.7,1.4s.5,1.2,2,1.6c1.7.4,2.6,1.1,2.6,3s-1.1,2.9-3.3,2.9A6.9367,6.9367,0,0,1,262.45,237.5556Z"/>
  <path class="a368e864-8bdb-4a47-b4f8-86370981a816" d="M272.35,237.9555h-1.7v-13.5h1.7v4.9l.9-1a3.9221,3.9221,0,0,1,1.8-.4c1.6,0,2.6.9,2.6,3.1v6.9h-1.7v-7.2c0-1.1-.6-1.5-1.4-1.5a3.7717,3.7717,0,0,0-2.1.7v8Z"/>
  <path class="a368e864-8bdb-4a47-b4f8-86370981a816" d="M283.85,236.8556a6.5667,6.5667,0,0,0,2.5-.6l.3,1.3a7.4138,7.4138,0,0,1-3,.8c-2.7,0-4.1-1.8-4.1-5.2s1.5-5.1,3.9-5.1,3.5,1.8,3.5,4.6v1.1h-5.6C281.55,236.0556,282.25,236.8556,283.85,236.8556Zm1.6-4.5v-.3c0-2.1-.6-2.8-1.8-2.8s-2,.6-2.1,3.1Z"/>
  <path class="a368e864-8bdb-4a47-b4f8-86370981a816" d="M289.45,224.4555h1.7v13.5h-1.7Z"/>
  <path class="a368e864-8bdb-4a47-b4f8-86370981a816" d="M294.25,235.6556v-6.2h-1.2v-1.3h1.3l.8-2.6h.8v2.6h2.1v1.3h-2.1v6.6c0,.7.2.8.9.8h1.4l.1.9a4.4771,4.4771,0,0,1-2,.4C294.85,238.1556,294.25,237.3556,294.25,235.6556Z"/>
  <path class="a368e864-8bdb-4a47-b4f8-86370981a816" d="M303.75,236.8556a6.5672,6.5672,0,0,0,2.5-.6l.3,1.3a7.4147,7.4147,0,0,1-3,.8c-2.7,0-4.1-1.8-4.1-5.2s1.5-5.1,3.9-5.1,3.5,1.8,3.5,4.6v1.1h-5.5C301.45,236.0556,302.05,236.8556,303.75,236.8556Zm1.6-4.5v-.3c0-2.1-.6-2.8-1.8-2.8s-2,.6-2.1,3.1Z"/>
  <path class="a368e864-8bdb-4a47-b4f8-86370981a816" d="M311.85,228.2556a3.1941,3.1941,0,0,1,1.4-.3,2.376,2.376,0,0,1,1.2.3l-.3,1.6a3.194,3.194,0,0,0-1.4-.3,3.41,3.41,0,0,0-1.9.7v7.8h-1.7v-9.8h1l.6,1.3Z"/>
  <path class="a368e864-8bdb-4a47-b4f8-86370981a816" d="M319.55,236.8556a7.5976,7.5976,0,0,0,2.6-.6l.3,1.3a7.8717,7.8717,0,0,1-3,.8c-2.7,0-4.1-1.8-4.1-5.2s1.5-5.1,3.9-5.1,3.6,1.8,3.6,4.6v1.1h-5.6C317.15,236.0556,317.85,236.8556,319.55,236.8556Zm1.5-4.5v-.3c0-2.1-.6-2.8-1.8-2.8s-2,.6-2.1,3.1Z"/>
  <path class="a368e864-8bdb-4a47-b4f8-86370981a816" d="M330.05,224.4555h1.7v13.5h-1l-.6-1.2-1,1.1a3.0793,3.0793,0,0,1-1.3.3c-2.3,0-3.5-1.8-3.5-5.2,0-3.6,1.5-5.1,3.5-5.1a3.4946,3.4946,0,0,1,2.2.8Zm0,5.6a3.1571,3.1571,0,0,0-1.9-.7c-1.3,0-2,.7-2,3.4v.7c0,2.6.8,3.6,2.1,3.6a2.8416,2.8416,0,0,0,1.9-.9v-6.1Z"/>
  <g>
    <path d="M11.502,12.0444l.64-1.24-1.106.1113H8.2769V9.66h4.6806v1.4785L10.1748,20.01H8.9873Z"/>
    <path d="M13.7832,19.4536l.2095-1.0967a3.016,3.016,0,0,0,1.7348.6519c1.0015,0,1.5367-.5567,1.5367-2.0991v-.2066c0-1.6694-.4307-2.1147-1.1524-2.1147a1.137,1.137,0,0,0-1.1177.7314l-.85-.1748L14.3188,9.66h3.772v1.2558H15.1919l-.07,2.0987-.1861,1.3994a1.724,1.724,0,0,1,1.4786-.8584c1.1176,0,2.0605.9853,2.0605,3.2593,0,2.0034-1.001,3.4184-2.5147,3.4184A3.0712,3.0712,0,0,1,13.7832,19.4536Z"/>
    <path d="M19.5337,14.811c0-3.1162.8848-5.3422,2.7705-5.3422s2.7593,2.1782,2.7593,5.31c0,3.3706-.8731,5.4536-2.7822,5.4536C20.3833,20.2329,19.5337,18.0547,19.5337,14.811Zm4.3423.1592v-.54c0-2.7193-.4541-3.7368-1.5835-3.7368-1.1177,0-1.5713,1.0654-1.5713,3.8v.5244c0,3.0527.4888,4.0547,1.583,4.0547S23.876,18.0386,23.876,14.97Z"/>
  </g>
  <g>
    <path d="M8.3828,77.522l.21-1.0967a3.0158,3.0158,0,0,0,1.7348.6518c1.0015,0,1.5367-.5566,1.5367-2.0991v-.2065c0-1.6694-.4307-2.1148-1.1524-2.1148a1.1367,1.1367,0,0,0-1.1176.7315l-.85-.1748.1748-5.4854H12.69v1.2559H9.7915l-.07,2.0986-.1861,1.3994a1.7242,1.7242,0,0,1,1.4786-.8584c1.1176,0,2.06.9854,2.06,3.2593,0,2.0034-1.001,3.4185-2.5146,3.4185A3.0713,3.0713,0,0,1,8.3828,77.522Z"/>
    <path d="M14.1333,72.8794c0-3.1162.8853-5.3423,2.771-5.3423s2.7593,2.1782,2.7593,5.3106c0,3.3706-.8731,5.4536-2.7823,5.4536C14.9834,78.3013,14.1333,76.123,14.1333,72.8794Zm4.3428.1592V72.498c0-2.7192-.4541-3.7368-1.5835-3.7368-1.1177,0-1.5713,1.0655-1.5713,3.8v.5244c0,3.0528.4888,4.0547,1.583,4.0547S18.4761,76.1069,18.4761,73.0386Z"/>
    <path d="M20.7808,72.8794c0-3.1162.8847-5.3423,2.7705-5.3423s2.7592,2.1782,2.7592,5.3106c0,3.3706-.873,5.4536-2.7822,5.4536C21.63,78.3013,20.7808,76.123,20.7808,72.8794Zm4.3422.1592V72.498c0-2.7192-.4541-3.7368-1.5834-3.7368-1.1177,0-1.5713,1.0655-1.5713,3.8v.5244c0,3.0528.4887,4.0547,1.583,4.0547S25.123,76.1069,25.123,73.0386Z"/>
  </g>
  <g>
    <path d="M8.5,136.1924l.07-.35a7.14,7.14,0,0,1,1.8975-3.3389c.8384-1.0019,1.2925-1.543,1.2925-2.5439v-.1914c0-1.3038-.396-1.6534-1.211-1.6534a3.1545,3.1545,0,0,0-1.7.5879l-.1977-1.1123a3.1755,3.1755,0,0,1,2.084-.747c1.583,0,2.2353,1.2392,2.2353,2.8769,0,1.749-.8735,2.64-1.91,3.7373a4.6806,4.6806,0,0,0-1.5366,2.6553l-.0351.2383,1.3159-.2071h2.084v1.24H8.5Z"/>
    <path d="M13.9121,136.8281l.21-1.0967a3.0153,3.0153,0,0,0,1.7348.6514c1.0015,0,1.5367-.5566,1.5367-2.0986v-.2061c0-1.67-.4307-2.1152-1.1524-2.1152a1.1376,1.1376,0,0,0-1.1177.7314l-.85-.1748.1749-5.4853H18.22V128.29H15.3208l-.07,2.0987-.1861,1.3994a1.724,1.724,0,0,1,1.4786-.8584c1.1176,0,2.06.9853,2.06,3.2588,0,2.0039-1.001,3.4189-2.5146,3.4189A3.0708,3.0708,0,0,1,13.9121,136.8281Z"/>
    <path d="M19.6626,132.1855c0-3.1162.8853-5.3417,2.771-5.3417s2.7593,2.1777,2.7593,5.31c0,3.3711-.8731,5.4541-2.7823,5.4541C20.5127,137.6074,19.6626,135.4287,19.6626,132.1855Zm4.3428.1592v-.541c0-2.7187-.4541-3.7363-1.5835-3.7363-1.1177,0-1.5713,1.0654-1.5713,3.8v.5254c0,3.0527.4888,4.0537,1.583,4.0537S24.0054,135.4131,24.0054,132.3447Z"/>
  </g>
  <path d="M21.0972,189.7773c0-3.1162.8852-5.3418,2.771-5.3418s2.7592,2.1778,2.7592,5.31c0,3.3711-.873,5.4541-2.7822,5.4541C21.9473,195.1992,21.0972,193.0205,21.0972,189.7773Zm4.3427.1592v-.541c0-2.7187-.4541-3.7363-1.5835-3.7363-1.1176,0-1.5712,1.0654-1.5712,3.8v.5254c0,3.0527.4887,4.0537,1.583,4.0537S25.44,193.0049,25.44,189.9365Z"/>
  <g>
    <path d="M50.8286,205.9033l.07-.35a7.14,7.14,0,0,1,1.8975-3.3389c.8384-1.0019,1.2925-1.5429,1.2925-2.5439V199.48c0-1.3037-.396-1.6533-1.211-1.6533a3.1545,3.1545,0,0,0-1.7.5879l-.1977-1.1123a3.1755,3.1755,0,0,1,2.084-.7471c1.583,0,2.2353,1.2392,2.2353,2.8769,0,1.7491-.8735,2.64-1.91,3.7373a4.6809,4.6809,0,0,0-1.5366,2.6553l-.0351.2383,1.3159-.207h2.084v1.24H50.8286Z"/>
    <path d="M56.439,201.8965c0-3.1162.8852-5.3418,2.771-5.3418s2.7592,2.1777,2.7592,5.31c0,3.3711-.873,5.4541-2.7822,5.4541C57.2891,207.3184,56.439,205.14,56.439,201.8965Zm4.3427.1592v-.5411c0-2.7187-.4541-3.7363-1.5835-3.7363-1.1176,0-1.5712,1.0655-1.5712,3.8v.5254c0,3.0528.4887,4.0537,1.583,4.0537S60.7817,205.124,60.7817,202.0557Z"/>
    <path d="M63.2026,206.0459h1.106v-7.44h-1.106v-.6836l1.63-1.1768h.6055v9.3008h1.06v1.05h-3.295Z"/>
    <path d="M67.4282,206.5869l.1978-1.05a3.2218,3.2218,0,0,0,1.7695.5733c1.0713,0,1.56-.5254,1.56-1.8291v-.19c0-1.3838-.5122-1.86-1.7115-1.86h-.6167v-1.0967h.4771c1.2573,0,1.6885-.4775,1.6885-1.6543v-.127c0-1.208-.4195-1.5586-1.42-1.5586a3.5065,3.5065,0,0,0-1.6187.43L67.626,197.11a3.4723,3.4723,0,0,1,1.9209-.5557c1.6767,0,2.41,1.1445,2.41,2.6865a2.1278,2.1278,0,0,1-1.5717,2.3692c1.1176.2861,1.7812,1.1132,1.7812,2.7343,0,1.7813-.9663,2.9737-2.55,2.9737A3.34,3.34,0,0,1,67.4282,206.5869Z"/>
  </g>
  <g>
    <path d="M115.69,205.54l.07-.35a7.1386,7.1386,0,0,1,1.8974-3.3388c.8384-1.002,1.2925-1.543,1.2925-2.544v-.1914c0-1.3037-.396-1.6533-1.2109-1.6533a3.1545,3.1545,0,0,0-1.7.5879l-.1978-1.1123a3.176,3.176,0,0,1,2.084-.7471c1.583,0,2.2353,1.2393,2.2353,2.877,0,1.749-.8735,2.64-1.91,3.7373a4.6792,4.6792,0,0,0-1.5366,2.6552l-.0352.2383,1.3159-.207h2.084v1.24H115.69Z"/>
    <path d="M121.3,201.5332c0-3.1162.8852-5.3418,2.771-5.3418s2.7593,2.1777,2.7593,5.31c0,3.3711-.8731,5.4541-2.7823,5.4541C122.15,206.9551,121.3,204.7764,121.3,201.5332Zm4.3428.1592v-.541c0-2.7188-.4541-3.7364-1.5835-3.7364-1.1177,0-1.5713,1.0655-1.5713,3.8v.5254c0,3.0528.4888,4.0537,1.583,4.0537S125.6431,204.7607,125.6431,201.6924Z"/>
    <path d="M128.064,205.6826H129.17v-7.44H128.064v-.6836l1.63-1.1768h.6055v9.3008h1.06v1.05H128.064Z"/>
    <path d="M135.5962,204.2207h-3.4575v-.7793l3.12-7.06h1.4668V203.06h.978v1.1611h-.978v2.5117h-1.1294Zm.0117-1.1611v-3.5137l.0933-2.4648-.6988,2.0986-1.7114,3.88Z"/>
  </g>
  <g>
    <path d="M181.0811,204.4326l.07-.35a7.14,7.14,0,0,1,1.8974-3.3389c.8384-1.0019,1.2925-1.5429,1.2925-2.5439v-.1914c0-1.3037-.396-1.6533-1.2109-1.6533a3.1545,3.1545,0,0,0-1.7.5879l-.1978-1.1123a3.1749,3.1749,0,0,1,2.084-.7471c1.583,0,2.2354,1.2392,2.2354,2.8769,0,1.7491-.8736,2.64-1.91,3.7373a4.68,4.68,0,0,0-1.5366,2.6553l-.0352.2383,1.3159-.207h2.084v1.24h-4.3891Z"/>
    <path d="M186.6919,200.4258c0-3.1162.8848-5.3418,2.77-5.3418s2.7593,2.1777,2.7593,5.31c0,3.371-.8731,5.4541-2.7822,5.4541C187.5415,205.8477,186.6919,203.6689,186.6919,200.4258Zm4.3423.1592v-.5411c0-2.7187-.4541-3.7363-1.5835-3.7363-1.1177,0-1.5713,1.0654-1.5713,3.8v.5254c0,3.0527.4888,4.0537,1.583,4.0537S191.0342,203.6533,191.0342,200.585Z"/>
    <path d="M193.4551,204.5752h1.1059v-7.44h-1.1059v-.6836l1.63-1.1768h.6054v9.3008h1.06v1.05h-3.2949Z"/>
    <path d="M197.6572,205.0684l.21-1.0967a3.0158,3.0158,0,0,0,1.7349.6513c1.0014,0,1.5366-.5566,1.5366-2.0986v-.206c0-1.67-.4307-2.1153-1.1524-2.1153a1.1375,1.1375,0,0,0-1.1176.7315l-.85-.1748.1748-5.4854h3.7719V196.53h-2.8989l-.07,2.0986-.186,1.3994a1.7239,1.7239,0,0,1,1.4785-.8584c1.1177,0,2.06.9854,2.06,3.2588,0,2.0039-1.001,3.419-2.5146,3.419A3.0715,3.0715,0,0,1,197.6572,205.0684Z"/>
  </g>
  <g>
    <path d="M250.4653,204.4346l.07-.35a7.1389,7.1389,0,0,1,1.8974-3.3389c.8384-1.002,1.2925-1.543,1.2925-2.544v-.1914c0-1.3037-.396-1.6533-1.2109-1.6533a3.1545,3.1545,0,0,0-1.7.5879l-.1978-1.1123a3.176,3.176,0,0,1,2.084-.7471c1.583,0,2.2353,1.2393,2.2353,2.877,0,1.749-.8735,2.64-1.91,3.7373a4.68,4.68,0,0,0-1.5367,2.6553l-.0351.2383,1.3159-.2071h2.084v1.24h-4.3892Z"/>
    <path d="M256.0757,200.4277c0-3.1162.8852-5.3418,2.771-5.3418s2.7593,2.1778,2.7593,5.31c0,3.3711-.8731,5.4541-2.7823,5.4541C256.9258,205.85,256.0757,203.6709,256.0757,200.4277Zm4.3428.1592v-.541c0-2.7188-.4541-3.7363-1.5835-3.7363-1.1177,0-1.5713,1.0654-1.5713,3.8v.5254c0,3.0527.4887,4.0537,1.583,4.0537S260.4185,203.6553,260.4185,200.5869Z"/>
    <path d="M262.8389,204.5771h1.1064v-7.44h-1.1064v-.6836l1.6308-1.1767h.6045v9.3007h1.06v1.05h-3.2949Z"/>
    <path d="M269.4287,199.1719a1.4681,1.4681,0,0,1,.7559-.1914c1.3857,0,2.2939,1.1767,2.2939,3.3076,0,2.2256-.9658,3.5615-2.5957,3.5615-1.5723,0-2.6318-1.4785-2.6318-4.2607a8.4091,8.4091,0,0,1,2.9228-6.3125H271.71a8.877,8.877,0,0,0-3.2012,4.7695ZM268.415,201v.668c0,2.1465.4659,3.0527,1.49,3.0527.9551,0,1.3974-.6045,1.3974-2.1943v-.3653c0-1.5742-.4658-2.0673-1.4316-2.0673a2.199,2.199,0,0,0-1.4443.6357A1.9588,1.9588,0,0,0,268.415,201Z"/>
  </g>
  <g>
    <path d="M315.3408,204.5537l.0694-.35a7.1364,7.1364,0,0,1,1.8984-3.3389c.8379-1.0019,1.292-1.5429,1.292-2.5439V198.13c0-1.3037-.3955-1.6533-1.211-1.6533a3.159,3.159,0,0,0-1.7.5879l-.1973-1.1124a3.1763,3.1763,0,0,1,2.084-.747c1.583,0,2.2353,1.2392,2.2353,2.8769,0,1.7491-.873,2.64-1.9092,3.7373a4.6843,4.6843,0,0,0-1.5371,2.6553l-.0351.2383,1.3154-.207h2.084v1.24h-4.3887Z"/>
    <path d="M320.9512,200.5469c0-3.1162.8847-5.3418,2.7715-5.3418s2.7587,2.1777,2.7587,5.31c0,3.3711-.873,5.4542-2.7822,5.4542C321.8018,205.9688,320.9512,203.79,320.9512,200.5469Zm4.3427.1592v-.5411c0-2.7187-.4541-3.7363-1.583-3.7363-1.1181,0-1.5722,1.0654-1.5722,3.8v.5254c0,3.0527.4892,4.0537,1.584,4.0537S325.2939,203.7744,325.2939,200.7061Z"/>
    <path d="M327.7148,204.6963h1.1065v-7.44h-1.1065v-.6836l1.6309-1.1768h.6045v9.3008h1.06v1.05h-3.295Z"/>
    <path d="M335.0723,197.78l.6406-1.24-1.1065.1114h-2.7587v-1.2559h4.68v1.4785l-2.7822,8.8721h-1.1875Z"/>
  </g>
  <g>
    <path d="M383.748,204.1572l.0694-.35a7.1356,7.1356,0,0,1,1.8984-3.3388c.8379-1.002,1.292-1.543,1.292-2.544v-.1914c0-1.3037-.3955-1.6533-1.2109-1.6533a3.16,3.16,0,0,0-1.7.5879l-.1973-1.1123a3.176,3.176,0,0,1,2.084-.7471c1.583,0,2.2354,1.2393,2.2354,2.8769,0,1.7491-.8731,2.64-1.9092,3.7374a4.6826,4.6826,0,0,0-1.5371,2.6552l-.0352.2383,1.3154-.207h2.084v1.24H383.748Z"/>
    <path d="M389.3584,200.15c0-3.1162.8848-5.3418,2.7715-5.3418s2.7588,2.1777,2.7588,5.31c0,3.3711-.8731,5.4541-2.7823,5.4541C390.209,205.5723,389.3584,203.3936,389.3584,200.15Zm4.3428.1592v-.541c0-2.7188-.4541-3.7364-1.583-3.7364-1.1182,0-1.5723,1.0655-1.5723,3.8v.5254c0,3.0528.4893,4.0537,1.584,4.0537S393.7012,203.3779,393.7012,200.31Z"/>
    <path d="M396.1221,204.3h1.1064v-7.44h-1.1064v-.6836l1.6308-1.1768h.6045V204.3h1.06v1.05h-3.2949Z"/>
    <path d="M400.79,197.4629a2.3639,2.3639,0,0,1,2.3057-2.6543,2.248,2.248,0,0,1,2.2471,2.5273,3.1619,3.1619,0,0,1-.4073,1.7012l-1.0361.7a2.9476,2.9476,0,0,1,1.8037,2.8936c0,1.7334-.9658,2.9414-2.6308,2.9414-1.7578,0-2.6192-1.1768-2.6192-2.8623a3.1,3.1,0,0,1,.6289-1.9717l1.0362-.62A3.0554,3.0554,0,0,1,400.79,197.4629Zm.7569,5.0566v.2227c0,1.16.5127,1.7334,1.5136,1.7334.9786,0,1.4551-.6367,1.4551-1.7178V202.52c0-.9863-.5351-1.2558-1.9433-2.0507A2.3418,2.3418,0,0,0,401.5469,202.52Zm2.7715-5.04v-.0957c0-.874-.3028-1.415-1.2227-1.415-.8848,0-1.1641.6044-1.1641,1.3994v.0947c0,.9863.419,1.3994,1.502,1.9717A2.1551,2.1551,0,0,0,404.3184,197.48Z"/>
  </g>
  <g>
    <path d="M447.81,204.5537l.0693-.35a7.1373,7.1373,0,0,1,1.8984-3.3389c.8379-1.0019,1.292-1.5429,1.292-2.5439V198.13c0-1.3037-.3955-1.6533-1.2109-1.6533a3.16,3.16,0,0,0-1.7.5879l-.1973-1.1124a3.1765,3.1765,0,0,1,2.084-.747c1.583,0,2.2354,1.2392,2.2354,2.8769,0,1.7491-.8731,2.64-1.9092,3.7373a4.6838,4.6838,0,0,0-1.5371,2.6553l-.0352.2383,1.3155-.207h2.0839v1.24H447.81Z"/>
    <path d="M453.42,200.5469c0-3.1162.8848-5.3418,2.7715-5.3418s2.7588,2.1777,2.7588,5.31c0,3.3711-.8731,5.4542-2.7822,5.4542C454.2705,205.9688,453.42,203.79,453.42,200.5469Zm4.3428.1592v-.5411c0-2.7187-.4541-3.7363-1.583-3.7363-1.1182,0-1.5723,1.0654-1.5723,3.8v.5254c0,3.0527.4893,4.0537,1.584,4.0537S457.7627,203.7744,457.7627,200.7061Z"/>
    <path d="M460.1836,204.6963H461.29v-7.44h-1.1064v-.6836l1.6309-1.1768h.6044v9.3008h1.06v1.05h-3.2949Z"/>
    <path d="M467.3311,201.9141a1.5548,1.5548,0,0,1-.7452.1914c-1.3847,0-2.2929-1.209-2.2929-3.3389,0-2.1631.9658-3.5615,2.5957-3.5615,1.5605,0,2.6318,1.3984,2.6318,4.2607a8.3765,8.3765,0,0,1-2.9228,6.28H465.05a8.8137,8.8137,0,0,0,3.2012-4.6748Zm1.0244-1.86v-.667c0-2.1787-.4541-2.9736-1.49-2.9736-.9541,0-1.3964.5566-1.3964,2.1465v.3652c0,1.5742.4541,2.1465,1.4316,2.1465a2.3127,2.3127,0,0,0,1.4434-.62C468.3555,200.3242,468.3555,200.1816,468.3555,200.0537Z"/>
  </g>
  <ellipse class="e75351e6-e45b-4413-a801-c3bad01c0a1d" cx="460.6252" cy="172.9615" rx="3.5031" ry="4.7866"/>
  <ellipse class="e75351e6-e45b-4413-a801-c3bad01c0a1d" cx="392.4495" cy="168.9113" rx="3.5031" ry="4.7866"/>
  <ellipse class="e75351e6-e45b-4413-a801-c3bad01c0a1d" cx="327.0763" cy="175.539" rx="3.5031" ry="4.7866"/>
  <ellipse class="e75351e6-e45b-4413-a801-c3bad01c0a1d" cx="260.6898" cy="189.3116" rx="3.5031" ry="4.7866"/>
  <ellipse class="e75351e6-e45b-4413-a801-c3bad01c0a1d" cx="194.5513" cy="156.4778" rx="3.5031" ry="4.7866"/>
  <ellipse class="e75351e6-e45b-4413-a801-c3bad01c0a1d" cx="128.4991" cy="144.6099" rx="3.5031" ry="4.7866"/>
  <ellipse class="e75351e6-e45b-4413-a801-c3bad01c0a1d" cx="61.8647" cy="113.8281" rx="3.5031" ry="4.7866"/>
  <ellipse class="bde1bcd1-e03f-450d-86d6-61dd9c459fca" cx="61.8647" cy="37.3818" rx="3.5031" ry="4.7866"/>
  <ellipse class="bde1bcd1-e03f-450d-86d6-61dd9c459fca" cx="128.4991" cy="126.6945" rx="3.5031" ry="4.7866"/>
  <ellipse class="bde1bcd1-e03f-450d-86d6-61dd9c459fca" cx="194.5513" cy="78.0791" rx="3.5031" ry="4.7866"/>
  <ellipse class="bde1bcd1-e03f-450d-86d6-61dd9c459fca" cx="261.2665" cy="104.485" rx="3.5031" ry="4.7866"/>
  <ellipse class="bde1bcd1-e03f-450d-86d6-61dd9c459fca" cx="327.239" cy="114.564" rx="3.5031" ry="4.7866"/>
  <ellipse class="bde1bcd1-e03f-450d-86d6-61dd9c459fca" cx="394.3897" cy="119.2568" rx="3.5031" ry="4.7866"/>
  <ellipse class="bde1bcd1-e03f-450d-86d6-61dd9c459fca" cx="460.1422" cy="126.4939" rx="3.5031" ry="4.7866"/>
</svg>
