<svg id="aa449e71-ac84-4659-b091-d7fdb1504e9c" data-name="bdc6570f-65ff-4795-9bfc-cc5cb4c1509f" xmlns="http://www.w3.org/2000/svg" width="523" height="185.3333" viewBox="0 0 523 185.3333">
  <defs>
    <style>
      .f0f73739-01c7-4e92-a8b3-28ede382a0c3 {
        fill: #4f5384;
      }

      .bf4565ab-a06a-4c30-b82f-7879ca49f8e8 {
        fill: #bdbfe1;
      }

      .a4f7c91b-d904-41d1-9dc6-e6e1db61b189 {
        fill: #eae9e9;
      }

      .fd9aaceb-db14-496f-aac6-2c801f180a68 {
        fill: #cfd0d0;
      }

      .e7c65c53-a90b-4cd4-ac35-4360c7120dee {
        fill: #484d80;
      }

      .a6e0e216-46b3-44e3-9153-5ee311b6d54b {
        fill: #231f20;
      }

      .aadf109c-d4f0-4c4d-877d-4c432b089845 {
        fill: #bbbddf;
      }
    </style>
  </defs>
  <path class="f0f73739-01c7-4e92-a8b3-28ede382a0c3" d="M202.8,54.8c1.4,2.4,3.9,2.9,6.4,3.7q28.05,8.25,56.1,16.7c1.3.4,2.6.9,4,.1a1.5141,1.5141,0,0,1,1.7.2c3.3,2.9,7.5,2,11.3,2.4,17.2,2,34.4,3.7,51.7,5.5,3.9-1.9,7.5.8,11.3.9,16.5.8,33,1.8,49.6,2.8,2.7.2,5.3.3,8,.4a2.8151,2.8151,0,0,0,2-.4,2.717,2.717,0,0,1,3.9,0c.1.1.2.2.2.3.8.9,1.9.8,2.9.8,13.9,1.1,27.8,2.3,41.8,3.3,5.1.4,10.1.8,15.2,1.2,1.9.2,3.6.6,5.4-.6a2.31,2.31,0,0,1,3.3,1,2.5269,2.5269,0,0,1-.5,3.5,2.389,2.389,0,0,1-3.4.2l-.1-.1a5.489,5.489,0,0,0-3.7-1.4L421,91.5c-3-.2-6-.5-9-.7-1.5-.1-2.8-.4-4.1.7a2.1234,2.1234,0,0,1-3-.5,3.5414,3.5414,0,0,0-2.6-1l-58.6-3.2c-1.5-.1-2.9-.2-4.2.8a1.9829,1.9829,0,0,1-2.6-.2c-1.3-1.4-3-1.4-4.7-1.6-15.5-1.6-31-3.3-46.5-5-3.7-.4-7.4-1.3-11-1-3.3.2-6.5,1.3-8.9-1.9-20.3-5.9-40.4-12-60.7-17.8a9.9877,9.9877,0,0,0-7,.8q-30.15,15.9-60.3,31.9a4.1394,4.1394,0,0,0-2.2,2.3,2.2746,2.2746,0,0,1-2.7,1.5,2.5506,2.5506,0,0,1-2.3-2.2,4.5884,4.5884,0,0,0-1.3-2.7c-12.5-12.2-24.9-24.3-37.4-36.5a2.092,2.092,0,0,0-.6-.4l-1.5-1.6c-7.6-7.5-15.3-15-22.9-22.4a3.1679,3.1679,0,0,0-2.3-.9,2.79,2.79,0,0,1-2.5-3v-.1a2.4757,2.4757,0,0,1,2.5-2.5,2.6663,2.6663,0,0,1,3,2.1v.5a2.5041,2.5041,0,0,0,.8,1.8c8.7,8.4,17.3,16.8,26,25.2l1,1a5.5469,5.5469,0,0,0,.6.8l35.1,34.2c1.7,1.7,3.6,1.7,5.8.6Q164.65,75.65,192.5,61c3-1.6,6.3-2.7,7.9-6.1Z"/>
  <path class="bf4565ab-a06a-4c30-b82f-7879ca49f8e8" d="M113,98.8a98.06,98.06,0,0,0,17.6,5.8c6.2,1.3,12.4,2.8,18.9,3.3s12.9,1.5,19.4,2.4l29.1,3.9a2.0163,2.0163,0,0,0,1.7-.2c1.8-1.1,3.4-1,4.6,1a2.4543,2.4543,0,0,0,1.7,1.1c20.1,7.7,40.1,15.5,60.3,22.9,4.3,1.6,9.2.9,13.9.1,10.4-1.9,20.8-3.4,31.2-5l23.1-3.6c4.5-3.8,9.7-.4,14.6-1.4,7.5-1.4,15.3-1.5,23-2.2,5.5-.4,11-.8,16.4-1.1,4.8-.3,9.9.2,14.3-1.3,3.3-1.2,5.4-.6,8.4.1,3.7.9,7.7.4,11.5.7,9.3.6,18.6.7,27.8,1.2,6.7.4,13.4.9,20.1,1a5.2034,5.2034,0,0,0,3.2-.7,2.6763,2.6763,0,0,1,3.4,4.1,3.041,3.041,0,0,1-4,.1,2.9752,2.9752,0,0,0-2-1c-3.7.3-7.4-.4-11.1-.5-12.3-.5-24.6-.8-36.8-1.7-4.2-.3-8.5.2-12.6-.8-.2,0-.4-.1-.5,0-3.5,2.9-7.3-.3-11,.4a109.19,109.19,0,0,1-11.5,1.1c-9.7.9-19.5,1.7-29.2,2.5-5.1.4-10.3.8-15.4,1.1-1,.1-2,0-2.7,1a2.0042,2.0042,0,0,1-2.3.9c-3.8-2-7.5-.1-11.1.4-10.4,1.5-20.8,3.2-31.2,5-5.9,1-11.9,1.4-17.6,3.1-1,.2-2.2-.4-3.1.5-.9.2-1.8-.1-2.7.6-2.5,2.2-3,2-5.1-.6l-.5-.5c-7.4-3.4-15.2-5.9-22.8-8.8-12.6-4.9-25.2-9.7-37.8-14.5-1.3-.5-2.5-1.1-3.9-.5a2.2633,2.2633,0,0,1-1.8-.1c-5.2-3.3-11.3-2.4-16.9-3.4-7.1-1.3-14.4-2-21.6-2.9l-22.2-2.9c-1.9-.2-3.8-.9-5.7.4a2.2443,2.2443,0,0,1-3.1-1h0a2.8517,2.8517,0,0,0-1.9-1.5c-8.2-2.6-16.3-5.3-24.5-8a5.0666,5.0666,0,0,0-1.3-.2c-.5-.7-1.3-.4-2-.5-1.9-1.5-4.3-1.8-6.4-2.5-8.3-2.8-16.7-5.5-25-8.2a6.31,6.31,0,0,0-4.3-.3c-1.5.6-2.6-.2-3.3-1.7a2.1793,2.1793,0,0,1,.8-3.1c.1,0,.1-.1.2-.1,1.3-.8,2.8-.9,3.7.5s2.3,1.7,3.7,2.1c13.3,4.3,26.7,8.7,40,13l1.5.3A1.5389,1.5389,0,0,0,113,98.8Z"/>
  <path class="a4f7c91b-d904-41d1-9dc6-e6e1db61b189" d="M30.1,9.8H509v1H30.1Z"/>
  <path class="fd9aaceb-db14-496f-aac6-2c801f180a68" d="M95.2,54.8l-1-1H505.9a6.0251,6.0251,0,0,1,3.5.5c-1.3.8-2.4.5-3.4.5H206.6c-1.3,0-2.6,0-3.9.1h-2.6Z"/>
  <path class="fd9aaceb-db14-496f-aac6-2c801f180a68" d="M113,98.8a1.6058,1.6058,0,0,1-1.1-.5H508.8v.6Z"/>
  <path class="fd9aaceb-db14-496f-aac6-2c801f180a68" d="M266.6,142.2l.5.5H31.2v-.5Z"/>
  <path class="fd9aaceb-db14-496f-aac6-2c801f180a68" d="M275,142.7c.9-.9,2.1-.3,3.1-.5H509c-.6.8-1.2.5-1.7.5H275Z"/>
  <path class="fd9aaceb-db14-496f-aac6-2c801f180a68" d="M89.7,53.2l1.5,1.6H30.1v-1H87.5C88.3,53.8,89.1,54,89.7,53.2Z"/>
  <path class="fd9aaceb-db14-496f-aac6-2c801f180a68" d="M101.1,98.2c.7.1,1.5-.2,2,.5H31.2v-.5Z"/>
  <rect class="e7c65c53-a90b-4cd4-ac35-4360c7120dee" x="5.2" y="162" width="15.5" height="15.7"/>
  <path class="a6e0e216-46b3-44e3-9153-5ee311b6d54b" d="M34.3,164h6.8v1.5H36.2v3.8h4.2v1.4H36.2v4.1h5.2v1.5H34.3Z"/>
  <path class="a6e0e216-46b3-44e3-9153-5ee311b6d54b" d="M51.2,166.6a3.2868,3.2868,0,0,1,1.7-.4c1.6,0,2.6.9,2.6,3.1v6.9H53.8v-7.1c0-1.1-.5-1.5-1.4-1.5a3.7216,3.7216,0,0,0-2,.7v7.9H48.7v-7.1c0-1.1-.6-1.5-1.4-1.5a3.7216,3.7216,0,0,0-2,.7v7.9H43.6v-9.9h1l.6,1.2.9-1a3.8125,3.8125,0,0,1,3.4,0l.7,1.1Z"/>
  <path class="a6e0e216-46b3-44e3-9153-5ee311b6d54b" d="M61.8,175.1a7.5976,7.5976,0,0,0,2.6-.6l.3,1.3a7.8717,7.8717,0,0,1-3,.8c-2.7,0-4.1-1.8-4.1-5.2s1.5-5.1,3.9-5.1,3.5,1.8,3.5,4.6V172H59.3C59.4,174.3,60.1,175.1,61.8,175.1Zm1.5-4.5v-.3c0-2.1-.6-2.8-1.8-2.8s-2,.6-2.1,3.1Z"/>
  <path class="a6e0e216-46b3-44e3-9153-5ee311b6d54b" d="M69.9,166.5a3.194,3.194,0,0,1,1.4-.3,2.3754,2.3754,0,0,1,1.2.3l-.3,1.6a3.194,3.194,0,0,0-1.4-.3,3.41,3.41,0,0,0-1.9.7v7.8H67.2v-9.9h1l.6,1.3Z"/>
  <path class="a6e0e216-46b3-44e3-9153-5ee311b6d54b" d="M81.6,166v1.6H79.4l1.2.8a2.7686,2.7686,0,0,1,.1.9c0,2.4-1.7,3.2-3.6,3.2a4.1456,4.1456,0,0,1-1.6-.3,1.05,1.05,0,0,0-.5.9q0,.9,1.2.9h2.1c1.9,0,3,.8,3,2.4,0,2.1-1.9,3.1-4.3,3.1s-3.7-.9-3.7-2.4a2.3893,2.3893,0,0,1,.5-1.4l1.1-.5a1.4958,1.4958,0,0,1-1.2-1.6,1.7458,1.7458,0,0,1,.4-1.2l1-.6-1.1-.7a3.9222,3.9222,0,0,1-.4-1.8c0-2.4,1.9-3.2,3.6-3.2a4.2822,4.2822,0,0,1,2.2.6Zm-6.8,11c0,1,.7,1.4,2.2,1.4,1.8,0,2.7-.8,2.7-1.6v-.1c0-.6-.3-1.1-1.4-1.1H75.5a1.75,1.75,0,0,0-.7,1.4Zm4.2-7.4v-.2a1.5937,1.5937,0,0,0-1.4-1.8h-.5c-1.3,0-1.9.6-1.9,1.8v.2a1.9,1.9,0,0,0,3.8,0Z"/>
  <path class="a6e0e216-46b3-44e3-9153-5ee311b6d54b" d="M86.8,175.1a6.5662,6.5662,0,0,0,2.5-.6l.3,1.3a7.3959,7.3959,0,0,1-2.9.8c-2.7,0-4.1-1.8-4.1-5.2s1.5-5.1,3.9-5.1,3.5,1.8,3.5,4.6V172H84.4C84.5,174.3,85.1,175.1,86.8,175.1Zm1.6-4.5v-.3c0-2.1-.6-2.8-1.8-2.8s-2,.6-2.1,3.1Z"/>
  <path class="a6e0e216-46b3-44e3-9153-5ee311b6d54b" d="M94.8,166.6a3.9222,3.9222,0,0,1,1.8-.4c1.6,0,2.6.9,2.6,3.1v6.9H97.5v-7.1c0-1.1-.6-1.5-1.4-1.5a3.7707,3.7707,0,0,0-2.1.7v7.9H92.3v-9.9h1l.6,1.3Z"/>
  <path class="a6e0e216-46b3-44e3-9153-5ee311b6d54b" d="M101.3,171.3c0-3.4,1.3-5.1,3.8-5.1a5.8344,5.8344,0,0,1,2.6.6l-.3,1.3a8.5606,8.5606,0,0,0-2.3-.5c-1.4,0-2.2.6-2.2,3.5v.3c0,2.9.8,3.7,2.2,3.7a5.3253,5.3253,0,0,0,2.4-.6l.3,1.3a5.1892,5.1892,0,0,1-2.7.7C102.7,176.5,101.3,174.8,101.3,171.3Z"/>
  <path class="a6e0e216-46b3-44e3-9153-5ee311b6d54b" d="M112.1,176l-3.2-9.6h1.8l1.8,5.8.5,2.9.5-2.9,1.7-5.8h1.6l-4.1,12.9h-1.6Z"/>
  <path class="a6e0e216-46b3-44e3-9153-5ee311b6d54b" d="M122.3,175.7l.3-1.3a7.8717,7.8717,0,0,0,3,.8c1.6,0,2.4-.4,2.4-2,0-1.2-.5-1.6-2.3-2.2-2.2-.6-3.3-1.3-3.3-3.7,0-2.2,1.4-3.5,3.8-3.5a7.79,7.79,0,0,1,3.1.6l-.3,1.4a6.92,6.92,0,0,0-2.8-.5c-1.5,0-2.1.4-2.1,1.8,0,1.3.3,1.6,2.2,2.1,2.1.6,3.5,1.3,3.5,3.7s-1.4,3.7-3.9,3.7A7.683,7.683,0,0,1,122.3,175.7Z"/>
  <path class="a6e0e216-46b3-44e3-9153-5ee311b6d54b" d="M133.8,176.3h-1.7V162.8h1.7v4.9l.9-1a3.9222,3.9222,0,0,1,1.8-.4c1.6,0,2.6.9,2.6,3.1v6.9h-1.8v-7.2c0-1.1-.6-1.5-1.4-1.5a3.7707,3.7707,0,0,0-2.1.7Z"/>
  <path class="a6e0e216-46b3-44e3-9153-5ee311b6d54b" d="M145.3,175.1a7.5976,7.5976,0,0,0,2.6-.6l.3,1.3a7.4147,7.4147,0,0,1-3,.8c-2.7,0-4.1-1.8-4.1-5.2s1.5-5.1,3.9-5.1,3.5,1.8,3.5,4.6V172h-5.6C142.9,174.3,143.6,175.1,145.3,175.1Zm1.5-4.5v-.3c0-2.1-.6-2.8-1.8-2.8s-2,.6-2.1,3.1Z"/>
  <path class="a6e0e216-46b3-44e3-9153-5ee311b6d54b" d="M150.8,162.8h1.7v13.5h-1.7Z"/>
  <path class="a6e0e216-46b3-44e3-9153-5ee311b6d54b" d="M155.6,173.9v-6.2h-1.1v-1.3h1.3l.8-2.6h.8v2.6h2.1v1.3h-2.2v6.6c0,.7.2.8.9.8h1.4l.1.9a4.4771,4.4771,0,0,1-2,.4C156.2,176.5,155.6,175.6,155.6,173.9Z"/>
  <path class="a6e0e216-46b3-44e3-9153-5ee311b6d54b" d="M165.1,175.1a7.5976,7.5976,0,0,0,2.6-.6l.3,1.3a7.4147,7.4147,0,0,1-3,.8c-2.7,0-4.1-1.8-4.1-5.2s1.5-5.1,3.9-5.1,3.5,1.8,3.5,4.6V172h-5.6C162.8,174.3,163.5,175.1,165.1,175.1Zm1.6-4.5v-.3c0-2.1-.6-2.8-1.8-2.8s-2,.6-2.1,3.1Z"/>
  <path class="a6e0e216-46b3-44e3-9153-5ee311b6d54b" d="M173.2,166.5a3.194,3.194,0,0,1,1.4-.3,2.3754,2.3754,0,0,1,1.2.3l-.3,1.6a3.194,3.194,0,0,0-1.4-.3,3.41,3.41,0,0,0-1.9.7v7.8h-1.7v-9.9h1l.6,1.3Z"/>
  <path class="a6e0e216-46b3-44e3-9153-5ee311b6d54b" d="M180.9,175.1a6.5662,6.5662,0,0,0,2.5-.6l.3,1.3a7.4147,7.4147,0,0,1-3,.8c-2.7,0-4.1-1.8-4.1-5.2s1.5-5.1,3.9-5.1,3.5,1.8,3.5,4.6V172h-5.6C178.6,174.3,179.3,175.1,180.9,175.1Zm1.6-4.5v-.3c0-2.1-.6-2.8-1.8-2.8s-2,.6-2.1,3.1Z"/>
  <path class="a6e0e216-46b3-44e3-9153-5ee311b6d54b" d="M191.5,162.8h1.7v13.5h-1.1l-.6-1.2-1,1.1a3.0793,3.0793,0,0,1-1.3.3c-2.3,0-3.5-1.8-3.5-5.2,0-3.6,1.5-5.1,3.5-5.1a3.4946,3.4946,0,0,1,2.2.8v-4.2Zm0,5.5a3.1571,3.1571,0,0,0-1.9-.7c-1.3,0-2,.7-2,3.4v.7c0,2.6.7,3.6,2.1,3.6a2.8416,2.8416,0,0,0,1.9-.9v-6.1Z"/>
  <rect class="aadf109c-d4f0-4c4d-877d-4c432b089845" x="209.1" y="161.2" width="15.5" height="15.7"/>
  <path class="a6e0e216-46b3-44e3-9153-5ee311b6d54b" d="M244.5,163.2h1.9v12.3h-1.1l-.5-1.2-.7,1a5.3815,5.3815,0,0,1-2.2.4c-2.4,0-3.6-1.3-3.6-4.8v-7.6h1.9v8.2c0,2.3.6,2.9,2.1,2.9a4.1954,4.1954,0,0,0,2.4-.7Z"/>
  <path class="a6e0e216-46b3-44e3-9153-5ee311b6d54b" d="M251.9,165.8a3.9222,3.9222,0,0,1,1.8-.4c1.6,0,2.6.9,2.6,3.1v6.9h-1.7v-7.1c0-1.1-.6-1.5-1.4-1.5a3.7707,3.7707,0,0,0-2.1.7v7.9h-1.8v-9.8h1l.6,1.3Z"/>
  <path class="a6e0e216-46b3-44e3-9153-5ee311b6d54b" d="M258.4,175.1l.2-1.3a5.4214,5.4214,0,0,0,2.5.6c1.2,0,1.9-.4,1.9-1.5,0-1.2-.4-1.2-2.2-1.7-1.4-.4-2.4-1-2.4-2.8,0-2,1.3-2.9,3.2-2.9a5.8344,5.8344,0,0,1,2.6.6l-.3,1.3a5.867,5.867,0,0,0-2.3-.4c-1.2,0-1.7.3-1.7,1.4s.5,1.2,2,1.6c1.7.4,2.6,1.1,2.6,3s-1.1,2.9-3.3,2.9A6.9367,6.9367,0,0,1,258.4,175.1Z"/>
  <path class="a6e0e216-46b3-44e3-9153-5ee311b6d54b" d="M268.3,175.5h-1.7V162h1.7v4.9l.9-1a3.9222,3.9222,0,0,1,1.8-.4c1.6,0,2.6.9,2.6,3.1v6.9h-1.7v-7.2c0-1.1-.6-1.5-1.4-1.5a3.7707,3.7707,0,0,0-2.1.7v8Z"/>
  <path class="a6e0e216-46b3-44e3-9153-5ee311b6d54b" d="M279.8,174.4a6.5662,6.5662,0,0,0,2.5-.6l.3,1.3a7.4147,7.4147,0,0,1-3,.8c-2.7,0-4.1-1.8-4.1-5.2s1.5-5.1,3.9-5.1,3.5,1.8,3.5,4.6v1.1h-5.6C277.5,173.6,278.2,174.4,279.8,174.4Zm1.6-4.5v-.3c0-2.1-.6-2.8-1.8-2.8s-2,.6-2.1,3.1Z"/>
  <path class="a6e0e216-46b3-44e3-9153-5ee311b6d54b" d="M285.4,162h1.7v13.5h-1.7Z"/>
  <path class="a6e0e216-46b3-44e3-9153-5ee311b6d54b" d="M290.2,173.2V167H289v-1.3h1.3l.8-2.6h.8v2.6H294V167h-2.1v6.6c0,.7.2.8.9.8h1.4l.1.9a4.4771,4.4771,0,0,1-2,.4C290.8,175.7,290.2,174.9,290.2,173.2Z"/>
  <path class="a6e0e216-46b3-44e3-9153-5ee311b6d54b" d="M299.7,174.4a6.5662,6.5662,0,0,0,2.5-.6l.3,1.3a7.4147,7.4147,0,0,1-3,.8c-2.7,0-4.1-1.8-4.1-5.2s1.5-5.1,3.9-5.1,3.5,1.8,3.5,4.6v1.1h-5.5C297.4,173.6,298,174.4,299.7,174.4Zm1.6-4.5v-.3c0-2.1-.6-2.8-1.8-2.8s-2,.6-2.1,3.1Z"/>
  <path class="a6e0e216-46b3-44e3-9153-5ee311b6d54b" d="M307.8,165.8a3.194,3.194,0,0,1,1.4-.3,2.3754,2.3754,0,0,1,1.2.3l-.3,1.6a3.194,3.194,0,0,0-1.4-.3,3.41,3.41,0,0,0-1.9.7v7.8h-1.7v-9.8h1l.6,1.3Z"/>
  <path class="a6e0e216-46b3-44e3-9153-5ee311b6d54b" d="M315.5,174.4a7.5976,7.5976,0,0,0,2.6-.6l.3,1.3a7.8717,7.8717,0,0,1-3,.8c-2.7,0-4.1-1.8-4.1-5.2s1.5-5.1,3.9-5.1,3.6,1.8,3.6,4.6v1.1h-5.6C313.1,173.6,313.8,174.4,315.5,174.4Zm1.5-4.5v-.3c0-2.1-.6-2.8-1.8-2.8s-2,.6-2.1,3.1Z"/>
  <path class="a6e0e216-46b3-44e3-9153-5ee311b6d54b" d="M326,162h1.7v13.5h-1l-.6-1.2-1,1.1a3.0793,3.0793,0,0,1-1.3.3c-2.3,0-3.5-1.8-3.5-5.2,0-3.6,1.5-5.1,3.5-5.1a3.4946,3.4946,0,0,1,2.2.8Zm0,5.6a3.1571,3.1571,0,0,0-1.9-.7c-1.3,0-2,.7-2,3.4v.7c0,2.6.8,3.6,2.1,3.6a2.8416,2.8416,0,0,0,1.9-.9v-6.1Z"/>
  <g>
    <path d="M13.082,7.769l.66-.9355-1.14.084H9.76V5.97h4.8213V7.0854l-2.8663,6.6924H10.4912Z"/>
    <path d="M15.4351,13.3579l.2163-.8276a3.8439,3.8439,0,0,0,1.7866.4922c1.0317,0,1.5835-.42,1.5835-1.5835v-.1558c0-1.2593-.4439-1.5952-1.1875-1.5952a1.2268,1.2268,0,0,0-1.1514.5517l-.8755-.1318.18-4.1377H19.873v.9473H16.8867L16.8145,8.501l-.1919,1.0552a1.9547,1.9547,0,0,1,1.5234-.6475c1.1514,0,2.1226.7436,2.1226,2.4585a2.4582,2.4582,0,0,1-2.59,2.5786A3.8833,3.8833,0,0,1,15.4351,13.3579Z"/>
    <path d="M21.3633,9.856c0-2.3506.9116-4.03,2.8545-4.03S27.06,7.4692,27.06,9.832c0,2.5425-.8995,4.1138-2.8663,4.1138C22.2388,13.9458,21.3633,12.3027,21.3633,9.856Zm4.4736.12V9.5684c0-2.0513-.4678-2.8189-1.6313-2.8189-1.1514,0-1.6192.8037-1.6192,2.8667v.3955c0,2.3028.5039,3.0586,1.6314,3.0586S25.8369,12.2905,25.8369,9.9761Z"/>
  </g>
  <g>
    <path d="M9.8691,57.166l.2163-.8276a3.8439,3.8439,0,0,0,1.7867.4922c1.0317,0,1.5835-.42,1.5835-1.5835v-.1558c0-1.2593-.4439-1.5952-1.1875-1.5952a1.2266,1.2266,0,0,0-1.1514.5518l-.8755-.1319.18-4.1377h3.8862v.9473H11.32l-.0718,1.5835-.1919,1.0552a1.9551,1.9551,0,0,1,1.5235-.6475c1.1513,0,2.1225.7436,2.1225,2.4585a2.4581,2.4581,0,0,1-2.59,2.5786A3.8839,3.8839,0,0,1,9.8691,57.166Z"/>
    <path d="M15.7974,53.6641c0-2.3506.9116-4.03,2.8545-4.03s2.8422,1.643,2.8422,4.0058c0,2.5425-.8994,4.1138-2.8662,4.1138C16.6729,57.7539,15.7974,56.1108,15.7974,53.6641Zm4.4736.12v-.4077c0-2.0513-.4678-2.8189-1.6314-2.8189-1.1513,0-1.6191.8037-1.6191,2.8667V53.82c0,2.3028.5039,3.0586,1.6314,3.0586S20.271,56.0986,20.271,53.7842Z"/>
    <path d="M22.6489,53.6641c0-2.3506.9116-4.03,2.8545-4.03s2.8423,1.643,2.8423,4.0058c0,2.5425-.8994,4.1138-2.8662,4.1138C23.5244,57.7539,22.6489,56.1108,22.6489,53.6641Zm4.4737.12v-.4077c0-2.0513-.4678-2.8189-1.6314-2.8189-1.1514,0-1.6191.8037-1.6191,2.8667V53.82c0,2.3028.5039,3.0586,1.6313,3.0586S27.1226,56.0986,27.1226,53.7842Z"/>
  </g>
  <g>
    <path d="M9.9893,101.4277l.0717-.2646a5.2951,5.2951,0,0,1,1.9551-2.5186c.8638-.7558,1.3316-1.1631,1.3316-1.9189V96.582c0-.9843-.4082-1.248-1.2476-1.248a4.0662,4.0662,0,0,0-1.751.4443l-.2041-.84a4.0394,4.0394,0,0,1,2.147-.5635,2.026,2.026,0,0,1,2.3027,2.1709c0,1.3193-.8994,1.9912-1.9668,2.8184a3.497,3.497,0,0,0-1.583,2.0029l-.0361.18,1.355-.1563h2.1469v.9356H9.9893Z"/>
    <path d="M15.5688,101.9063l.2164-.8272a3.8492,3.8492,0,0,0,1.7866.4922c1.0317,0,1.5835-.42,1.5835-1.583V99.832c0-1.26-.4439-1.5957-1.1875-1.5957a1.2263,1.2263,0,0,0-1.1514.5528l-.8755-.1328.18-4.1368h3.8862v.9473H17.0205l-.0723,1.583-.1919,1.0557A1.9555,1.9555,0,0,1,18.28,97.457c1.1514,0,2.1225.7442,2.1225,2.459a2.4575,2.4575,0,0,1-2.59,2.5781A3.877,3.877,0,0,1,15.5688,101.9063Z"/>
    <path d="M21.4971,98.4043c0-2.35.9116-4.0293,2.8545-4.0293s2.8422,1.6426,2.8422,4.0059c0,2.5429-.8994,4.1132-2.8662,4.1132C22.3726,102.4941,21.4971,100.8516,21.4971,98.4043Zm4.4736.1211v-.4082c0-2.0508-.4678-2.8184-1.6313-2.8184-1.1514,0-1.6192.8028-1.6192,2.8662v.3955c0,2.3028.5039,3.0586,1.6314,3.0586S25.9707,100.84,25.9707,98.5254Z"/>
  </g>
  <path d="M22.9756,141.8525c0-2.35.9116-4.0293,2.8545-4.0293s2.8423,1.6426,2.8423,4.0059c0,2.542-.8995,4.1133-2.8662,4.1133C23.8511,145.9424,22.9756,144.3,22.9756,141.8525Zm4.4736.12v-.4073c0-2.0517-.4678-2.8193-1.6313-2.8193-1.1514,0-1.6192.8037-1.6192,2.8672v.3955c0,2.3027.5039,3.0586,1.6314,3.0586S27.4492,144.2871,27.4492,141.9727Z"/>
  <g>
    <path d="M53.623,154.0176l.0718-.2637a5.2948,5.2948,0,0,1,1.9551-2.5185c.8638-.7559,1.3315-1.1631,1.3315-1.919v-.1435c0-.9844-.4082-1.2481-1.2475-1.2481a4.0662,4.0662,0,0,0-1.751.4443l-.2041-.84a4.03,4.03,0,0,1,2.147-.5635,2.0261,2.0261,0,0,1,2.3027,2.1709c0,1.3194-.8994,1.99-1.9668,2.8184a3.4942,3.4942,0,0,0-1.583,2.0029l-.0361.18,1.355-.1563h2.1469v.9356H53.623Z"/>
    <path d="M59.4067,150.9951c0-2.3506.9117-4.0293,2.8545-4.0293s2.8423,1.6426,2.8423,4.0059c0,2.542-.8994,4.1133-2.8662,4.1133C60.2822,155.085,59.4067,153.4424,59.4067,150.9951Zm4.4737.12v-.4072c0-2.0517-.4678-2.8193-1.6314-2.8193-1.1513,0-1.6191.8037-1.6191,2.8672v.3955c0,2.3027.5039,3.0586,1.6313,3.0586S63.88,153.43,63.88,151.1152Z"/>
    <path d="M66.3789,154.126h1.1392v-5.6133H66.3789v-.5156l1.6787-.8877h.624v7.0166h1.0913v.791h-3.394Z"/>
    <path d="M70.7349,154.5332l.2036-.791a4.207,4.207,0,0,0,1.8232.4316c1.103,0,1.607-.3955,1.607-1.38V152.65c0-1.043-.5279-1.4033-1.7632-1.4033H71.97V150.42h.4922c1.2949,0,1.7388-.36,1.7388-1.247v-.0967c0-.9112-.4317-1.1748-1.4634-1.1748a4.7006,4.7006,0,0,0-1.667.3232l-.1318-.8389a4.5438,4.5438,0,0,1,1.979-.42c1.727,0,2.4824.8633,2.4824,2.0264,0,1.0674-.5757,1.5351-1.6191,1.7871a1.9484,1.9484,0,0,1,1.8354,2.0635c0,1.3427-.9956,2.2422-2.6269,2.2422A4.2788,4.2788,0,0,1,70.7349,154.5332Z"/>
  </g>
  <g>
    <path d="M120.4844,153.7441l.0718-.2646a5.299,5.299,0,0,1,1.955-2.5186c.8638-.7548,1.3316-1.163,1.3316-1.9189v-.1436c0-.9834-.4082-1.247-1.2476-1.247a4.0654,4.0654,0,0,0-1.751.4433l-.2041-.84a4.0394,4.0394,0,0,1,2.147-.5635,2.026,2.026,0,0,1,2.3027,2.1709c0,1.3193-.8994,1.9912-1.9668,2.8184a3.4978,3.4978,0,0,0-1.583,2.0029l-.0361.18,1.355-.1553h2.147v.9356h-4.5215Z"/>
    <path d="M126.2681,150.7217c0-2.3506.9116-4.03,2.8545-4.03s2.8422,1.6436,2.8422,4.0059c0,2.5429-.8994,4.1142-2.8662,4.1142C127.1436,154.8115,126.2681,153.168,126.2681,150.7217Zm4.4736.12v-.4082c0-2.0508-.4678-2.8184-1.6313-2.8184-1.1514,0-1.6192.8037-1.6192,2.8662v.3956c0,2.3027.5039,3.0585,1.6314,3.0585S130.7417,153.1563,130.7417,150.8418Z"/>
    <path d="M133.24,153.8516h1.1392v-5.6123H133.24v-.5166l1.6787-.8868h.6241v7.0157h1.0913v.792H133.24Z"/>
    <path d="M141.0024,152.748H137.44v-.5869l3.2139-5.3252h1.5112v5.0371h1.0078v.875h-1.0078v1.8956h-1.1631Zm.0118-.875v-2.65l.0962-1.8594-.72,1.583-1.7632,2.9267Z"/>
  </g>
  <g>
    <path d="M187.8916,152.9082l.0718-.2637a5.2942,5.2942,0,0,1,1.9551-2.5185c.8637-.7559,1.3315-1.1631,1.3315-1.919v-.1435c0-.9844-.4082-1.2481-1.2476-1.2481a4.0644,4.0644,0,0,0-1.7509.4444l-.2041-.84a4.0307,4.0307,0,0,1,2.1469-.5635,2.0261,2.0261,0,0,1,2.3028,2.1709c0,1.3194-.8994,1.99-1.9668,2.8184a3.4942,3.4942,0,0,0-1.583,2.0029l-.0362.18,1.355-.1562h2.147v.9355h-4.5215Z"/>
    <path d="M193.6753,149.8857c0-2.3505.9116-4.0293,2.8545-4.0293s2.8423,1.6426,2.8423,4.0059c0,2.542-.8994,4.1133-2.8662,4.1133C194.5508,153.9756,193.6753,152.333,193.6753,149.8857Zm4.4736.12v-.4073c0-2.0517-.4677-2.8193-1.6313-2.8193-1.1514,0-1.6192.8037-1.6192,2.8672v.3955c0,2.3027.5039,3.0586,1.6314,3.0586S198.1489,152.32,198.1489,150.0059Z"/>
    <path d="M200.6475,153.0166h1.1391v-5.6133h-1.1391v-.5156L202.3262,146h.624v7.0166h1.0913v.791h-3.394Z"/>
    <path d="M204.979,153.3877l.2163-.8272a3.8486,3.8486,0,0,0,1.7866.4922c1.0318,0,1.5835-.42,1.5835-1.5839v-.1553c0-1.26-.4438-1.5957-1.1875-1.5957a1.2277,1.2277,0,0,0-1.1513.5517l-.8755-.1318.18-4.1377h3.8862v.9473h-2.9863l-.0723,1.584-.1919,1.0546a1.9551,1.9551,0,0,1,1.5234-.6474c1.1514,0,2.1226.7441,2.1226,2.459a2.458,2.458,0,0,1-2.59,2.5781A3.8834,3.8834,0,0,1,204.979,153.3877Z"/>
  </g>
  <g>
    <path d="M259.4155,152.91l.0718-.2637a5.2951,5.2951,0,0,1,1.9551-2.5186c.8633-.7558,1.331-1.1631,1.331-1.9189v-.1436c0-.9843-.4082-1.248-1.247-1.248a4.0662,4.0662,0,0,0-1.751.4443l-.2041-.84a4.03,4.03,0,0,1,2.147-.5635,2.0256,2.0256,0,0,1,2.3022,2.1709c0,1.3193-.8994,1.99-1.9668,2.8184a3.495,3.495,0,0,0-1.5825,2.0029l-.0361.18,1.3549-.1563h2.1465v.9356h-4.521Z"/>
    <path d="M265.1992,149.8877c0-2.3506.9112-4.0293,2.8545-4.0293s2.8418,1.6426,2.8418,4.0059c0,2.542-.8994,4.1132-2.8662,4.1132C266.0742,153.9775,265.1992,152.335,265.1992,149.8877Zm4.4737.12v-.4072c0-2.0518-.4678-2.8193-1.6319-2.8193-1.1514,0-1.6191.8037-1.6191,2.8671v.3955c0,2.3028.5039,3.0586,1.6318,3.0586S269.6729,152.3223,269.6729,150.0078Z"/>
    <path d="M272.1709,153.0186h1.14v-5.6133h-1.14V146.89l1.6787-.8876h.624v7.0166h1.0918v.791h-3.3945Z"/>
    <path d="M278.9619,148.94a1.9594,1.9594,0,0,1,.7793-.1435,2.2371,2.2371,0,0,1,2.3623,2.4941,2.4618,2.4618,0,0,1-2.6738,2.6865c-1.6192,0-2.7109-1.1152-2.7109-3.2138a5.91,5.91,0,0,1,3.0107-4.7617h1.583c-1.5117.9355-2.9268,2.1826-3.2988,3.5986Zm-1.0439,1.3789v.5039c0,1.6192.4795,2.3028,1.5351,2.3028.9834,0,1.44-.4551,1.44-1.6553v-.2754c0-1.1875-.48-1.56-1.4756-1.56a2.7075,2.7075,0,0,0-1.4873.48A1.1172,1.1172,0,0,0,277.918,150.3193Z"/>
  </g>
  <g>
    <path d="M326.291,153l.0723-.2637a5.2972,5.2972,0,0,1,1.9551-2.5185c.8632-.7559,1.332-1.1631,1.332-1.919v-.1435c0-.9844-.4082-1.2481-1.2481-1.2481a4.0644,4.0644,0,0,0-1.7509.4444l-.2041-.84a4.03,4.03,0,0,1,2.1465-.5635,2.0258,2.0258,0,0,1,2.3027,2.1709c0,1.3194-.8985,1.99-1.9668,2.8184a3.49,3.49,0,0,0-1.582,2.0029l-.0372.18,1.3555-.1562h2.1465v.9355H326.291Z"/>
    <path d="M332.0752,149.9775c0-2.35.9111-4.0293,2.8545-4.0293s2.8418,1.6426,2.8418,4.0059c0,2.542-.8985,4.1133-2.8652,4.1133C332.9512,154.0674,332.0752,152.4248,332.0752,149.9775Zm4.4736.12V149.69c0-2.0517-.4677-2.8193-1.6308-2.8193-1.1524,0-1.6192.8037-1.6192,2.8672v.3955c0,2.3027.5039,3.0586,1.6309,3.0586S336.5488,152.4121,336.5488,150.0977Z"/>
    <path d="M339.0469,153.1084h1.14v-5.6133h-1.14V146.98l1.68-.8877h.623v7.0166h1.0918v.791h-3.3945Z"/>
    <path d="M346.63,147.8906l.6592-.9355-1.1387.084h-2.8428v-.9473h4.8213v1.1152l-2.8662,6.6924h-1.2236Z"/>
  </g>
  <g>
    <path d="M396.8086,152.7012l.0713-.2647a5.3026,5.3026,0,0,1,1.9551-2.5185c.8642-.7549,1.332-1.1631,1.332-1.919v-.1435c0-.9834-.4082-1.2471-1.2481-1.2471a4.0673,4.0673,0,0,0-1.7509.4434l-.2041-.84a4.0422,4.0422,0,0,1,2.1474-.5635,2.0263,2.0263,0,0,1,2.3028,2.1709c0,1.3194-.9,1.9912-1.9668,2.8184a3.4953,3.4953,0,0,0-1.583,2.0029l-.0362.18,1.3545-.1553H401.33v.9356h-4.5215Z"/>
    <path d="M402.5918,149.6787c0-2.3506.9121-4.03,2.8545-4.03s2.8428,1.6436,2.8428,4.0059c0,2.543-.9,4.1143-2.8662,4.1143C403.4678,153.7686,402.5918,152.125,402.5918,149.6787Zm4.4736.12v-.4082c0-2.0508-.4677-2.8183-1.6308-2.8183-1.1514,0-1.6192.8037-1.6192,2.8662v.3955c0,2.3027.5039,3.0586,1.6309,3.0586S407.0654,152.1133,407.0654,149.7988Z"/>
    <path d="M409.5645,152.8086h1.1386v-5.6123h-1.1386V146.68l1.6787-.8867h.624v7.0156h1.0908v.792h-3.3935Z"/>
    <path d="M414.376,147.6514c0-1.127.8633-2.003,2.374-2.003,1.5957,0,2.3154.8995,2.3154,1.9073a1.9,1.9,0,0,1-.42,1.2832l-1.0674.5273c.9951.3965,1.8584.9121,1.8584,2.1836,0,1.3066-.9951,2.2188-2.71,2.2188-1.8116,0-2.6983-.8877-2.6983-2.1592a1.9652,1.9652,0,0,1,.6475-1.4873l1.0674-.4678A2.2054,2.2054,0,0,1,414.376,147.6514Zm.7793,3.8144v.168c0,.875.5273,1.3066,1.56,1.3066,1.0069,0,1.4991-.48,1.4991-1.2949v-.18c0-.7441-.5518-.9482-2.003-1.5478A1.6727,1.6727,0,0,0,415.1553,151.4658Zm2.8545-3.8017v-.0723c0-.66-.3116-1.0674-1.26-1.0674-.9111,0-1.1992.4551-1.1992,1.0557v.0713c0,.7441.4316,1.0556,1.5478,1.4873A1.4933,1.4933,0,0,0,418.01,147.6641Z"/>
  </g>
  <g>
    <path d="M462.8457,153l.0713-.2646a5.3024,5.3024,0,0,1,1.9551-2.5186c.8642-.7549,1.332-1.1631,1.332-1.9189v-.1436c0-.9834-.4082-1.2471-1.248-1.2471a4.0674,4.0674,0,0,0-1.751.4434l-.2041-.84a4.0435,4.0435,0,0,1,2.1474-.5634,2.0263,2.0263,0,0,1,2.3028,2.1709c0,1.3193-.8994,1.9912-1.9668,2.8183a3.4952,3.4952,0,0,0-1.583,2.003l-.0362.18,1.3545-.1552h2.1475v.9355h-4.5215Z"/>
    <path d="M468.6289,149.9775c0-2.35.9121-4.03,2.8545-4.03s2.8428,1.6435,2.8428,4.0058c0,2.543-.8994,4.1143-2.8662,4.1143C469.5049,154.0674,468.6289,152.4238,468.6289,149.9775Zm4.4736.12V149.69c0-2.0508-.4677-2.8184-1.6308-2.8184-1.1514,0-1.6192.8037-1.6192,2.8662v.3955c0,2.3027.5039,3.0586,1.6309,3.0586S473.1025,152.4121,473.1025,150.0977Z"/>
    <path d="M475.6016,153.1074H476.74v-5.6123h-1.1386v-.5166l1.6787-.8867h.624v7.0156h1.0908v.792h-3.3935Z"/>
    <path d="M482.9678,151.0088a2.0735,2.0735,0,0,1-.7676.1435,2.2564,2.2564,0,0,1-2.3633-2.5185,2.4858,2.4858,0,0,1,2.6748-2.6865c1.6074,0,2.711,1.0556,2.711,3.2148,0,2.3027-1.6553,3.8252-3.0108,4.7373h-1.5947c1.5469-.96,2.9141-2.1474,3.2978-3.5264Zm1.0556-1.4033v-.5039c0-1.6426-.4677-2.2422-1.5351-2.2422-.9844,0-1.4395.4189-1.4395,1.6191v.2754c0,1.1875.4678,1.6191,1.4746,1.6191a2.8689,2.8689,0,0,0,1.4873-.4677A2.3678,2.3678,0,0,0,484.0234,149.6055Z"/>
  </g>
  <circle class="bf4565ab-a06a-4c30-b82f-7879ca49f8e8" cx="476.0556" cy="129.1667" r="3.6111"/>
  <circle class="bf4565ab-a06a-4c30-b82f-7879ca49f8e8" cx="405.7778" cy="126.1111" r="3.6111"/>
  <circle class="bf4565ab-a06a-4c30-b82f-7879ca49f8e8" cx="338.3889" cy="131.1111" r="3.6111"/>
  <circle class="bf4565ab-a06a-4c30-b82f-7879ca49f8e8" cx="269.9555" cy="141.5014" r="3.6111"/>
  <circle class="bf4565ab-a06a-4c30-b82f-7879ca49f8e8" cx="201.7778" cy="116.7311" r="3.6111"/>
  <circle class="bf4565ab-a06a-4c30-b82f-7879ca49f8e8" cx="133.6889" cy="107.7778" r="3.6111"/>
  <circle class="bf4565ab-a06a-4c30-b82f-7879ca49f8e8" cx="65" cy="84.5556" r="3.6111"/>
  <circle class="f0f73739-01c7-4e92-a8b3-28ede382a0c3" cx="65" cy="26.8834" r="3.6111"/>
  <circle class="f0f73739-01c7-4e92-a8b3-28ede382a0c3" cx="133.6889" cy="94.2622" r="3.6111"/>
  <circle class="f0f73739-01c7-4e92-a8b3-28ede382a0c3" cx="201.7778" cy="57.586" r="3.6111"/>
  <circle class="f0f73739-01c7-4e92-a8b3-28ede382a0c3" cx="270.55" cy="77.507" r="3.6111"/>
  <circle class="f0f73739-01c7-4e92-a8b3-28ede382a0c3" cx="338.5567" cy="85.1108" r="3.6111"/>
  <circle class="f0f73739-01c7-4e92-a8b3-28ede382a0c3" cx="407.7778" cy="88.651" r="3.6111"/>
  <circle class="f0f73739-01c7-4e92-a8b3-28ede382a0c3" cx="475.5577" cy="94.1108" r="3.6111"/>
</svg>
