<svg xmlns="http://www.w3.org/2000/svg" viewBox="0 0 608 875"><defs><style>.cls-1{fill:#e1ebf1;}.cls-2{font-size:21px;font-family:Amplitude-Book, Amplitude;}.cls-15,.cls-2{fill:#231f20;}.cls-3{fill:#fed442;}.cls-4{fill:#f16263;}.cls-5{fill:#484d80;}.cls-6{letter-spacing:-0.02em;}.cls-7{fill:#fff;}.cls-8{letter-spacing:-0.01em;}.cls-9{letter-spacing:-0.02em;}.cls-10{letter-spacing:0em;}.cls-11{letter-spacing:-0.01em;}.cls-12{letter-spacing:-0.05em;}.cls-13{letter-spacing:-0.01em;}.cls-14{letter-spacing:0.01em;}.cls-15{font-size:35px;font-family:Amplitude-Medium, Amplitude;font-weight:500;}.cls-16{letter-spacing:0em;}.cls-17{letter-spacing:0em;}.cls-18{letter-spacing:-0.01em;}.cls-19{letter-spacing:-0.02em;}.cls-20{letter-spacing:0em;}.cls-21{letter-spacing:0em;}</style></defs><g id="Layer_1" data-name="Layer 1"><rect class="cls-1" y="110" width="608" height="255"/><rect class="cls-1" y="620" width="608" height="255"/><g id="L_OtherR"><text class="cls-2" transform="translate(483 854)">Other</text><rect class="cls-3" x="459" y="840" width="15" height="14.51"/></g><g id="L_African_American" data-name="L_African American"><text class="cls-2" transform="translate(269 854)">African American</text><rect class="cls-4" x="245" y="840" width="15" height="14.51"/></g><g id="L_White"><text class="cls-2" transform="translate(95 854)">White</text><rect class="cls-5" x="71" y="840" width="15" height="14.51"/></g><g id="H_Race"><circle class="cls-4" cx="462" cy="733" r="89"/><path class="cls-3" d="M0,0Z" transform="translate(-1121 -181)"/><path class="cls-5" d="M0,0Z" transform="translate(-1121 -181)"/><circle class="cls-1" cx="462" cy="735" r="46"/></g><g id="O_Race"><circle class="cls-4" cx="134" cy="734" r="89"/><path class="cls-3" d="M0,0Z" transform="translate(-1121 -181)"/><path class="cls-5" d="M0,0Z" transform="translate(-1121 -181)"/><circle class="cls-1" cx="134" cy="733" r="46"/></g><g id="L_OtherG"><text class="cls-2" transform="translate(483 600)">Other</text><rect class="cls-3" x="459" y="585" width="15" height="14.51"/></g><g id="L_Female"><text class="cls-2" transform="translate(269 600)"><tspan class="cls-6">F</tspan><tspan x="10" y="0">emale</tspan></text><rect class="cls-4" x="245" y="585" width="15" height="14.51"/></g><g id="L_Male"><text class="cls-2" transform="translate(95 600)">Male</text><rect class="cls-5" x="71" y="585" width="15" height="14.51"/></g><g id="H_Gender"><circle class="cls-5" cx="462" cy="479" r="89"/><path class="cls-4" d="M0,0Z" transform="translate(-1121 -181)"/><path class="cls-3" d="M0,0Z" transform="translate(-1121 -181)"/><circle class="cls-7" cx="462" cy="480" r="46"/></g><g id="O_Gender"><circle class="cls-4" cx="134" cy="479" r="89"/><path class="cls-5" d="M0,0Z" transform="translate(-1121 -181)"/><circle class="cls-7" cx="134" cy="478" r="46"/></g><g id="L_Over_24" data-name="L_Over 24"><text class="cls-2" transform="translate(483 344)">O<tspan class="cls-8" x="13" y="0">v</tspan><tspan x="22" y="0">er </tspan><tspan class="cls-9" x="45" y="0">2</tspan><tspan class="cls-10" x="54" y="0">4</tspan></text><rect class="cls-3" x="459" y="330" width="15" height="14.51"/></g><g id="L_18-24"><text class="cls-2" transform="translate(269 344)">1<tspan class="cls-11" x="8" y="0">8</tspan><tspan class="cls-12" x="19" y="0">-</tspan><tspan class="cls-9" x="25" y="0">2</tspan><tspan x="34" y="0">4 </tspan><tspan class="cls-13" x="50" y="0">y</tspan><tspan x="60" y="0">ea</tspan><tspan class="cls-14" x="80" y="0">r</tspan><tspan x="88" y="0">s old</tspan></text><rect class="cls-4" x="245" y="330" width="15" height="14.51"/></g><g id="L_Under_18" data-name="L_Under 18"><text class="cls-2" transform="translate(95 344)">Under 18</text><rect class="cls-5" x="71" y="330" width="15" height="14.51"/></g><g id="H_Age"><circle class="cls-3" cx="462" cy="222" r="89"/><path class="cls-4" d="M0,0Z" transform="translate(-1121 -181)"/><path class="cls-5" d="M0,0Z" transform="translate(-1121 -181)"/><circle class="cls-1" cx="462" cy="224" r="46"/></g><g id="O_Age"><circle class="cls-3" cx="134" cy="223" r="89"/><path class="cls-4" d="M0,0Z" transform="translate(-1121 -181)"/><path class="cls-5" d="M0,0Z" transform="translate(-1121 -181)"/><circle class="cls-1" cx="134" cy="223" r="46"/></g><text class="cls-15" transform="translate(24 30)"><tspan class="cls-16">O</tspan><tspan class="cls-11" x="22" y="0">v</tspan><tspan class="cls-17" x="38" y="0">e</tspan><tspan class="cls-18" x="55" y="0">r</tspan><tspan class="cls-17" x="68" y="0">all </tspan><tspan class="cls-19" x="112" y="0">A</tspan><tspan class="cls-20" x="132" y="0">tla</tspan><tspan class="cls-16" x="171" y="0">n</tspan><tspan x="190" y="0">ta</tspan><tspan class="cls-21" x="30" y="34">P</tspan><tspan x="50" y="34">opul</tspan><tspan class="cls-21" x="114" y="34">a</tspan><tspan class="cls-20" x="132" y="34">tion</tspan></text><text class="cls-15" transform="translate(337 30)"><tspan class="cls-19">A</tspan><tspan x="20" y="0">tla</tspan><tspan class="cls-21" x="59" y="0">n</tspan><tspan class="cls-20" x="77" y="0">ta Homeless</tspan><tspan class="cls-21" x="48" y="34">P</tspan><tspan x="68" y="34">opul</tspan><tspan class="cls-21" x="132" y="34">a</tspan><tspan class="cls-20" x="150" y="34">tion</tspan></text></g></svg>