<svg id="ed64f86d-989d-49f4-9e1d-8a4fb36818e4" data-name="Layer 1" xmlns="http://www.w3.org/2000/svg" viewBox="0 0 608.08 852.5"><defs><style>.a072c16e-432c-45ff-aa03-0c7c082c5bfd{fill:#e1ebf1;}.aed0d3dc-8a04-4e24-a8e7-b801b53e410c{isolation:isolate;}.bed5f995-033a-430d-87f3-31410b3a7868{fill:#fed442;}.a9f9b656-251a-40b2-971b-886f3f2b09c2{fill:#f16263;}.fa5017e9-752a-4590-be7a-b2d514a49096{fill:#484d80;}.ef9672bc-b7c3-4df4-8ece-c5acf40ee5b9{fill:#fff;}</style></defs><g id="ffb7ef26-9c28-496f-8971-1b08971e69e4" data-name="Layer 1-2"><rect class="a072c16e-432c-45ff-aa03-0c7c082c5bfd" y="87.5" width="608.08" height="255"/><rect class="a072c16e-432c-45ff-aa03-0c7c082c5bfd" y="597.5" width="608.08" height="255"/><g id="b5e25486-023c-4f96-ac42-3a8b0f13721a" data-name="L OtherR"><g class="aed0d3dc-8a04-4e24-a8e7-b801b53e410c"><path d="M483.85,824.83c0-4.13,1.7-7.05,5.29-7.05s5.27,2.86,5.27,7c0,4.47-1.66,7.2-5.31,7.2S483.85,829.1,483.85,824.83Zm8.71.15v-.59c0-3.71-1.15-5.18-3.44-5.18s-3.42,1.55-3.42,5.27V825c0,4.18,1.19,5.63,3.44,5.63S492.56,829.16,492.56,825Z"/><path d="M497.31,829.37V822H496v-1.26h1.43l.75-3h.76v3h2.41V822h-2.41v7.68c0,.74.21,1,.94,1h1.64l.08.86a6.25,6.25,0,0,1-2.18.42C497.92,831.93,497.31,831.11,497.31,829.37Z"/><path d="M505.46,831.7h-1.62V816.63h1.62v5.45l1-1.07a4.46,4.46,0,0,1,2-.48c1.81,0,3,1,3,3.44v7.73H509.8v-8c0-1.4-.69-1.87-1.74-1.87a4.23,4.23,0,0,0-2.6.95Z"/><path d="M518.5,830.69a6.56,6.56,0,0,0,2.81-.73l.3,1.21a7.13,7.13,0,0,1-3.24.82c-2.89,0-4.43-1.91-4.43-5.75s1.72-5.71,4.27-5.71,3.84,2,3.84,5.06v1.13h-6.41C515.69,829.68,516.57,830.69,518.5,830.69Zm2-5.18v-.32c0-2.5-.75-3.42-2.24-3.42s-2.46.71-2.57,3.74Z"/><path d="M527.36,820.91a3.69,3.69,0,0,1,1.55-.38,3.28,3.28,0,0,1,1.41.29l-.31,1.5a3.64,3.64,0,0,0-1.52-.28,3.5,3.5,0,0,0-2.18.88v8.78h-1.62v-11h.93l.65,1.43Z"/></g><rect class="bed5f995-033a-430d-87f3-31410b3a7868" x="458.97" y="817.23" width="14.51" height="14.51"/></g><g id="b666327f-90ed-4734-bf77-ce8bf00c1e8d" data-name="L African American"><g class="aed0d3dc-8a04-4e24-a8e7-b801b53e410c"><path d="M270.9,831.7h-1.56L273.75,818h1.81l4.32,13.67h-1.82l-.86-2.9h-5.4Zm4.22-9.76-.53-2.8-.63,2.8-1.76,5.6h4.62Z"/><path d="M281.12,822v-1.26h1.37v-1.51c0-1.91.9-2.77,2.35-2.77a4.6,4.6,0,0,1,2,.46l-.09.9h-1.68c-.73,0-1,.3-1,1v1.93h2.46V822h-2.46v9.7h-1.59V822Z"/><path d="M291.22,820.91a3.73,3.73,0,0,1,1.56-.38,3.26,3.26,0,0,1,1.4.29l-.31,1.5a3.63,3.63,0,0,0-1.51-.28,3.55,3.55,0,0,0-2.19.88v8.78h-1.61v-11h.92l.65,1.43Z"/><path d="M296,817.57a1.11,1.11,0,0,1,1.12-1.11,1.11,1.11,0,0,1,0,2.22A1.11,1.11,0,0,1,296,817.57Zm.3,3.17h1.61v11h-1.61Z"/><path d="M300.63,826.2c0-3.84,1.45-5.67,4.2-5.67a7.17,7.17,0,0,1,2.92.63l-.27,1.26a8.09,8.09,0,0,0-2.54-.52c-1.7,0-2.61.77-2.61,4.09v.31c0,3.43.95,4.39,2.61,4.39a5.71,5.71,0,0,0,2.6-.73l.31,1.19a5.92,5.92,0,0,1-3,.84C302.12,832,300.63,830.08,300.63,826.2Z"/><path d="M315.29,824.08c0-1.24-.36-2.16-1.87-2.16a9.55,9.55,0,0,0-3.19.69l-.25-1.26a8.36,8.36,0,0,1,3.5-.82c2.42,0,3.4,1.24,3.4,4.12V830c0,.61.21.78.72.78H318l0,.86a2.05,2.05,0,0,1-1.07.29,2.3,2.3,0,0,1-.88-.17l-.74-1.17-1,1.07a4.46,4.46,0,0,1-1.77.33,2.85,2.85,0,0,1-3.17-3.15c0-2.2,1.2-3.08,3.91-3.38l1.91-.16Zm0,2.22-1.81.19c-1.72.19-2.43.72-2.43,2.23v.15c0,1.36.65,1.91,2,1.91a2.75,2.75,0,0,0,2.25-1Z"/><path d="M322.89,821a4.39,4.39,0,0,1,2-.48c1.8,0,3,1,3,3.44v7.73h-1.62v-8c0-1.4-.69-1.87-1.74-1.87a4.23,4.23,0,0,0-2.6.95v8.9h-1.62v-11h.92l.65,1.39Z"/><path d="M336.6,831.7h-1.55L339.46,818h1.81l4.32,13.67h-1.83l-.86-2.9h-5.39Zm4.22-9.76-.52-2.8-.63,2.8-1.76,5.6h4.62Z"/><path d="M356.11,821a4.17,4.17,0,0,1,2-.48c1.79,0,2.88,1,2.88,3.44v7.73h-1.62v-8c0-1.43-.6-1.87-1.65-1.87a3.79,3.79,0,0,0-2.44.95v8.9h-1.62v-8c0-1.43-.69-1.87-1.65-1.87a4,4,0,0,0-2.46.91v8.94H347.9v-11h.93l.63,1.34.94-1.07a4.2,4.2,0,0,1,2-.48,3.6,3.6,0,0,1,1.91.48l.75,1.16Z"/><path d="M368,830.69a6.56,6.56,0,0,0,2.81-.73l.3,1.21a7.13,7.13,0,0,1-3.24.82c-2.89,0-4.43-1.91-4.43-5.75s1.73-5.71,4.27-5.71,3.84,2,3.84,5.06v1.13h-6.41C365.23,829.68,366.11,830.69,368,830.69Zm1.95-5.18v-.32c0-2.5-.75-3.42-2.24-3.42s-2.46.71-2.57,3.74Z"/><path d="M376.9,820.91a3.73,3.73,0,0,1,1.56-.38,3.26,3.26,0,0,1,1.4.29l-.31,1.5A3.63,3.63,0,0,0,378,822a3.5,3.5,0,0,0-2.19.88v8.78h-1.61v-11h.92l.65,1.43Z"/><path d="M381.71,817.57a1.12,1.12,0,1,1,1.11,1.11A1.11,1.11,0,0,1,381.71,817.57Zm.29,3.17h1.62v11H382Z"/><path d="M386.31,826.2c0-3.84,1.45-5.67,4.2-5.67a7.21,7.21,0,0,1,2.92.63l-.27,1.26a8.09,8.09,0,0,0-2.55-.52c-1.7,0-2.6.77-2.6,4.09v.31c0,3.43.95,4.39,2.6,4.39a5.71,5.71,0,0,0,2.61-.73l.31,1.19a5.92,5.92,0,0,1-3,.84C387.8,832,386.31,830.08,386.31,826.2Z"/><path d="M401,824.08c0-1.24-.36-2.16-1.87-2.16a9.55,9.55,0,0,0-3.19.69l-.25-1.26a8.32,8.32,0,0,1,3.5-.82c2.42,0,3.4,1.24,3.4,4.12V830c0,.61.21.78.72.78h.42l0,.86a2.05,2.05,0,0,1-1.07.29,2.3,2.3,0,0,1-.88-.17l-.74-1.17-1,1.07a4.37,4.37,0,0,1-1.76.33,2.85,2.85,0,0,1-3.17-3.15c0-2.2,1.2-3.08,3.91-3.38l1.91-.16Zm0,2.22-1.81.19c-1.72.19-2.43.72-2.43,2.23v.15c0,1.36.65,1.91,2,1.91a2.75,2.75,0,0,0,2.25-1Z"/><path d="M408.57,821a4.39,4.39,0,0,1,2-.48c1.8,0,3,1,3,3.44v7.73H412v-8c0-1.4-.69-1.87-1.74-1.87a4.26,4.26,0,0,0-2.61.95v8.9H406v-11h.92l.65,1.39Z"/></g><rect class="a9f9b656-251a-40b2-971b-886f3f2b09c2" x="244.83" y="817.23" width="14.51" height="14.51"/></g><g id="b364c3e9-5dc6-4ff0-8ff8-67e9ade19f4e" data-name="L White"><g class="aed0d3dc-8a04-4e24-a8e7-b801b53e410c"><path d="M95.66,818h1.81l1.68,8.21.54,4.64.59-4.3L102,818h1.89l1.79,8.55.56,4.3.59-4.64,1.76-8.21h1.56L107,831.7h-1.85l-1.78-8.46-.49-4.31-.54,4.31-1.79,8.46H98.75Z"/><path d="M114,831.7h-1.62V816.63H114v5.45l1-1.07a4.38,4.38,0,0,1,2-.48c1.81,0,3,1,3,3.44v7.73H118.3v-8c0-1.4-.7-1.87-1.75-1.87a4.23,4.23,0,0,0-2.6.95Z"/><path d="M122.88,817.57a1.1,1.1,0,0,1,1.11-1.11,1.11,1.11,0,0,1,0,2.22A1.1,1.1,0,0,1,122.88,817.57Zm.29,3.17h1.62v11h-1.62Z"/><path d="M128.36,829.37V822H127v-1.26h1.43l.76-3H130v3h2.42V822H130v7.68c0,.74.21,1,.95,1h1.64l.08.86a6.3,6.3,0,0,1-2.18.42C129,831.93,128.36,831.11,128.36,829.37Z"/><path d="M138.77,830.69a6.64,6.64,0,0,0,2.82-.73l.29,1.21a7.12,7.12,0,0,1-3.23.82c-2.9,0-4.43-1.91-4.43-5.75s1.72-5.71,4.26-5.71,3.84,2,3.84,5.06v1.13h-6.4C136,829.68,136.84,830.69,138.77,830.69Zm1.95-5.18v-.32c0-2.5-.75-3.42-2.24-3.42s-2.46.71-2.56,3.74Z"/></g><rect class="fa5017e9-752a-4590-be7a-b2d514a49096" x="71.18" y="817.23" width="14.51" height="14.51"/></g><g id="bbab1d83-c366-4dcd-b9c6-3d56a43e1565" data-name="H Race"><circle class="a9f9b656-251a-40b2-971b-886f3f2b09c2" cx="462.19" cy="710.68" r="89.2"/><path class="bed5f995-033a-430d-87f3-31410b3a7868" d="M462.19,621.37a89,89,0,0,0-28.67,4.71l28.67,84.6Z"/><path class="fa5017e9-752a-4590-be7a-b2d514a49096" d="M511.5,636.13a88.75,88.75,0,0,0-49.31-14.86v89.42Z"/><circle class="a072c16e-432c-45ff-aa03-0c7c082c5bfd" cx="462.13" cy="712.25" r="46.46"/></g><g id="e4114481-03f6-47e7-a1e1-64d55ba9c0d9" data-name="O Race"><circle class="a9f9b656-251a-40b2-971b-886f3f2b09c2" cx="133.89" cy="710.78" r="89.2"/><path class="bed5f995-033a-430d-87f3-31410b3a7868" d="M133.89,621.47A88.78,88.78,0,0,0,90,633l43.88,77.49Z"/><path class="fa5017e9-752a-4590-be7a-b2d514a49096" d="M223.09,710.6a89.2,89.2,0,0,0-89.2-89.2h0v89.12l46.89,76A89.16,89.16,0,0,0,223.09,710.6Z"/><circle class="a072c16e-432c-45ff-aa03-0c7c082c5bfd" cx="133.95" cy="710.48" r="46.46" transform="translate(-39.08 8.49) rotate(-3.17)"/></g><g id="bb49e889-8ce2-4590-8d97-74eaf0bda53c" data-name="L OtherG"><g class="aed0d3dc-8a04-4e24-a8e7-b801b53e410c"><path d="M483.85,570.09c0-4.13,1.7-7.05,5.29-7.05s5.27,2.86,5.27,7c0,4.47-1.66,7.2-5.31,7.2S483.85,574.36,483.85,570.09Zm8.71.15v-.59c0-3.71-1.15-5.18-3.44-5.18s-3.42,1.55-3.42,5.27v.56c0,4.18,1.19,5.63,3.44,5.63S492.56,574.42,492.56,570.24Z"/><path d="M497.31,574.63v-7.37H496V566h1.43l.75-3h.76v3h2.41v1.26h-2.41v7.68c0,.74.21,1,.94,1h1.64l.08.86a6.25,6.25,0,0,1-2.18.42C497.92,577.19,497.31,576.37,497.31,574.63Z"/><path d="M505.46,577h-1.62V561.88h1.62v5.46l1-1.07a4.46,4.46,0,0,1,2-.48c1.81,0,3,1,3,3.44V577H509.8v-8c0-1.4-.69-1.87-1.74-1.87a4.23,4.23,0,0,0-2.6.95Z"/><path d="M518.5,576a6.56,6.56,0,0,0,2.81-.73l.3,1.21a7.13,7.13,0,0,1-3.24.82c-2.89,0-4.43-1.91-4.43-5.75s1.72-5.71,4.27-5.71,3.84,2,3.84,5.06V572h-6.41C515.69,574.94,516.57,576,518.5,576Zm2-5.18v-.32c0-2.5-.75-3.42-2.24-3.42s-2.46.71-2.57,3.74Z"/><path d="M527.36,566.17a3.69,3.69,0,0,1,1.55-.38,3.28,3.28,0,0,1,1.41.29l-.31,1.5a3.64,3.64,0,0,0-1.52-.28,3.5,3.5,0,0,0-2.18.88V577h-1.62V566h.93l.65,1.43Z"/></g><rect class="bed5f995-033a-430d-87f3-31410b3a7868" x="458.97" y="562.5" width="14.51" height="14.51"/></g><g id="b039584d-e157-47cc-b636-40b4fe14ad24" data-name="L Female"><g class="aed0d3dc-8a04-4e24-a8e7-b801b53e410c"><g class="aed0d3dc-8a04-4e24-a8e7-b801b53e410c"><path d="M270.46,563.29h7.34v1.43h-5.6v4.91h4.93V571H272.2v6h-1.74Z"/></g><g class="aed0d3dc-8a04-4e24-a8e7-b801b53e410c"><path d="M284.1,576a6.64,6.64,0,0,0,2.82-.73l.29,1.21a7.12,7.12,0,0,1-3.23.82c-2.9,0-4.43-1.91-4.43-5.75s1.72-5.71,4.26-5.71,3.84,2,3.84,5.06V572h-6.4C281.29,574.94,282.17,576,284.1,576Zm1.95-5.18v-.32c0-2.5-.75-3.42-2.24-3.42s-2.46.71-2.56,3.74Z"/><path d="M298.51,566.27a4.17,4.17,0,0,1,2-.48c1.79,0,2.88,1,2.88,3.44V577h-1.62v-8c0-1.43-.61-1.87-1.66-1.87a3.74,3.74,0,0,0-2.43.95V577H296v-8c0-1.43-.69-1.87-1.66-1.87a4,4,0,0,0-2.46.91V577H290.3V566h.92l.63,1.34.95-1.07a4.19,4.19,0,0,1,2-.48,3.56,3.56,0,0,1,1.91.48l.76,1.16Z"/><path d="M311.67,569.34c0-1.24-.35-2.16-1.86-2.16a9.66,9.66,0,0,0-3.2.69l-.25-1.26a8.41,8.41,0,0,1,3.51-.82c2.41,0,3.4,1.24,3.4,4.12v5.35c0,.61.21.78.71.78h.42l.05.86a2.05,2.05,0,0,1-1.07.29,2.39,2.39,0,0,1-.89-.17l-.73-1.17-1,1.07a4.45,4.45,0,0,1-1.76.33,2.85,2.85,0,0,1-3.17-3.15c0-2.2,1.19-3.08,3.9-3.38l1.91-.16Zm0,2.22-1.8.19c-1.72.19-2.44.72-2.44,2.23v.15c0,1.36.65,1.91,2,1.91a2.74,2.74,0,0,0,2.24-1Z"/><path d="M316.82,561.88h1.64V577h-1.64Z"/><path d="M325.74,576a6.64,6.64,0,0,0,2.82-.73l.29,1.21a7.12,7.12,0,0,1-3.23.82c-2.9,0-4.43-1.91-4.43-5.75s1.72-5.71,4.26-5.71,3.84,2,3.84,5.06V572h-6.4C322.93,574.94,323.81,576,325.74,576Zm2-5.18v-.32c0-2.5-.76-3.42-2.25-3.42s-2.46.71-2.56,3.74Z"/></g></g><rect class="a9f9b656-251a-40b2-971b-886f3f2b09c2" x="244.83" y="562.5" width="14.51" height="14.51"/></g><g id="ec105ef4-c666-46cb-972d-501d23a85a8b" data-name="L Male"><g class="aed0d3dc-8a04-4e24-a8e7-b801b53e410c"><path d="M96.79,563.29h2.4l2.73,9.62.59,3.4.56-3.4,2.86-9.62h2.45V577h-1.72v-7.68l.32-5.36-.93,4L103.32,577h-1.86l-2.61-9L98,563.92l.3,5.36V577H96.79Z"/><path d="M117,569.34c0-1.24-.35-2.16-1.87-2.16a9.6,9.6,0,0,0-3.19.69l-.25-1.26a8.41,8.41,0,0,1,3.51-.82c2.41,0,3.4,1.24,3.4,4.12v5.35c0,.61.21.78.71.78h.42l0,.86a2,2,0,0,1-1.07.29,2.34,2.34,0,0,1-.88-.17l-.73-1.17-1,1.07a4.45,4.45,0,0,1-1.76.33,2.84,2.84,0,0,1-3.17-3.15c0-2.2,1.19-3.08,3.9-3.38l1.91-.16Zm0,2.22-1.8.19c-1.72.19-2.44.72-2.44,2.23v.15c0,1.36.65,1.91,2,1.91a2.74,2.74,0,0,0,2.24-1Z"/><path d="M122.1,561.88h1.64V577H122.1Z"/><path d="M131,576a6.64,6.64,0,0,0,2.82-.73l.29,1.21a7.12,7.12,0,0,1-3.23.82c-2.9,0-4.43-1.91-4.43-5.75s1.72-5.71,4.26-5.71,3.84,2,3.84,5.06V572h-6.4C128.21,574.94,129.09,576,131,576Zm2-5.18v-.32c0-2.5-.76-3.42-2.25-3.42s-2.46.71-2.56,3.74Z"/></g><rect class="fa5017e9-752a-4590-be7a-b2d514a49096" x="71.18" y="562.5" width="14.51" height="14.51"/></g><g id="ef22ec82-2a20-49b0-aa49-d3d0671b3e6e" data-name="H Gender"><circle class="fa5017e9-752a-4590-be7a-b2d514a49096" cx="462.19" cy="456.31" r="89.2"/><path class="a9f9b656-251a-40b2-971b-886f3f2b09c2" d="M457.72,367a89.24,89.24,0,0,0-80.27,117l84.74-28.12Z"/><path class="bed5f995-033a-430d-87f3-31410b3a7868" d="M462.19,367c-1.5,0-3,0-4.48.11l4.48,89Z"/><circle class="ef9672bc-b7c3-4df4-8ece-c5acf40ee5b9" cx="462.04" cy="457.01" r="46.46"/></g><g id="bfa15623-dfcd-402d-9ad8-aba6f255336f" data-name="O Gender"><circle class="a9f9b656-251a-40b2-971b-886f3f2b09c2" cx="133.89" cy="456.29" r="89.2"/><path class="fa5017e9-752a-4590-be7a-b2d514a49096" d="M223.09,456.19a89.2,89.2,0,0,0-89.2-89.2v89.2l7.84,88.86A89.23,89.23,0,0,0,223.09,456.19Z"/><circle class="ef9672bc-b7c3-4df4-8ece-c5acf40ee5b9" cx="134.04" cy="455.61" r="46.46" transform="translate(-329.93 557.02) rotate(-85.93)"/></g><g id="ad8c094d-e109-4802-ba40-6c2b82ba6034" data-name="L Over 24"><g class="aed0d3dc-8a04-4e24-a8e7-b801b53e410c"><g class="aed0d3dc-8a04-4e24-a8e7-b801b53e410c"><path d="M483.85,314.36c0-4.13,1.7-7.05,5.29-7.05s5.27,2.86,5.27,7c0,4.47-1.66,7.2-5.31,7.2S483.85,318.63,483.85,314.36Zm8.71.15v-.59c0-3.71-1.15-5.18-3.44-5.18s-3.42,1.55-3.42,5.27v.56c0,4.18,1.19,5.63,3.44,5.63S492.56,318.69,492.56,314.51Z"/></g><g class="aed0d3dc-8a04-4e24-a8e7-b801b53e410c"><path d="M495.92,310.27h1.68l2.08,7.18.55,3.23.54-3.23,2.12-7.18h1.58l-3.43,11h-1.72Z"/></g><g class="aed0d3dc-8a04-4e24-a8e7-b801b53e410c"><path d="M510.22,320.22a6.64,6.64,0,0,0,2.82-.73l.29,1.21a7.12,7.12,0,0,1-3.23.82c-2.9,0-4.43-1.91-4.43-5.75s1.72-5.71,4.26-5.71,3.84,2,3.84,5.06v1.13h-6.4C507.41,319.21,508.29,320.22,510.22,320.22Zm1.95-5.18v-.32c0-2.5-.75-3.42-2.24-3.42s-2.46.71-2.56,3.74Z"/><path d="M519.08,310.44a3.73,3.73,0,0,1,1.56-.38,3.26,3.26,0,0,1,1.4.29l-.31,1.5a3.63,3.63,0,0,0-1.51-.28,3.55,3.55,0,0,0-2.19.88v8.78h-1.61v-11h.92l.65,1.43Z"/></g><g class="aed0d3dc-8a04-4e24-a8e7-b801b53e410c"><path d="M528.28,319.82l.13-.46c.52-2,2.06-3.23,3.48-4.47,1.58-1.39,2.46-2.14,2.46-3.53v-.25c0-1.87-.73-2.39-2.33-2.39a7,7,0,0,0-3.09.79l-.33-1.21a6.75,6.75,0,0,1,3.67-1c2.81,0,3.91,1.66,3.91,3.74,0,2.24-1.56,3.46-3.43,4.93-1.49,1.16-2.58,2-2.94,3.78l-.06.32,2.27-.24h4v1.39h-7.77Z"/></g><g class="aed0d3dc-8a04-4e24-a8e7-b801b53e410c"><path d="M543.87,317.81h-6.3v-.88l5.75-9.37h2.25v8.9h1.78v1.35h-1.78v3.42h-1.7Zm0-1.35V311.3l.17-3-1.22,2.56-3.43,5.6Z"/></g></g><rect class="bed5f995-033a-430d-87f3-31410b3a7868" x="458.97" y="306.76" width="14.51" height="14.51"/></g><g id="acf16e56-2e94-46f2-8f36-1be261e09c0c" data-name="L 18-24"><g class="aed0d3dc-8a04-4e24-a8e7-b801b53e410c"><g class="aed0d3dc-8a04-4e24-a8e7-b801b53e410c"><path d="M269.93,320h2V309.72h-2V309l2.77-1.41h.93V320h1.93v1.22h-5.63Z"/></g><g class="aed0d3dc-8a04-4e24-a8e7-b801b53e410c"><path d="M278.27,310.73c0-2,1.53-3.42,3.94-3.42,2.61,0,4,1.49,4,3.25a3.44,3.44,0,0,1-.78,2.36l-1.84.92c1.76.73,3.29,1.62,3.29,3.8,0,2.33-1.8,3.88-4.62,3.88-3,0-4.59-1.47-4.59-3.71a3.47,3.47,0,0,1,1.21-2.73l1.91-.86A3.83,3.83,0,0,1,278.27,310.73Zm1,6.85v.25c0,1.64,1,2.45,2.89,2.45s2.86-.92,2.86-2.47v-.32c0-1.38-1-1.8-3.59-2.85C279.88,315.46,279.3,316.23,279.3,317.58Zm5.29-6.83v-.12c0-1.22-.63-2-2.36-2s-2.26.86-2.26,2v.12c0,1.32.84,2,2.81,2.75C284.33,312.62,284.59,312,284.59,310.75Z"/></g><g class="aed0d3dc-8a04-4e24-a8e7-b801b53e410c"><path d="M288.69,314.2h4.22v1.57h-4.22Z"/></g><g class="aed0d3dc-8a04-4e24-a8e7-b801b53e410c"><path d="M294,319.82l.13-.46c.52-2,2.06-3.23,3.48-4.47,1.58-1.39,2.46-2.14,2.46-3.53v-.25c0-1.87-.73-2.39-2.33-2.39a7,7,0,0,0-3.09.79l-.33-1.21a6.75,6.75,0,0,1,3.67-1c2.81,0,3.91,1.66,3.91,3.74,0,2.24-1.56,3.46-3.43,4.93-1.49,1.16-2.58,2-2.94,3.78l-.06.32,2.27-.24h4v1.39H294Z"/></g><g class="aed0d3dc-8a04-4e24-a8e7-b801b53e410c"><path d="M309.62,317.81h-6.3v-.88l5.75-9.37h2.25v8.9h1.78v1.35h-1.78v3.42h-1.7Zm0-1.35V311.3l.16-3-1.21,2.56-3.43,5.6Z"/></g><g class="aed0d3dc-8a04-4e24-a8e7-b801b53e410c"><path d="M323,320.94l-3.49-10.67h1.66l2.12,6.84.53,3,.56-3,2.1-6.84h1.58l-4.6,14.36H321.9Z"/></g><g class="aed0d3dc-8a04-4e24-a8e7-b801b53e410c"><path d="M333.83,320.22a6.64,6.64,0,0,0,2.82-.73l.29,1.21a7.12,7.12,0,0,1-3.23.82c-2.9,0-4.43-1.91-4.43-5.75s1.72-5.71,4.26-5.71,3.84,2,3.84,5.06v1.13H331C331,319.21,331.9,320.22,333.83,320.22Zm1.95-5.18v-.32c0-2.5-.75-3.42-2.24-3.42S331.08,312,331,315Z"/><path d="M345.15,313.61c0-1.24-.36-2.16-1.87-2.16a9.55,9.55,0,0,0-3.19.69l-.25-1.26a8.4,8.4,0,0,1,3.5-.82c2.42,0,3.41,1.24,3.41,4.12v5.35c0,.61.21.78.71.78h.42l0,.86a2,2,0,0,1-1.07.29,2.34,2.34,0,0,1-.88-.17l-.74-1.17-1,1.07a4.46,4.46,0,0,1-1.77.33,2.85,2.85,0,0,1-3.17-3.15c0-2.2,1.2-3.08,3.91-3.38l1.91-.16Zm0,2.22-1.81.19c-1.72.19-2.43.72-2.43,2.23v.15c0,1.36.65,1.91,2,1.91a2.75,2.75,0,0,0,2.25-1Z"/></g><g class="aed0d3dc-8a04-4e24-a8e7-b801b53e410c"><path d="M352.83,310.44a3.73,3.73,0,0,1,1.56-.38,3.26,3.26,0,0,1,1.4.29l-.31,1.5a3.63,3.63,0,0,0-1.51-.28,3.55,3.55,0,0,0-2.19.88v8.78h-1.61v-11h.92l.65,1.43Z"/></g><g class="aed0d3dc-8a04-4e24-a8e7-b801b53e410c"><path d="M357.35,320.83l.23-1.22a6.86,6.86,0,0,0,2.78.65c1.34,0,2.14-.48,2.14-1.86s-.44-1.56-2.5-2.13c-1.58-.42-2.67-1.11-2.67-3.08s1.37-3.13,3.45-3.13a6.23,6.23,0,0,1,2.89.63l-.25,1.2a6.54,6.54,0,0,0-2.58-.51c-1.3,0-2,.36-2,1.72s.61,1.45,2.29,1.92c1.93.54,2.92,1.28,2.92,3.31,0,1.85-1.2,3.19-3.59,3.19A6.55,6.55,0,0,1,357.35,320.83Z"/><path d="M370.77,315.79c0-3.76,1.74-5.73,4.33-5.73s4.28,2,4.28,5.67-1.66,5.79-4.28,5.79S370.77,319.49,370.77,315.79Zm6.93.17v-.29c0-3.34-.95-4.31-2.6-4.31s-2.63,1-2.63,4.2v.32c0,3.25,1,4.38,2.63,4.38S377.7,319.13,377.7,316Z"/><path d="M382.11,306.15h1.64v15.08h-1.64Z"/><path d="M393,306.15h1.61v15.08h-.92l-.61-1.3-1.2,1.22a3.53,3.53,0,0,1-1.51.31c-2.52,0-3.84-2-3.84-5.77s1.62-5.63,3.86-5.63a3.94,3.94,0,0,1,2.61,1Zm0,6.14a3.81,3.81,0,0,0-2.33-.91c-1.58,0-2.48.8-2.48,4.06V316c0,3.17.9,4.26,2.5,4.26a3.49,3.49,0,0,0,2.31-1Z"/></g></g><rect class="a9f9b656-251a-40b2-971b-886f3f2b09c2" x="244.83" y="306.76" width="14.51" height="14.51"/></g><g id="ea1cf212-fbb1-4517-b551-811ce7ad85fd" data-name="L Under 18"><g class="aed0d3dc-8a04-4e24-a8e7-b801b53e410c"><path d="M103.87,307.56h1.76v13.67h-1l-.57-1.32-.82,1.09a6.45,6.45,0,0,1-2.54.52c-2.77,0-4-1.55-4-5.39v-8.57h1.76v9.11c0,2.86.68,3.51,2.52,3.51a5,5,0,0,0,2.88-.86Z"/><path d="M111.66,310.54a4.39,4.39,0,0,1,2-.48c1.8,0,3,1,3,3.44v7.73H115v-8c0-1.4-.69-1.87-1.74-1.87a4.23,4.23,0,0,0-2.6.95v8.9h-1.62v-11H110l.65,1.39Z"/><path d="M125.67,306.15h1.61v15.08h-.92l-.61-1.3-1.19,1.22a3.62,3.62,0,0,1-1.52.31c-2.52,0-3.84-2-3.84-5.77s1.62-5.63,3.86-5.63a3.94,3.94,0,0,1,2.61,1Zm0,6.14a3.79,3.79,0,0,0-2.33-.91c-1.58,0-2.48.8-2.48,4.06V316c0,3.17.9,4.26,2.5,4.26a3.49,3.49,0,0,0,2.31-1Z"/><path d="M134.45,320.22a6.63,6.63,0,0,0,2.81-.73l.29,1.21a7.12,7.12,0,0,1-3.23.82c-2.9,0-4.43-1.91-4.43-5.75s1.72-5.71,4.26-5.71,3.84,2,3.84,5.06v1.13h-6.4C131.63,319.21,132.51,320.22,134.45,320.22Zm2-5.18v-.32c0-2.5-.76-3.42-2.25-3.42s-2.45.71-2.56,3.74Z"/><path d="M143.31,310.44a3.69,3.69,0,0,1,1.55-.38,3.32,3.32,0,0,1,1.41.29l-.32,1.5a3.63,3.63,0,0,0-1.51-.28,3.5,3.5,0,0,0-2.18.88v8.78h-1.62v-11h.93l.65,1.43Z"/><path d="M152.91,320h2V309.72h-2V309l2.77-1.41h.92V320h1.93v1.22h-5.62Z"/><path d="M161.24,310.73c0-2,1.53-3.42,3.95-3.42,2.6,0,3.95,1.49,3.95,3.25a3.44,3.44,0,0,1-.78,2.36l-1.85.92c1.77.73,3.3,1.62,3.3,3.8,0,2.33-1.81,3.88-4.62,3.88-3,0-4.6-1.47-4.6-3.71a3.48,3.48,0,0,1,1.22-2.73l1.91-.86A3.82,3.82,0,0,1,161.24,310.73Zm1,6.85v.25c0,1.64,1,2.45,2.9,2.45s2.85-.92,2.85-2.47v-.32c0-1.38-1-1.8-3.59-2.85C162.86,315.46,162.27,316.23,162.27,317.58Zm5.29-6.83v-.12c0-1.22-.63-2-2.35-2s-2.27.86-2.27,2v.12c0,1.32.84,2,2.82,2.75C167.31,312.62,167.56,312,167.56,310.75Z"/></g><rect class="fa5017e9-752a-4590-be7a-b2d514a49096" x="71.18" y="306.76" width="14.51" height="14.51"/></g><g id="b5891519-d713-4f45-bc29-5ee5a0db3727" data-name="H Age"><circle class="bed5f995-033a-430d-87f3-31410b3a7868" cx="462.19" cy="199.74" r="89.2"/><path class="a9f9b656-251a-40b2-971b-886f3f2b09c2" d="M548.77,178.09a89.18,89.18,0,0,0-29.34-46.87L462,199.8Z"/><path class="fa5017e9-752a-4590-be7a-b2d514a49096" d="M519.63,131.25a88.83,88.83,0,0,0-57.39-20.92v89.42Z"/><circle class="a072c16e-432c-45ff-aa03-0c7c082c5bfd" cx="462.06" cy="201.37" r="46.46"/></g><g id="a824bbf5-2d91-475d-be09-e49a5b8f138e" data-name="O Age"><circle class="bed5f995-033a-430d-87f3-31410b3a7868" cx="133.89" cy="199.83" r="89.2"/><path class="a9f9b656-251a-40b2-971b-886f3f2b09c2" d="M218.18,170.47l-84.42,29.2,81.1,37.54A89.42,89.42,0,0,0,218.18,170.47Z"/><path class="fa5017e9-752a-4590-be7a-b2d514a49096" d="M218.25,170.6a89.24,89.24,0,0,0-84.35-60.13v89.31Z"/><circle class="a072c16e-432c-45ff-aa03-0c7c082c5bfd" cx="133.76" cy="199.83" r="46.46"/></g><g class="aed0d3dc-8a04-4e24-a8e7-b801b53e410c"><g class="aed0d3dc-8a04-4e24-a8e7-b801b53e410c"><path d="M24.68,18.3c0-6.79,2.91-11.76,9.45-11.76s9.42,4.87,9.42,11.69c0,7-2.84,12-9.49,12S24.68,25.16,24.68,18.3Zm14.18.53V17.29c0-5.71-1.51-7.32-4.76-7.32s-4.73,1.72-4.73,7.46v1.5C29.37,25.27,31,27,34.13,27S38.86,25.13,38.86,18.83Z"/></g><g class="aed0d3dc-8a04-4e24-a8e7-b801b53e410c"><path d="M45.36,11.3h4.28L52.4,21.45l1,6.72.94-6.72L57.13,11.3h3.81L55.27,29.75H51.18Z"/></g><g class="aed0d3dc-8a04-4e24-a8e7-b801b53e410c"><path d="M70.57,27a13.53,13.53,0,0,0,4.9-1.15l.56,3a12.76,12.76,0,0,1-5.74,1.4c-5.32,0-8-3.36-8-9.7s2.94-9.62,7.56-9.62c4.9,0,6.86,3.32,6.86,8.71v2.21H66.51C66.58,25.76,67.66,27,70.57,27Zm2.27-7.91v-.63c0-3.39-.91-4.58-3-4.58S66.68,15,66.54,19.07Z"/></g><g class="aed0d3dc-8a04-4e24-a8e7-b801b53e410c"><path d="M86.42,11.48a5.8,5.8,0,0,1,2.52-.56,3.84,3.84,0,0,1,2.24.59l-.7,3.68a6,6,0,0,0-2.59-.46,7.05,7.05,0,0,0-3.33.95V29.75h-4.1V11.3h2.7L84.49,14Z"/></g><g class="aed0d3dc-8a04-4e24-a8e7-b801b53e410c"><path d="M102.2,16.94c0-1.51-.59-2.56-2.62-2.56A18.14,18.14,0,0,0,94,15.61l-.56-3.08A15.09,15.09,0,0,1,100,10.92c4.55,0,6.3,2.06,6.3,7.45v8.09c0,.87.35,1.08,1,1.08h.84l.07,1.83a3.54,3.54,0,0,1-2.41.8,6.3,6.3,0,0,1-1.89-.28l-1.51-2.06L101,29.58a7.75,7.75,0,0,1-3.22.66c-2.69,0-5.14-1.4-5.14-5.29s1.92-5.21,6.86-5.91l2.69-.35Zm0,4.09-2.41.35c-2.35.32-3.26,1-3.26,3.12v.28c0,1.89,1,2.69,2.77,2.69a3.65,3.65,0,0,0,2.9-1.19Z"/><path d="M111.58,4.62h4.1V29.75h-4.1Z"/><path d="M120.93,4.62H125V29.75h-4.09Z"/></g><g class="aed0d3dc-8a04-4e24-a8e7-b801b53e410c"><path d="M140.11,29.75h-3.85L143.68,7h4.2l7.28,22.79h-4.65l-1.16-4h-8Zm6.2-14.42L145.5,11l-1,4.31-2.31,7.49h6.3Z"/></g><g class="aed0d3dc-8a04-4e24-a8e7-b801b53e410c"><path d="M158,24.71V14.17H155.9V11.3h2.45l2-5h1.82v5h4v2.87h-4V25.65c0,1.19.42,1.54,1.75,1.54h2.52l.21,2.21a10.11,10.11,0,0,1-3.89.77C159.47,30.17,158,28.31,158,24.71Z"/><path d="M170.11,4.62h4.09V29.75h-4.09Z"/><path d="M187.68,16.94c0-1.51-.6-2.56-2.63-2.56a18.14,18.14,0,0,0-5.6,1.23l-.56-3.08a15.14,15.14,0,0,1,6.55-1.61c4.55,0,6.3,2.06,6.3,7.45v8.09c0,.87.35,1.08,1,1.08h.84l.07,1.83a3.59,3.59,0,0,1-2.42.8,6.35,6.35,0,0,1-1.89-.28l-1.5-2.06-1.4,1.75a7.75,7.75,0,0,1-3.22.66c-2.7,0-5.15-1.4-5.15-5.29S180,19.74,185,19l2.7-.35Zm0,4.09-2.42.35c-2.34.32-3.25,1-3.25,3.12v.28c0,1.89,1,2.69,2.76,2.69a3.69,3.69,0,0,0,2.91-1.19Z"/></g><g class="aed0d3dc-8a04-4e24-a8e7-b801b53e410c"><path d="M202.73,11.62a7,7,0,0,1,3.11-.7c3.22,0,5,2,5,6V29.75h-4.1V16.45c0-1.61-.87-2.24-2.34-2.24a6.93,6.93,0,0,0-3.47,1V29.75h-4.09V11.3h2.69l1.33,2.42Z"/></g><g class="aed0d3dc-8a04-4e24-a8e7-b801b53e410c"><path d="M215.81,24.71V14.17h-2.14V11.3h2.46l2-5h1.82v5h4v2.87h-4V25.65c0,1.19.42,1.54,1.75,1.54h2.52l.21,2.21a10.11,10.11,0,0,1-3.89.77C217.25,30.17,215.81,28.31,215.81,24.71Z"/><path d="M236.11,16.94c0-1.51-.59-2.56-2.62-2.56a18.14,18.14,0,0,0-5.6,1.23l-.56-3.08a15.09,15.09,0,0,1,6.54-1.61c4.55,0,6.3,2.06,6.3,7.45v8.09c0,.87.35,1.08,1.05,1.08h.84l.07,1.83a3.54,3.54,0,0,1-2.41.8,6.3,6.3,0,0,1-1.89-.28l-1.51-2.06-1.4,1.75a7.75,7.75,0,0,1-3.22.66c-2.69,0-5.15-1.4-5.15-5.29s1.93-5.21,6.87-5.91l2.69-.35Zm0,4.09-2.41.35c-2.35.32-3.26,1-3.26,3.12v.28c0,1.89,1,2.69,2.77,2.69a3.65,3.65,0,0,0,2.9-1.19Z"/></g></g><g class="aed0d3dc-8a04-4e24-a8e7-b801b53e410c"><g class="aed0d3dc-8a04-4e24-a8e7-b801b53e410c"><path d="M56.6,41h7.7c5.39,0,8.23,2.77,8.23,7.6,0,4.65-2.77,7.7-8.23,7.7H61.05v7.49H56.6Zm7.46,12.22c2.76,0,3.74-1.12,3.74-4.2v-.7c0-3-1-3.92-3.81-3.92H61.05v8.82Z"/></g><g class="aed0d3dc-8a04-4e24-a8e7-b801b53e410c"><path d="M74.87,54.58c0-6.23,2.91-9.66,7.7-9.66s7.63,3.43,7.63,9.55-2.83,9.77-7.63,9.77S74.87,60.71,74.87,54.58Zm11.1.35V54.3c0-5-1-6.2-3.4-6.2s-3.46,1.19-3.46,6v.67c0,4.93,1.15,6.34,3.46,6.34S86,59.72,86,54.93Z"/><path d="M99.65,45.51a6.69,6.69,0,0,1,2.91-.59c4.16,0,6.19,3.46,6.19,9.62s-2,9.17-6.44,9.17A6.93,6.93,0,0,1,98,62.31v7.11h-4.1V45.3h2.7l1.23,2.21Zm1.61,15.54c2.28,0,3.29-1.57,3.29-5.77V53.63c0-4-1-5.42-3.18-5.42a6.45,6.45,0,0,0-3.33,1V60A6.23,6.23,0,0,0,101.26,61.05Z"/><path d="M122.23,45.3h4.09V63.75h-2.69l-1.33-2.31-1.65,2.1a9.17,9.17,0,0,1-3.29.63c-3.19,0-5-2-5-6V45.3h4.09V58.53c0,1.93.88,2.56,2.31,2.56A6,6,0,0,0,122.23,60Z"/><path d="M131.36,38.62h4.1V63.75h-4.1Z"/></g><g class="aed0d3dc-8a04-4e24-a8e7-b801b53e410c"><path d="M148.93,50.94c0-1.51-.59-2.56-2.62-2.56a18.14,18.14,0,0,0-5.6,1.23l-.56-3.08a15.09,15.09,0,0,1,6.54-1.61c4.55,0,6.3,2.06,6.3,7.45v8.09c0,.87.35,1.08,1,1.08h.84l.07,1.83a3.54,3.54,0,0,1-2.41.8,6.3,6.3,0,0,1-1.89-.28l-1.51-2.06-1.4,1.75a7.75,7.75,0,0,1-3.22.66c-2.69,0-5.14-1.4-5.14-5.29s1.92-5.21,6.86-5.91l2.69-.35Zm0,4.09-2.41.35c-2.35.32-3.26,1-3.26,3.12v.28c0,1.89,1,2.69,2.77,2.69a3.65,3.65,0,0,0,2.9-1.19Z"/></g><g class="aed0d3dc-8a04-4e24-a8e7-b801b53e410c"><path d="M158.38,58.71V48.17h-2.14V45.3h2.46l2-5h1.82v5h4v2.87h-4V59.65c0,1.19.42,1.54,1.75,1.54h2.52L167,63.4a10.11,10.11,0,0,1-3.89.77C159.82,64.17,158.38,62.31,158.38,58.71Z"/><path d="M170,40.37a2.44,2.44,0,0,1,4.87,0,2.44,2.44,0,0,1-4.87,0Zm.38,4.93h4.1V63.75h-4.1Z"/><path d="M178.36,54.58c0-6.23,2.91-9.66,7.7-9.66s7.64,3.43,7.64,9.55-2.84,9.77-7.64,9.77S178.36,60.71,178.36,54.58Zm11.1.35V54.3c0-5-1.05-6.2-3.4-6.2s-3.46,1.19-3.46,6v.67c0,4.93,1.15,6.34,3.46,6.34S189.46,59.72,189.46,54.93Z"/><path d="M203.32,45.62a7,7,0,0,1,3.11-.7c3.22,0,5,2,5,5.95V63.75h-4.1V50.45c0-1.61-.87-2.24-2.34-2.24a6.93,6.93,0,0,0-3.47,1V63.75h-4.09V45.3h2.69l1.33,2.42Z"/></g></g><g class="aed0d3dc-8a04-4e24-a8e7-b801b53e410c"><g class="aed0d3dc-8a04-4e24-a8e7-b801b53e410c"><path d="M338.11,29.75h-3.85L341.68,7h4.2l7.28,22.79h-4.65l-1.16-4h-8Zm6.2-14.42L343.5,11l-1,4.31-2.31,7.49h6.3Z"/></g><g class="aed0d3dc-8a04-4e24-a8e7-b801b53e410c"><path d="M356,24.71V14.17h-2.14V11.3h2.46l2-5h1.82v5h3.95v2.87h-3.95V25.65c0,1.19.42,1.54,1.75,1.54h2.52l.21,2.21a10.11,10.11,0,0,1-3.89.77C357.47,30.17,356,28.31,356,24.71Z"/><path d="M368.11,4.62h4.09V29.75h-4.09Z"/><path d="M385.68,16.94c0-1.51-.6-2.56-2.63-2.56a18.14,18.14,0,0,0-5.6,1.23l-.56-3.08a15.14,15.14,0,0,1,6.55-1.61c4.55,0,6.3,2.06,6.3,7.45v8.09c0,.87.35,1.08,1.05,1.08h.84l.07,1.83a3.59,3.59,0,0,1-2.42.8,6.35,6.35,0,0,1-1.89-.28l-1.5-2.06-1.4,1.75a7.75,7.75,0,0,1-3.22.66c-2.7,0-5.15-1.4-5.15-5.29S378,19.74,383,19l2.7-.35Zm0,4.09-2.42.35c-2.34.32-3.26,1-3.26,3.12v.28c0,1.89,1,2.69,2.77,2.69a3.69,3.69,0,0,0,2.91-1.19Z"/></g><g class="aed0d3dc-8a04-4e24-a8e7-b801b53e410c"><path d="M400.73,11.62a7,7,0,0,1,3.11-.7c3.22,0,5,2,5,6V29.75h-4.1V16.45c0-1.61-.87-2.24-2.34-2.24a6.93,6.93,0,0,0-3.47,1V29.75h-4.1V11.3h2.7l1.33,2.42Z"/></g><g class="aed0d3dc-8a04-4e24-a8e7-b801b53e410c"><path d="M413.81,24.71V14.17h-2.14V11.3h2.46l2-5h1.82v5h3.95v2.87h-3.95V25.65c0,1.19.42,1.54,1.75,1.54h2.52l.21,2.21a10.11,10.11,0,0,1-3.89.77C415.25,30.17,413.81,28.31,413.81,24.71Z"/><path d="M434.11,16.94c0-1.51-.59-2.56-2.62-2.56a18.14,18.14,0,0,0-5.6,1.23l-.56-3.08a15.09,15.09,0,0,1,6.54-1.61c4.55,0,6.3,2.06,6.3,7.45v8.09c0,.87.35,1.08,1.05,1.08h.84l.07,1.83a3.54,3.54,0,0,1-2.41.8,6.3,6.3,0,0,1-1.89-.28l-1.51-2.06-1.4,1.75a7.75,7.75,0,0,1-3.22.66c-2.69,0-5.15-1.4-5.15-5.29s1.93-5.21,6.87-5.91l2.69-.35Zm0,4.09-2.41.35c-2.35.32-3.26,1-3.26,3.12v.28c0,1.89,1,2.69,2.77,2.69a3.65,3.65,0,0,0,2.9-1.19Z"/><path d="M455.84,19.84v9.91h-4.48V7h4.48v9.38h7.67V7H468V29.75h-4.48V19.84Z"/><path d="M472,20.58c0-6.23,2.9-9.66,7.7-9.66s7.63,3.43,7.63,9.55-2.83,9.77-7.63,9.77S472,26.71,472,20.58Zm11.1.35V20.3c0-5-1.05-6.2-3.4-6.2s-3.47,1.19-3.47,6v.67c0,4.93,1.16,6.34,3.47,6.34S483.08,25.72,483.08,20.93Z"/><path d="M506.32,11.62a7.07,7.07,0,0,1,3.08-.7c3.18,0,4.93,2,4.93,6V29.75h-4.09V16.45c0-1.65-.81-2.24-2.28-2.24a6.07,6.07,0,0,0-3.22,1V29.75h-4.09V16.45a2,2,0,0,0-2.28-2.24,6.42,6.42,0,0,0-3.22,1V29.75h-4.1V11.3h2.7l1.33,2.35,1.79-2a6.43,6.43,0,0,1,3-.7,6.36,6.36,0,0,1,3.15.7l1.4,2.17Z"/><path d="M526.23,27a13.49,13.49,0,0,0,4.9-1.15l.56,3a12.69,12.69,0,0,1-5.74,1.4c-5.32,0-8-3.36-8-9.7s3-9.62,7.57-9.62c4.9,0,6.86,3.32,6.86,8.71v2.21H522.17C522.24,25.76,523.33,27,526.23,27Zm2.28-7.91v-.63c0-3.39-.91-4.58-3-4.58s-3.19,1.15-3.32,5.21Z"/><path d="M536.34,4.62h4.1V29.75h-4.1Z"/><path d="M552.69,27a13.53,13.53,0,0,0,4.9-1.15l.56,3a12.73,12.73,0,0,1-5.74,1.4c-5.32,0-8-3.36-8-9.7s2.94-9.62,7.57-9.62c4.9,0,6.86,3.32,6.86,8.71v2.21H548.63C548.7,25.76,549.78,27,552.69,27ZM555,19.07v-.63c0-3.39-.91-4.58-3-4.58s-3.19,1.15-3.33,5.21Z"/><path d="M561.61,29.05l.42-2.91a11.82,11.82,0,0,0,4.59,1.05c2.21,0,3.29-.63,3.29-2.41s-.87-1.89-4.06-2.7c-2.59-.63-4.45-1.92-4.45-5.49,0-3.92,2.56-5.67,6.48-5.67A11.55,11.55,0,0,1,573.1,12l-.6,3a12.53,12.53,0,0,0-4.24-.77c-2.2,0-3.11.45-3.11,2.17s1,1.85,3.85,2.55c3.12.74,4.79,2,4.79,5.6s-2.2,5.71-6.68,5.71A11.85,11.85,0,0,1,561.61,29.05Z"/><path d="M576.42,29.05l.42-2.91a11.81,11.81,0,0,0,4.58,1.05c2.21,0,3.29-.63,3.29-2.41s-.87-1.89-4.06-2.7c-2.59-.63-4.44-1.92-4.44-5.49,0-3.92,2.55-5.67,6.47-5.67A11.55,11.55,0,0,1,587.9,12l-.6,3a12.47,12.47,0,0,0-4.23-.77c-2.21,0-3.12.45-3.12,2.17s1,1.85,3.85,2.55c3.12.74,4.8,2,4.8,5.6s-2.21,5.71-6.69,5.71A11.8,11.8,0,0,1,576.42,29.05Z"/></g></g><g class="aed0d3dc-8a04-4e24-a8e7-b801b53e410c"><g class="aed0d3dc-8a04-4e24-a8e7-b801b53e410c"><path d="M384.68,41h7.7c5.39,0,8.23,2.77,8.23,7.6,0,4.65-2.77,7.7-8.23,7.7h-3.25v7.49h-4.45Zm7.46,12.22c2.76,0,3.74-1.12,3.74-4.2v-.7c0-3-1.05-3.92-3.81-3.92h-2.94v8.82Z"/></g><g class="aed0d3dc-8a04-4e24-a8e7-b801b53e410c"><path d="M403,54.58c0-6.23,2.91-9.66,7.7-9.66s7.63,3.43,7.63,9.55-2.83,9.77-7.63,9.77S403,60.71,403,54.58Zm11.1.35V54.3c0-5-1.05-6.2-3.4-6.2s-3.46,1.19-3.46,6v.67c0,4.93,1.15,6.34,3.46,6.34S414.05,59.72,414.05,54.93Z"/><path d="M427.73,45.51a6.69,6.69,0,0,1,2.91-.59c4.16,0,6.19,3.46,6.19,9.62s-2,9.17-6.44,9.17a6.93,6.93,0,0,1-4.27-1.4v7.11H422V45.3h2.7L426,47.51Zm1.61,15.54c2.28,0,3.29-1.57,3.29-5.77V53.63c0-4-1.05-5.42-3.18-5.42a6.45,6.45,0,0,0-3.33,1V60A6.23,6.23,0,0,0,429.34,61.05Z"/><path d="M450.31,45.3h4.09V63.75h-2.69l-1.33-2.31-1.65,2.1a9.17,9.17,0,0,1-3.29.63c-3.19,0-5-2-5-6V45.3h4.09V58.53c0,1.93.88,2.56,2.32,2.56A6,6,0,0,0,450.31,60Z"/><path d="M459.44,38.62h4.1V63.75h-4.1Z"/></g><g class="aed0d3dc-8a04-4e24-a8e7-b801b53e410c"><path d="M477,50.94c0-1.51-.59-2.56-2.62-2.56a18.14,18.14,0,0,0-5.6,1.23l-.56-3.08a15.09,15.09,0,0,1,6.54-1.61c4.55,0,6.3,2.06,6.3,7.45v8.09c0,.87.35,1.08,1.05,1.08H483l.07,1.83a3.54,3.54,0,0,1-2.41.8,6.3,6.3,0,0,1-1.89-.28l-1.51-2.06-1.4,1.75a7.75,7.75,0,0,1-3.22.66c-2.69,0-5.14-1.4-5.14-5.29s1.92-5.21,6.86-5.91l2.69-.35ZM477,55l-2.41.35c-2.35.32-3.26,1-3.26,3.12v.28c0,1.89,1,2.69,2.77,2.69a3.65,3.65,0,0,0,2.9-1.19Z"/></g><g class="aed0d3dc-8a04-4e24-a8e7-b801b53e410c"><path d="M486.46,58.71V48.17h-2.13V45.3h2.45l2-5h1.82v5h3.95v2.87h-3.95V59.65c0,1.19.42,1.54,1.75,1.54h2.52L495,63.4a10.11,10.11,0,0,1-3.89.77C487.9,64.17,486.46,62.31,486.46,58.71Z"/><path d="M498.08,40.37a2.44,2.44,0,0,1,4.87,0,2.44,2.44,0,0,1-4.87,0Zm.38,4.93h4.1V63.75h-4.1Z"/><path d="M506.44,54.58c0-6.23,2.91-9.66,7.7-9.66s7.64,3.43,7.64,9.55-2.84,9.77-7.64,9.77S506.44,60.71,506.44,54.58Zm11.1.35V54.3c0-5-1-6.2-3.4-6.2s-3.46,1.19-3.46,6v.67c0,4.93,1.15,6.34,3.46,6.34S517.54,59.72,517.54,54.93Z"/><path d="M531.4,45.62a7,7,0,0,1,3.11-.7c3.23,0,5,2,5,5.95V63.75h-4.1V50.45c0-1.61-.87-2.24-2.34-2.24a6.93,6.93,0,0,0-3.47,1V63.75h-4.09V45.3h2.69l1.33,2.42Z"/></g></g></g></svg>