<svg id="b40b0dc7-a844-4794-9480-19e498dd7902" data-name="Layer 1" xmlns="http://www.w3.org/2000/svg" viewBox="0 0 608.08 855.2499"><defs><style>.be292b03-a52b-45f6-87f7-25c7c364d804{fill:#e0eaf0;}.b6f42609-beab-4122-aecf-533d78947bb2{isolation:isolate;}.f4508c18-ca3a-46aa-9837-d9265182bd7c{fill:#010101;}.a6476335-7508-4579-a671-b3576bd0b0ec{fill:#ffd442;}.bf1541a2-3e9d-4692-b94b-8c1c40f9a88a{fill:#f16363;}.b4f28f33-8b41-4719-980a-7d994ab87ba5{fill:#494e81;}.b4c8a8f2-ec64-47b1-a5dd-d4240319c6d2{fill:#fff;}</style></defs><g id="fee409ec-8282-4204-b80e-a9e1e35f3127" data-name="Layer 1-2"><rect class="be292b03-a52b-45f6-87f7-25c7c364d804" y="90.2499" width="608.08" height="255"/><rect class="be292b03-a52b-45f6-87f7-25c7c364d804" y="600.2499" width="608.08" height="255"/><g id="f3245e1a-ae46-4a97-905e-f197dd508bdc" data-name="L OtherR"><g class="b6f42609-beab-4122-aecf-533d78947bb2"><path class="f4508c18-ca3a-46aa-9837-d9265182bd7c" d="M483.85,827.585c0-4.1368,1.7-7.0547,5.291-7.0547,3.5693,0,5.2695,2.8554,5.2695,7.0117,0,4.4726-1.6582,7.2021-5.3115,7.2021C485.4663,834.7441,483.85,831.8467,483.85,827.585Zm8.7129.1464v-.5878c0-3.7168-1.1543-5.1856-3.4434-5.1856s-3.4218,1.5527-3.4218,5.2695v.5664c0,4.1788,1.1962,5.627,3.4433,5.627S492.563,831.9092,492.563,827.7314Z"/><path class="f4508c18-ca3a-46aa-9837-d9265182bd7c" d="M497.311,832.12v-7.37h-1.3232v-1.26h1.4277l.7559-2.96h.7558v2.96h2.4151v1.26h-2.4151v7.6846c0,.7343.21.9658.9454.9658H501.51l.0839.86a6.2789,6.2789,0,0,1-2.1836.42C497.9194,834.6807,497.311,833.8623,497.311,832.12Z"/><path class="f4508c18-ca3a-46aa-9837-d9265182bd7c" d="M505.4585,834.45h-1.6172V819.375h1.6172v5.459l.9658-1.0713a4.3877,4.3877,0,0,1,2.0361-.4824c1.8057,0,2.961.9863,2.961,3.4433V834.45h-1.6172v-7.9785c0-1.4063-.6924-1.8692-1.7422-1.8692a4.25,4.25,0,0,0-2.6035.9454Z"/><path class="f4508c18-ca3a-46aa-9837-d9265182bd7c" d="M518.4985,833.4424a6.6082,6.6082,0,0,0,2.8135-.7344l.294,1.2168a7.1535,7.1535,0,0,1-3.2334.8193c-2.8975,0-4.43-1.9111-4.43-5.7529,0-3.9687,1.7217-5.7109,4.2617-5.7109,2.625,0,3.8428,1.9736,3.8428,5.06v1.1328h-6.4043C515.6851,832.4346,516.5669,833.4424,518.4985,833.4424Zm1.9532-5.1856v-.3154c0-2.499-.7559-3.4228-2.2471-3.4228-1.47,0-2.4561.7148-2.5615,3.7382Z"/><path class="f4508c18-ca3a-46aa-9837-d9265182bd7c" d="M527.3608,823.6582a3.6745,3.6745,0,0,1,1.5538-.3779,3.1976,3.1976,0,0,1,1.4062.2939l-.3145,1.4912a3.6722,3.6722,0,0,0-1.5117-.2734,3.489,3.489,0,0,0-2.1836.8818V834.45h-1.6172V823.49h.9239l.6513,1.4278Z"/></g><rect class="a6476335-7508-4579-a671-b3576bd0b0ec" x="458.97" y="819.9799" width="14.51" height="14.51"/></g><g id="a2916050-a080-4b59-b70d-8e720d79fe9b" data-name="L African American"><g class="b6f42609-beab-4122-aecf-533d78947bb2"><path class="f4508c18-ca3a-46aa-9837-d9265182bd7c" d="M270.897,834.45h-1.5537l4.4091-13.668h1.8057l4.3252,13.668h-1.8271l-.86-2.8975h-5.3965Zm4.22-9.7637-.5244-2.792-.63,2.792-1.7637,5.6065h4.6192Z"/><path class="f4508c18-ca3a-46aa-9837-d9265182bd7c" d="M281.1235,824.75v-1.26h1.3653v-1.5117c0-1.9111.9023-2.7715,2.3515-2.7715a4.5383,4.5383,0,0,1,2.0157.4619l-.084.9024h-1.68c-.7354,0-1.0078.2949-1.0078.9873V823.49h2.456v1.26h-2.456v9.7h-1.5957v-9.7Z"/><path class="f4508c18-ca3a-46aa-9837-d9265182bd7c" d="M291.2241,823.6582a3.6741,3.6741,0,0,1,1.5537-.3779,3.1978,3.1978,0,0,1,1.4063.2939l-.3145,1.4912a3.6722,3.6722,0,0,0-1.5117-.2734,3.489,3.489,0,0,0-2.1836.8818V834.45h-1.6172V823.49h.9239l.6513,1.4278Z"/><path class="f4508c18-ca3a-46aa-9837-d9265182bd7c" d="M296.0337,820.3193a1.1059,1.1059,0,0,1,1.1123-1.1123,1.1128,1.1128,0,1,1,0,2.2256A1.1061,1.1061,0,0,1,296.0337,820.3193Zm.2939,3.1709h1.6162v10.96h-1.6162Z"/><path class="f4508c18-ca3a-46aa-9837-d9265182bd7c" d="M300.6323,828.9492c0-3.8428,1.4483-5.6689,4.1992-5.6689a7.233,7.233,0,0,1,2.918.63l-.2724,1.26a8.1786,8.1786,0,0,0-2.5411-.5244c-1.7,0-2.6035.7764-2.6035,4.0938v.3144c0,3.4229.9453,4.3887,2.6035,4.3887a5.6837,5.6837,0,0,0,2.6036-.7344l.3154,1.1963a5.9448,5.9448,0,0,1-3.0235.84C302.1226,834.7441,300.6323,832.833,300.6323,828.9492Z"/><path class="f4508c18-ca3a-46aa-9837-d9265182bd7c" d="M315.2886,826.8291c0-1.2393-.3565-2.1631-1.8682-2.1631a9.6239,9.6239,0,0,0-3.1914.6924l-.2519-1.26a8.3851,8.3851,0,0,1,3.5058-.8183c2.415,0,3.4014,1.2383,3.4014,4.1152v5.3535c0,.6094.21.7774.7138.7774h.42l.042.8613a1.9869,1.9869,0,0,1-1.07.293,2.4255,2.4255,0,0,1-.8818-.168l-.7353-1.1758-.9659,1.0713a4.47,4.47,0,0,1-1.7636.3359,2.8439,2.8439,0,0,1-3.17-3.1494c0-2.2051,1.1963-3.0859,3.9053-3.3808l1.91-.168Zm0,2.2246-1.8057.1895c-1.7217.1894-2.4355.7138-2.4355,2.2256v.1474c0,1.3643.6513,1.91,1.9951,1.91a2.7309,2.7309,0,0,0,2.2461-1.0293Z"/><path class="f4508c18-ca3a-46aa-9837-d9265182bd7c" d="M322.8911,823.7627a4.3924,4.3924,0,0,1,2.0371-.4824c1.8057,0,2.96.9863,2.96,3.4433V834.45H326.272v-7.9785c0-1.4063-.6934-1.8692-1.7432-1.8692a4.25,4.25,0,0,0-2.6035.9454V834.45h-1.6162V823.49h.9238l.65,1.3858Z"/><path class="f4508c18-ca3a-46aa-9837-d9265182bd7c" d="M336.604,834.45H335.05l4.4092-13.668h1.8056L345.59,834.45h-1.8261l-.8614-2.8975h-5.3955Zm4.2207-9.7637-.5254-2.792-.63,2.792-1.7636,5.6065h4.6191Z"/><path class="f4508c18-ca3a-46aa-9837-d9265182bd7c" d="M356.1118,823.7627a4.17,4.17,0,0,1,1.9736-.4824c1.7842,0,2.876.9863,2.876,3.4433V834.45h-1.6162v-7.9785c0-1.4278-.6094-1.8692-1.6592-1.8692a3.7917,3.7917,0,0,0-2.4355.9454V834.45h-1.6162v-7.9785c0-1.4278-.6934-1.8692-1.6592-1.8692a3.9655,3.9655,0,0,0-2.4561.9034V834.45h-1.6171V823.49h.9238l.63,1.3438.9453-1.0713a4.195,4.195,0,0,1,1.9941-.4824,3.5377,3.5377,0,0,1,1.9112.4824l.7558,1.1553Z"/><path class="f4508c18-ca3a-46aa-9837-d9265182bd7c" d="M368.04,833.4424a6.6078,6.6078,0,0,0,2.8134-.7344l.294,1.2168a7.1535,7.1535,0,0,1-3.2334.8193c-2.8975,0-4.43-1.9111-4.43-5.7529,0-3.9687,1.7217-5.7109,4.2617-5.7109,2.625,0,3.8428,1.9736,3.8428,5.06v1.1328h-6.4043C365.2261,832.4346,366.1079,833.4424,368.04,833.4424Zm1.9531-5.1856v-.3154c0-2.499-.7559-3.4228-2.2471-3.4228-1.47,0-2.456.7148-2.5615,3.7382Z"/><path class="f4508c18-ca3a-46aa-9837-d9265182bd7c" d="M376.9019,823.6582a3.6741,3.6741,0,0,1,1.5537-.3779,3.2029,3.2029,0,0,1,1.4072.2939l-.3154,1.4912a3.67,3.67,0,0,0-1.5118-.2734,3.4885,3.4885,0,0,0-2.1835.8818V834.45h-1.6163V823.49h.9239l.65,1.4278Z"/><path class="f4508c18-ca3a-46aa-9837-d9265182bd7c" d="M381.7114,820.3193a1.1059,1.1059,0,0,1,1.1123-1.1123,1.1128,1.1128,0,1,1,0,2.2256A1.1061,1.1061,0,0,1,381.7114,820.3193Zm.294,3.1709h1.6162v10.96h-1.6162Z"/><path class="f4508c18-ca3a-46aa-9837-d9265182bd7c" d="M386.31,828.9492c0-3.8428,1.4492-5.6689,4.1992-5.6689a7.2337,7.2337,0,0,1,2.9189.63l-.2734,1.26a8.1723,8.1723,0,0,0-2.54-.5244c-1.7011,0-2.6035.7764-2.6035,4.0938v.3144c0,3.4229.9444,4.3887,2.6035,4.3887a5.6833,5.6833,0,0,0,2.6036-.7344l.3144,1.1963a5.9417,5.9417,0,0,1-3.0234.84C387.8013,834.7441,386.31,832.833,386.31,828.9492Z"/><path class="f4508c18-ca3a-46aa-9837-d9265182bd7c" d="M400.9673,826.8291c0-1.2393-.3574-2.1631-1.8692-2.1631a9.6239,9.6239,0,0,0-3.1914.6924l-.2519-1.26a8.3861,8.3861,0,0,1,3.5068-.8183c2.4141,0,3.4014,1.2383,3.4014,4.1152v5.3535c0,.6094.21.7774.7139.7774h.42l.042.8613a1.9938,1.9938,0,0,1-1.0713.293,2.4338,2.4338,0,0,1-.8819-.168l-.7343-1.1758-.9659,1.0713a4.47,4.47,0,0,1-1.7636.3359,2.8441,2.8441,0,0,1-3.1709-3.1494c0-2.2051,1.1972-3.0859,3.9053-3.3808l1.9111-.168Zm0,2.2246-1.8057.1895c-1.7217.1894-2.4355.7138-2.4355,2.2256v.1474c0,1.3643.65,1.91,1.9941,1.91a2.7329,2.7329,0,0,0,2.2471-1.0293Z"/><path class="f4508c18-ca3a-46aa-9837-d9265182bd7c" d="M408.5688,823.7627a4.3929,4.3929,0,0,1,2.0372-.4824c1.8056,0,2.96.9863,2.96,3.4433V834.45H411.95v-7.9785c0-1.4063-.6934-1.8692-1.7432-1.8692a4.25,4.25,0,0,0-2.6035.9454V834.45h-1.6162V823.49h.9238l.65,1.3858Z"/></g><rect class="bf1541a2-3e9d-4692-b94b-8c1c40f9a88a" x="244.83" y="819.9799" width="14.51" height="14.51"/></g><g id="beb821fb-9ec2-4561-96f7-9590d22dede7" data-name="L White"><g class="b6f42609-beab-4122-aecf-533d78947bb2"><path class="f4508c18-ca3a-46aa-9837-d9265182bd7c" d="M95.6606,820.7822h1.8057l1.68,8.209.5459,4.6406.5879-4.3047,1.7217-8.5449h1.89l1.7852,8.5449.5664,4.3047.5879-4.6406,1.7636-8.209h1.5537L107.02,834.45h-1.8476l-1.7852-8.4609-.4824-4.3047-.5459,4.3047-1.7852,8.4609H98.7476Z"/><path class="f4508c18-ca3a-46aa-9837-d9265182bd7c" d="M113.9517,834.45h-1.6172V819.375h1.6172v5.459l.9658-1.0713a4.3877,4.3877,0,0,1,2.0361-.4824c1.8057,0,2.961.9863,2.961,3.4433V834.45h-1.6172v-7.9785c0-1.4063-.6924-1.8692-1.7422-1.8692a4.25,4.25,0,0,0-2.6035.9454Z"/><path class="f4508c18-ca3a-46aa-9837-d9265182bd7c" d="M122.8765,820.3193a1.1059,1.1059,0,0,1,1.1123-1.1123,1.1128,1.1128,0,1,1,0,2.2256A1.1061,1.1061,0,0,1,122.8765,820.3193Zm.2939,3.1709h1.6162v10.96H123.17Z"/><path class="f4508c18-ca3a-46aa-9837-d9265182bd7c" d="M128.3569,832.12v-7.37h-1.3222v-1.26h1.4277l.7559-2.96h.7558v2.96h2.4141v1.26h-2.4141v7.6846c0,.7343.21.9658.9444.9658h1.6377l.0839.86a6.2789,6.2789,0,0,1-2.1836.42C128.9663,834.6807,128.3569,833.8623,128.3569,832.12Z"/><path class="f4508c18-ca3a-46aa-9837-d9265182bd7c" d="M138.772,833.4424a6.6078,6.6078,0,0,0,2.8134-.7344l.294,1.2168a7.1535,7.1535,0,0,1-3.2334.8193c-2.8975,0-4.43-1.9111-4.43-5.7529,0-3.9687,1.7217-5.7109,4.2617-5.7109,2.625,0,3.8428,1.9736,3.8428,5.06v1.1328h-6.4043C135.9585,832.4346,136.84,833.4424,138.772,833.4424Zm1.9531-5.1856v-.3154c0-2.499-.7559-3.4228-2.2471-3.4228-1.47,0-2.456.7148-2.5615,3.7382Z"/></g><rect class="b4f28f33-8b41-4719-980a-7d994ab87ba5" x="71.18" y="819.9799" width="14.51" height="14.51"/></g><g id="af8b3344-900b-4910-b698-ad6f8cacfb53" data-name="H Race"><circle class="bf1541a2-3e9d-4692-b94b-8c1c40f9a88a" cx="462.19" cy="713.4299" r="89.2"/><path class="a6476335-7508-4579-a671-b3576bd0b0ec" d="M462.19,624.12a89.1612,89.1612,0,0,0-28.67,4.71l28.67,84.6Z"/><path class="b4f28f33-8b41-4719-980a-7d994ab87ba5" d="M511.5,638.88a88.78,88.78,0,0,0-49.31-14.86v89.42Z"/><circle class="be292b03-a52b-45f6-87f7-25c7c364d804" cx="462.13" cy="714.9999" r="46.46"/></g><g id="f824cef4-3d4e-4c7b-ae25-013b10eac301" data-name="O Race"><circle class="bf1541a2-3e9d-4692-b94b-8c1c40f9a88a" cx="133.89" cy="713.5299" r="89.2"/><path class="a6476335-7508-4579-a671-b3576bd0b0ec" d="M133.89,624.22a88.7594,88.7594,0,0,0-43.88,11.53l43.88,77.49Z"/><path class="b4f28f33-8b41-4719-980a-7d994ab87ba5" d="M223.09,713.35a89.2,89.2,0,0,0-89.2-89.2h0v89.12l46.89,76A89.16,89.16,0,0,0,223.09,713.35Z"/><circle class="be292b03-a52b-45f6-87f7-25c7c364d804" cx="133.95" cy="713.2299" r="46.46" transform="translate(-39.2369 8.4989) rotate(-3.1701)"/></g><g id="aaf4ff40-5872-4e02-9129-3bafe38edaf8" data-name="L OtherG"><g class="b6f42609-beab-4122-aecf-533d78947bb2"><path class="f4508c18-ca3a-46aa-9837-d9265182bd7c" d="M483.85,572.8447c0-4.1367,1.7-7.0547,5.291-7.0547,3.5693,0,5.2695,2.8555,5.2695,7.0118,0,4.4726-1.6582,7.2021-5.3115,7.2021C485.4663,580.0039,483.85,577.1064,483.85,572.8447Zm8.7129.1465v-.5879c0-3.7168-1.1543-5.1855-3.4434-5.1855s-3.4218,1.5527-3.4218,5.2695v.5664c0,4.1787,1.1962,5.627,3.4433,5.627S492.563,577.1689,492.563,572.9912Z"/><path class="f4508c18-ca3a-46aa-9837-d9265182bd7c" d="M497.311,577.38v-7.37h-1.3232v-1.26h1.4277l.7559-2.96h.7558v2.96h2.4151v1.26h-2.4151v7.6845c0,.7344.21.9659.9454.9659H501.51l.0839.86a6.2814,6.2814,0,0,1-2.1836.42C497.9194,579.94,497.311,579.1221,497.311,577.38Z"/><path class="f4508c18-ca3a-46aa-9837-d9265182bd7c" d="M505.4585,579.71h-1.6172V564.6348h1.6172v5.459l.9658-1.0713a4.3876,4.3876,0,0,1,2.0361-.4825c1.8057,0,2.961.9864,2.961,3.4434V579.71h-1.6172v-7.9786c0-1.4062-.6924-1.8691-1.7422-1.8691a4.2507,4.2507,0,0,0-2.6035.9453Z"/><path class="f4508c18-ca3a-46aa-9837-d9265182bd7c" d="M518.4985,578.7021a6.6081,6.6081,0,0,0,2.8135-.7343l.294,1.2168a7.1535,7.1535,0,0,1-3.2334.8193c-2.8975,0-4.43-1.9111-4.43-5.7529,0-3.9688,1.7217-5.711,4.2617-5.711,2.625,0,3.8428,1.9737,3.8428,5.0606v1.1328h-6.4043C515.6851,577.6943,516.5669,578.7021,518.4985,578.7021Zm1.9532-5.1855v-.3154c0-2.4991-.7559-3.4229-2.2471-3.4229-1.47,0-2.4561.7149-2.5615,3.7383Z"/><path class="f4508c18-ca3a-46aa-9837-d9265182bd7c" d="M527.3608,568.918a3.6731,3.6731,0,0,1,1.5538-.378,3.1973,3.1973,0,0,1,1.4062.294l-.3145,1.4912a3.6706,3.6706,0,0,0-1.5117-.2734,3.489,3.489,0,0,0-2.1836.8818V579.71h-1.6172V568.75h.9239l.6513,1.4277Z"/></g><rect class="a6476335-7508-4579-a671-b3576bd0b0ec" x="458.97" y="565.2499" width="14.51" height="14.51"/></g><g id="a5815130-6b13-4f2e-a485-e5565a2cb06c" data-name="L Female"><g class="b6f42609-beab-4122-aecf-533d78947bb2"><g class="b6f42609-beab-4122-aecf-533d78947bb2"><path class="f4508c18-ca3a-46aa-9837-d9265182bd7c" d="M270.4556,566.042h7.3486V567.47h-5.6055v4.9121h4.9336v1.3438h-4.9336V579.71h-1.7431Z"/></g><g class="b6f42609-beab-4122-aecf-533d78947bb2"><path class="f4508c18-ca3a-46aa-9837-d9265182bd7c" d="M284.1021,578.7021a6.6114,6.6114,0,0,0,2.8134-.7343l.294,1.2168a7.1572,7.1572,0,0,1-3.2334.8193c-2.8975,0-4.4307-1.9111-4.4307-5.7529,0-3.9688,1.7217-5.711,4.2627-5.711,2.624,0,3.8418,1.9737,3.8418,5.0606v1.1328h-6.4033C281.2886,577.6943,282.17,578.7021,284.1021,578.7021Zm1.9521-5.1855v-.3154c0-2.4991-.7559-3.4229-2.2461-3.4229-1.47,0-2.457.7149-2.5615,3.7383Z"/><path class="f4508c18-ca3a-46aa-9837-d9265182bd7c" d="M298.5073,569.0225a4.17,4.17,0,0,1,1.9737-.4825c1.7841,0,2.8759.9864,2.8759,3.4434V579.71h-1.6162v-7.9786c0-1.4277-.6094-1.8691-1.6592-1.8691a3.7921,3.7921,0,0,0-2.4355.9453V579.71H296.03v-7.9786c0-1.4277-.6934-1.8691-1.6592-1.8691a3.9649,3.9649,0,0,0-2.456.9033V579.71h-1.6172V568.75h.9238l.63,1.3438.9453-1.0713a4.1949,4.1949,0,0,1,1.9941-.4825,3.5377,3.5377,0,0,1,1.9112.4825l.7558,1.1552Z"/><path class="f4508c18-ca3a-46aa-9837-d9265182bd7c" d="M311.6743,572.0889c0-1.2393-.3574-2.1631-1.8691-2.1631a9.6214,9.6214,0,0,0-3.1914.6924l-.252-1.26a8.3862,8.3862,0,0,1,3.5069-.8184c2.414,0,3.4013,1.2383,3.4013,4.1153v5.3535c0,.6094.21.7773.7139.7773h.42l.042.8614a1.9939,1.9939,0,0,1-1.0713.2929,2.4353,2.4353,0,0,1-.8818-.1679l-.7344-1.1758-.9658,1.0713a4.4714,4.4714,0,0,1-1.7637.3359,2.8441,2.8441,0,0,1-3.1709-3.1494c0-2.2051,1.1973-3.0859,3.9053-3.3809l1.9111-.1679Zm0,2.2246-1.8056.1894c-1.7217.19-2.4356.7139-2.4356,2.2256v.1475c0,1.3642.65,1.91,1.9941,1.91a2.7329,2.7329,0,0,0,2.2471-1.0293Z"/><path class="f4508c18-ca3a-46aa-9837-d9265182bd7c" d="M316.82,564.6348h1.6377V579.71H316.82Z"/><path class="f4508c18-ca3a-46aa-9837-d9265182bd7c" d="M325.7437,578.7021a6.6077,6.6077,0,0,0,2.8134-.7343l.294,1.2168a7.1535,7.1535,0,0,1-3.2334.8193c-2.8975,0-4.43-1.9111-4.43-5.7529,0-3.9688,1.7217-5.711,4.2617-5.711,2.625,0,3.8428,1.9737,3.8428,5.0606v1.1328h-6.4043C322.93,577.6943,323.812,578.7021,325.7437,578.7021Zm1.9531-5.1855v-.3154c0-2.4991-.7559-3.4229-2.2471-3.4229-1.47,0-2.456.7149-2.5615,3.7383Z"/></g></g><rect class="bf1541a2-3e9d-4692-b94b-8c1c40f9a88a" x="244.83" y="565.2499" width="14.51" height="14.51"/></g><g id="b3208617-a284-4002-a3f9-b67dbfcdcd1a" data-name="L Male"><g class="b6f42609-beab-4122-aecf-533d78947bb2"><path class="f4508c18-ca3a-46aa-9837-d9265182bd7c" d="M96.7944,566.042H99.188l2.73,9.6152.5879,3.4024.5674-3.4024,2.8554-9.6152h2.4561V579.71h-1.7217v-7.6846l.3154-5.3545-.9238,3.9473-2.7295,9.0918h-1.8691l-2.6035-8.9649-.8184-4.0742.2939,5.3545V579.71H96.7944Z"/><path class="f4508c18-ca3a-46aa-9837-d9265182bd7c" d="M116.9536,572.0889c0-1.2393-.3574-2.1631-1.8691-2.1631a9.6214,9.6214,0,0,0-3.1914.6924l-.252-1.26a8.3861,8.3861,0,0,1,3.5068-.8184c2.4141,0,3.4014,1.2383,3.4014,4.1153v5.3535c0,.6094.21.7773.7139.7773h.42l.042.8614a1.9939,1.9939,0,0,1-1.0713.2929,2.4353,2.4353,0,0,1-.8818-.1679l-.7344-1.1758-.9658,1.0713a4.4714,4.4714,0,0,1-1.7637.3359,2.8441,2.8441,0,0,1-3.1709-3.1494c0-2.2051,1.1973-3.0859,3.9053-3.3809l1.9111-.1679Zm0,2.2246-1.8057.1894c-1.7216.19-2.4355.7139-2.4355,2.2256v.1475c0,1.3642.65,1.91,1.9941,1.91a2.7329,2.7329,0,0,0,2.2471-1.0293Z"/><path class="f4508c18-ca3a-46aa-9837-d9265182bd7c" d="M122.0991,564.6348h1.6377V579.71h-1.6377Z"/><path class="f4508c18-ca3a-46aa-9837-d9265182bd7c" d="M131.0229,578.7021a6.6077,6.6077,0,0,0,2.8135-.7343l.294,1.2168a7.1535,7.1535,0,0,1-3.2334.8193c-2.8975,0-4.43-1.9111-4.43-5.7529,0-3.9688,1.7217-5.711,4.2617-5.711,2.625,0,3.8428,1.9737,3.8428,5.0606v1.1328h-6.4043C128.2095,577.6943,129.0913,578.7021,131.0229,578.7021Zm1.9532-5.1855v-.3154c0-2.4991-.7559-3.4229-2.2471-3.4229-1.47,0-2.4561.7149-2.5615,3.7383Z"/></g><rect class="b4f28f33-8b41-4719-980a-7d994ab87ba5" x="71.18" y="565.2499" width="14.51" height="14.51"/></g><g id="a32ce49f-83d8-4396-b333-aa70dc8f7615" data-name="H Gender"><circle class="b4f28f33-8b41-4719-980a-7d994ab87ba5" cx="462.19" cy="459.0599" r="89.2"/><path class="bf1541a2-3e9d-4692-b94b-8c1c40f9a88a" d="M457.72,369.75a89.25,89.25,0,0,0-80.27,117l84.74-28.12Z"/><path class="a6476335-7508-4579-a671-b3576bd0b0ec" d="M462.19,369.75c-1.5,0-3,0-4.48.11l4.48,89Z"/><circle class="b4c8a8f2-ec64-47b1-a5dd-d4240319c6d2" cx="462.04" cy="459.7599" r="46.46"/></g><g id="f4e36e22-061f-43e4-8478-19f76f428841" data-name="O Gender"><circle class="bf1541a2-3e9d-4692-b94b-8c1c40f9a88a" cx="133.89" cy="459.0399" r="89.2"/><path class="b4f28f33-8b41-4719-980a-7d994ab87ba5" d="M223.09,458.94a89.2,89.2,0,0,0-89.2-89.2v89.2l7.84,88.86A89.22,89.22,0,0,0,223.09,458.94Z"/><circle class="b4c8a8f2-ec64-47b1-a5dd-d4240319c6d2" cx="134.04" cy="458.3599" r="46.46" transform="translate(-332.6687 559.57) rotate(-85.9349)"/></g><g id="bdc0ea0c-43c9-45b4-bdf1-db53a70f63f5" data-name="L Over 24"><g class="b6f42609-beab-4122-aecf-533d78947bb2"><g class="b6f42609-beab-4122-aecf-533d78947bb2"><path class="f4508c18-ca3a-46aa-9837-d9265182bd7c" d="M483.85,317.1147c0-4.1367,1.7-7.0546,5.291-7.0546,3.5693,0,5.2695,2.8554,5.2695,7.0117,0,4.4726-1.6582,7.2021-5.3115,7.2021C485.4663,324.2739,483.85,321.3765,483.85,317.1147Zm8.7129.1465v-.5879c0-3.7168-1.1543-5.1855-3.4434-5.1855s-3.4218,1.5527-3.4218,5.2695v.5664c0,4.1787,1.1962,5.627,3.4433,5.627S492.563,321.439,492.563,317.2612Z"/></g><g class="b6f42609-beab-4122-aecf-533d78947bb2"><path class="f4508c18-ca3a-46aa-9837-d9265182bd7c" d="M495.9214,313.02h1.68l2.0791,7.1807.5459,3.2334.5459-3.2334,2.12-7.1807h1.5752l-3.4229,10.96h-1.7207Z"/></g><g class="b6f42609-beab-4122-aecf-533d78947bb2"><path class="f4508c18-ca3a-46aa-9837-d9265182bd7c" d="M510.2222,322.9722a6.6115,6.6115,0,0,0,2.8134-.7344l.294,1.2168a7.1572,7.1572,0,0,1-3.2334.8193c-2.8975,0-4.4307-1.9111-4.4307-5.7529,0-3.9688,1.7217-5.7109,4.2627-5.7109,2.624,0,3.8418,1.9736,3.8418,5.0605v1.1328h-6.4033C507.4087,321.9644,508.2905,322.9722,510.2222,322.9722Zm1.9521-5.1856v-.3154c0-2.499-.7558-3.4229-2.2461-3.4229-1.47,0-2.457.7149-2.5615,3.7383Z"/><path class="f4508c18-ca3a-46aa-9837-d9265182bd7c" d="M519.0845,313.188a3.6726,3.6726,0,0,1,1.5537-.3779,3.1969,3.1969,0,0,1,1.4062.2939l-.3144,1.4912a3.6709,3.6709,0,0,0-1.5117-.2734,3.4885,3.4885,0,0,0-2.1836.8818V323.98h-1.6172V313.02h.9238l.6514,1.4278Z"/></g><g class="b6f42609-beab-4122-aecf-533d78947bb2"><path class="f4508c18-ca3a-46aa-9837-d9265182bd7c" d="M528.2817,322.5737l.126-.4629c.5254-1.9726,2.0576-3.2324,3.4854-4.4716,1.5752-1.3858,2.456-2.1416,2.456-3.5274V313.86c0-1.8682-.7344-2.3936-2.33-2.3936a6.9265,6.9265,0,0,0-3.0859.7979l-.3359-1.2178a6.8226,6.8226,0,0,1,3.6738-.9863c2.8135,0,3.9053,1.6582,3.9053,3.7363,0,2.2471-1.5537,3.4648-3.4229,4.9346-1.49,1.1552-2.582,2.0361-2.9394,3.7793l-.0625.3154,2.2675-.2315H536.05V323.98h-7.7686Z"/></g><g class="b6f42609-beab-4122-aecf-533d78947bb2"><path class="f4508c18-ca3a-46aa-9837-d9265182bd7c" d="M543.8667,320.5581h-6.2988v-.8828l5.7529-9.3633h2.2471v8.9024h1.7842v1.3437h-1.7842V323.98h-1.7012Zm0-1.3437v-5.1661l.168-3.0019-1.2178,2.5615-3.4229,5.6065Z"/></g></g><rect class="a6476335-7508-4579-a671-b3576bd0b0ec" x="458.97" y="309.5099" width="14.51" height="14.51"/></g><g id="a4ae4746-8633-42bf-ae64-f96f5c00a87f" data-name="L 18-24"><g class="b6f42609-beab-4122-aecf-533d78947bb2"><g class="b6f42609-beab-4122-aecf-533d78947bb2"><path class="f4508c18-ca3a-46aa-9837-d9265182bd7c" d="M269.9312,322.7622h1.9941V312.4741h-1.9941v-.7558l2.7714-1.4063h.9239v12.45h1.9316V323.98h-5.6269Z"/></g><g class="b6f42609-beab-4122-aecf-533d78947bb2"><path class="f4508c18-ca3a-46aa-9837-d9265182bd7c" d="M278.2671,313.4819c0-1.9736,1.5322-3.4218,3.9473-3.4218,2.6035,0,3.9472,1.49,3.9472,3.2539a3.4247,3.4247,0,0,1-.7773,2.3515l-1.8477.9239c1.7637.7343,3.2969,1.6171,3.2969,3.8007,0,2.33-1.8057,3.8838-4.6191,3.8838-2.9815,0-4.5987-1.47-4.5987-3.7158a3.4689,3.4689,0,0,1,1.2178-2.7305l1.9111-.86A3.8053,3.8053,0,0,1,278.2671,313.4819Zm1.0283,6.8448v.2519c0,1.6377.9873,2.4561,2.8975,2.4561s2.8554-.9239,2.8554-2.4766v-.3154c0-1.3858-.9658-1.8057-3.59-2.8555C279.8833,318.2065,279.2954,318.9829,279.2954,320.3267Zm5.291-6.8233v-.1269c0-1.2168-.63-1.9942-2.3515-1.9942s-2.2676.8614-2.2676,1.9737v.1259c0,1.3223.84,1.9532,2.8135,2.75C284.3345,315.3716,284.5864,314.7417,284.5864,313.5034Z"/></g><g class="b6f42609-beab-4122-aecf-533d78947bb2"><path class="f4508c18-ca3a-46aa-9837-d9265182bd7c" d="M288.687,316.9468h4.22v1.5742h-4.22Z"/></g><g class="b6f42609-beab-4122-aecf-533d78947bb2"><path class="f4508c18-ca3a-46aa-9837-d9265182bd7c" d="M294.0415,322.5737l.126-.4629c.5254-1.9726,2.0576-3.2324,3.4853-4.4716,1.5752-1.3858,2.4571-2.1416,2.4571-3.5274V313.86c0-1.8682-.7354-2.3936-2.3311-2.3936a6.9262,6.9262,0,0,0-3.0859.7979l-.336-1.2178a6.8233,6.8233,0,0,1,3.6739-.9863c2.8134,0,3.9052,1.6582,3.9052,3.7363,0,2.2471-1.5537,3.4648-3.4218,4.9346-1.4913,1.1552-2.583,2.0361-2.94,3.7793l-.0635.3154,2.2676-.2315H301.81V323.98h-7.7686Z"/></g><g class="b6f42609-beab-4122-aecf-533d78947bb2"><path class="f4508c18-ca3a-46aa-9837-d9265182bd7c" d="M309.6167,320.5581h-6.2988v-.8828l5.7529-9.3633h2.2471v8.9024h1.7842v1.3437h-1.7842V323.98h-1.7012Zm0-1.3437v-5.1661l.168-3.0019-1.2178,2.5615-3.4229,5.6065Z"/></g><g class="b6f42609-beab-4122-aecf-533d78947bb2"><path class="f4508c18-ca3a-46aa-9837-d9265182bd7c" d="M323.0171,323.686l-3.4854-10.666h1.6592l2.12,6.8447.5254,3.0235.5664-3.0235,2.1-6.8447h1.5752l-4.5986,14.3613h-1.5742Z"/></g><g class="b6f42609-beab-4122-aecf-533d78947bb2"><path class="f4508c18-ca3a-46aa-9837-d9265182bd7c" d="M333.8315,322.9722a6.6082,6.6082,0,0,0,2.8135-.7344l.294,1.2168a7.1535,7.1535,0,0,1-3.2334.8193c-2.8975,0-4.43-1.9111-4.43-5.7529,0-3.9688,1.7217-5.7109,4.2617-5.7109,2.625,0,3.8428,1.9736,3.8428,5.0605v1.1328h-6.4043C331.0181,321.9644,331.9,322.9722,333.8315,322.9722Zm1.9532-5.1856v-.3154c0-2.499-.7559-3.4229-2.2471-3.4229-1.47,0-2.4561.7149-2.5615,3.7383Z"/><path class="f4508c18-ca3a-46aa-9837-d9265182bd7c" d="M345.1509,316.3589c0-1.2393-.3574-2.1631-1.8692-2.1631a9.6214,9.6214,0,0,0-3.1914.6924l-.2519-1.26a8.3861,8.3861,0,0,1,3.5068-.8183c2.4141,0,3.4014,1.2382,3.4014,4.1152v5.3535c0,.6094.21.7774.7138.7774h.42l.042.8613a1.9939,1.9939,0,0,1-1.0713.2929,2.4359,2.4359,0,0,1-.8819-.1679l-.7343-1.1758-.9659,1.0713a4.47,4.47,0,0,1-1.7636.3359,2.8441,2.8441,0,0,1-3.1709-3.1494c0-2.2051,1.1972-3.0859,3.9052-3.3808l1.9112-.168Zm0,2.2246-1.8057.1894c-1.7217.19-2.4355.7139-2.4355,2.2256v.1475c0,1.3643.65,1.91,1.9941,1.91a2.7331,2.7331,0,0,0,2.2471-1.0293Z"/></g><g class="b6f42609-beab-4122-aecf-533d78947bb2"><path class="f4508c18-ca3a-46aa-9837-d9265182bd7c" d="M352.8345,313.188a3.6726,3.6726,0,0,1,1.5537-.3779,3.1969,3.1969,0,0,1,1.4062.2939l-.3144,1.4912a3.6709,3.6709,0,0,0-1.5117-.2734,3.4885,3.4885,0,0,0-2.1836.8818V323.98h-1.6172V313.02h.9238l.6514,1.4278Z"/></g><g class="b6f42609-beab-4122-aecf-533d78947bb2"><path class="f4508c18-ca3a-46aa-9837-d9265182bd7c" d="M357.353,323.5815l.2305-1.2187a6.8992,6.8992,0,0,0,2.7715.6514c1.3437,0,2.1416-.4834,2.1416-1.8682,0-1.3027-.44-1.5547-2.4981-2.1211-1.5752-.42-2.667-1.1133-2.667-3.0859,0-2.1,1.3653-3.1289,3.4434-3.1289a6.31,6.31,0,0,1,2.8975.63l-.252,1.1963a6.662,6.662,0,0,0-2.582-.5039c-1.3018,0-1.9951.3574-1.9951,1.7227,0,1.26.6093,1.4482,2.289,1.91,1.9317.5459,2.918,1.2813,2.918,3.3174,0,1.8477-1.1963,3.1914-3.59,3.1914A6.58,6.58,0,0,1,357.353,323.5815Z"/><path class="f4508c18-ca3a-46aa-9837-d9265182bd7c" d="M370.771,318.5425c0-3.7588,1.7432-5.7324,4.3252-5.7324s4.2832,1.9736,4.2832,5.6689c0,3.7588-1.6582,5.7949-4.2832,5.7949S370.771,322.2378,370.771,318.5425Zm6.9287.1679v-.2949c0-3.3379-.9443-4.3037-2.6035-4.3037s-2.624.9658-2.624,4.1992v.3155c0,3.2539,1.0283,4.3877,2.624,4.3877C376.6714,323.0142,377.7,321.88,377.7,318.71Z"/><path class="f4508c18-ca3a-46aa-9837-d9265182bd7c" d="M382.1108,308.9048h1.6377V323.98h-1.6377Z"/><path class="f4508c18-ca3a-46aa-9837-d9265182bd7c" d="M392.9673,308.9048h1.6162V323.98H393.66l-.6084-1.3018-1.1973,1.2178a3.4717,3.4717,0,0,1-1.5117.3144c-2.52,0-3.8418-1.9726-3.8418-5.7734,0-3.9053,1.6162-5.6269,3.8633-5.6269a3.9588,3.9588,0,0,1,2.6035.9863Zm0,6.1308a3.8123,3.8123,0,0,0-2.3311-.9033c-1.5742,0-2.4775.7989-2.4775,4.0528v.5878c0,3.17.9033,4.2618,2.499,4.2618a3.4866,3.4866,0,0,0,2.31-1.0489Z"/></g></g><rect class="bf1541a2-3e9d-4692-b94b-8c1c40f9a88a" x="244.83" y="309.5099" width="14.51" height="14.51"/></g><g id="b950a939-2466-43c5-8f33-233b8924d5e6" data-name="L Under 18"><g class="b6f42609-beab-4122-aecf-533d78947bb2"><path class="f4508c18-ca3a-46aa-9837-d9265182bd7c" d="M103.8706,310.312h1.7637V323.98h-1.0078l-.5674-1.3223-.8184,1.0918a6.4494,6.4494,0,0,1-2.541.5244c-2.7715,0-3.9893-1.5537-3.9893-5.3955V310.312h1.7637v9.1113c0,2.8555.6719,3.5069,2.52,3.5069a4.98,4.98,0,0,0,2.8769-.86Z"/><path class="f4508c18-ca3a-46aa-9837-d9265182bd7c" d="M111.6626,313.2925a4.3877,4.3877,0,0,1,2.0361-.4824c1.8057,0,2.961.9863,2.961,3.4433V323.98h-1.6172v-7.9785c0-1.4063-.6924-1.8692-1.7422-1.8692a4.2507,4.2507,0,0,0-2.6035.9453V323.98H109.08V313.02h.9238l.6514,1.3858Z"/><path class="f4508c18-ca3a-46aa-9837-d9265182bd7c" d="M125.6685,308.9048h1.6162V323.98h-.9239l-.6084-1.3018-1.1972,1.2178a3.4721,3.4721,0,0,1-1.5117.3144c-2.52,0-3.8418-1.9726-3.8418-5.7734,0-3.9053,1.6162-5.6269,3.8632-5.6269a3.9591,3.9591,0,0,1,2.6036.9863Zm0,6.1308a3.8125,3.8125,0,0,0-2.3311-.9033c-1.5742,0-2.4775.7989-2.4775,4.0528v.5878c0,3.17.9033,4.2618,2.499,4.2618a3.4866,3.4866,0,0,0,2.31-1.0489Z"/><path class="f4508c18-ca3a-46aa-9837-d9265182bd7c" d="M134.4468,322.9722a6.6123,6.6123,0,0,0,2.8135-.7344l.2939,1.2168a7.1568,7.1568,0,0,1-3.2334.8193c-2.8975,0-4.4307-1.9111-4.4307-5.7529,0-3.9688,1.7217-5.7109,4.2627-5.7109,2.6241,0,3.8418,1.9736,3.8418,5.0605v1.1328h-6.4033C131.6333,321.9644,132.5151,322.9722,134.4468,322.9722Zm1.9521-5.1856v-.3154c0-2.499-.7558-3.4229-2.2461-3.4229-1.47,0-2.457.7149-2.5615,3.7383Z"/><path class="f4508c18-ca3a-46aa-9837-d9265182bd7c" d="M143.3081,313.188a3.6726,3.6726,0,0,1,1.5537-.3779,3.2022,3.2022,0,0,1,1.4072.2939l-.3154,1.4912a3.6672,3.6672,0,0,0-1.5117-.2734,3.489,3.489,0,0,0-2.1836.8818V323.98h-1.6162V313.02h.9238l.65,1.4278Z"/><path class="f4508c18-ca3a-46aa-9837-d9265182bd7c" d="M152.9058,322.7622h1.9951V312.4741h-1.9951v-.7558l2.7714-1.4063h.9239v12.45h1.9316V323.98h-5.6269Z"/><path class="f4508c18-ca3a-46aa-9837-d9265182bd7c" d="M161.2427,313.4819c0-1.9736,1.5322-3.4218,3.9472-3.4218,2.6036,0,3.9473,1.49,3.9473,3.2539a3.4247,3.4247,0,0,1-.7773,2.3515l-1.8477.9239c1.7637.7343,3.2969,1.6171,3.2969,3.8007,0,2.33-1.8057,3.8838-4.6192,3.8838-2.9814,0-4.5986-1.47-4.5986-3.7158a3.4689,3.4689,0,0,1,1.2178-2.7305l1.9111-.86A3.8053,3.8053,0,0,1,161.2427,313.4819Zm1.0283,6.8448v.2519c0,1.6377.9873,2.4561,2.8975,2.4561s2.8554-.9239,2.8554-2.4766v-.3154c0-1.3858-.9658-1.8057-3.59-2.8555C162.8589,318.2065,162.271,318.9829,162.271,320.3267Zm5.291-6.8233v-.1269c0-1.2168-.63-1.9942-2.3516-1.9942s-2.2675.8614-2.2675,1.9737v.1259c0,1.3223.84,1.9532,2.8134,2.75C167.31,315.3716,167.562,314.7417,167.562,313.5034Z"/></g><rect class="b4f28f33-8b41-4719-980a-7d994ab87ba5" x="71.18" y="309.5099" width="14.51" height="14.51"/></g><g id="b66f96cc-ca6c-43ca-959c-4e1264c93a93" data-name="H Age"><circle class="a6476335-7508-4579-a671-b3576bd0b0ec" cx="462.19" cy="202.4899" r="89.2"/><path class="bf1541a2-3e9d-4692-b94b-8c1c40f9a88a" d="M548.77,180.84a89.25,89.25,0,0,0-29.34-46.87l-57.46,68.58Z"/><path class="b4f28f33-8b41-4719-980a-7d994ab87ba5" d="M519.63,134a88.84,88.84,0,0,0-57.39-20.92V202.5Z"/><circle class="be292b03-a52b-45f6-87f7-25c7c364d804" cx="462.06" cy="204.1199" r="46.46"/></g><g id="a208cd19-41a6-4f77-8417-beef295e3602" data-name="O Age"><circle class="a6476335-7508-4579-a671-b3576bd0b0ec" cx="133.89" cy="202.5799" r="89.2"/><path class="bf1541a2-3e9d-4692-b94b-8c1c40f9a88a" d="M218.18,173.22l-84.42,29.2,81.1,37.54A89.41,89.41,0,0,0,218.18,173.22Z"/><path class="b4f28f33-8b41-4719-980a-7d994ab87ba5" d="M218.25,173.35a89.24,89.24,0,0,0-84.35-60.13v89.31Z"/><circle class="be292b03-a52b-45f6-87f7-25c7c364d804" cx="133.76" cy="202.5799" r="46.46"/></g><g class="b6f42609-beab-4122-aecf-533d78947bb2"><g class="b6f42609-beab-4122-aecf-533d78947bb2"><path class="f4508c18-ca3a-46aa-9837-d9265182bd7c" d="M24.68,21.0537c0-6.791,2.9052-11.7607,9.4511-11.7607,6.6153,0,9.4161,4.8652,9.4161,11.69,0,7.001-2.835,12.0068-9.4864,12.0068C27.4458,32.99,24.68,27.9141,24.68,21.0537Zm14.1767.5254v-1.54c0-5.7061-1.5048-7.3164-4.7607-7.3164-3.22,0-4.7256,1.7158-4.7256,7.456v1.5049c0,6.3359,1.6455,8.0859,4.7607,8.0859C37.3169,29.77,38.8569,27.88,38.8569,21.5791Z"/></g><g class="b6f42609-beab-4122-aecf-533d78947bb2"><path class="f4508c18-ca3a-46aa-9837-d9265182bd7c" d="M45.3647,14.0527h4.2706l2.7656,10.1514.9453,6.7207.9453-6.7207,2.835-10.1514h3.8154L55.271,32.5H51.1753Z"/></g><g class="b6f42609-beab-4122-aecf-533d78947bb2"><path class="f4508c18-ca3a-46aa-9837-d9265182bd7c" d="M70.5659,29.7344a13.42,13.42,0,0,0,4.9-1.1543l.5606,3.01a12.6677,12.6677,0,0,1-5.74,1.4c-5.3213,0-8.0166-3.36-8.0166-9.6963,0-6.4052,2.94-9.6259,7.5615-9.6259,4.9,0,6.86,3.3252,6.86,8.7158v2.2051H66.5054C66.5757,28.51,67.6606,29.7344,70.5659,29.7344Zm2.2754-7.91v-.6308c0-3.3946-.91-4.585-2.9756-4.585-2.1347,0-3.1845,1.1553-3.3252,5.2158Z"/></g><g class="b6f42609-beab-4122-aecf-533d78947bb2"><path class="f4508c18-ca3a-46aa-9837-d9265182bd7c" d="M86.4155,14.2285a5.7985,5.7985,0,0,1,2.5205-.5605,3.8313,3.8313,0,0,1,2.24.5947l-.7,3.6758a6.0133,6.0133,0,0,0-2.59-.4551,7.061,7.061,0,0,0-3.3252.9453V32.5H80.4653V14.0527h2.6953l1.33,2.66Z"/></g><g class="b6f42609-beab-4122-aecf-533d78947bb2"><path class="f4508c18-ca3a-46aa-9837-d9265182bd7c" d="M102.2007,19.6885c0-1.5049-.5947-2.5547-2.625-2.5547a18.2514,18.2514,0,0,0-5.6006,1.2246l-.56-3.08a15.1825,15.1825,0,0,1,6.5449-1.61c4.5508,0,6.3008,2.0654,6.3008,7.456V29.21c0,.875.3506,1.0849,1.0508,1.0849h.84l.0693,1.82a3.5138,3.5138,0,0,1-2.415.8047,6.4532,6.4532,0,0,1-1.89-.28l-1.5059-2.0644-1.3994,1.75a7.676,7.676,0,0,1-3.2207.665c-2.6953,0-5.1455-1.4-5.1455-5.2861s1.9248-5.2148,6.86-5.915l2.6953-.3506Zm0,4.0957-2.4151.35c-2.3447.3154-3.2548,1.0156-3.2548,3.1152v.28c0,1.8906,1.0146,2.6953,2.7646,2.6953a3.699,3.699,0,0,0,2.9053-1.19Z"/><path class="f4508c18-ca3a-46aa-9837-d9265182bd7c" d="M111.58,7.3672h4.0957V32.5H111.58Z"/><path class="f4508c18-ca3a-46aa-9837-d9265182bd7c" d="M120.9253,7.3672H125.02V32.5h-4.0947Z"/></g><g class="b6f42609-beab-4122-aecf-533d78947bb2"><path class="f4508c18-ca3a-46aa-9837-d9265182bd7c" d="M140.1108,32.5H136.26l7.4209-22.7871h4.2l7.28,22.7871h-4.6553l-1.1552-3.99h-8.0157Zm6.1954-14.4219-.8047-4.3047-.9805,4.3047L142.21,25.5693h6.3008Z"/></g><g class="b6f42609-beab-4122-aecf-533d78947bb2"><path class="f4508c18-ca3a-46aa-9837-d9265182bd7c" d="M158.03,27.459V16.9238H155.895V14.0527h2.45l1.96-5.0048h1.82v5.0048h3.9551v2.8711h-3.9551V28.4043c0,1.19.42,1.54,1.75,1.54h2.52l.21,2.2061a10.0655,10.0655,0,0,1-3.8858.77C159.4653,32.92,158.03,31.0645,158.03,27.459Z"/><path class="f4508c18-ca3a-46aa-9837-d9265182bd7c" d="M170.105,7.3672h4.0957V32.5H170.105Z"/><path class="f4508c18-ca3a-46aa-9837-d9265182bd7c" d="M187.6753,19.6885c0-1.5049-.5947-2.5547-2.625-2.5547a18.2514,18.2514,0,0,0-5.6006,1.2246l-.56-3.08a15.1787,15.1787,0,0,1,6.545-1.61c4.5507,0,6.3007,2.0654,6.3007,7.456V29.21c0,.875.3506,1.0849,1.05,1.0849h.8409l.0693,1.82a3.5138,3.5138,0,0,1-2.415.8047,6.4532,6.4532,0,0,1-1.89-.28l-1.5058-2.0644-1.3995,1.75a7.676,7.676,0,0,1-3.2207.665c-2.6953,0-5.1455-1.4-5.1455-5.2861s1.9248-5.2148,6.86-5.915l2.6953-.3506Zm0,4.0957-2.415.35c-2.3448.3154-3.2549,1.0156-3.2549,3.1152v.28c0,1.8906,1.0146,2.6953,2.7646,2.6953a3.699,3.699,0,0,0,2.9053-1.19Z"/></g><g class="b6f42609-beab-4122-aecf-533d78947bb2"><path class="f4508c18-ca3a-46aa-9837-d9265182bd7c" d="M202.7261,14.3682a7.0651,7.0651,0,0,1,3.1152-.7c3.22,0,5.0049,1.96,5.0049,5.9511V32.5h-4.0947V19.1982c0-1.6093-.875-2.24-2.3457-2.24a6.91,6.91,0,0,0-3.4649,1.0508V32.5h-4.0957V14.0527h2.6953l1.33,2.4161Z"/></g><g class="b6f42609-beab-4122-aecf-533d78947bb2"><path class="f4508c18-ca3a-46aa-9837-d9265182bd7c" d="M215.81,27.459V16.9238h-2.1348V14.0527h2.45l1.96-5.0048h1.82v5.0048h3.955v2.8711h-3.955V28.4043c0,1.19.42,1.54,1.75,1.54h2.52l.21,2.2061a10.0649,10.0649,0,0,1-3.8857.77C217.2456,32.92,215.81,31.0645,215.81,27.459Z"/><path class="f4508c18-ca3a-46aa-9837-d9265182bd7c" d="M236.1108,19.6885c0-1.5049-.5947-2.5547-2.625-2.5547a18.2515,18.2515,0,0,0-5.6005,1.2246l-.56-3.08a15.1779,15.1779,0,0,1,6.5449-1.61c4.5508,0,6.3008,2.0654,6.3008,7.456V29.21c0,.875.3506,1.0849,1.05,1.0849h.8408l.0693,1.82a3.5134,3.5134,0,0,1-2.415.8047,6.4525,6.4525,0,0,1-1.89-.28l-1.5059-2.0644-1.3994,1.75a7.6764,7.6764,0,0,1-3.2207.665c-2.6953,0-5.1455-1.4-5.1455-5.2861s1.9248-5.2148,6.86-5.915l2.6953-.3506Zm0,4.0957-2.415.35c-2.3447.3154-3.2549,1.0156-3.2549,3.1152v.28c0,1.8906,1.0147,2.6953,2.7647,2.6953a3.6988,3.6988,0,0,0,2.9052-1.19Z"/></g></g><g class="b6f42609-beab-4122-aecf-533d78947bb2"><g class="b6f42609-beab-4122-aecf-533d78947bb2"><path class="f4508c18-ca3a-46aa-9837-d9265182bd7c" d="M56.6,43.7129h7.7012c5.3906,0,8.2256,2.7646,8.2256,7.5957,0,4.6553-2.7647,7.7-8.2256,7.7H61.0464V66.5H56.6Zm7.4561,12.2158c2.7656,0,3.7451-1.12,3.7451-4.2v-.7c0-2.9756-1.05-3.92-3.8155-3.92H61.0464v8.82Z"/></g><g class="b6f42609-beab-4122-aecf-533d78947bb2"><path class="f4508c18-ca3a-46aa-9837-d9265182bd7c" d="M74.87,57.3291c0-6.23,2.9053-9.6611,7.7012-9.6611,4.7607,0,7.6309,3.4306,7.6309,9.5556,0,6.2315-2.835,9.7666-7.6309,9.7666C77.7056,66.99,74.87,63.4551,74.87,57.3291Zm11.0967.35v-.63c0-5.0049-1.0508-6.1953-3.3955-6.1953-2.415,0-3.4658,1.19-3.4658,6.0205v.6651c0,4.9355,1.1553,6.3359,3.4658,6.3359C84.811,63.875,85.9663,62.4746,85.9663,57.6787Z"/><path class="f4508c18-ca3a-46aa-9837-d9265182bd7c" d="M99.65,48.2627a6.5843,6.5843,0,0,1,2.9063-.5947c4.165,0,6.1953,3.4658,6.1953,9.6259,0,6.126-1.96,9.1709-6.44,9.1709a6.963,6.963,0,0,1-4.2705-1.4v7.1064H93.9448V48.0527H96.64l1.2246,2.2051Zm1.61,15.542c2.2753,0,3.291-1.5752,3.291-5.7754V56.3838c0-3.9551-1.0508-5.4258-3.1856-5.4258a6.476,6.476,0,0,0-3.3252.98V62.79A6.2563,6.2563,0,0,0,101.26,63.8047Z"/><path class="f4508c18-ca3a-46aa-9837-d9265182bd7c" d="M122.2251,48.0527h4.0957V66.5h-2.6953l-1.33-2.3105L120.65,66.29a9.1851,9.1851,0,0,1-3.29.63c-3.1856,0-4.9707-1.9951-4.9707-5.9853V48.0527h4.0957V61.2842c0,1.9258.875,2.5556,2.31,2.5556a6.0252,6.0252,0,0,0,3.4307-1.05Z"/><path class="f4508c18-ca3a-46aa-9837-d9265182bd7c" d="M131.36,41.3672h4.0947V66.5H131.36Z"/></g><g class="b6f42609-beab-4122-aecf-533d78947bb2"><path class="f4508c18-ca3a-46aa-9837-d9265182bd7c" d="M148.9312,53.6885c0-1.5049-.5958-2.5547-2.625-2.5547a18.2514,18.2514,0,0,0-5.6006,1.2246l-.5606-3.08a15.1831,15.1831,0,0,1,6.5459-1.61c4.55,0,6.3008,2.0654,6.3008,7.456V63.21c0,.875.35,1.0849,1.05,1.0849h.84l.07,1.82a3.516,3.516,0,0,1-2.4151.8047,6.4645,6.4645,0,0,1-1.8906-.28l-1.5049-2.0644-1.4,1.75a7.6726,7.6726,0,0,1-3.2207.665c-2.6943,0-5.1455-1.4-5.1455-5.2861s1.9258-5.2148,6.8613-5.915l2.6954-.3506Zm0,4.0957-2.4151.35c-2.3457.3154-3.2558,1.0156-3.2558,3.1152v.28c0,1.8906,1.0156,2.6953,2.7656,2.6953a3.7023,3.7023,0,0,0,2.9053-1.19Z"/></g><g class="b6f42609-beab-4122-aecf-533d78947bb2"><path class="f4508c18-ca3a-46aa-9837-d9265182bd7c" d="M158.38,61.459V50.9238h-2.1358V48.0527h2.4512l1.96-5.0048h1.82v5.0048h3.9551v2.8711h-3.9551V62.4043c0,1.19.42,1.54,1.75,1.54h2.52l.21,2.2061a10.0688,10.0688,0,0,1-3.8857.7695C159.8159,66.92,158.38,65.0645,158.38,61.459Z"/><path class="f4508c18-ca3a-46aa-9837-d9265182bd7c" d="M170.0005,43.1172a2.4342,2.4342,0,0,1,4.8652,0,2.4342,2.4342,0,0,1-4.8652,0Zm.3848,4.9355h4.0957V66.5h-4.0957Z"/><path class="f4508c18-ca3a-46aa-9837-d9265182bd7c" d="M178.3638,57.3291c0-6.23,2.9052-9.6611,7.7011-9.6611,4.7608,0,7.6309,3.4306,7.6309,9.5556,0,6.2315-2.835,9.7666-7.6309,9.7666C181.2,66.99,178.3638,63.4551,178.3638,57.3291Zm11.0966.35v-.63c0-5.0049-1.0507-6.1953-3.3955-6.1953-2.415,0-3.4658,1.19-3.4658,6.0205v.6651c0,4.9355,1.1553,6.3359,3.4658,6.3359C188.3052,63.875,189.46,62.4746,189.46,57.6787Z"/><path class="f4508c18-ca3a-46aa-9837-d9265182bd7c" d="M203.32,48.3682a7.0656,7.0656,0,0,1,3.1153-.7c3.22,0,5.0048,1.96,5.0048,5.9511V66.5h-4.0947V53.1982c0-1.6093-.875-2.24-2.3457-2.24a6.9092,6.9092,0,0,0-3.4648,1.0508V66.5H197.439V48.0527h2.6953l1.33,2.4161Z"/></g></g><g class="b6f42609-beab-4122-aecf-533d78947bb2"><g class="b6f42609-beab-4122-aecf-533d78947bb2"><path class="f4508c18-ca3a-46aa-9837-d9265182bd7c" d="M338.1108,32.5H334.26l7.4209-22.7871h4.2l7.28,22.7871h-4.6553l-1.1552-3.99h-8.0157Zm6.1954-14.4219-.8047-4.3047-.9805,4.3047L340.21,25.5693h6.3008Z"/></g><g class="b6f42609-beab-4122-aecf-533d78947bb2"><path class="f4508c18-ca3a-46aa-9837-d9265182bd7c" d="M356.03,27.459V16.9238H353.895V14.0527h2.45l1.96-5.0048h1.82v5.0048h3.9551v2.8711h-3.9551V28.4043c0,1.19.42,1.54,1.75,1.54h2.5205l.21,2.2061a10.0655,10.0655,0,0,1-3.8858.77C357.4653,32.92,356.03,31.0645,356.03,27.459Z"/><path class="f4508c18-ca3a-46aa-9837-d9265182bd7c" d="M368.105,7.3672h4.0957V32.5H368.105Z"/><path class="f4508c18-ca3a-46aa-9837-d9265182bd7c" d="M385.6753,19.6885c0-1.5049-.5947-2.5547-2.625-2.5547a18.2514,18.2514,0,0,0-5.6006,1.2246l-.56-3.08a15.1787,15.1787,0,0,1,6.545-1.61c4.5507,0,6.3007,2.0654,6.3007,7.456V29.21c0,.875.3506,1.0849,1.05,1.0849h.8409l.0693,1.82a3.5138,3.5138,0,0,1-2.415.8047,6.4532,6.4532,0,0,1-1.89-.28l-1.5058-2.0644-1.3995,1.75a7.676,7.676,0,0,1-3.2207.665c-2.6953,0-5.1455-1.4-5.1455-5.2861s1.9248-5.2148,6.86-5.915l2.6953-.3506Zm0,4.0957-2.415.35c-2.3448.3154-3.2549,1.0156-3.2549,3.1152v.28c0,1.8906,1.0146,2.6953,2.7646,2.6953a3.699,3.699,0,0,0,2.9053-1.19Z"/></g><g class="b6f42609-beab-4122-aecf-533d78947bb2"><path class="f4508c18-ca3a-46aa-9837-d9265182bd7c" d="M400.7261,14.3682a7.0651,7.0651,0,0,1,3.1152-.7c3.22,0,5.0049,1.96,5.0049,5.9511V32.5h-4.0947V19.1982c0-1.6093-.875-2.24-2.3457-2.24a6.91,6.91,0,0,0-3.4649,1.0508V32.5h-4.0957V14.0527h2.6953l1.33,2.4161Z"/></g><g class="b6f42609-beab-4122-aecf-533d78947bb2"><path class="f4508c18-ca3a-46aa-9837-d9265182bd7c" d="M413.81,27.459V16.9238h-2.1348V14.0527h2.45l1.96-5.0048h1.82v5.0048h3.955v2.8711h-3.955V28.4043c0,1.19.42,1.54,1.75,1.54h2.5205l.21,2.2061a10.0649,10.0649,0,0,1-3.8857.77C415.2456,32.92,413.81,31.0645,413.81,27.459Z"/><path class="f4508c18-ca3a-46aa-9837-d9265182bd7c" d="M434.1108,19.6885c0-1.5049-.5957-2.5547-2.625-2.5547a18.2515,18.2515,0,0,0-5.6005,1.2246l-.56-3.08a15.174,15.174,0,0,1,6.5449-1.61c4.5508,0,6.3008,2.0654,6.3008,7.456V29.21c0,.875.35,1.0849,1.05,1.0849h.8408l.0693,1.82a3.5155,3.5155,0,0,1-2.415.8047,6.4645,6.4645,0,0,1-1.8906-.28l-1.5049-2.0644-1.3994,1.75a7.68,7.68,0,0,1-3.2207.665c-2.6953,0-5.1465-1.4-5.1465-5.2861s1.9258-5.2148,6.8613-5.915l2.6953-.3506Zm0,4.0957-2.415.35c-2.3447.3154-3.2549,1.0156-3.2549,3.1152v.28c0,1.8906,1.0147,2.6953,2.7647,2.6953a3.7019,3.7019,0,0,0,2.9052-1.19Z"/><path class="f4508c18-ca3a-46aa-9837-d9265182bd7c" d="M455.8452,22.5938V32.5h-4.48V9.7129h4.48v9.3809h7.666V9.7129h4.4805V32.5h-4.4805V22.5938Z"/><path class="f4508c18-ca3a-46aa-9837-d9265182bd7c" d="M471.98,23.3291c0-6.23,2.9043-9.6611,7.7-9.6611,4.7607,0,7.6308,3.4306,7.6308,9.5556,0,6.2315-2.8349,9.7666-7.6308,9.7666C474.8149,32.99,471.98,29.4551,471.98,23.3291Zm11.0957.35v-.63c0-5.0049-1.0508-6.1953-3.3955-6.1953-2.4151,0-3.4658,1.19-3.4658,6.02v.6651c0,4.9355,1.1562,6.3359,3.4658,6.3359C481.92,29.875,483.0757,28.4746,483.0757,23.6787Z"/><path class="f4508c18-ca3a-46aa-9837-d9265182bd7c" d="M506.3159,14.3682a7.1484,7.1484,0,0,1,3.08-.7c3.1855,0,4.9355,1.96,4.9355,5.9511V32.5h-4.0957V19.1982c0-1.6445-.8046-2.24-2.2744-2.24a6.0743,6.0743,0,0,0-3.2207,1.0508V32.5H500.646V19.1982a1.9935,1.9935,0,0,0-2.2754-2.24,6.3512,6.3512,0,0,0-3.2207,1.0156V32.5h-4.0957V14.0527H493.75l1.33,2.3457,1.7851-2.03a6.52,6.52,0,0,1,3.045-.7,6.36,6.36,0,0,1,3.15.7l1.4,2.17Z"/><path class="f4508c18-ca3a-46aa-9837-d9265182bd7c" d="M526.23,29.7344a13.4206,13.4206,0,0,0,4.9-1.1543l.5605,3.01a12.6706,12.6706,0,0,1-5.74,1.4c-5.3213,0-8.0166-3.36-8.0166-9.6963,0-6.4052,2.94-9.6259,7.5615-9.6259,4.9,0,6.8594,3.3252,6.8594,8.7158v2.2051H522.1694C522.24,28.51,523.3247,29.7344,526.23,29.7344Zm2.2754-7.91v-.6308c0-3.3946-.91-4.585-2.9756-4.585-2.1358,0-3.1846,1.1553-3.3252,5.2158Z"/><path class="f4508c18-ca3a-46aa-9837-d9265182bd7c" d="M536.3442,7.3672h4.0948V32.5h-4.0948Z"/><path class="f4508c18-ca3a-46aa-9837-d9265182bd7c" d="M552.689,29.7344a13.4157,13.4157,0,0,0,4.9-1.1543l.5605,3.01a12.6676,12.6676,0,0,1-5.74,1.4c-5.32,0-8.0157-3.36-8.0157-9.6963,0-6.4052,2.9395-9.6259,7.5606-9.6259,4.9,0,6.86,3.3252,6.86,8.7158v2.2051H548.6284C548.6987,28.51,549.7847,29.7344,552.689,29.7344Zm2.2754-7.91v-.6308c0-3.3946-.91-4.585-2.9747-4.585-2.1357,0-3.1855,1.1553-3.3261,5.2158Z"/><path class="f4508c18-ca3a-46aa-9837-d9265182bd7c" d="M561.6138,31.8l.42-2.9053a11.8112,11.8112,0,0,0,4.5859,1.05c2.2051,0,3.29-.63,3.29-2.415,0-1.82-.875-1.89-4.0606-2.6953-2.59-.63-4.4453-1.9248-4.4453-5.4951,0-3.9209,2.5547-5.6709,6.4756-5.6709a11.5141,11.5141,0,0,1,5.2158,1.0849L572.5,17.7285a12.6417,12.6417,0,0,0-4.2344-.7705c-2.206,0-3.1152.4551-3.1152,2.1709,0,1.68.98,1.8545,3.85,2.5547,3.1152.7353,4.7949,2.03,4.7949,5.6006,0,3.4306-2.205,5.706-6.6855,5.706A11.82,11.82,0,0,1,561.6138,31.8Z"/><path class="f4508c18-ca3a-46aa-9837-d9265182bd7c" d="M576.4185,31.8l.42-2.9053a11.8108,11.8108,0,0,0,4.5859,1.05c2.2051,0,3.29-.63,3.29-2.415,0-1.82-.875-1.89-4.0606-2.6953-2.59-.63-4.4453-1.9248-4.4453-5.4951,0-3.9209,2.5547-5.6709,6.4756-5.6709A11.5141,11.5141,0,0,1,587.9,14.7529l-.5957,2.9756a12.6417,12.6417,0,0,0-4.2344-.7705c-2.206,0-3.1152.4551-3.1152,2.1709,0,1.68.9795,1.8545,3.85,2.5547,3.1152.7353,4.7949,2.03,4.7949,5.6006,0,3.4306-2.2051,5.706-6.6855,5.706A11.82,11.82,0,0,1,576.4185,31.8Z"/></g></g><g class="b6f42609-beab-4122-aecf-533d78947bb2"><g class="b6f42609-beab-4122-aecf-533d78947bb2"><path class="f4508c18-ca3a-46aa-9837-d9265182bd7c" d="M384.68,43.7129h7.7011c5.39,0,8.2256,2.7646,8.2256,7.5957,0,4.6553-2.7656,7.7-8.2256,7.7h-3.2548V66.5H384.68Zm7.456,12.2158c2.7657,0,3.7451-1.12,3.7451-4.2v-.7c0-2.9756-1.05-3.92-3.8154-3.92h-2.9394v8.82Z"/></g><g class="b6f42609-beab-4122-aecf-533d78947bb2"><path class="f4508c18-ca3a-46aa-9837-d9265182bd7c" d="M402.95,57.3291c0-6.23,2.9053-9.6611,7.7012-9.6611,4.7607,0,7.6308,3.4306,7.6308,9.5556,0,6.2315-2.8349,9.7666-7.6308,9.7666C405.7856,66.99,402.95,63.4551,402.95,57.3291Zm11.0967.35v-.63c0-5.0049-1.0508-6.1953-3.3955-6.1953-2.4151,0-3.4658,1.19-3.4658,6.0205v.6651c0,4.9355,1.1552,6.3359,3.4658,6.3359C412.8911,63.875,414.0464,62.4746,414.0464,57.6787Z"/><path class="f4508c18-ca3a-46aa-9837-d9265182bd7c" d="M427.73,48.2627a6.5842,6.5842,0,0,1,2.9062-.5947c4.1651,0,6.1953,3.4658,6.1953,9.6259,0,6.126-1.96,9.1709-6.44,9.1709a6.963,6.963,0,0,1-4.27-1.4v7.1064h-4.0957V48.0527H424.72l1.2246,2.2051Zm1.61,15.542c2.2754,0,3.291-1.5752,3.291-5.7754V56.3838c0-3.9551-1.0507-5.4258-3.1855-5.4258a6.476,6.476,0,0,0-3.3252.98V62.79A6.2559,6.2559,0,0,0,429.34,63.8047Z"/><path class="f4508c18-ca3a-46aa-9837-d9265182bd7c" d="M450.3052,48.0527h4.0957V66.5h-2.6953l-1.33-2.3105L448.73,66.29a9.1852,9.1852,0,0,1-3.29.63c-3.1855,0-4.9707-1.9951-4.9707-5.9853V48.0527h4.0957V61.2842c0,1.9258.875,2.5556,2.31,2.5556a6.0252,6.0252,0,0,0,3.4307-1.05Z"/><path class="f4508c18-ca3a-46aa-9837-d9265182bd7c" d="M459.44,41.3672h4.0948V66.5H459.44Z"/></g><g class="b6f42609-beab-4122-aecf-533d78947bb2"><path class="f4508c18-ca3a-46aa-9837-d9265182bd7c" d="M477.0112,53.6885c0-1.5049-.5957-2.5547-2.625-2.5547a18.2526,18.2526,0,0,0-5.6006,1.2246l-.56-3.08a15.1827,15.1827,0,0,1,6.5459-1.61c4.55,0,6.3008,2.0654,6.3008,7.456V63.21c0,.875.35,1.0849,1.05,1.0849h.84l.07,1.82a3.5155,3.5155,0,0,1-2.415.8047,6.4645,6.4645,0,0,1-1.8906-.28l-1.5049-2.0644-1.4,1.75a7.6726,7.6726,0,0,1-3.2207.665c-2.6943,0-5.1455-1.4-5.1455-5.2861s1.9258-5.2148,6.8613-5.915l2.6953-.3506Zm0,4.0957-2.415.35c-2.3457.3154-3.2559,1.0156-3.2559,3.1152v.28c0,1.8906,1.0157,2.6953,2.7657,2.6953a3.7019,3.7019,0,0,0,2.9052-1.19Z"/></g><g class="b6f42609-beab-4122-aecf-533d78947bb2"><path class="f4508c18-ca3a-46aa-9837-d9265182bd7c" d="M486.46,61.459V50.9238h-2.1357V48.0527h2.4512l1.96-5.0048h1.82v5.0048h3.955v2.8711h-3.955V62.4043c0,1.19.42,1.54,1.75,1.54h2.5205l.21,2.2061a10.0692,10.0692,0,0,1-3.8857.7695C487.896,66.92,486.46,65.0645,486.46,61.459Z"/><path class="f4508c18-ca3a-46aa-9837-d9265182bd7c" d="M498.0806,43.1172a2.4342,2.4342,0,0,1,4.8652,0,2.4342,2.4342,0,0,1-4.8652,0Zm.3847,4.9355h4.0957V66.5h-4.0957Z"/><path class="f4508c18-ca3a-46aa-9837-d9265182bd7c" d="M506.4438,57.3291c0-6.23,2.9053-9.6611,7.7012-9.6611,4.7608,0,7.6309,3.4306,7.6309,9.5556,0,6.2315-2.835,9.7666-7.6309,9.7666C509.28,66.99,506.4438,63.4551,506.4438,57.3291Zm11.0967.35v-.63c0-5.0049-1.0508-6.1953-3.3955-6.1953-2.415,0-3.4658,1.19-3.4658,6.0205v.6651c0,4.9355,1.1553,6.3359,3.4658,6.3359C516.3853,63.875,517.54,62.4746,517.54,57.6787Z"/><path class="f4508c18-ca3a-46aa-9837-d9265182bd7c" d="M531.4,48.3682a7.0651,7.0651,0,0,1,3.1152-.7c3.22,0,5.0049,1.96,5.0049,5.9511V66.5h-4.0947V53.1982c0-1.6093-.875-2.24-2.3457-2.24a6.91,6.91,0,0,0-3.4649,1.0508V66.5H525.519V48.0527h2.6954l1.33,2.4161Z"/></g></g></g></svg>