<svg id="Layer_1" data-name="Layer 1" xmlns="http://www.w3.org/2000/svg" viewBox="0 0 204.94 246.18"><defs><style>.cls-1{fill:#f16363;}.cls-2{fill:#bbbddf;}.cls-3{fill:#484d80;}.cls-4{fill:none;stroke:#d1d3d4;stroke-miterlimit:10;stroke-width:3px;}.cls-5{font-size:8.92px;font-family:Amplitude-Medium, Amplitude;font-weight:500;}.cls-5,.cls-9{fill:#231f20;}.cls-6{letter-spacing:0em;}.cls-7{letter-spacing:0em;}.cls-8{letter-spacing:-0.01em;}.cls-9{font-size:12px;font-family:Amplitude-Regular, Amplitude;}.cls-10{letter-spacing:-0.04em;}.cls-11{letter-spacing:-0.01em;}.cls-12{letter-spacing:0em;}.cls-13{letter-spacing:0.01em;}.cls-14{letter-spacing:-0.01em;}</style></defs><rect class="cls-1" x="19.96" y="7.56" width="41.67" height="65.51" rx="11.22"/><rect class="cls-2" x="19.96" y="41.43" width="41.67" height="10" rx="0.14"/><rect class="cls-3" x="19.96" y="51.42" width="41.67" height="114.92" rx="0.14"/><rect class="cls-1" x="64.09" y="20.95" width="41.67" height="56.1" rx="11.22"/><rect class="cls-3" x="64.09" y="57.82" width="41.67" height="108.44" rx="0.14"/><rect class="cls-1" x="108.01" y="15.04" width="41.67" height="98.68" rx="11.22"/><rect class="cls-2" x="108.01" y="93.86" width="41.67" height="10" rx="0.14"/><rect class="cls-3" x="108.01" y="103.14" width="41.67" height="63.17" rx="0.14"/><rect class="cls-1" x="152.71" y="6.25" width="41.67" height="98.68" rx="11.22" transform="translate(347.09 111.18) rotate(180)"/><rect class="cls-3" x="152.71" y="50.82" width="41.67" height="114.93" rx="0.14"/><polyline class="cls-4" points="18.24 7.44 18.24 166.34 194.32 165.75"/><text class="cls-5" transform="translate(4.01 10.91) scale(1.13 1)">25</text><text class="cls-5" transform="translate(4.01 40.81) scale(1.13 1)">20</text><text class="cls-5" transform="translate(4.01 71.83) scale(1.13 1)">15</text><text class="cls-5" transform="translate(4.02 102.9) scale(1.13 1)">10</text><text class="cls-5" transform="translate(6.95 135.82) scale(1.13 1)"><tspan xml:space="preserve"> 5</tspan></text><text class="cls-5" transform="translate(9.47 165.9) scale(1.13 1)">0</text><text class="cls-5" transform="translate(28.21 177.01) scale(1.13 1)">2016</text><text class="cls-5" transform="translate(73.49 177.01) scale(1.13 1)">20<tspan class="cls-6" x="9.59" y="0">1</tspan><tspan class="cls-7" x="13.12" y="0">7</tspan></text><text class="cls-5" transform="translate(120.54 177.01) scale(1.13 1)">2018</text><text class="cls-5" transform="translate(162.65 177.01) scale(1.13 1)">20<tspan class="cls-8" x="9.59" y="0">1</tspan><tspan x="13.03" y="0">9</tspan></text><rect class="cls-3" x="7.72" y="187.52" width="10" height="10"/><text class="cls-9" transform="translate(25.49 196.61)"><tspan class="cls-10">T</tspan><tspan class="cls-11" x="5.38" y="0">r</tspan><tspan x="9.74" y="0">ansional Shelte</tspan><tspan class="cls-11" x="84.35" y="0">r</tspan><tspan x="88.71" y="0">ed</tspan></text><rect class="cls-2" x="7.94" y="205.99" width="10" height="10"/><text class="cls-9" transform="translate(25.72 215.08)">Eme<tspan class="cls-12" x="21.23" y="0">r</tspan><tspan x="25.66" y="0">gen</tspan><tspan class="cls-13" x="43.56" y="0">c</tspan><tspan x="48.77" y="0">y Selte</tspan><tspan class="cls-14" x="81.53" y="0">r</tspan><tspan x="85.89" y="0">ed</tspan></text><rect class="cls-1" x="8.02" y="225.5" width="10" height="10"/><text class="cls-9" transform="translate(25.79 234.6)">Unshelte<tspan class="cls-11" x="43.1" y="0">r</tspan><tspan x="47.47" y="0">ed</tspan></text></svg>