<svg id="e3250d97-3ce9-4544-bf42-e281d875bc3b" data-name="Layer 1" xmlns="http://www.w3.org/2000/svg" viewBox="0 0 204.94 246.18"><defs><style>.b4b6688f-1497-4bd4-a22e-aad5d5587f56{fill:#f16363;}.a6f3ffdb-8afa-44a0-bfca-8c2ec6eaa3f3{fill:#bbbddf;}.a0fae976-61ce-44d4-ad91-fa35dd3cdf12{fill:#484d80;}.b7af0388-695f-4e9a-bd59-a63b7f5e1c22{fill:none;stroke:#d1d3d4;stroke-miterlimit:10;stroke-width:3px;}.a412d43b-7371-4d78-bea0-be32658e9997{fill:#231f20;}</style></defs><rect class="b4b6688f-1497-4bd4-a22e-aad5d5587f56" x="19.96" y="7.56" width="41.67" height="65.51" rx="11.22"/><rect class="a6f3ffdb-8afa-44a0-bfca-8c2ec6eaa3f3" x="19.96" y="41.43" width="41.67" height="10" rx="0.14"/><rect class="a0fae976-61ce-44d4-ad91-fa35dd3cdf12" x="19.96" y="51.42" width="41.67" height="114.92" rx="0.14"/><rect class="b4b6688f-1497-4bd4-a22e-aad5d5587f56" x="64.09" y="20.95" width="41.67" height="56.1" rx="11.22"/><rect class="a0fae976-61ce-44d4-ad91-fa35dd3cdf12" x="64.09" y="57.82" width="41.67" height="108.44" rx="0.14"/><rect class="b4b6688f-1497-4bd4-a22e-aad5d5587f56" x="108.01" y="15.04" width="41.67" height="98.68" rx="11.22"/><rect class="a6f3ffdb-8afa-44a0-bfca-8c2ec6eaa3f3" x="108.01" y="93.86" width="41.67" height="10" rx="0.14"/><rect class="a0fae976-61ce-44d4-ad91-fa35dd3cdf12" x="108.01" y="103.14" width="41.67" height="63.17" rx="0.14"/><rect class="b4b6688f-1497-4bd4-a22e-aad5d5587f56" x="152.71" y="6.25" width="41.67" height="98.68" rx="11.22" transform="translate(347.09 111.18) rotate(180)"/><rect class="a0fae976-61ce-44d4-ad91-fa35dd3cdf12" x="152.71" y="50.82" width="41.67" height="114.93" rx="0.14"/><polyline class="b7af0388-695f-4e9a-bd59-a63b7f5e1c22" points="18.24 7.44 18.24 166.34 194.32 165.75"/><path class="a412d43b-7371-4d78-bea0-be32658e9997" d="M4.44,10.11l.06-.18A3.81,3.81,0,0,1,6.08,8.1c.68-.52,1-.79,1-1.3V6.67c0-.61-.31-.78-.92-.78a4,4,0,0,0-1.46.32l-.19-.79A3.78,3.78,0,0,1,6.4,5c1.42,0,2,.69,2,1.66s-.78,1.5-1.65,2.11c-.55.38-1,.66-1.2,1.29l0,.13,1.21-.13H8.34v.86H4.44Z"/><path class="a412d43b-7371-4d78-bea0-be32658e9997" d="M9.19,10.6l.2-.8a3.41,3.41,0,0,0,1.48.37c.78,0,1.18-.26,1.18-1V9.05c0-.79-.29-1-.85-1a.87.87,0,0,0-.85.38l-.83-.1L9.67,5.1h3.38V6H10.58l-.05,1-.15.77a1.76,1.76,0,0,1,1.23-.42,1.67,1.67,0,0,1,1.78,1.82A2,2,0,0,1,11.14,11,3.73,3.73,0,0,1,9.19,10.6Z"/><path class="a412d43b-7371-4d78-bea0-be32658e9997" d="M4.44,40l.06-.18A3.81,3.81,0,0,1,6.08,38c.68-.52,1-.79,1-1.3v-.13c0-.62-.31-.78-.92-.78a4,4,0,0,0-1.46.32l-.19-.79a3.78,3.78,0,0,1,1.88-.43c1.42,0,2,.69,2,1.66s-.78,1.5-1.65,2.11c-.55.38-1,.66-1.2,1.29l0,.13L6.75,40H8.34v.86H4.44Z"/><path class="a412d43b-7371-4d78-bea0-be32658e9997" d="M9.36,37.89c0-1.73.8-3,2.51-3s2.52,1.24,2.52,3-.8,3.07-2.54,3.07S9.36,39.7,9.36,37.89Zm3.71.14v-.39c0-1.45-.33-1.89-1.21-1.89s-1.2.45-1.2,1.91V38c0,1.62.37,2.08,1.21,2.08S13.07,39.65,13.07,38Z"/><path class="a412d43b-7371-4d78-bea0-be32658e9997" d="M4.54,71.12h1V67.26h-1v-.48L6.1,66h.64v5.11h.91v.71H4.54Z"/><path class="a412d43b-7371-4d78-bea0-be32658e9997" d="M8.31,71.51l.2-.79a3.61,3.61,0,0,0,1.48.36c.78,0,1.19-.25,1.19-1V70c0-.8-.29-1-.86-1a.87.87,0,0,0-.84.39l-.84-.11L8.79,66h3.38v.9H9.71l-.05,1-.15.78a1.73,1.73,0,0,1,1.22-.43A1.67,1.67,0,0,1,12.51,70,2,2,0,0,1,10.26,72,3.66,3.66,0,0,1,8.31,71.51Z"/><path class="a412d43b-7371-4d78-bea0-be32658e9997" d="M4.54,102.19h1V98.34h-1v-.49l1.56-.76h.64v5.1h.91v.71H4.54Z"/><path class="a412d43b-7371-4d78-bea0-be32658e9997" d="M8.48,100c0-1.73.81-3,2.52-3s2.51,1.24,2.51,3S12.72,103,11,103,8.48,101.79,8.48,100Zm3.71.14v-.39c0-1.46-.33-1.89-1.2-1.89s-1.2.45-1.2,1.91v.38c0,1.62.36,2.08,1.21,2.08S12.19,101.74,12.19,100.12Z"/><path class="a412d43b-7371-4d78-bea0-be32658e9997" d="M9.48,135.51l.2-.8a3.55,3.55,0,0,0,1.47.37c.79,0,1.19-.26,1.19-1V134c0-.79-.29-1-.85-1a.87.87,0,0,0-.85.38l-.83-.11L10,130h3.38v.89H10.87l0,.95-.15.78a1.76,1.76,0,0,1,1.23-.43A1.68,1.68,0,0,1,13.68,134a2,2,0,0,1-2.25,1.92A3.75,3.75,0,0,1,9.48,135.51Z"/><path class="a412d43b-7371-4d78-bea0-be32658e9997" d="M9.91,163c0-1.73.8-3,2.51-3s2.52,1.24,2.52,3S14.14,166,12.4,166,9.91,164.8,9.91,163Zm3.71.15v-.4c0-1.45-.33-1.89-1.21-1.89s-1.19.46-1.19,1.91v.39c0,1.61.36,2.08,1.2,2.08S13.62,164.74,13.62,163.13Z"/><path class="a412d43b-7371-4d78-bea0-be32658e9997" d="M28.63,176.21l.06-.18a3.81,3.81,0,0,1,1.58-1.83c.68-.52,1-.79,1-1.3v-.13c0-.61-.31-.78-.92-.78a4,4,0,0,0-1.46.32l-.19-.79a3.78,3.78,0,0,1,1.88-.43c1.42,0,2,.69,2,1.66s-.77,1.5-1.65,2.11c-.55.38-1,.66-1.2,1.29l0,.13,1.21-.13h1.59V177h-3.9Z"/><path class="a412d43b-7371-4d78-bea0-be32658e9997" d="M33.55,174.09c0-1.73.8-3,2.51-3s2.52,1.24,2.52,3-.8,3.07-2.54,3.07S33.55,175.9,33.55,174.09Zm3.71.15v-.4c0-1.45-.33-1.89-1.21-1.89s-1.19.46-1.19,1.91v.38c0,1.62.36,2.08,1.2,2.08S37.26,175.85,37.26,174.24Z"/><path class="a412d43b-7371-4d78-bea0-be32658e9997" d="M39.55,176.31h1v-3.86h-1V172l1.55-.77h.65v5.11h.91v.7H39.55Z"/><path class="a412d43b-7371-4d78-bea0-be32658e9997" d="M45.77,173.28a1.5,1.5,0,0,1,.47-.07,1.77,1.77,0,0,1,2,1.88c0,1.3-.89,2-2.37,2a2.19,2.19,0,0,1-2.36-2.4c0-1.69,1.36-2.85,2.48-3.54h1.62a6.07,6.07,0,0,0-2.72,2.59Zm-1,1.09v.4c0,1.12.33,1.57,1.11,1.57S47,176,47,175.23V175c0-.8-.31-1-1.08-1a2.39,2.39,0,0,0-1.08.27Z"/><path class="a412d43b-7371-4d78-bea0-be32658e9997" d="M73.92,176.21,74,176a3.81,3.81,0,0,1,1.58-1.83c.68-.52,1-.79,1-1.3v-.13c0-.61-.31-.78-.92-.78a4,4,0,0,0-1.46.32l-.19-.79a3.78,3.78,0,0,1,1.88-.43c1.41,0,2,.69,2,1.66s-.78,1.5-1.65,2.11c-.55.38-1,.66-1.2,1.29l0,.13,1.21-.13h1.59V177h-3.9Z"/><path class="a412d43b-7371-4d78-bea0-be32658e9997" d="M78.84,174.09c0-1.73.8-3,2.51-3s2.51,1.24,2.51,3-.79,3.07-2.53,3.07S78.84,175.9,78.84,174.09Zm3.71.15v-.4c0-1.45-.33-1.89-1.21-1.89s-1.2.46-1.2,1.91v.38c0,1.62.37,2.08,1.21,2.08S82.55,175.85,82.55,174.24Z"/><path class="a412d43b-7371-4d78-bea0-be32658e9997" d="M84.83,176.31h1v-3.86h-1V172l1.56-.77H87v5.11H88v.7H84.83Z"/><path class="a412d43b-7371-4d78-bea0-be32658e9997" d="M91.15,172.86l.67-.85-1.13.08h-2.1v-.89h4.18v1L90.41,177h-1.3Z"/><path class="a412d43b-7371-4d78-bea0-be32658e9997" d="M121,176.21,121,176a3.86,3.86,0,0,1,1.58-1.83c.69-.52,1-.79,1-1.3v-.13c0-.61-.31-.78-.93-.78a4,4,0,0,0-1.46.32l-.19-.79a3.84,3.84,0,0,1,1.88-.43c1.42,0,2,.69,2,1.66s-.78,1.5-1.65,2.11c-.56.38-1,.66-1.2,1.29l0,.13,1.21-.13h1.58V177H121Z"/><path class="a412d43b-7371-4d78-bea0-be32658e9997" d="M125.88,174.09c0-1.73.81-3,2.52-3s2.51,1.24,2.51,3-.79,3.07-2.53,3.07S125.88,175.9,125.88,174.09Zm3.71.15v-.4c0-1.45-.33-1.89-1.2-1.89s-1.2.46-1.2,1.91v.38c0,1.62.36,2.08,1.21,2.08S129.59,175.85,129.59,174.24Z"/><path class="a412d43b-7371-4d78-bea0-be32658e9997" d="M131.88,176.31h1v-3.86h-1V172l1.56-.77h.64v5.11H135v.7h-3.12Z"/><path class="a412d43b-7371-4d78-bea0-be32658e9997" d="M136,172.65c0-.86.67-1.56,2.13-1.56s2,.74,2,1.48a1.39,1.39,0,0,1-.32.9l-.9.38c.81.29,1.52.66,1.52,1.63s-.79,1.66-2.38,1.66-2.38-.71-2.38-1.65a1.29,1.29,0,0,1,.5-1l.87-.34A1.62,1.62,0,0,1,136,172.65Zm.91,2.73v.13c0,.58.37.87,1.16.87s1.07-.31,1.07-.82v-.15c0-.47-.43-.61-1.6-1A1.11,1.11,0,0,0,137,175.38Zm2.15-2.72v-.06c0-.45-.2-.71-.93-.71s-.88.28-.88.7v.06c0,.52.32.69,1.21,1A1,1,0,0,0,139.1,172.66Z"/><path class="a412d43b-7371-4d78-bea0-be32658e9997" d="M163.07,176.21l.07-.18a3.84,3.84,0,0,1,1.57-1.83c.69-.52,1-.79,1-1.3v-.13c0-.61-.31-.78-.93-.78a4,4,0,0,0-1.45.32l-.19-.79a3.78,3.78,0,0,1,1.88-.43c1.41,0,2,.69,2,1.66s-.78,1.5-1.65,2.11c-.56.38-1,.66-1.2,1.29l0,.13,1.21-.13H167V177h-3.91Z"/><path class="a412d43b-7371-4d78-bea0-be32658e9997" d="M168,174.09c0-1.73.8-3,2.51-3s2.51,1.24,2.51,3-.79,3.07-2.53,3.07S168,175.9,168,174.09Zm3.71.15v-.4c0-1.45-.34-1.89-1.21-1.89s-1.2.46-1.2,1.91v.38c0,1.62.36,2.08,1.21,2.08S171.71,175.85,171.71,174.24Z"/><path class="a412d43b-7371-4d78-bea0-be32658e9997" d="M174,176.31h1v-3.86h-1V172l1.56-.77h.64v5.11h.92v.7H174Z"/><path class="a412d43b-7371-4d78-bea0-be32658e9997" d="M180.21,175a1.87,1.87,0,0,1-.47.07,1.78,1.78,0,0,1-2-1.91c0-1.24.88-2,2.36-2a2.17,2.17,0,0,1,2.36,2.4c0,1.69-1.36,2.83-2.48,3.52h-1.62a6,6,0,0,0,2.7-2.52Zm1-1.12v-.4c0-1.13-.32-1.52-1.1-1.52S179,172.23,179,173v.21c0,.8.31,1.09,1.08,1.09a2.33,2.33,0,0,0,1.08-.27Z"/><rect class="a0fae976-61ce-44d4-ad91-fa35dd3cdf12" x="7.72" y="187.52" width="10" height="10"/><path class="a412d43b-7371-4d78-bea0-be32658e9997" d="M25.81,189.78v-1H31v1H29v6.83h-1.2v-6.83Z"/><path class="a412d43b-7371-4d78-bea0-be32658e9997" d="M33.47,190.41a2,2,0,0,1,.88-.2,1.63,1.63,0,0,1,.79.18l-.2,1a2,2,0,0,0-2.08.27v4.94h-1.1v-6.28h.67l.41.85Z"/><path class="a412d43b-7371-4d78-bea0-be32658e9997" d="M39,192.25c0-.64-.22-1.1-1-1.1a5.78,5.78,0,0,0-1.86.4L36,190.7a5.16,5.16,0,0,1,2.1-.49c1.43,0,2,.71,2,2.42v3c0,.34.12.42.39.42h.25l0,.54a1.1,1.1,0,0,1-.69.21,1.79,1.79,0,0,1-.57-.09L39.1,196l-.53.61a2.55,2.55,0,0,1-1,.2,1.64,1.64,0,0,1-1.8-1.81c0-1.28.67-1.76,2.28-1.95l1-.12Zm0,1.32-1,.12c-.91.09-1.28.37-1.28,1.19V195c0,.72.36,1,1.07,1a1.45,1.45,0,0,0,1.17-.51Z"/><path class="a412d43b-7371-4d78-bea0-be32658e9997" d="M43.66,190.46a2.64,2.64,0,0,1,1.14-.25c1.06,0,1.69.6,1.69,2v4.41h-1.1v-4.55c0-.71-.36-.95-.92-.95a2.31,2.31,0,0,0-1.37.47v5H42v-6.28h.68l.4.8Z"/><path class="a412d43b-7371-4d78-bea0-be32658e9997" d="M47.83,196.39l.13-.82a4,4,0,0,0,1.58.37c.77,0,1.19-.25,1.19-1s-.27-.79-1.42-1.09a1.71,1.71,0,0,1-1.52-1.81c0-1.26.82-1.85,2.06-1.85a3.79,3.79,0,0,1,1.71.36l-.17.8a4.27,4.27,0,0,0-1.46-.27c-.75,0-1.12.19-1.12.9s.35.75,1.32,1,1.65.72,1.65,1.91-.7,1.87-2.13,1.87A4,4,0,0,1,47.83,196.39Z"/><path class="a412d43b-7371-4d78-bea0-be32658e9997" d="M53,188.57a.7.7,0,0,1,.72-.71.69.69,0,0,1,.7.71.68.68,0,0,1-.7.69A.69.69,0,0,1,53,188.57Zm.15,1.76h1.11v6.28H53.15Z"/><path class="a412d43b-7371-4d78-bea0-be32658e9997" d="M55.7,193.5c0-2.15,1-3.29,2.53-3.29s2.52,1.14,2.52,3.25-1,3.32-2.52,3.32S55.7,195.61,55.7,193.5Zm3.9.1v-.19c0-1.83-.47-2.32-1.37-2.32s-1.38.49-1.38,2.26v.21c0,1.8.51,2.37,1.38,2.37S59.6,195.36,59.6,193.6Z"/><path class="a412d43b-7371-4d78-bea0-be32658e9997" d="M63.81,190.46a2.6,2.6,0,0,1,1.14-.25c1,0,1.69.6,1.69,2v4.41h-1.1v-4.55c0-.71-.36-.95-.93-.95a2.31,2.31,0,0,0-1.36.47v5H62.14v-6.28h.67l.41.8Z"/><path class="a412d43b-7371-4d78-bea0-be32658e9997" d="M71.28,192.25c0-.64-.21-1.1-1-1.1a5.67,5.67,0,0,0-1.86.4l-.17-.85a5.2,5.2,0,0,1,2.1-.49c1.44,0,2,.71,2,2.42v3c0,.34.12.42.38.42H73l0,.54a1.11,1.11,0,0,1-.7.21,1.73,1.73,0,0,1-.56-.09l-.45-.69-.52.61a2.57,2.57,0,0,1-1,.2A1.64,1.64,0,0,1,68,195c0-1.28.68-1.76,2.28-1.95l1-.12Zm0,1.32-1,.12c-.91.09-1.28.37-1.28,1.19V195c0,.72.36,1,1.07,1a1.44,1.44,0,0,0,1.17-.51Z"/><path class="a412d43b-7371-4d78-bea0-be32658e9997" d="M74.31,188h1.1v8.61h-1.1Z"/><path class="a412d43b-7371-4d78-bea0-be32658e9997" d="M79.67,196.23l.22-.85a4.49,4.49,0,0,0,1.94.49c1,0,1.51-.28,1.51-1.27,0-.78-.28-1-1.46-1.37-1.4-.37-2.15-.81-2.15-2.36s.87-2.21,2.41-2.21a4.66,4.66,0,0,1,2,.39L84,190a4.73,4.73,0,0,0-1.82-.33c-.94,0-1.33.29-1.33,1.13s.22,1,1.44,1.33,2.22.85,2.22,2.37-.88,2.32-2.51,2.32A4.43,4.43,0,0,1,79.67,196.23Z"/><path class="a412d43b-7371-4d78-bea0-be32658e9997" d="M87,196.61h-1.1V188H87v3.11l.57-.65a2.56,2.56,0,0,1,1.13-.25c1.06,0,1.7.6,1.7,2v4.41H89.33v-4.55c0-.71-.36-.95-.92-.95a2.36,2.36,0,0,0-1.37.47Z"/><path class="a412d43b-7371-4d78-bea0-be32658e9997" d="M94.47,195.89a4.08,4.08,0,0,0,1.64-.4l.18.81a4.11,4.11,0,0,1-1.89.48c-1.72,0-2.62-1.11-2.62-3.3s1-3.27,2.5-3.27,2.25,1.13,2.25,2.93v.68h-3.6C93,195.38,93.4,195.89,94.47,195.89Zm1-2.86v-.19c0-1.33-.38-1.81-1.17-1.81s-1.3.4-1.36,2Z"/><path class="a412d43b-7371-4d78-bea0-be32658e9997" d="M98,188h1.1v8.61H98Z"/><path class="a412d43b-7371-4d78-bea0-be32658e9997" d="M101.11,195.13v-4h-.75v-.83h.82l.52-1.69h.51v1.69h1.37v.83h-1.37v4.21c0,.42.12.54.56.54h.9l.06.58a3.45,3.45,0,0,1-1.27.26C101.51,196.75,101.11,196.22,101.11,195.13Z"/><path class="a412d43b-7371-4d78-bea0-be32658e9997" d="M107.25,195.89a4.08,4.08,0,0,0,1.64-.4l.18.81a4.11,4.11,0,0,1-1.89.48c-1.72,0-2.62-1.11-2.62-3.3s1-3.27,2.5-3.27,2.25,1.13,2.25,2.93v.68h-3.6C105.74,195.38,106.18,195.89,107.25,195.89Zm1-2.86v-.19c0-1.33-.38-1.81-1.17-1.81s-1.3.4-1.36,2Z"/><path class="a412d43b-7371-4d78-bea0-be32658e9997" d="M112.44,190.41a2,2,0,0,1,.88-.2,1.63,1.63,0,0,1,.79.18l-.2,1a2,2,0,0,0-2.08.27v4.94h-1.1v-6.28h.67l.41.85Z"/><path class="a412d43b-7371-4d78-bea0-be32658e9997" d="M117.4,195.89a4.08,4.08,0,0,0,1.64-.4l.18.81a4.11,4.11,0,0,1-1.89.48c-1.72,0-2.62-1.11-2.62-3.3s1-3.27,2.5-3.27,2.25,1.13,2.25,2.93v.68h-3.6C115.89,195.38,116.33,195.89,117.4,195.89Zm1-2.86v-.19c0-1.33-.39-1.81-1.18-1.81s-1.3.4-1.36,2Z"/><path class="a412d43b-7371-4d78-bea0-be32658e9997" d="M124.2,188h1.11v8.61h-.69l-.37-.74-.66.71a2,2,0,0,1-.84.17c-1.46,0-2.24-1.13-2.24-3.29s1-3.25,2.25-3.25a2.11,2.11,0,0,1,1.44.53Zm0,3.55a2,2,0,0,0-1.23-.44c-.84,0-1.32.42-1.32,2.15v.45c0,1.68.48,2.28,1.33,2.28a1.83,1.83,0,0,0,1.22-.57Z"/><rect class="a6f3ffdb-8afa-44a0-bfca-8c2ec6eaa3f3" x="7.94" y="205.99" width="10" height="10"/><path class="a412d43b-7371-4d78-bea0-be32658e9997" d="M26.69,207.28H31v1H27.89v2.38h2.7v.9h-2.7v2.61h3.36v.94H26.69Z"/><path class="a412d43b-7371-4d78-bea0-be32658e9997" d="M37.56,208.93a2.51,2.51,0,0,1,1.1-.25c1.05,0,1.66.6,1.66,2v4.41H39.21v-4.55c0-.72-.32-.95-.88-.95a2.12,2.12,0,0,0-1.29.47v5h-1.1v-4.55c0-.72-.36-.95-.89-.95a2.2,2.2,0,0,0-1.28.44v5.06h-1.1V208.8h.67l.39.78.57-.65a2.48,2.48,0,0,1,1.1-.25,2.14,2.14,0,0,1,1.09.25l.45.7Z"/><path class="a412d43b-7371-4d78-bea0-be32658e9997" d="M44.35,214.36A4.3,4.3,0,0,0,46,214l.18.81a4.2,4.2,0,0,1-1.9.48c-1.71,0-2.61-1.11-2.61-3.3s1-3.27,2.49-3.27,2.26,1.13,2.26,2.93v.68h-3.6C42.84,213.85,43.29,214.36,44.35,214.36Zm1-2.86v-.19c0-1.34-.39-1.82-1.18-1.82s-1.29.41-1.35,2Z"/><path class="a412d43b-7371-4d78-bea0-be32658e9997" d="M49.55,208.88a2,2,0,0,1,.88-.2,1.55,1.55,0,0,1,.79.18l-.21,1a2,2,0,0,0-.87-.17,2,2,0,0,0-1.2.44v4.94H47.83V208.8h.68l.4.85Z"/><path class="a412d43b-7371-4d78-bea0-be32658e9997" d="M57.1,208.55v1H55.68l.78.5a2,2,0,0,1,.1.6c0,1.55-1.09,2.06-2.29,2.06a2.68,2.68,0,0,1-1.06-.19.69.69,0,0,0-.31.57c0,.39.24.6.78.6h1.38c1.25,0,1.9.51,1.9,1.56,0,1.36-1.22,2-2.79,2s-2.37-.59-2.37-1.53a1.28,1.28,0,0,1,.31-.87l.69-.34a1,1,0,0,1-.78-1.05,1.32,1.32,0,0,1,.25-.78l.68-.36-.72-.45a2.37,2.37,0,0,1-.28-1.14,2,2,0,0,1,2.32-2,2.62,2.62,0,0,1,1.4.37Zm-4.35,7c0,.61.45.89,1.44.89,1.17,0,1.74-.48,1.74-1.05v-.07c0-.39-.19-.71-.88-.71H53.22A1.19,1.19,0,0,0,52.75,215.54Zm2.7-4.74v-.15a1,1,0,0,0-1.18-1.16c-.84,0-1.22.4-1.22,1.14v.16c0,.85.38,1.21,1.22,1.21S55.45,211.64,55.45,210.8Z"/><path class="a412d43b-7371-4d78-bea0-be32658e9997" d="M60.46,214.36a4.25,4.25,0,0,0,1.64-.4l.18.81a4.11,4.11,0,0,1-1.89.48c-1.72,0-2.62-1.11-2.62-3.3s1-3.27,2.5-3.27,2.25,1.13,2.25,2.93v.68h-3.6C59,213.85,59.39,214.36,60.46,214.36Zm1-2.86v-.19c0-1.34-.38-1.82-1.17-1.82s-1.3.41-1.36,2Z"/><path class="a412d43b-7371-4d78-bea0-be32658e9997" d="M65.61,208.93a2.57,2.57,0,0,1,1.14-.25c1,0,1.69.6,1.69,2v4.41H67.33v-4.55c0-.71-.36-.95-.92-.95a2.36,2.36,0,0,0-1.37.47v5h-1.1V208.8h.67l.41.8Z"/><path class="a412d43b-7371-4d78-bea0-be32658e9997" d="M69.78,211.94c0-2.19.85-3.26,2.47-3.26a4.13,4.13,0,0,1,1.71.37l-.17.84a4.73,4.73,0,0,0-1.47-.29c-.91,0-1.39.4-1.39,2.21V212c0,1.85.5,2.36,1.39,2.36a3.41,3.41,0,0,0,1.52-.4l.18.82a3.56,3.56,0,0,1-1.77.47C70.66,215.25,69.78,214.12,69.78,211.94Z"/><path class="a412d43b-7371-4d78-bea0-be32658e9997" d="M76.74,214.89l-2-6.09h1.14L77,212.47l.3,1.82.33-1.82,1.11-3.67h1L77.15,217H76.08Z"/><path class="a412d43b-7371-4d78-bea0-be32658e9997" d="M83.31,214.7l.21-.85a4.5,4.5,0,0,0,2,.49c1,0,1.51-.28,1.51-1.27,0-.78-.29-1-1.47-1.37-1.4-.37-2.14-.81-2.14-2.36s.86-2.21,2.41-2.21a4.61,4.61,0,0,1,2,.39l-.16.91a4.82,4.82,0,0,0-1.83-.33c-.93,0-1.33.29-1.33,1.13s.22,1,1.44,1.33c1.37.36,2.22.85,2.22,2.36s-.88,2.33-2.51,2.33A4.36,4.36,0,0,1,83.31,214.7Z"/><path class="a412d43b-7371-4d78-bea0-be32658e9997" d="M91.87,214.36a4.3,4.3,0,0,0,1.65-.4l.18.81a4.2,4.2,0,0,1-1.9.48c-1.71,0-2.61-1.11-2.61-3.3s1-3.27,2.49-3.27,2.26,1.13,2.26,2.93v.68h-3.6C90.36,213.85,90.81,214.36,91.87,214.36Zm1-2.86v-.19c0-1.34-.39-1.82-1.18-1.82s-1.29.41-1.35,2Z"/><path class="a412d43b-7371-4d78-bea0-be32658e9997" d="M95.43,206.47h1.1v8.61h-1.1Z"/><path class="a412d43b-7371-4d78-bea0-be32658e9997" d="M98.51,213.6v-4h-.74v-.83h.81l.53-1.69h.5v1.69H101v.83H99.61v4.21c0,.42.12.54.57.54h.9l.06.58a3.55,3.55,0,0,1-1.27.26C98.92,215.22,98.51,214.69,98.51,213.6Z"/><path class="a412d43b-7371-4d78-bea0-be32658e9997" d="M104.65,214.36a4.3,4.3,0,0,0,1.65-.4l.18.81a4.2,4.2,0,0,1-1.9.48c-1.71,0-2.61-1.11-2.61-3.3s1-3.27,2.49-3.27,2.26,1.13,2.26,2.93v.68h-3.6C103.14,213.85,103.59,214.36,104.65,214.36Zm1-2.86v-.19c0-1.34-.39-1.82-1.18-1.82s-1.29.41-1.35,2Z"/><path class="a412d43b-7371-4d78-bea0-be32658e9997" d="M109.85,208.88a2,2,0,0,1,.88-.2,1.55,1.55,0,0,1,.79.18l-.21,1a2,2,0,0,0-.87-.17,2,2,0,0,0-1.2.44v4.94h-1.11V208.8h.68l.4.85Z"/><path class="a412d43b-7371-4d78-bea0-be32658e9997" d="M114.8,214.36a4.3,4.3,0,0,0,1.65-.4l.18.81a4.16,4.16,0,0,1-1.9.48c-1.71,0-2.61-1.11-2.61-3.3s1-3.27,2.49-3.27,2.26,1.13,2.26,2.93v.68h-3.6C113.29,213.85,113.74,214.36,114.8,214.36Zm1-2.86v-.19c0-1.34-.38-1.82-1.18-1.82s-1.29.41-1.35,2Z"/><path class="a412d43b-7371-4d78-bea0-be32658e9997" d="M121.61,206.47h1.1v8.61H122l-.37-.74-.66.71a2,2,0,0,1-.84.17c-1.47,0-2.25-1.13-2.25-3.29s1-3.25,2.26-3.25a2.13,2.13,0,0,1,1.44.53Zm0,3.55a2,2,0,0,0-1.24-.44c-.84,0-1.32.42-1.32,2.14v.46c0,1.68.48,2.28,1.33,2.28a1.8,1.8,0,0,0,1.23-.58Z"/><rect class="b4b6688f-1497-4bd4-a22e-aad5d5587f56" x="8.02" y="225.5" width="10" height="10"/><path class="a412d43b-7371-4d78-bea0-be32658e9997" d="M30.8,226.79H32v7.81h-.75l-.33-.77-.48.66a3.67,3.67,0,0,1-1.42.28c-1.52,0-2.31-.86-2.31-3.08v-4.9h1.2V232c0,1.48.37,1.85,1.34,1.85a2.85,2.85,0,0,0,1.54-.43Z"/><path class="a412d43b-7371-4d78-bea0-be32658e9997" d="M35.54,228.45a2.57,2.57,0,0,1,1.14-.25c1,0,1.69.6,1.69,2v4.41H37.26V230c0-.7-.36-.94-.92-.94a2.42,2.42,0,0,0-1.37.46v5h-1.1v-6.28h.67l.41.8Z"/><path class="a412d43b-7371-4d78-bea0-be32658e9997" d="M39.7,234.37l.13-.81a4,4,0,0,0,1.59.37c.77,0,1.19-.25,1.19-1s-.27-.8-1.42-1.1A1.69,1.69,0,0,1,39.67,230c0-1.26.81-1.84,2.06-1.84a3.59,3.59,0,0,1,1.7.36l-.17.8a4,4,0,0,0-1.46-.28c-.74,0-1.11.2-1.11.9s.34.76,1.32,1,1.65.72,1.65,1.91-.71,1.87-2.14,1.87A4,4,0,0,1,39.7,234.37Z"/><path class="a412d43b-7371-4d78-bea0-be32658e9997" d="M46.1,234.6H45V226H46.1v3.11l.56-.65a2.64,2.64,0,0,1,1.14-.25c1.06,0,1.69.6,1.69,2v4.41h-1.1V230c0-.7-.36-.94-.93-.94a2.37,2.37,0,0,0-1.36.46Z"/><path class="a412d43b-7371-4d78-bea0-be32658e9997" d="M53.52,233.88a4.14,4.14,0,0,0,1.65-.41l.18.82a4.29,4.29,0,0,1-1.9.48c-1.71,0-2.61-1.12-2.61-3.3s1-3.27,2.49-3.27,2.26,1.12,2.26,2.92v.69H52C52,233.37,52.46,233.88,53.52,233.88Zm1-2.86v-.2c0-1.33-.38-1.81-1.17-1.81s-1.3.41-1.36,2Z"/><path class="a412d43b-7371-4d78-bea0-be32658e9997" d="M57.08,226h1.1v8.61h-1.1Z"/><path class="a412d43b-7371-4d78-bea0-be32658e9997" d="M60.16,233.11v-4h-.74v-.82h.81l.53-1.69h.51v1.69h1.36v.82H61.27v4.21c0,.42.12.54.56.54h.9l.06.59a3.52,3.52,0,0,1-1.27.25C60.57,234.73,60.16,234.21,60.16,233.11Z"/><path class="a412d43b-7371-4d78-bea0-be32658e9997" d="M66.3,233.88a4.14,4.14,0,0,0,1.65-.41l.18.82a4.29,4.29,0,0,1-1.9.48c-1.71,0-2.61-1.12-2.61-3.3s1-3.27,2.49-3.27,2.26,1.12,2.26,2.92v.69h-3.6C64.79,233.37,65.24,233.88,66.3,233.88Zm1-2.86v-.2c0-1.33-.38-1.81-1.18-1.81s-1.29.41-1.35,2Z"/><path class="a412d43b-7371-4d78-bea0-be32658e9997" d="M71.5,228.4a2,2,0,0,1,.88-.2,1.55,1.55,0,0,1,.79.18l-.21,1a2.1,2.1,0,0,0-.87-.16,2,2,0,0,0-1.2.44v4.94h-1.1v-6.28h.67l.4.85Z"/><path class="a412d43b-7371-4d78-bea0-be32658e9997" d="M76.46,233.88a4.13,4.13,0,0,0,1.64-.41l.18.82a4.25,4.25,0,0,1-1.9.48c-1.71,0-2.61-1.12-2.61-3.3s1-3.27,2.49-3.27,2.26,1.12,2.26,2.92v.69h-3.6C74.94,233.37,75.39,233.88,76.46,233.88Zm1-2.86v-.2c0-1.33-.38-1.81-1.17-1.81s-1.3.41-1.36,2Z"/><path class="a412d43b-7371-4d78-bea0-be32658e9997" d="M83.26,226h1.1v8.61h-.68l-.37-.74-.66.71a2.07,2.07,0,0,1-.84.16c-1.46,0-2.24-1.12-2.24-3.28s1-3.25,2.25-3.25a2.16,2.16,0,0,1,1.44.52Zm0,3.55A2,2,0,0,0,82,229.1c-.83,0-1.31.42-1.31,2.14v.46c0,1.68.48,2.28,1.33,2.28a1.8,1.8,0,0,0,1.22-.58Z"/></svg>