<?xml version="1.0" encoding="utf-8"?>
<!-- Generator: Adobe Illustrator 24.1.1, SVG Export Plug-In . SVG Version: 6.00 Build 0)  -->
<svg version="1.1" id="bdc6570f-65ff-4795-9bfc-cc5cb4c1509f"
	 xmlns="http://www.w3.org/2000/svg" xmlns:xlink="http://www.w3.org/1999/xlink" x="0px" y="0px" viewBox="0 0 523 182.3"
	 style="enable-background:new 0 0 523 182.3;" xml:space="preserve">
<style type="text/css">
	.st0{fill:#4F5384;}
	.st1{fill:#BDBFE1;}
	.st2{fill:#EAE9E9;}
	.st3{fill:#CFD0D0;}
	.st4{fill:#2B2C2C;}
	.st5{fill:#FEFEFE;}
	.st6{fill:#484D80;}
	.st7{fill:#231F20;}
	.st8{fill:#BBBDDF;}
</style>
<path class="st0" d="M202.8,54.8c1.4,2.4,3.9,2.9,6.4,3.7c18.7,5.5,37.4,11.1,56.1,16.7c1.3,0.4,2.6,0.9,4,0.1
	c0.6-0.3,1.2-0.2,1.7,0.2c3.3,2.9,7.5,2,11.3,2.4c17.2,2,34.4,3.7,51.7,5.5c3.9-1.9,7.5,0.8,11.3,0.9c16.5,0.8,33,1.8,49.6,2.8
	c2.7,0.2,5.3,0.3,8,0.4c0.7,0.1,1.4,0,2-0.4c1.1-1.1,2.8-1.1,3.9,0c0.1,0.1,0.2,0.2,0.2,0.3c0.8,0.9,1.9,0.8,2.9,0.8
	c13.9,1.1,27.8,2.3,41.8,3.3c5.1,0.4,10.1,0.8,15.2,1.2c1.9,0.2,3.6,0.6,5.4-0.6c1.2-0.8,2.6-0.2,3.3,1c0.8,1.1,0.6,2.7-0.5,3.5
	c-0.9,1-2.4,1.1-3.4,0.2c0,0-0.1-0.1-0.1-0.1c-1-0.9-2.3-1.4-3.7-1.4L421,91.5c-3-0.2-6-0.5-9-0.7c-1.5-0.1-2.8-0.4-4.1,0.7
	c-1,0.8-2.2,0.4-3-0.5c-0.7-0.7-1.6-1-2.6-1l-58.6-3.2c-1.5-0.1-2.9-0.2-4.2,0.8c-0.8,0.6-1.9,0.5-2.6-0.2c-1.3-1.4-3-1.4-4.7-1.6
	c-15.5-1.6-31-3.3-46.5-5c-3.7-0.4-7.4-1.3-11-1c-3.3,0.2-6.5,1.3-8.9-1.9c-20.3-5.9-40.4-12-60.7-17.8c-2.4-0.6-4.8-0.3-7,0.8
	c-20.1,10.6-40.2,21.2-60.3,31.9c-1,0.4-1.8,1.3-2.2,2.3c-0.4,1.1-1.5,1.8-2.7,1.5c-1.2-0.1-2.1-1-2.3-2.2c-0.1-1-0.6-2-1.3-2.7
	c-12.5-12.2-24.9-24.3-37.4-36.5c-0.2-0.2-0.4-0.3-0.6-0.4l-1.5-1.6c-7.6-7.5-15.3-15-22.9-22.4c-0.6-0.6-1.4-0.9-2.3-0.9
	c-1.5-0.1-2.6-1.5-2.5-3c0,0,0-0.1,0-0.1c0-1.4,1.1-2.5,2.5-2.5c1.4-0.2,2.7,0.7,3,2.1c0,0.2,0,0.3,0,0.5c0,0.7,0.3,1.3,0.8,1.8
	c8.7,8.4,17.3,16.8,26,25.2l1,1c0.2,0.3,0.4,0.6,0.6,0.8c11.7,11.4,23.4,22.8,35.1,34.2c1.7,1.7,3.6,1.7,5.8,0.6
	c18.5-9.9,37-19.7,55.6-29.5c3-1.6,6.3-2.7,7.9-6.1L202.8,54.8z"/>
<path class="st1" d="M113,98.8c5.7,2.5,11.5,4.4,17.6,5.8c6.2,1.3,12.4,2.8,18.9,3.3s12.9,1.5,19.4,2.4c9.7,1.3,19.4,2.6,29.1,3.9
	c0.6,0.2,1.2,0.1,1.7-0.2c1.8-1.1,3.4-1,4.6,1c0.4,0.6,1,1,1.7,1.1c20.1,7.7,40.1,15.5,60.3,22.9c4.3,1.6,9.2,0.9,13.9,0.1
	c10.4-1.9,20.8-3.4,31.2-5c7.7-1.2,15.4-2.4,23.1-3.6c4.5-3.8,9.7-0.4,14.6-1.4c7.5-1.4,15.3-1.5,23-2.2c5.5-0.4,11-0.8,16.4-1.1
	c4.8-0.3,9.9,0.2,14.3-1.3c3.3-1.2,5.4-0.6,8.4,0.1c3.7,0.9,7.7,0.4,11.5,0.7c9.3,0.6,18.6,0.7,27.8,1.2c6.7,0.4,13.4,0.9,20.1,1
	c1.1,0.1,2.2-0.1,3.2-0.7c1.2-0.8,2.9-0.5,3.7,0.7c0.7,1.1,0.6,2.5-0.3,3.4c-1.1,1-2.8,1.1-4,0.1c-0.6-0.5-1.1-1-2-1
	c-3.7,0.3-7.4-0.4-11.1-0.5c-12.3-0.5-24.6-0.8-36.8-1.7c-4.2-0.3-8.5,0.2-12.6-0.8c-0.2,0-0.4-0.1-0.5,0c-3.5,2.9-7.3-0.3-11,0.4
	s-7.7,0.8-11.5,1.1c-9.7,0.9-19.5,1.7-29.2,2.5c-5.1,0.4-10.3,0.8-15.4,1.1c-1,0.1-2,0-2.7,1c-0.5,0.7-1.5,1.3-2.3,0.9
	c-3.8-2-7.5-0.1-11.1,0.4c-10.4,1.5-20.8,3.2-31.2,5c-5.9,1-11.9,1.4-17.6,3.1c-1,0.2-2.2-0.4-3.1,0.5c-0.9,0.2-1.8-0.1-2.7,0.6
	c-2.5,2.2-3,2-5.1-0.6l-0.5-0.5c-7.4-3.4-15.2-5.9-22.8-8.8c-12.6-4.9-25.2-9.7-37.8-14.5c-1.3-0.5-2.5-1.1-3.9-0.5
	c-0.6,0.2-1.2,0.2-1.8-0.1c-5.2-3.3-11.3-2.4-16.9-3.4c-7.1-1.3-14.4-2-21.6-2.9l-22.2-2.9c-1.9-0.2-3.8-0.9-5.7,0.4
	c-1.1,0.6-2.5,0.2-3.1-1c0,0,0,0,0,0c-0.4-0.8-1.1-1.3-1.9-1.5c-8.2-2.6-16.3-5.3-24.5-8c-0.4-0.1-0.8-0.2-1.3-0.2
	c-0.5-0.7-1.3-0.4-2-0.5c-1.9-1.5-4.3-1.8-6.4-2.5c-8.3-2.8-16.7-5.5-25-8.2c-1.3-0.6-2.8-0.7-4.3-0.3c-1.5,0.6-2.6-0.2-3.3-1.7
	c-0.7-1.1-0.3-2.5,0.8-3.1c0.1,0,0.1-0.1,0.2-0.1c1.3-0.8,2.8-0.9,3.7,0.5s2.3,1.7,3.7,2.1c13.3,4.3,26.7,8.7,40,13
	c0.5,0.1,1,0.2,1.5,0.3C112.1,98.6,112.6,98.8,113,98.8z"/>
<path class="st2" d="M30.1,9.8h478.9v1H30.1L30.1,9.8z"/>
<path class="st3" d="M95.2,54.8l-1-1c1,0,2.1,0,3.1,0h408.6c1.2-0.2,2.4,0,3.5,0.5c-1.3,0.8-2.4,0.5-3.4,0.5c-43.4,0-86.8,0-130.2,0
	H206.6c-1.3,0-2.6,0-3.9,0.1h-2.6L95.2,54.8z"/>
<path class="st3" d="M113,98.8c-0.4,0-0.8-0.2-1.1-0.5c1.1,0,2.2,0,3.4,0h393.5v0.6L113,98.8z"/>
<path class="st3" d="M266.6,142.2l0.5,0.5H31.2v-0.5H266.6z"/>
<path class="st3" d="M275,142.7c0.9-0.9,2.1-0.3,3.1-0.5H509c-0.6,0.8-1.2,0.5-1.7,0.5c-77.1,0-154.2,0-231.3,0L275,142.7z"/>
<path class="st3" d="M89.7,53.2l1.5,1.6H30.1v-1h57.4C88.3,53.8,89.1,54,89.7,53.2z"/>
<path class="st3" d="M101.1,98.2c0.7,0.1,1.5-0.2,2,0.5H31.2v-0.5H101.1z"/>
<path class="st4" d="M417.7,145.6c2.2,0,3.4,1.5,2.4,3.5c-0.4,0.8-0.2,1,0.2,1.6c0.8,1,0.7,2.4-0.3,3.3c-0.1,0.1-0.1,0.1-0.2,0.1
	c-1.3,1-3,1-4.3,0c-1-0.7-1.2-2.1-0.5-3.1c0.1-0.1,0.2-0.2,0.3-0.3c0.4-0.4,0.5-1,0.1-1.5C414.4,147,415.4,145.6,417.7,145.6z
	 M419.4,152.1c0-1.3-0.8-1.7-1.9-1.6c-0.9-0.1-1.6,0.5-1.7,1.4c0,0.1,0,0.3,0,0.4c0,1.1,0.9,1.6,1.9,1.6S419.5,153.3,419.4,152.1
	L419.4,152.1z M419.3,148c0-0.9-0.7-1.5-1.6-1.5c0,0-0.1,0-0.1,0c-0.8-0.1-1.4,0.5-1.5,1.2c0,0.1,0,0.3,0,0.4c0,0.7,0.6,1.4,1.3,1.4
	c0.1,0,0.1,0,0.2,0c0.8,0.1,1.6-0.5,1.7-1.3C419.3,148.1,419.3,148.1,419.3,148L419.3,148z"/>
<path class="st4" d="M16.6,12.6c1-0.4,1.3,0.3,1.8,0.6c0.8,0.6,1.9,0.6,2.6-0.1c0.6-0.6,0.8-1.6,0.3-2.4c-0.5-0.9-1.4-0.9-2.3-0.8
	s-2.1,1.4-1.9-0.4c0.1-1.3-1.6-4,1.8-3.9c1.1,0,2.3-0.3,3.6,0.3c-1.3,1.6-3.3-0.2-4.2,1.3c-0.3,0.4,0,1.2,0,1.8
	c2.1-0.5,3.9-0.3,4.5,1.9c0.5,1.4-0.2,2.9-1.6,3.4c0,0-0.1,0-0.1,0C19.4,14.8,17.5,14.9,16.6,12.6z"/>
<path class="st4" d="M15,49.5c-0.8,1.4-1.9,1-2.8,1c-1.1,0-1.2,0.6-1.2,1.4c-0.1,1.3,0.7,0.8,1.3,0.7c1.8-0.1,3,0.7,3.3,2.5
	c0.3,1.4-0.5,2.8-2,3.2c0,0,0,0,0,0c-1.7,0.4-3.5,0.5-4.2-1.8c0.9-0.5,1.2,0.2,1.8,0.6c0.8,0.6,2.1,0.5,2.7-0.4
	c0.4-0.6,0.5-1.4,0.2-2c-0.5-1.1-1.4-1-2.4-1c-0.7,0.1-2.1,1.5-1.9-0.5c0.1-1.2-1.6-3.8,1.6-3.8H15z"/>
<path class="st4" d="M22.3,93.5c-0.8,1.4-1.8,1-2.7,1s-1.4,0.2-1.4,1.3c-0.1,1.3,0.7,1,1.4,0.9c1.5-0.3,2.9,0.6,3.2,2.1
	c0,0.1,0,0.3,0.1,0.4c0.3,1.4-0.6,2.8-2,3.1c0,0,0,0,0,0c-1.7,0.3-3.4,0.4-4.1-1.8c1-0.6,1.3,0.3,1.8,0.6c0.7,0.5,1.7,0.4,2.4-0.1
	c0.7-0.6,0.8-1.6,0.4-2.4c-0.5-1-1.3-0.9-2.2-0.9c-0.7,0-2.2,1.7-2-0.5c0.1-1.3-1.4-4,2-3.8C20.2,93.5,21.2,93.5,22.3,93.5z"/>
<path class="st4" d="M283.4,147.4c-3.6-1-3.7-1-4.2,1.9c1.3-0.3,2.6-0.8,3.8,0.2c0.6,0.6,0.9,1.5,0.9,2.3c0,1.4-0.5,2.5-2,2.8
	s-3-0.1-3.5-1.8c-0.6-1.8-0.6-3.8,0.1-5.5c0.4-1.1,1.4-1.8,2.6-1.8C282,145.6,283.1,145.9,283.4,147.4z M282.7,151.8
	c-0.2-1-0.5-2-1.9-1.9c-0.9-0.1-1.6,0.5-1.7,1.4c0,0.1,0,0.3,0,0.4c0.1,1.1,0.5,2,1.8,2S282.5,152.8,282.7,151.8L282.7,151.8z"/>
<path class="st4" d="M487.8,151c-1.7,0.6-3.1,1-4.2-0.4c-0.8-1.1-0.9-2.5-0.2-3.7c0.6-1.2,1.8-1.4,3.1-1.3c0.9,0,1.7,0.6,2,1.4
	c0.8,1.9,0.8,4.1-0.1,6c-0.8,1.7-2.3,1.9-4,1.4c-0.5-0.2-1.3-0.7-1-1.3c0.5-1,0.9,0,1.3,0.2C486.8,154.2,487.4,153.1,487.8,151z
	 M487.7,148.4c0.1-1-0.7-1.8-1.7-1.9c0,0-0.1,0-0.1,0c-1.2,0-1.8,1-1.7,2.1s0.5,2,1.9,1.9C487.3,150.5,487.7,149.8,487.7,148.4
	L487.7,148.4z"/>
<path class="st4" d="M215.1,146.2c-1.1,0.9-2.1,0.5-3.1,0.5s-1.2,0.6-1.3,1.5c-0.1,1.3,0.8,0.7,1.3,0.7c1.6-0.1,2.9,0.4,3.3,2.1
	c0.3,1.6-0.1,3.1-1.8,3.5s-3.5,0.6-4.2-1.8c0.6-0.4,1-0.2,1.5,0.3c0.7,0.8,1.8,0.8,2.6,0.1c0,0,0.1-0.1,0.1-0.1
	c0.6-0.5,0.8-1.4,0.4-2.1c-0.6-1.2-1.5-1.3-2.6-1c-0.7,0.2-1.9,1.1-1.7-0.5c0.1-1.3-1.3-3.5,1.3-3.9
	C212.5,145.4,213.9,145.6,215.1,146.2z"/>
<path class="st4" d="M337.9,150.4c-0.1,0.9-0.2,1.7-0.5,2.6c-0.4,1.2-1.6,2-2.8,1.8c-1.2,0-2.3-0.8-2.6-2c-0.4-1.3-0.4-2.7-0.2-4.1
	c0.3-1.9,1.1-3.1,3.1-3s2.7,1.3,2.8,3C337.7,149.1,337.8,149.6,337.9,150.4z M336.6,150.3h-0.1c0-0.6,0-1.2,0-1.8
	c-0.1-1-0.6-1.9-1.7-1.9c-1,0-1.8,0.7-1.8,1.7c0,0,0,0.1,0,0.1c-0.1,1.3-0.1,2.6,0.1,3.9c0.1,0.9,0.9,1.6,1.9,1.5
	c0.7-0.1,1.2-0.5,1.4-1.2C336.5,151.8,336.6,151.1,336.6,150.3L336.6,150.3z"/>
<path class="st4" d="M269.5,150.5c0,0.7-0.1,1.4-0.3,2.1c-0.3,1.5-1.7,2.5-3.2,2.2c-0.1,0-0.2-0.1-0.3-0.1c-2.4-0.6-2.4-2.8-2.4-4.6
	s0-4,2.5-4.4C268.3,145.3,269.5,146.9,269.5,150.5z M268.2,150.1L268.2,150.1c0-0.4,0-0.9,0-1.3c0-1.1-0.5-2.2-1.7-2.2
	c-1.4,0-1.9,1-1.9,2.3c-0.1,1-0.1,2.1,0,3.1c0.1,1,0.6,1.8,1.8,1.8s1.6-0.9,1.8-1.9C268.2,151.3,268.2,150.7,268.2,150.1
	L268.2,150.1z"/>
<path class="st4" d="M23.8,142.4c0-1.3-0.1-2.7,0.9-3.6c1-1.2,2.8-1.3,4-0.2c0.1,0,0.1,0.1,0.2,0.1c1.6,1.5,1.6,6.3-0.1,7.7
	c-1.1,1.1-2.8,1-3.9,0c0,0,0,0,0,0C23.7,145.2,23.8,143.7,23.8,142.4z M28.8,142.5c-0.1-0.6-0.1-1.2-0.2-1.8c0.1-1-0.7-1.9-1.7-1.9
	c0,0,0,0,0,0c-1.1-0.1-1.7,0.9-1.8,1.8c-0.3,1.4-0.2,2.8,0.2,4.1c0.2,0.8,0.9,1.3,1.7,1.3c0.8,0,1.5-0.6,1.6-1.4
	C28.6,143.9,28.7,143.2,28.8,142.5L28.8,142.5z"/>
<path class="st4" d="M30.1,9.8v1c-0.2,0.7-0.4,1.3-0.6,2c-0.5,1.4-2,2.2-3.4,1.7c-0.1,0-0.2-0.1-0.2-0.1c-2.3-0.8-2.1-2.9-2.1-4.8
	c0-1.7,0.1-3.5,2.3-4.1C28.4,4.9,29.4,5.9,30.1,9.8z M28.8,10c-0.1-0.6-0.1-1.1-0.2-1.6c0.1-1-0.6-1.9-1.6-2
	c-1.1-0.1-1.7,0.8-1.9,1.8c-0.3,1.4-0.3,2.9,0.2,4.3c0.2,0.8,1,1.2,1.8,1.1c0.7,0,1.3-0.6,1.4-1.3C28.7,11.4,28.7,10.6,28.8,10z"/>
<path class="st4" d="M30.1,53.7v1c-0.2,0.7-0.3,1.3-0.6,2c-0.5,1.4-2,2.2-3.4,1.7c-0.1,0-0.2-0.1-0.2-0.1c-2.3-0.8-2.1-2.9-2.1-4.8
	c0-1.7,0.1-3.5,2.3-4.1C28.4,48.9,29.4,49.9,30.1,53.7z M24.9,53.7c0,0.7,0.1,1.5,0.2,2.2c0.3,1,0.8,1.8,2,1.6
	c2-0.5,1.6-2.3,1.6-3.6s0.3-3.2-1.7-3.5c-1.1-0.2-1.6,0.7-1.9,1.7C25,52.6,24.9,53.1,24.9,53.7z"/>
<path class="st4" d="M30.1,98.4c-0.1,0.8-0.3,1.6-0.6,2.3c-0.5,1.4-1.9,2.1-3.3,1.7c-0.1,0-0.2-0.1-0.3-0.1
	c-2.2-0.8-2.1-2.9-2.1-4.8c0-1.7,0.1-3.5,2.3-4.1C28.5,92.8,30.1,94.6,30.1,98.4z M28.8,97.9c-0.1-0.6-0.1-1.1-0.2-1.7
	c0.1-1-0.6-1.9-1.6-2c-1.1-0.1-1.7,0.8-1.9,1.7c-0.3,1.4-0.3,2.9,0.2,4.3c0.2,0.8,1,1.2,1.8,1.1c0.7,0,1.3-0.6,1.4-1.3
	C28.6,99.4,28.7,98.7,28.8,97.9z"/>
<path class="st4" d="M400.1,150.5c0-1.9-0.1-3.6,1.5-4.5c1.2-0.8,2.8-0.6,3.8,0.5c1.4,1.6,1.4,5.7,0,7.3c-0.9,1-2.3,1.3-3.5,0.6
	C400.1,153.6,400.1,151.9,400.1,150.5z M401.3,149.5c0,0.9,0,1.3,0,1.6c0.1,1.2,0.3,2.5,1.9,2.5s1.7-1.2,1.7-2.4c0-0.9,0-1.9,0-2.8
	c0.1-1-0.6-1.8-1.6-1.9c0,0,0,0-0.1,0c-1.1-0.1-1.6,0.8-1.9,1.8C401.3,148.7,401.2,149.1,401.3,149.5L401.3,149.5z"/>
<path class="st4" d="M72.6,147.7c0.7-2.2,2.4-2.5,4.2-1.9s2,2.1,0.8,3.7c-0.5,0.6,0,0.8,0.3,1.2c1.2,1.4,0.9,2.9-0.6,3.6
	c-1.5,0.9-3.4,0.6-4.4-0.7c-0.3-0.4-0.5-0.8-0.1-1.1c0.6-0.6,0.8,0.1,1.1,0.4s0.5,0.6,0.8,0.6c0.9,0.2,2,0.5,2.5-0.6
	c0.4-0.7,0.2-1.6-0.5-2c-0.2-0.1-0.3-0.2-0.5-0.2c-0.9-0.3-0.6-0.6-0.3-1c0.8-0.8,2-1.4,0.8-2.6c-1-1-2-0.6-2.8,0.5
	C73.5,148,73.1,148.1,72.6,147.7z"/>
<path class="st4" d="M201,150.2c0.1,1.2-0.1,2.4-0.8,3.5c-0.9,1.3-2.7,1.6-4,0.7c-0.4-0.3-0.7-0.6-0.9-1.1c-0.7-1.6-0.8-3.3-0.4-5
	c0.4-1.7,1.3-2.6,3-2.6c1.9,0.1,2.7,1.3,2.9,3C201,149.1,201,149.6,201,150.2z M199.9,150.4c0-0.5,0-1.1-0.1-1.6
	c-0.2-1-0.5-2.2-1.7-2.2s-1.8,1-2,2.2c-0.1,1.1-0.1,2.2,0.1,3.3c0.1,0.9,0.5,1.4,1.4,1.6c0.9,0.2,1.7-0.4,1.9-1.2c0,0,0-0.1,0-0.1
	C199.7,151.7,199.8,151.1,199.9,150.4L199.9,150.4z"/>
<path class="st4" d="M189.4,153.4c1.5,0.6,3-0.2,4.2,0.5c0,0,0,0.1,0.1,0.5c-1.8,0.6-3.6,0.3-5.4,0.2c-1,0-0.5-0.9-0.3-1.4
	c0.8-1.2,1.8-2.3,3-3.1c1-0.9,1.7-2,0.7-3.1s-1.9-0.5-2.6,0.4c-0.3,0.4-0.7,0.7-1.1,0.4s-0.1-1,0.3-1.3c1.1-1.2,2.9-1.4,4.2-0.4
	c1.5,1.1,1.1,2.5,0.1,3.8S190.2,151.8,189.4,153.4z"/>
<path class="st4" d="M16.6,53.9c0-1.6,0.1-3.2,1.6-4.1c1.2-0.8,2.8-0.6,3.7,0.6c1.3,1.5,1.3,5.5,0.1,7.1c-1,1.3-2.4,1.3-3.7,0.8
	C17.2,57.7,16.6,56.1,16.6,53.9z M17.7,53.7c0,0.5,0.1,1.1,0.1,1.6c0.3,1,0.4,2.1,1.8,2.2c1.6,0.1,1.7-1.2,2-2.2
	c0.2-1.2,0.2-2.4-0.2-3.6c-0.1-0.8-0.8-1.4-1.6-1.4c-0.8,0-1.5,0.6-1.6,1.4C18,52.5,17.8,53.2,17.7,53.7z"/>
<path class="st4" d="M121,153.4c1.5,0.6,3-0.2,5,0.9c-2,0.5-4.1,0.6-6.2,0.3c-0.9-0.1-0.4-1-0.1-1.4c0.8-1.1,1.7-2.1,2.9-2.9
	c1-0.8,1.8-1.9,0.9-3.1s-2-0.6-2.8,0.4c-0.3,0.4-0.7,0.6-1.1,0.2s0-0.8,0.3-1.1c1-1.3,2.9-1.5,4.2-0.6c1.5,1,1.3,2.5,0.3,3.8
	S122.2,152.1,121,153.4z"/>
<path class="st4" d="M64.3,150.4c0.1,1-0.1,2-0.6,2.9c-0.6,1.4-2.1,2-3.5,1.4c-0.1,0-0.1-0.1-0.2-0.1c-1.9-0.8-2-2.8-1.9-4.7
	c0-1.7,0.2-3.4,2-4.1C62.6,144.8,64.3,146.7,64.3,150.4z M59.1,149.8c0,0.5,0,1.1,0.1,1.6c0.3,1,0.4,2.3,2,2.3s1.5-1.2,1.8-2.1
	c0.2-1.2,0.2-2.4-0.2-3.6c-0.1-0.8-0.8-1.4-1.6-1.4c-0.8-0.1-1.5,0.5-1.7,1.3C59.4,148.6,59.2,149.4,59.1,149.8z"/>
<path class="st4" d="M126.4,150.2c0-1.8,0.2-3.4,1.7-4.2c1.2-0.7,2.7-0.5,3.5,0.5c1.4,1.5,1.4,5.6,0.1,7.3c-0.8,1.1-2.3,1.4-3.5,0.7
	C126.4,153.6,126.3,151.8,126.4,150.2z M131.6,150c-0.5-1.3,0-3.6-2.2-3.4c-2,0.1-1.9,2.2-1.8,3.7s-0.1,3.3,1.9,3.3
	C131.8,153.6,131.1,151.5,131.6,150L131.6,150z"/>
<path class="st4" d="M468.5,150.2c0-1.8,0.1-3.4,1.7-4.2c1.2-0.7,2.7-0.5,3.5,0.5c1.4,1.5,1.4,5.6,0.1,7.3c-0.8,1.1-2.3,1.4-3.5,0.7
	C468.6,153.6,468.5,151.8,468.5,150.2z M473.7,150.2c-0.4-1.5,0-3.7-2.2-3.5c-2,0.1-1.9,2.2-1.8,3.7s-0.1,3.3,1.9,3.3
	C473.9,153.6,473.2,151.5,473.7,150.2L473.7,150.2z"/>
<path class="st4" d="M257.7,153.5l4.3,0.2v0.8c-1.8,0.3-3.6,0.4-5.5,0.1c-0.7-0.1-0.4-1,0-1.5c1-1.1,2-2.1,3.1-3.1
	c0.8-0.8,1.6-1.8,0.6-2.9s-1.8-0.6-2.6,0.3c-0.4,0.4-0.9,0.8-1.3,0.3s0.1-1,0.5-1.3c1.1-1.2,3-1.2,4.2-0.2c1.5,1.2,0.9,2.6-0.1,3.8
	S258.6,151.8,257.7,153.5z"/>
<path class="st4" d="M15.5,102.4c-1.8,0-3.5,0-5.2,0c-1.3,0-0.7-0.8-0.4-1.4c0.8-1.2,1.8-2.3,3-3.1c0.9-0.8,1.9-1.8,0.8-3
	c-0.9-1-2-0.6-2.7,0.5c-0.2,0.3-0.5,0.4-0.9,0.3c-0.1,0-0.2-0.1-0.2-0.2c-0.2-0.2,0-0.8,0.2-1.1c1.2-1.2,3-1.4,4.4-0.5
	c1,0.9,1.1,2.5,0.2,3.5c-0.1,0.1-0.1,0.1-0.2,0.2c-1.1,1.2-2.3,2.3-3.5,3.5c1.5,0.7,3.1-0.2,4.4,0.6L15.5,102.4z"/>
<path class="st4" d="M461.4,154.3c0.3-1.9,1.9-2.9,3.2-4c1-0.8,2-1.9,1.1-3s-2.1-0.9-2.9,0.4c-0.2,0.3-0.6,0.4-0.9,0.1
	c-0.6-0.3-0.1-0.8,0-1.1c0.7-1.2,3.2-1.7,4.4-0.7c1.1,0.8,1.3,2.3,0.5,3.4c-0.1,0.1-0.2,0.2-0.2,0.3c-1,1.3-2.3,2.4-3.5,3.6
	c1.4,0.7,3-0.2,5,1L461.4,154.3z"/>
<path class="st4" d="M52.2,153.5l4.7,0.2c-1.8,1.3-3.7,1-5.6,0.8c-1-0.1-0.3-0.9-0.1-1.4c0.8-1.2,1.8-2.3,3-3.1
	c0.9-0.8,1.7-1.8,0.8-2.9s-2-0.8-2.8,0.4c-0.3,0.5-0.8,0.5-1.1,0.3c-0.5-0.4,0-1,0.3-1.3c1.1-1.2,3-1.4,4.2-0.4
	c1.4,1.1,1.1,2.6,0,3.8S53.6,152.1,52.2,153.5z"/>
<path class="st4" d="M393.1,148c0.1-1.8,1.3-2.2,2.6-2.3c1.1-0.3,2.3,0.3,2.8,1.4c0.4,1.2,0.1,2.5-0.9,3.3c-1,1-2.4,1.7-3.2,3.4h4.4
	v0.8c-1.8,0.3-3.7,0.4-5.5,0.1c-0.9-0.1-0.4-1,0-1.4c0.9-1,1.9-2,2.9-3s2.1-1.7,0.9-3s-2.1-0.5-3,0.6C394,148,393.5,147.9,393.1,148
	z"/>
<path class="st4" d="M326.4,153.8h4.1c-1.7,1.2-3.6,0.9-5.4,0.8c-1,0-0.6-0.9-0.2-1.4c0.8-1,1.8-1.9,2.6-2.8s2.4-1.7,1.2-3.2
	s-2.2-0.4-3.1,0.6c-0.1,0.1-0.5,0-0.8,0.1c-0.1-1.7,1.1-2.1,2.4-2.3c1.1-0.3,2.3,0.2,2.9,1.3c0.5,1.1,0.2,2.5-0.8,3.3
	c-1,1-2.1,2-3.2,3L326.4,153.8z"/>
<path class="st4" d="M147.6,152.3c-2,0-1.2,1.5-1.8,2.2c-0.2,0.2-0.8,0.1-0.8-0.2c0.1-2.4-1.7-1.6-2.8-1.6s-1.9-0.3-1.1-1.6
	c1-1.6,2.1-3.1,3.1-4.7c0.2-0.5,0.8-0.7,1.3-0.6c0.7,0.2,0.4,0.8,0.5,1.2C146.4,148.7,145.1,150.8,147.6,152.3z M141.9,151.5
	c3.4,0.2,3.5,0.1,2.7-3.9L141.9,151.5z"/>
<path class="st4" d="M408,147.8c0.1-1.2,1.1-1.4,1.8-1.8s1.5-0.3,1.4,0.9s0.1,2.7,0,4.1c-0.1,1.6,0,3.1,2.5,2.8
	c-1.8,1.1-3.5,1.1-6,0.4c4.3-1.2,1.5-4.5,2.5-6.6C409.2,147,408.9,148.3,408,147.8z"/>
<path class="st4" d="M134.4,147.7c0.1-0.9,0.9-1.2,1.5-1.6c1.1-0.7,1.8-0.5,1.7,1c0,1.3,0,2.6,0,3.9c-0.1,1.6-0.2,3.1,2.3,3.2
	c-1.9,0.6-4,0.7-6,0.2c4-1,2-3.9,2.3-6.1C136.4,147.4,136.1,147.4,134.4,147.7z"/>
<path class="st4" d="M482.1,154.2c-2,0.7-3.9,0.5-6.5,0.4c1.4-1.1,3.4-0.8,2.9-2.8c-0.3-1.2,0.1-2.6-0.1-3.8
	c-0.3-1.5-1.2,0.6-1.8-0.2c-0.1-0.9,0.8-1.2,1.3-1.5c1.2-0.8,1.9-0.6,1.9,1c0,1.2,0.1,2.4,0,3.6C479.6,152.5,479.6,154,482.1,154.2z
	"/>
<path class="st4" d="M14,6.7c-1.5-0.1-2.9-0.2-4.2-0.3c-0.1,0-0.2-0.3-0.4-0.5c1.8-0.7,3.6-0.3,5.3-0.3c1.2,0,0.8,0.8,0.4,1.4
	c-1.3,2.1-2.6,4.2-2.6,6.8c0,0.6-0.4,0.7-0.9,0.6s-0.4-0.6-0.4-1C11.4,10.9,12.9,8.9,14,6.7z"/>
<path class="st4" d="M208.6,153.8c-1.9,0.9-4.1,1.1-6.1,0.5c0.3-1.3,3.1-0.1,2.4-2.4c-0.4-1.3,0.1-2.8-0.2-4.1s-1.2,0.6-1.8-0.2
	c0.1-1.1,1.1-1.4,1.9-1.8s1.3-0.1,1.3,0.9c0,1.4,0,2.9,0,4.4S205.6,154.4,208.6,153.8z"/>
<path class="st4" d="M71.2,154.5h-5.7c0.5-1.3,3-0.4,2.4-2.6c-0.3-1.3,0.1-2.8-0.1-4.1c-0.2-1.2-1.4,0.2-1.9-0.7
	c0.4-0.3,0.9-0.6,1.3-0.9c1.2-0.8,1.9-0.7,1.8,1c0,1.1,0,2.2,0,3.4C69,152.3,68.8,153.9,71.2,154.5z"/>
<path class="st4" d="M350.7,147c-1.6-0.6-3.1,0.3-4.7-0.9c1.9-0.7,3.6-0.4,5.3-0.4c1.4,0,0.9,1,0.5,1.6c-1.3,1.9-2.2,4.1-2.6,6.4
	c-0.1,0.6-0.2,1.1-0.9,0.9c-0.5-0.1-0.4-0.7-0.3-1.1C348.3,151.2,349.5,149.2,350.7,147z"/>
<path class="st4" d="M345.3,154c-2.3,0.9-4.1,0.7-6.1,0.6c0.3-1.7,2.2-0.2,2.3-1.6c0.2-1.7,0.2-3.4,0-5.1c-0.2-1.3-1.2,0.5-1.8-0.1
	c-0.2-1.2,0.9-1.3,1.5-1.7c0.9-0.6,1.6-0.5,1.5,0.9s0,2.6,0,3.9C342.8,152.3,341.9,154.4,345.3,154z"/>
<path class="st4" d="M276.7,154.1c-1.9,0.7-4,0.8-6,0.2c3.4-0.5,2.5-2.9,2.5-4.9s0-2.1-2-1.8c0.1-1.1,1.1-1.3,1.7-1.7
	s1.5-0.3,1.4,0.9c-0.1,1.4,0,2.8,0,4.1C274.4,152.5,274.2,154.1,276.7,154.1z"/>
<path class="st5" d="M95.2,54.8h105c-1.6,3.4-4.9,4.5-7.9,6.1c-18.5,9.9-37.1,19.7-55.6,29.6c-2.1,1.1-4.1,1.1-5.8-0.6
	c-11.7-11.4-23.5-22.8-35.2-34.3C95.6,55.4,95.4,55.1,95.2,54.8z"/>
<path class="st2" d="M419.4,152.1c0.1,1.1-0.5,1.7-1.6,1.7s-1.9-0.4-1.9-1.6c-0.1-0.8,0.4-1.6,1.3-1.8c0.1,0,0.3,0,0.4,0
	C418.6,150.5,419.4,150.8,419.4,152.1z"/>
<path class="st2" d="M419.3,148c0,0.8-0.7,1.5-1.5,1.5c-0.1,0-0.1,0-0.2,0c-0.7,0.1-1.4-0.5-1.5-1.2c0-0.1,0-0.1,0-0.2
	c-0.2-0.7,0.3-1.5,1.1-1.6c0.1,0,0.3,0,0.4,0C418.5,146.4,419.2,147,419.3,148C419.3,147.9,419.3,148,419.3,148z"/>
<path class="st2" d="M282.7,151.8c-0.2,1.1-0.5,2-1.7,2s-1.8-0.9-1.8-2c-0.2-0.8,0.4-1.7,1.2-1.8c0.1,0,0.3,0,0.4,0
	C282.2,149.8,282.5,150.8,282.7,151.8z"/>
<path class="st2" d="M487.7,148.4c0,1.3-0.4,2-1.6,2.1c-1.4,0.1-1.9-0.8-1.9-1.9s0.5-2.1,1.7-2.1
	C486.9,146.6,487.7,147.4,487.7,148.4C487.7,148.4,487.7,148.4,487.7,148.4z"/>
<path class="st2" d="M336.6,150.3c-0.1,0.8-0.2,1.5-0.3,2.3c-0.3,0.9-1.2,1.4-2.1,1.1c-0.6-0.2-1.1-0.8-1.2-1.4
	c-0.1-1.3-0.1-2.6-0.1-3.9c0-1,0.7-1.8,1.7-1.8c0,0,0.1,0,0.1,0c1.1,0,1.6,0.9,1.7,1.9c0,0.6,0,1.2,0,1.8L336.6,150.3z"/>
<path class="st2" d="M268.2,150.1c0,0.6,0,1.2,0,1.8c-0.1,1-0.5,1.8-1.8,1.9s-1.7-0.8-1.8-1.8c-0.1-1-0.1-2.1,0-3.1
	c0-1.3,0.5-2.3,1.9-2.3c1.2,0,1.7,1.1,1.7,2.2C268.3,149.2,268.3,149.6,268.2,150.1L268.2,150.1z"/>
<path class="st2" d="M28.8,142.5c-0.1,0.7-0.1,1.4-0.3,2.1c-0.1,0.8-0.8,1.5-1.6,1.4c-0.8,0.1-1.5-0.5-1.7-1.3
	c-0.4-1.3-0.5-2.7-0.2-4.1c0.1-1,0.7-1.9,1.8-1.8c1,0.1,1.8,0.9,1.7,1.9c0,0,0,0,0,0C28.6,141.3,28.7,141.9,28.8,142.5z"/>
<path class="st2" d="M28.8,10c-0.1,0.7-0.1,1.4-0.3,2.2c-0.1,0.7-0.7,1.3-1.4,1.3c-0.8,0.2-1.6-0.3-1.8-1.1
	c-0.5-1.4-0.5-2.9-0.2-4.3c0.1-1,0.7-1.9,1.9-1.8c1,0.1,1.7,1,1.6,2C28.6,8.8,28.7,9.3,28.8,10z"/>
<path class="st2" d="M24.9,53.7c0-0.6,0.1-1.1,0.2-1.7c0.3-1,0.8-1.9,1.9-1.7c2,0.4,1.8,2.2,1.7,3.5s0.4,3.1-1.6,3.6
	c-1.2,0.3-1.7-0.6-2-1.6C25,55.1,24.9,54.4,24.9,53.7z"/>
<path class="st2" d="M28.8,97.9c-0.1,0.7-0.1,1.5-0.3,2.2c-0.1,0.7-0.7,1.3-1.4,1.3c-0.8,0.1-1.6-0.3-1.8-1.1
	c-0.5-1.4-0.6-2.9-0.2-4.3c0.2-1,0.7-1.8,1.9-1.7c1,0.1,1.7,1,1.6,2C28.6,96.8,28.7,97.3,28.8,97.9z"/>
<path class="st2" d="M401.3,149.5c0-0.4,0-0.8,0.1-1.2c0.2-1,0.7-1.9,1.9-1.8c1,0.1,1.7,0.9,1.7,1.9c0,0,0,0,0,0.1
	c0,0.9,0.1,1.9,0,2.8c-0.1,1.1-0.2,2.4-1.7,2.4s-1.8-1.3-1.9-2.5C401.2,150.8,401.3,150.5,401.3,149.5z"/>
<path class="st2" d="M199.9,150.4c-0.1,0.7-0.2,1.3-0.3,1.9c-0.1,0.9-0.9,1.5-1.8,1.4c0,0-0.1,0-0.1,0c-0.9-0.1-1.3-0.7-1.4-1.6
	c-0.2-1.1-0.2-2.2-0.1-3.3c0.2-1.2,0.6-2.3,2-2.2s1.5,1.2,1.7,2.2C199.9,149.3,199.9,149.9,199.9,150.4z"/>
<path class="st2" d="M17.7,53.7c0.1-0.5,0.3-1.2,0.4-2c0.1-0.8,0.8-1.4,1.6-1.4c0.8,0,1.5,0.6,1.6,1.4c0.4,1.2,0.5,2.4,0.2,3.6
	c-0.3,1.1-0.4,2.3-2,2.2c-1.4-0.1-1.5-1.2-1.8-2.2C17.8,54.7,17.7,54.2,17.7,53.7z"/>
<path class="st2" d="M59.1,149.8c0.1-0.5,0.3-1.2,0.4-2c0.1-0.8,0.9-1.4,1.7-1.3c0.8,0,1.5,0.7,1.6,1.5c0.4,1.2,0.4,2.4,0.2,3.6
	c-0.2,1-0.3,2.1-1.8,2.1s-1.7-1.2-2-2.3C59.1,150.9,59.1,150.4,59.1,149.8z"/>
<path class="st2" d="M131.6,150c-0.5,1.4,0.2,3.6-2.1,3.6c-2.1,0-1.9-1.9-1.9-3.3s-0.2-3.6,1.8-3.7
	C131.6,146.5,131.1,148.7,131.6,150z"/>
<path class="st2" d="M473.7,150.1c-0.4,1.3,0.2,3.5-2.1,3.5c-2.1,0-1.9-1.9-1.9-3.3s-0.2-3.6,1.8-3.7
	C473.7,146.5,473.3,148.7,473.7,150.1z"/>
<path class="st3" d="M141.9,151.5l2.7-3.9C145.4,151.6,145.3,151.7,141.9,151.5z"/>
<rect x="22.9" y="160.9" class="st6" width="15.5" height="15.7"/>
<path class="st7" d="M52,162.9h6.8v1.5h-4.9v3.8h4.2v1.4h-4.2v4.1h5.2v1.5H52V162.9z"/>
<path class="st7" d="M68.9,165.5c0.5-0.3,1.1-0.4,1.7-0.4c1.6,0,2.6,0.9,2.6,3.1v6.9h-1.7V168c0-1.1-0.5-1.5-1.4-1.5
	c-0.7,0-1.4,0.3-2,0.7v7.9h-1.7V168c0-1.1-0.6-1.5-1.4-1.5c-0.7,0-1.4,0.3-2,0.7v7.9h-1.7v-9.9h1l0.6,1.2l0.9-1
	c0.5-0.3,1.1-0.4,1.7-0.4c0.6,0,1.2,0.1,1.7,0.4l0.7,1.1L68.9,165.5z"/>
<path class="st7" d="M79.5,174c0.9,0,1.8-0.3,2.6-0.6l0.3,1.3c-0.9,0.5-2,0.7-3,0.8c-2.7,0-4.1-1.8-4.1-5.2s1.5-5.1,3.9-5.1
	s3.5,1.8,3.5,4.6v1.1H77C77.1,173.2,77.8,174,79.5,174z M81,169.5v-0.3c0-2.1-0.6-2.8-1.8-2.8s-2,0.6-2.1,3.1H81z"/>
<path class="st7" d="M87.6,165.4c0.4-0.2,0.9-0.3,1.4-0.3c0.4,0,0.9,0.1,1.2,0.3l-0.3,1.6c-0.4-0.2-0.9-0.3-1.4-0.3
	c-0.7,0-1.3,0.3-1.9,0.7v7.8h-1.7v-9.9h1l0.6,1.3L87.6,165.4z"/>
<path class="st7" d="M99.3,164.9v1.6h-2.2l1.2,0.8c0.1,0.3,0.1,0.6,0.1,0.9c0,2.4-1.7,3.2-3.6,3.2c-0.6,0-1.1-0.1-1.6-0.3
	c-0.3,0.2-0.5,0.5-0.5,0.9c0,0.6,0.4,0.9,1.2,0.9h2.1c1.9,0,3,0.8,3,2.4c0,2.1-1.9,3.1-4.3,3.1s-3.7-0.9-3.7-2.4
	c0-0.5,0.2-1,0.5-1.4l1.1-0.5c-0.8-0.2-1.3-0.9-1.2-1.6c0-0.4,0.1-0.9,0.4-1.2l1-0.6l-1.1-0.7c-0.3-0.6-0.4-1.2-0.4-1.8
	c0-2.4,1.9-3.2,3.6-3.2c0.8,0,1.5,0.2,2.2,0.6L99.3,164.9z M92.5,175.9c0,1,0.7,1.4,2.2,1.4c1.8,0,2.7-0.8,2.7-1.6v-0.1
	c0-0.6-0.3-1.1-1.4-1.1h-2.8C92.8,174.8,92.5,175.3,92.5,175.9L92.5,175.9z M96.7,168.5v-0.2c0.1-0.9-0.5-1.7-1.4-1.8
	c-0.2,0-0.3,0-0.5,0c-1.3,0-1.9,0.6-1.9,1.8v0.2c0,1.3,0.6,1.9,1.9,1.9S96.7,169.8,96.7,168.5L96.7,168.5z"/>
<path class="st7" d="M104.5,174c0.9,0,1.8-0.3,2.5-0.6l0.3,1.3c-0.9,0.5-1.9,0.7-2.9,0.8c-2.7,0-4.1-1.8-4.1-5.2s1.5-5.1,3.9-5.1
	s3.5,1.8,3.5,4.6v1.1h-5.6C102.2,173.2,102.8,174,104.5,174z M106.1,169.5v-0.3c0-2.1-0.6-2.8-1.8-2.8s-2,0.6-2.1,3.1H106.1z"/>
<path class="st7" d="M112.5,165.5c0.6-0.3,1.2-0.4,1.8-0.4c1.6,0,2.6,0.9,2.6,3.1v6.9h-1.7V168c0-1.1-0.6-1.5-1.4-1.5
	c-0.8,0-1.5,0.3-2.1,0.7v7.9h-1.7v-9.9h1l0.6,1.3L112.5,165.5z"/>
<path class="st7" d="M119,170.2c0-3.4,1.3-5.1,3.8-5.1c0.9,0,1.8,0.2,2.6,0.6l-0.3,1.3c-0.7-0.3-1.5-0.4-2.3-0.5
	c-1.4,0-2.2,0.6-2.2,3.5v0.3c0,2.9,0.8,3.7,2.2,3.7c0.8,0,1.6-0.2,2.4-0.6l0.3,1.3c-0.8,0.5-1.8,0.7-2.7,0.7
	C120.4,175.4,119,173.7,119,170.2z"/>
<path class="st7" d="M129.8,174.9l-3.2-9.6h1.8l1.8,5.8l0.5,2.9l0.5-2.9l1.7-5.8h1.6l-4.1,12.9h-1.6L129.8,174.9z"/>
<path class="st7" d="M140,174.6l0.3-1.3c0.9,0.5,2,0.7,3,0.8c1.6,0,2.4-0.4,2.4-2c0-1.2-0.5-1.6-2.3-2.2c-2.2-0.6-3.3-1.3-3.3-3.7
	c0-2.2,1.4-3.5,3.8-3.5c1.1,0,2.2,0.2,3.1,0.6l-0.3,1.4c-0.9-0.4-1.9-0.5-2.8-0.5c-1.5,0-2.1,0.4-2.1,1.8c0,1.3,0.3,1.6,2.2,2.1
	c2.1,0.6,3.5,1.3,3.5,3.7c0,2.4-1.4,3.7-3.9,3.7C142.4,175.5,141.1,175.2,140,174.6z"/>
<path class="st7" d="M151.5,175.2h-1.7v-13.5h1.7v4.9l0.9-1c0.6-0.3,1.2-0.4,1.8-0.4c1.6,0,2.6,0.9,2.6,3.1v6.9H155V168
	c0-1.1-0.6-1.5-1.4-1.5c-0.8,0-1.5,0.3-2.1,0.7V175.2z"/>
<path class="st7" d="M163,174c0.9,0,1.8-0.3,2.6-0.6l0.3,1.3c-0.9,0.5-1.9,0.7-3,0.8c-2.7,0-4.1-1.8-4.1-5.2s1.5-5.1,3.9-5.1
	s3.5,1.8,3.5,4.6v1.1h-5.6C160.6,173.2,161.3,174,163,174z M164.5,169.5v-0.3c0-2.1-0.6-2.8-1.8-2.8s-2,0.6-2.1,3.1H164.5z"/>
<path class="st7" d="M168.5,161.7h1.7v13.5h-1.7V161.7z"/>
<path class="st7" d="M173.3,172.8v-6.2h-1.1v-1.3h1.3l0.8-2.6h0.8v2.6h2.1v1.3H175v6.6c0,0.7,0.2,0.8,0.9,0.8h1.4l0.1,0.9
	c-0.6,0.3-1.3,0.4-2,0.4C173.9,175.4,173.3,174.5,173.3,172.8z"/>
<path class="st7" d="M182.8,174c0.9,0,1.8-0.3,2.6-0.6l0.3,1.3c-0.9,0.5-1.9,0.7-3,0.8c-2.7,0-4.1-1.8-4.1-5.2s1.5-5.1,3.9-5.1
	s3.5,1.8,3.5,4.6v1.1h-5.6C180.5,173.2,181.2,174,182.8,174z M184.4,169.5v-0.3c0-2.1-0.6-2.8-1.8-2.8s-2,0.6-2.1,3.1H184.4z"/>
<path class="st7" d="M190.9,165.4c0.4-0.2,0.9-0.3,1.4-0.3c0.4,0,0.9,0.1,1.2,0.3l-0.3,1.6c-0.4-0.2-0.9-0.3-1.4-0.3
	c-0.7,0-1.3,0.3-1.9,0.7v7.8h-1.7v-9.9h1l0.6,1.3L190.9,165.4z"/>
<path class="st7" d="M198.6,174c0.9,0,1.8-0.3,2.5-0.6l0.3,1.3c-0.9,0.5-1.9,0.7-3,0.8c-2.7,0-4.1-1.8-4.1-5.2s1.5-5.1,3.9-5.1
	s3.5,1.8,3.5,4.6v1.1h-5.6C196.3,173.2,197,174,198.6,174z M200.2,169.5v-0.3c0-2.1-0.6-2.8-1.8-2.8s-2,0.6-2.1,3.1H200.2z"/>
<path class="st7" d="M209.2,161.7h1.7v13.5h-1.1l-0.6-1.2l-1,1.1c-0.4,0.2-0.9,0.3-1.3,0.3c-2.3,0-3.5-1.8-3.5-5.2
	c0-3.6,1.5-5.1,3.5-5.1c0.8,0,1.6,0.3,2.2,0.8V161.7z M209.2,167.2c-0.5-0.4-1.2-0.7-1.9-0.7c-1.3,0-2,0.7-2,3.4v0.7
	c0,2.6,0.7,3.6,2.1,3.6c0.7,0,1.4-0.4,1.9-0.9V167.2z"/>
<rect x="226.8" y="160.1" class="st8" width="15.5" height="15.7"/>
<path class="st7" d="M262.2,162.1h1.9v12.3H263l-0.5-1.2l-0.7,1c-0.7,0.3-1.4,0.4-2.2,0.4c-2.4,0-3.6-1.3-3.6-4.8v-7.6h1.9v8.2
	c0,2.3,0.6,2.9,2.1,2.9c0.8,0,1.7-0.2,2.4-0.7L262.2,162.1z"/>
<path class="st7" d="M269.6,164.7c0.6-0.3,1.2-0.4,1.8-0.4c1.6,0,2.6,0.9,2.6,3.1v6.9h-1.7v-7.1c0-1.1-0.6-1.5-1.4-1.5
	c-0.8,0-1.5,0.3-2.1,0.7v7.9H267v-9.8h1l0.6,1.3L269.6,164.7z"/>
<path class="st7" d="M276.1,174l0.2-1.3c0.8,0.4,1.6,0.6,2.5,0.6c1.2,0,1.9-0.4,1.9-1.5c0-1.2-0.4-1.2-2.2-1.7
	c-1.4-0.4-2.4-1-2.4-2.8c0-2,1.3-2.9,3.2-2.9c0.9,0,1.8,0.2,2.6,0.6l-0.3,1.3c-0.7-0.3-1.5-0.4-2.3-0.4c-1.2,0-1.7,0.3-1.7,1.4
	c0,1.1,0.5,1.2,2,1.6c1.7,0.4,2.6,1.1,2.6,3c0,1.9-1.1,2.9-3.3,2.9C277.9,174.7,277,174.5,276.1,174z"/>
<path class="st7" d="M286,174.4h-1.7v-13.5h1.7v4.9l0.9-1c0.6-0.3,1.2-0.4,1.8-0.4c1.6,0,2.6,0.9,2.6,3.1v6.9h-1.7v-7.2
	c0-1.1-0.6-1.5-1.4-1.5c-0.8,0-1.5,0.3-2.1,0.7V174.4z"/>
<path class="st7" d="M297.5,173.3c0.9,0,1.8-0.3,2.5-0.6l0.3,1.3c-0.9,0.5-1.9,0.7-3,0.8c-2.7,0-4.1-1.8-4.1-5.2s1.5-5.1,3.9-5.1
	s3.5,1.8,3.5,4.6v1.1h-5.6C295.2,172.5,295.9,173.3,297.5,173.3z M299.1,168.8v-0.3c0-2.1-0.6-2.8-1.8-2.8s-2,0.6-2.1,3.1H299.1z"/>
<path class="st7" d="M303.1,160.9h1.7v13.5h-1.7V160.9z"/>
<path class="st7" d="M307.9,172.1v-6.2h-1.2v-1.3h1.3l0.8-2.6h0.8v2.6h2.1v1.3h-2.1v6.6c0,0.7,0.2,0.8,0.9,0.8h1.4l0.1,0.9
	c-0.6,0.3-1.3,0.4-2,0.4C308.5,174.6,307.9,173.8,307.9,172.1z"/>
<path class="st7" d="M317.4,173.3c0.9,0,1.8-0.3,2.5-0.6l0.3,1.3c-0.9,0.5-1.9,0.7-3,0.8c-2.7,0-4.1-1.8-4.1-5.2s1.5-5.1,3.9-5.1
	s3.5,1.8,3.5,4.6v1.1H315C315.1,172.5,315.7,173.3,317.4,173.3z M319,168.8v-0.3c0-2.1-0.6-2.8-1.8-2.8s-2,0.6-2.1,3.1H319z"/>
<path class="st7" d="M325.5,164.7c0.4-0.2,0.9-0.3,1.4-0.3c0.4,0,0.9,0.1,1.2,0.3l-0.3,1.6c-0.4-0.2-0.9-0.3-1.4-0.3
	c-0.7,0-1.3,0.3-1.9,0.7v7.8h-1.7v-9.8h1l0.6,1.3L325.5,164.7z"/>
<path class="st7" d="M333.2,173.3c0.9,0,1.8-0.3,2.6-0.6l0.3,1.3c-0.9,0.5-2,0.7-3,0.8c-2.7,0-4.1-1.8-4.1-5.2s1.5-5.1,3.9-5.1
	s3.6,1.8,3.6,4.6v1.1h-5.6C330.8,172.5,331.5,173.3,333.2,173.3z M334.7,168.8v-0.3c0-2.1-0.6-2.8-1.8-2.8s-2,0.6-2.1,3.1H334.7z"/>
<path class="st7" d="M343.7,160.9h1.7v13.5h-1l-0.6-1.2l-1,1.1c-0.4,0.2-0.9,0.3-1.3,0.3c-2.3,0-3.5-1.8-3.5-5.2
	c0-3.6,1.5-5.1,3.5-5.1c0.8,0,1.6,0.3,2.2,0.8L343.7,160.9z M343.7,166.5c-0.5-0.4-1.2-0.7-1.9-0.7c-1.3,0-2,0.7-2,3.4v0.7
	c0,2.6,0.8,3.6,2.1,3.6c0.7,0,1.4-0.4,1.9-0.9V166.5z"/>
</svg>
