<svg id="b2fa427e-bf52-470c-9e03-e80743e62970" data-name="Layer 1" xmlns="http://www.w3.org/2000/svg" viewBox="0 0 304.89 225.76"><defs><style>.b7e0cea3-e5aa-4850-a61f-559a521164ba{fill:#bcbee0;}.b259af70-0d36-4a1a-aceb-4863194889f5{fill:#424480;}.ae8e000d-d4f7-40bb-b15a-77804e368141{fill:#c4c3c3;}.bbc7cdc1-8cfb-4787-8159-851132c6b610{fill:#291a1f;}.fd5d654f-b97f-4093-a89b-d8a14af16938{fill:#f0f0ef;}.a4d45c89-3c8a-4ac4-b052-796ef1521146{fill:#231f20;}</style></defs><path class="b7e0cea3-e5aa-4850-a61f-559a521164ba" d="M63.25,75.27c1.36,3.47,2.7,7,4.08,10.42l17.2,43a3.44,3.44,0,0,0,.21.53c.3.46.19,1.36.8,1.37s.74-.77,1.08-1.22q7.18-9.75,14.36-19.52,4.86-6.63,9.73-13.27,5.36-7.26,10.73-14.52a3,3,0,0,0,.75-2.08,2.43,2.43,0,0,1,2-2.61,2.47,2.47,0,0,1,2.45,2A2.32,2.32,0,0,0,127.75,81q12,9.19,24,18.43c3.39,2.59,6.81,5.14,10.19,7.74a1.55,1.55,0,0,0,1.35.39,2.1,2.1,0,0,1,2.33,1.06,2,2,0,0,0,1.29,1q10.74,2.88,21.49,5.81c4,1.08,7.94,2.14,11.89,3.25a1.73,1.73,0,0,0,1.5-.19,2,2,0,0,1,2.77.41,2.69,2.69,0,0,0,2.12,1.09c6.62.94,13.24,1.86,19.85,2.81q6.54.93,13.07,2a1.29,1.29,0,0,0,1.12-.34,2.16,2.16,0,0,1,3.3.46,2.24,2.24,0,0,0,1.6.91c9.12,1.86,18.24,3.76,27.36,5.64,1.93.4,3.87.78,5.81,1.17a1.85,1.85,0,0,0,1.4-.33,2.32,2.32,0,0,1,3.26.82,2.26,2.26,0,0,1-.66,2.94,2.16,2.16,0,0,1-3.21-.52,2.25,2.25,0,0,0-1.57-1q-12.78-2.64-25.57-5.25c-2.5-.51-5-.94-7.49-1.48a1.6,1.6,0,0,0-1.47.26,1.91,1.91,0,0,1-2.79-.22c-.86-1.09-2-1.16-3.13-1.33-7.4-1.1-14.8-2.15-22.2-3.22L206,121.83a2.53,2.53,0,0,0-1.82.44c-1.17.74-2.19.68-2.92-.43a4.07,4.07,0,0,0-2.74-1.6l-32.4-8.76a1.33,1.33,0,0,0-1.16.12,2.2,2.2,0,0,1-3.56-1.72,1.28,1.28,0,0,0-.56-.92l-8.59-6.63-15.5-11.9q-5.31-4.07-10.63-8.1a1.86,1.86,0,0,0-2.67.42q-6.88,9.41-13.78,18.81-5.66,7.69-11.33,15.36c-3.55,4.82-7.08,9.64-10.64,14.45a1.16,1.16,0,0,0-.32,1.13,2.13,2.13,0,0,1-1.19,2.57,2.08,2.08,0,0,1-2.46-.22,2.11,2.11,0,0,1-.64-2.67,2,2,0,0,0-.08-1.61Q73,105.48,62.93,80.36a30.86,30.86,0,0,0-2.2-5.12l0-.46Q53.41,56.53,46.13,38.27a2.27,2.27,0,0,0-1.23-1.35,2.08,2.08,0,0,1-1.1-2.85A2.25,2.25,0,1,1,48,35.74a1.9,1.9,0,0,0,.05,1.6Q53.51,51,58.94,64.61q2,5.1,4.07,10.18Z"/><path class="b259af70-0d36-4a1a-aceb-4863194889f5" d="M161.35,204.34a2.2,2.2,0,0,0-.83-2.19q-17.19-16.74-34.33-33.54a2.26,2.26,0,0,0-2-.9,1.88,1.88,0,0,1-1.87-1.28,1.54,1.54,0,0,0-1-.9Q104.45,160,87.6,154.39a1.49,1.49,0,0,0-1.37.13,2.23,2.23,0,0,1-3.32-1.74,1.65,1.65,0,0,0-.56-1.28q-6.78-5.64-13.51-11.33a4.85,4.85,0,0,0-.49-.29l-.26-.21c-2.73-2.33-5.44-4.67-8.18-7-4-3.39-8.08-6.76-12.11-10.15a2.1,2.1,0,0,0-1.81-.66,2.24,2.24,0,0,1-2.38-2.11,2.37,2.37,0,0,1,2.08-2.45,2.24,2.24,0,0,1,2.47,2,2.08,2.08,0,0,0,.89,1.57Q59.91,130,70.74,139.05c.29.24.61.45.91.67l.27.21c2.52,2.39,5.3,4.48,7.91,6.75,1,.83,1.94,1.62,2.9,2.44a3.24,3.24,0,0,0,2.69,1.14,1.77,1.77,0,0,1,1.77,1.23,1.62,1.62,0,0,0,1.14,1q16.73,5.5,33.44,11a1.92,1.92,0,0,0,1.71-.11,2.24,2.24,0,0,1,3.24,2,1.89,1.89,0,0,0,.64,1.48l29.12,28.43c1.94,1.89,3.89,3.78,5.82,5.69.37.37.71.67,1.28.49a.44.44,0,0,1,.34,0c1.46.86,2.67-.06,3.92-.57q16-6.51,31.92-13a1.86,1.86,0,0,0,1.07-1,2.17,2.17,0,0,1,3.48-.93,1.38,1.38,0,0,0,1.17.23q16.35-3.37,32.69-6.72a3.19,3.19,0,0,0,2.37-1.28,2.08,2.08,0,0,1,3.36.07,2.12,2.12,0,0,0,1.63.85l32.61,4.08a2.22,2.22,0,0,0,2-.39,2.11,2.11,0,0,1,3.12.46,2.28,2.28,0,0,1-.32,3.11,2.16,2.16,0,0,1-3.16-.2,2.3,2.3,0,0,0-1.7-.9q-15.45-1.9-30.9-3.86-.74-.09-1.47-.21a2.57,2.57,0,0,0-2.51.51,1.67,1.67,0,0,1-2.22-.08,1.8,1.8,0,0,0-1.69-.27q-16.53,3.41-33.06,6.75a2,2,0,0,0-1.46.92,2.06,2.06,0,0,1-2.8.78,1.5,1.5,0,0,0-1.38,0l-33.85,13.88c-.31.13-.82.09-.75.67l-.15.39c-1.53,1.86-2.8,1.86-4.35,0Z"/><ellipse class="ae8e000d-d4f7-40bb-b15a-77804e368141" cx="163.68" cy="10.34" rx="194.06" ry="0.15"/><path class="ae8e000d-d4f7-40bb-b15a-77804e368141" d="M63.25,75.27,63,74.79h237.9l0,.33a2.59,2.59,0,0,1-1.38.13H64.85Z"/><path class="ae8e000d-d4f7-40bb-b15a-77804e368141" d="M165.85,204.73l.15-.39H300.92c0,.57-.36.43-.58.45s-.62,0-.92,0H167.57C167,204.81,166.43,204.76,165.85,204.73Z"/><path class="ae8e000d-d4f7-40bb-b15a-77804e368141" d="M161.35,204.34l.15.4c-.54,0-1.07.07-1.6.07H27.83a2.62,2.62,0,0,1-1.39-.12v-.34Z"/><path class="ae8e000d-d4f7-40bb-b15a-77804e368141" d="M71.92,139.93l-.27-.21c.5,0,1-.05,1.49-.05H301a2,2,0,0,1-1.5.27H71.92Z"/><path class="bbc7cdc1-8cfb-4787-8159-851132c6b610" d="M249.66,210.66c-1.1-1-1.28-2.14-.48-2.93a2.83,2.83,0,0,1,3.56,0c.86.81.75,1.82-.35,3,1.15,1,1.39,2.27.56,3.13a3.11,3.11,0,0,1-4-.13C248.16,212.71,248.44,211.56,249.66,210.66Zm1.68.36c-1.17-.09-1.85.41-1.87,1.25a1.31,1.31,0,0,0,1.36,1.48c1,.07,1.58-.37,1.64-1.28A1.2,1.2,0,0,0,251.34,211Zm-.32-.7c.82,0,1.27-.41,1.27-1.26s-.51-1.28-1.37-1.27a1.13,1.13,0,0,0-1.27,1.25C249.65,210,250.18,210.3,251,210.32Z"/><path class="bbc7cdc1-8cfb-4787-8159-851132c6b610" d="M288,212.93c.32-.12.69-.24.88,0,.45.62.94,1,1.72.6a2.13,2.13,0,0,0,1.08-2.07c-.28-.17-.39,0-.54.11a2.15,2.15,0,0,1-3.11-.87,2.53,2.53,0,0,1,1.22-3.45,2.21,2.21,0,0,1,3.11,1.39,5.78,5.78,0,0,1-.3,4.66,2.23,2.23,0,0,1-2.44,1.11A1.73,1.73,0,0,1,288,212.93Zm3.65-3.28a1.67,1.67,0,0,0-1.47-1.83,1.56,1.56,0,0,0-1.44,1.72,1.53,1.53,0,0,0,1.47,1.67A1.45,1.45,0,0,0,291.65,209.65Z"/><path class="bbc7cdc1-8cfb-4787-8159-851132c6b610" d="M133.33,207.09h1.49c.22,0,.46,0,.47.31s-.17.45-.49.44h-2.06c-1.3,0-.73,1.08-.77,1.6-.08.87.56.22.85.18a2.39,2.39,0,0,1,2.77,1.47,2.55,2.55,0,0,1-1,3,2.93,2.93,0,0,1-3.46-.48c-.2-.26-.52-.61-.22-.89s.62-.17.94.22a1.51,1.51,0,0,0,2.27.4,1.67,1.67,0,0,0,.44-2.16,1.62,1.62,0,0,0-2.27-.61c-1.37.59-1.41.55-1.27-.87l0-.45C131.2,207.09,131.2,207.09,133.33,207.09Z"/><path class="bbc7cdc1-8cfb-4787-8159-851132c6b610" d="M171.09,210.12a8.35,8.35,0,0,1,1.33-.48,2.06,2.06,0,0,1,2.41,1.44,2.63,2.63,0,0,1-1,3.11,2.45,2.45,0,0,1-3.07-.67,5.83,5.83,0,0,1,.13-5.57,2.33,2.33,0,0,1,3.58,0c.14.19.42.45.13.69a.51.51,0,0,1-.8-.1,1.19,1.19,0,0,0-1.76-.44A2.07,2.07,0,0,0,171.09,210.12ZM174,212c0-1-.53-1.68-1.43-1.7a1.38,1.38,0,0,0-1.48,1.51,1.75,1.75,0,0,0,1.45,1.89C173.38,213.77,174,213,174,212Z"/><path class="bbc7cdc1-8cfb-4787-8159-851132c6b610" d="M55.79,210.69A1.79,1.79,0,0,1,57,213.08a2,2,0,0,1-2,1.36,2.49,2.49,0,0,1-2.69-1.29c-.1-.27-.29-.63.17-.74.27-.07.57-.13.72.31.34.93,1.1,1.06,2,.87a1.14,1.14,0,0,0,1-1.31A1.08,1.08,0,0,0,55,211.22c-.23,0-.46,0-.68,0s-.48-.16-.48-.5.2-.37.44-.37h.23c.71,0,1.31-.26,1.41-1.05a1,1,0,0,0-.71-1.27,1.37,1.37,0,0,0-1.86.61c-.24.48-.59.56-.9.32s0-.61.14-.87a2.46,2.46,0,0,1,2.65-.91,1.8,1.8,0,0,1,1.63,1.4A1.89,1.89,0,0,1,55.79,210.69Z"/><path class="bbc7cdc1-8cfb-4787-8159-851132c6b610" d="M45.42,210.78a5.23,5.23,0,0,1-.39,2.28,2.21,2.21,0,0,1-2.15,1.39A2.12,2.12,0,0,1,40.77,213a6.52,6.52,0,0,1-.07-4.36,2.14,2.14,0,0,1,2.23-1.57,2.22,2.22,0,0,1,2.22,1.61A6.42,6.42,0,0,1,45.42,210.78Zm-.94-.12a5.82,5.82,0,0,0-.27-1.94,1.35,1.35,0,0,0-1.34-.89,1.26,1.26,0,0,0-1.23.87,6.35,6.35,0,0,0,0,4.13,1.23,1.23,0,0,0,1.23.86,1.35,1.35,0,0,0,1.31-.92A6,6,0,0,0,44.48,210.66Z"/><path class="bbc7cdc1-8cfb-4787-8159-851132c6b610" d="M241.73,210.74a6.88,6.88,0,0,1-.27,2,2.27,2.27,0,0,1-2.29,1.69,2.18,2.18,0,0,1-2.18-1.66,6.71,6.71,0,0,1,0-4,2.15,2.15,0,0,1,2.28-1.66,2.22,2.22,0,0,1,2.24,1.74A8.26,8.26,0,0,1,241.73,210.74Zm-.95,0a6,6,0,0,0-.25-1.92,1.35,1.35,0,0,0-1.29-.95,1.26,1.26,0,0,0-1.31.91,6.49,6.49,0,0,0,0,4,1.26,1.26,0,0,0,1.31.91,1.36,1.36,0,0,0,1.28-1A6.3,6.3,0,0,0,240.78,210.7Z"/><path class="bbc7cdc1-8cfb-4787-8159-851132c6b610" d="M276,210.83a6.45,6.45,0,0,1,.29-2.22,2.21,2.21,0,0,1,2.28-1.52,2.12,2.12,0,0,1,2.13,1.55,6.6,6.6,0,0,1,.05,4,2.22,2.22,0,0,1-2.32,1.78,2.27,2.27,0,0,1-2.21-1.79A7.08,7.08,0,0,1,276,210.83Zm4.07,0a6.45,6.45,0,0,0-.29-2.13,1.33,1.33,0,0,0-1.22-.89,1.3,1.3,0,0,0-1.29.77,4.72,4.72,0,0,0,0,4.34,1.3,1.3,0,0,0,1.2.76,1.36,1.36,0,0,0,1.26-.83A5.53,5.53,0,0,0,280,210.85Z"/><path class="bbc7cdc1-8cfb-4787-8159-851132c6b610" d="M202.47,210.62a5.44,5.44,0,0,1-.31,2.26,2.22,2.22,0,0,1-2.25,1.57,2.15,2.15,0,0,1-2.14-1.56,6.45,6.45,0,0,1,0-4.25,2.13,2.13,0,0,1,2.25-1.55,2.18,2.18,0,0,1,2.2,1.64A5,5,0,0,1,202.47,210.62Zm-.94.2a5.61,5.61,0,0,0-.25-2,1.35,1.35,0,0,0-1.28-1,1.29,1.29,0,0,0-1.33.9,6.42,6.42,0,0,0,0,4,1.27,1.27,0,0,0,1.3.92,1.33,1.33,0,0,0,1.29-.95A5,5,0,0,0,201.53,210.82Z"/><path class="bbc7cdc1-8cfb-4787-8159-851132c6b610" d="M84.59,210.65a6.56,6.56,0,0,1-.24,2.37,2.28,2.28,0,0,1-2.25,1.43A2.12,2.12,0,0,1,80,212.94a6.61,6.61,0,0,1-.07-4.17,2.21,2.21,0,0,1,2.62-1.67,2.35,2.35,0,0,1,2,2.29C84.61,209.81,84.59,210.23,84.59,210.65Zm-4,.11a6.76,6.76,0,0,0,.25,1.94,1.36,1.36,0,0,0,1.26,1,1.31,1.31,0,0,0,1.37-1,6.59,6.59,0,0,0,0-3.93,1.28,1.28,0,0,0-1.3-.93,1.38,1.38,0,0,0-1.31.93A6.41,6.41,0,0,0,80.63,210.76Z"/><path class="bbc7cdc1-8cfb-4787-8159-851132c6b610" d="M194.05,214.45c-.46,0-.92,0-1.37,0s-.78.18-1-.15.07-.81.3-1.16a9,9,0,0,1,2-2,3.89,3.89,0,0,0,1.11-1.14c.35-.66.45-1.37-.23-1.84a1.33,1.33,0,0,0-2,.35c-.3.43-.55.86-1,.44s.07-.76.31-1.06a2.76,2.76,0,0,1,3.54-.26,2.15,2.15,0,0,1-.18,3.16c-.72.73-1.53,1.37-2.28,2.07-.18.17-.46.38-.36.66s.44.19.69.19c.76,0,1.53,0,2.29,0,.25,0,.55-.08.59.35s-.33.4-.62.4Z"/><path class="bbc7cdc1-8cfb-4787-8159-851132c6b610" d="M163.24,210.8a5,5,0,0,1-.45,2.32,2.16,2.16,0,0,1-2.18,1.33,2.08,2.08,0,0,1-2-1.4,6.24,6.24,0,0,1,0-4.56,2.08,2.08,0,0,1,2.12-1.4,2.1,2.1,0,0,1,2.15,1.37A5.48,5.48,0,0,1,163.24,210.8Zm-1-.05a4.84,4.84,0,0,0-.29-2,1.31,1.31,0,0,0-1.33-.89,1.26,1.26,0,0,0-1.23.86,6.28,6.28,0,0,0,0,4.15,1.24,1.24,0,0,0,1.23.85,1.32,1.32,0,0,0,1.32-.92A5.14,5.14,0,0,0,162.29,210.75Z"/><path class="bbc7cdc1-8cfb-4787-8159-851132c6b610" d="M114.44,213.69c.86,0,1.76,0,2.66,0,.27,0,.76-.25.73.39s-.5.34-.78.34c-1,0-2.06,0-3.09,0s-.91-.44-.61-1a5.71,5.71,0,0,1,1.48-1.73,14.54,14.54,0,0,0,1.67-1.56,1.3,1.3,0,0,0-.09-2,1.39,1.39,0,0,0-2.06.47c-.27.46-.57.68-.95.36s0-.69.22-1a2.72,2.72,0,0,1,3.61-.4,2.12,2.12,0,0,1-.13,3.14c-.8.82-1.68,1.56-2.51,2.34A.52.52,0,0,0,114.44,213.69Z"/><path class="bbc7cdc1-8cfb-4787-8159-851132c6b610" d="M153.43,213.69h3.18c.28,0,.66-.09.65.41s-.43.33-.68.34c-1.15,0-2.3,0-3.44,0-.9,0-.83-.41-.56-1a5.65,5.65,0,0,1,1.45-1.74,8.26,8.26,0,0,0,1.82-1.72c.42-.69.51-1.44-.23-1.92a1.34,1.34,0,0,0-2,.41c-.25.39-.44.81-.92.45s0-.74.19-1a2.74,2.74,0,0,1,3.61-.34,2.22,2.22,0,0,1-.18,3.17C155.47,211.71,154.25,212.3,153.43,213.69Z"/><path class="bbc7cdc1-8cfb-4787-8159-851132c6b610" d="M76.3,214.45c-.45,0-.91,0-1.37,0s-.77.19-.94-.16a1.21,1.21,0,0,1,.28-1.17,9,9,0,0,1,1.74-1.8A7.3,7.3,0,0,0,77.38,210a1.21,1.21,0,0,0-.22-1.83,1.34,1.34,0,0,0-2,.33c-.28.38-.5.92-1,.48s.07-.82.35-1.13a2.73,2.73,0,0,1,3.53-.17,2.12,2.12,0,0,1-.19,3.07c-.76.79-1.63,1.48-2.43,2.24-.16.14-.39.32-.27.57s.39.16.6.17h2.4c.23,0,.45,0,.46.33s-.16.44-.49.43C77.52,214.43,76.91,214.45,76.3,214.45Z"/><path class="bbc7cdc1-8cfb-4787-8159-851132c6b610" d="M271.19,213.69h3.2c.32,0,.63,0,.59.45s-.37.3-.61.3c-1.18,0-2.36,0-3.55,0-.71,0-.77-.3-.55-.84a6,6,0,0,1,1.75-2.09,12.43,12.43,0,0,0,1.5-1.4,1.3,1.3,0,0,0-.1-2,1.4,1.4,0,0,0-2.06.46c-.24.39-.44.67-.86.42s-.09-.68.09-1a2.65,2.65,0,0,1,3.57-.5c.95.73,1,2,0,3.13a15.1,15.1,0,0,1-1.18,1.08A7.6,7.6,0,0,0,271.19,213.69Z"/><path class="bbc7cdc1-8cfb-4787-8159-851132c6b610" d="M231.94,213.69h3.2c.31,0,.63,0,.6.44s-.36.31-.59.31c-1.19,0-2.37,0-3.55,0-.81,0-.81-.36-.55-.91a7,7,0,0,1,2.13-2.35,4.11,4.11,0,0,0,1.25-1.31c.33-.67.39-1.37-.33-1.81a1.34,1.34,0,0,0-1.92.38c-.28.39-.5.92-1,.47s.07-.83.35-1.14a2.72,2.72,0,0,1,3.53-.12,2.37,2.37,0,0,1-.23,3.1C234,211.7,232.79,212.32,231.94,213.69Z"/><path class="bbc7cdc1-8cfb-4787-8159-851132c6b610" d="M35.63,213.69c1.18,0,2.13,0,3.07,0,.3,0,.75-.18.73.41s-.43.32-.68.33c-1.14,0-2.29,0-3.43,0-.76,0-.86-.29-.58-.89a6.86,6.86,0,0,1,2.12-2.36,4.42,4.42,0,0,0,1.2-1.2c.39-.69.51-1.43-.25-1.92a1.4,1.4,0,0,0-2,.43,1.73,1.73,0,0,0-.14.31c-.15.34-.42.25-.68.18-.44-.12-.24-.43-.16-.65.39-1.1,2.2-1.61,3.46-1,1,.48,1.12,1.69.66,2.87a3.64,3.64,0,0,1-1.15,1.26A9.31,9.31,0,0,0,35.63,213.69Z"/><path class="bbc7cdc1-8cfb-4787-8159-851132c6b610" d="M123.82,210.68c-.13.82.14,1.58-.22,2.33a2.27,2.27,0,0,1-2.24,1.44,2.12,2.12,0,0,1-2.08-1.5,6.58,6.58,0,0,1,0-4.27,2.27,2.27,0,0,1,2.7-1.58,2.36,2.36,0,0,1,1.89,2.39C123.83,209.91,123.82,210.33,123.82,210.68Zm-3.94-.31a6.77,6.77,0,0,0,.26,2.37,1.35,1.35,0,0,0,1.29.95,1.28,1.28,0,0,0,1.31-.92,6.35,6.35,0,0,0,0-4,1.27,1.27,0,0,0-1.33-.9,1.37,1.37,0,0,0-1.29,1A5,5,0,0,0,119.88,210.37Z"/><path class="ae8e000d-d4f7-40bb-b15a-77804e368141" d="M60.7,74.78l0,.46H26.45v-.46Z"/><path class="bbc7cdc1-8cfb-4787-8159-851132c6b610" d="M95.59,209.63c0,.5,0,1,0,1.49s-.24,1.14.68,1c.25,0,.3.18.29.39s-.11.32-.27.3c-.79-.11-.72.41-.71.92,0,.31.12.71-.46.69s-.49-.31-.43-.62c.18-1-.35-1.05-1.1-1-.57,0-1.15,0-1.72,0s-.8-.36-.49-.84c1-1.58,2-3.13,3-4.69.24-.36.62-.27.94-.2s.2.44.21.67C95.6,208.41,95.59,209,95.59,209.63Zm-3.41,2.51h1.93c.33,0,.6,0,.59-.46,0-1,0-2.06,0-3.09h-.22Z"/><path class="bbc7cdc1-8cfb-4787-8159-851132c6b610" d="M127,208.09l-1.49.93a2.36,2.36,0,0,1,2.13-1.93c.49.11.31.46.31.72,0,1.6,0,3.2,0,4.79,0,.82.17,1.23,1.06,1.1.3,0,.76-.15.72.42s-.45.31-.7.32c-1.1,0-2.2,0-3.31,0-.25,0-.55.06-.54-.37s.3-.42.55-.37c1.21.23,1.36-.39,1.3-1.4C127,211,127,209.64,127,208.09Z"/><path class="bbc7cdc1-8cfb-4787-8159-851132c6b610" d="M244.82,208.22c-.69.06-1,.64-1.51.78,0-.91,1.46-2.14,2.2-1.9.45.15.26.5.26.76,0,1.6,0,3.2,0,4.8,0,.75.1,1.17,1,1,.25,0,.66-.17.67.36s-.37.38-.64.38c-1,0-2.06,0-3.09,0-.25,0-.66.2-.68-.34s.35-.45.63-.4c1.07.19,1.27-.33,1.22-1.28C244.76,211.05,244.82,209.68,244.82,208.22Z"/><path class="bbc7cdc1-8cfb-4787-8159-851132c6b610" d="M47,209c0-.87,1.45-2.09,2.19-1.86.45.14.27.49.27.75,0,1.6,0,3.2,0,4.8,0,.74.1,1.18,1,1,.24,0,.65-.17.66.35s-.35.39-.63.39h-3.2c-.24,0-.56.12-.58-.33s.34-.46.63-.41c1.06.18,1.29-.31,1.23-1.28-.08-1.36,0-2.74,0-4.14C47.82,208.17,47.58,208.93,47,209Z"/><path class="bbc7cdc1-8cfb-4787-8159-851132c6b610" d="M206.56,213.55c.35.26.74.1,1.11.14s.55-.05.58.36-.23.4-.51.4h-3.56c-.24,0-.46,0-.44-.35s.14-.45.42-.39c1.61.32,1.45-.75,1.42-1.77,0-1.21,0-2.43,0-3.67-.68,0-.93.6-1.45.69-.13-.93.92-1.79,2.2-1.82,0,1.48,0,3,0,4.45C206.38,212.24,206.09,212.94,206.56,213.55Z"/><path class="bbc7cdc1-8cfb-4787-8159-851132c6b610" d="M213,207.85h-3.07c-.31,0-.65,0-.61-.44s.37-.31.6-.31c1.14,0,2.29,0,3.43,0,.9,0,1,.34.62,1-.19.37-.43.72-.65,1.08a10.26,10.26,0,0,0-1.66,4.69c0,.41-.09.62-.57.61s-.42-.45-.39-.74a11.52,11.52,0,0,1,1.7-4.56C212.63,208.78,213,208.47,213,207.85Z"/><path class="bbc7cdc1-8cfb-4787-8159-851132c6b610" d="M167.35,213.64c.42,0,.84.05,1.25.05s.39.13.41.41-.21.35-.45.35h-3.65c-.23,0-.46,0-.46-.34s.27-.46.54-.4c1.38.29,1.32-.58,1.3-1.51,0-1.29,0-2.59,0-3.92-.67-.07-.92.68-1.51.68a2.2,2.2,0,0,1,2.33-1.81c0,1.84,0,3.68,0,5.53C167.12,213,166.84,213.42,167.35,213.64Z"/><path class="bbc7cdc1-8cfb-4787-8159-851132c6b610" d="M87.78,208.09l-1.5.94c0-.87,1.42-2.13,2.16-1.94.47.12.29.48.29.74,0,1.6.06,3.2,0,4.8,0,.84.18,1.2,1.06,1.08.29,0,.77-.18.74.41s-.44.31-.7.32c-1.11,0-2.21,0-3.32,0-.24,0-.56.07-.55-.36s.29-.43.55-.38c1.21.23,1.36-.4,1.3-1.4C87.72,211,87.78,209.64,87.78,208.09Z"/><path class="bbc7cdc1-8cfb-4787-8159-851132c6b610" d="M284.06,208.07l-1.47.94c-.08-.85,1.37-2.1,2.12-1.92.48.12.29.48.3.73,0,1.6,0,3.21,0,4.81,0,.71.05,1.2.95,1.08.24,0,.65-.19.66.33s-.35.4-.63.4h-3.21c-.26,0-.55.06-.54-.37s.3-.42.55-.37c1.22.23,1.36-.41,1.3-1.41C284,211,284.06,209.62,284.06,208.07Z"/><path class="ae8e000d-d4f7-40bb-b15a-77804e368141" d="M68.09,139.67l.26.21c-.31,0-.61.06-.92.06H26.57v-.27Z"/><path class="b259af70-0d36-4a1a-aceb-4863194889f5" d="M167.35,213.64c-.51-.22-.23-.66-.24-1,0-1.85,0-3.69,0-5.53.48.24.21.67.22,1C167.36,210,167.35,211.8,167.35,213.64Z"/><path class="b259af70-0d36-4a1a-aceb-4863194889f5" d="M206.56,213.55c-.47-.61-.18-1.31-.21-2,0-1.48,0-3,0-4.45.47.12.25.5.25.74C206.59,209.77,206.57,211.66,206.56,213.55Z"/><path class="fd5d654f-b97f-4093-a89b-d8a14af16938" d="M251.34,211a1.2,1.2,0,0,1,1.13,1.45c-.06.91-.61,1.35-1.64,1.28a1.31,1.31,0,0,1-1.36-1.48C249.49,211.43,250.17,210.93,251.34,211Z"/><path class="fd5d654f-b97f-4093-a89b-d8a14af16938" d="M251,210.32c-.84,0-1.37-.37-1.37-1.28a1.13,1.13,0,0,1,1.27-1.25c.86,0,1.37.35,1.37,1.27S251.84,210.29,251,210.32Z"/><path class="fd5d654f-b97f-4093-a89b-d8a14af16938" d="M291.65,209.65a1.45,1.45,0,0,1-1.44,1.56,1.53,1.53,0,0,1-1.47-1.67,1.56,1.56,0,0,1,1.44-1.72A1.67,1.67,0,0,1,291.65,209.65Z"/><path class="fd5d654f-b97f-4093-a89b-d8a14af16938" d="M174,212c0,1-.63,1.74-1.46,1.7a1.75,1.75,0,0,1-1.45-1.89,1.38,1.38,0,0,1,1.48-1.51C173.48,210.35,174,211,174,212Z"/><path class="fd5d654f-b97f-4093-a89b-d8a14af16938" d="M44.48,210.66a6,6,0,0,1-.28,2.11,1.35,1.35,0,0,1-1.31.92,1.23,1.23,0,0,1-1.23-.86,6.35,6.35,0,0,1,0-4.13,1.26,1.26,0,0,1,1.23-.87,1.35,1.35,0,0,1,1.34.89A5.82,5.82,0,0,1,44.48,210.66Z"/><path class="fd5d654f-b97f-4093-a89b-d8a14af16938" d="M240.78,210.7a6.3,6.3,0,0,1-.26,2,1.36,1.36,0,0,1-1.28,1,1.26,1.26,0,0,1-1.31-.91,6.49,6.49,0,0,1,0-4,1.26,1.26,0,0,1,1.31-.91,1.35,1.35,0,0,1,1.29.95A6,6,0,0,1,240.78,210.7Z"/><path class="fd5d654f-b97f-4093-a89b-d8a14af16938" d="M280,210.86a5.51,5.51,0,0,1-.33,2,1.36,1.36,0,0,1-1.26.83,1.3,1.3,0,0,1-1.2-.76,4.72,4.72,0,0,1,0-4.34,1.3,1.3,0,0,1,1.29-.77,1.33,1.33,0,0,1,1.22.89A6.47,6.47,0,0,1,280,210.86Z"/><path class="fd5d654f-b97f-4093-a89b-d8a14af16938" d="M201.53,210.82a5,5,0,0,1-.27,1.92,1.33,1.33,0,0,1-1.29.95,1.27,1.27,0,0,1-1.3-.92,6.42,6.42,0,0,1,0-4,1.29,1.29,0,0,1,1.33-.9,1.35,1.35,0,0,1,1.28,1A5.61,5.61,0,0,1,201.53,210.82Z"/><path class="fd5d654f-b97f-4093-a89b-d8a14af16938" d="M80.63,210.76a6.41,6.41,0,0,1,.27-2,1.38,1.38,0,0,1,1.31-.93,1.28,1.28,0,0,1,1.3.93,6.59,6.59,0,0,1,0,3.93,1.31,1.31,0,0,1-1.37,1,1.36,1.36,0,0,1-1.26-1A6.76,6.76,0,0,1,80.63,210.76Z"/><path class="fd5d654f-b97f-4093-a89b-d8a14af16938" d="M162.29,210.75a5.14,5.14,0,0,1-.29,2,1.32,1.32,0,0,1-1.32.92,1.24,1.24,0,0,1-1.23-.85,6.28,6.28,0,0,1,0-4.15,1.26,1.26,0,0,1,1.23-.86,1.31,1.31,0,0,1,1.33.89A4.84,4.84,0,0,1,162.29,210.75Z"/><path class="fd5d654f-b97f-4093-a89b-d8a14af16938" d="M119.88,210.37a5,5,0,0,1,.25-1.58,1.37,1.37,0,0,1,1.29-1,1.27,1.27,0,0,1,1.33.9,6.35,6.35,0,0,1,0,4,1.28,1.28,0,0,1-1.31.92,1.35,1.35,0,0,1-1.29-.95A6.77,6.77,0,0,1,119.88,210.37Z"/><path class="fd5d654f-b97f-4093-a89b-d8a14af16938" d="M92.18,212.14l2.3-3.55h.22c0,1,0,2.06,0,3.09,0,.46-.26.46-.59.46Z"/><path class="a4d45c89-3c8a-4ac4-b052-796ef1521146" d="M9.63,8.3l.6-.85-1,.08H7.34v-.9h3.74v1L9,12.49H7.81Z"/><path class="a4d45c89-3c8a-4ac4-b052-796ef1521146" d="M11.68,12.17l.17-.8a3,3,0,0,0,1.33.37c.7,0,1.06-.26,1.06-1v-.14c0-.8-.26-1-.76-1a.76.76,0,0,0-.76.39L12,9.84l.14-3.21h3v.9h-2.2l0,1-.13.78a1.46,1.46,0,0,1,1.1-.43c.88,0,1.59.6,1.59,1.84a1.87,1.87,0,0,1-2,1.93A3,3,0,0,1,11.68,12.17Z"/><path class="a4d45c89-3c8a-4ac4-b052-796ef1521146" d="M16.18,9.54c0-1.74.72-3,2.25-3s2.26,1.25,2.26,3-.72,3.09-2.27,3.09S16.18,11.37,16.18,9.54Zm3.33.15v-.4c0-1.47-.3-1.91-1.08-1.91s-1.08.46-1.08,1.93V9.7c0,1.63.33,2.09,1.08,2.09S19.51,11.32,19.51,9.69Z"/><path class="a4d45c89-3c8a-4ac4-b052-796ef1521146" d="M6.85,77.29l.18-.8a2.93,2.93,0,0,0,1.32.37c.7,0,1.06-.26,1.06-1v-.14c0-.8-.26-1-.76-1a.74.74,0,0,0-.76.39L7.14,75l.14-3.21h3v.9H8.1l0,1-.13.78A1.46,1.46,0,0,1,9,74c.88,0,1.59.6,1.59,1.84a1.87,1.87,0,0,1-2,1.93A3,3,0,0,1,6.85,77.29Z"/><path class="a4d45c89-3c8a-4ac4-b052-796ef1521146" d="M11.35,74.66c0-1.74.72-3,2.25-3s2.26,1.25,2.26,3-.71,3.09-2.27,3.09S11.35,76.49,11.35,74.66Zm3.33.15v-.4c0-1.47-.3-1.91-1.08-1.91s-1.08.46-1.08,1.93v.38c0,1.63.33,2.1,1.08,2.1S14.68,76.44,14.68,74.81Z"/><path class="a4d45c89-3c8a-4ac4-b052-796ef1521146" d="M16.65,74.66c0-1.74.72-3,2.25-3s2.25,1.25,2.25,3-.71,3.09-2.27,3.09S16.65,76.49,16.65,74.66Zm3.32.15v-.4c0-1.47-.3-1.91-1.08-1.91s-1.07.46-1.07,1.93v.38c0,1.63.32,2.1,1.08,2.1S20,76.44,20,74.81Z"/><path class="a4d45c89-3c8a-4ac4-b052-796ef1521146" d="M7.44,141.64l0-.18a3.79,3.79,0,0,1,1.41-1.84c.62-.52.91-.79.91-1.32v-.12c0-.62-.28-.8-.83-.8a3.29,3.29,0,0,0-1.3.33l-.17-.79a3.1,3.1,0,0,1,1.68-.44A1.58,1.58,0,0,1,11,138.16c0,1-.69,1.51-1.48,2.12a2.4,2.4,0,0,0-1.07,1.3l0,.13,1.08-.13h1.42v.87H7.44Z"/><path class="a4d45c89-3c8a-4ac4-b052-796ef1521146" d="M11.68,142.14l.18-.8a3,3,0,0,0,1.33.37c.7,0,1.06-.27,1.06-1v-.14c0-.8-.26-1.05-.77-1.05a.75.75,0,0,0-.75.38l-.75-.1.13-3.22h3v.9H12.93l0,1-.14.78a1.49,1.49,0,0,1,1.1-.43,1.6,1.6,0,0,1,1.6,1.83,1.87,1.87,0,0,1-2,1.94A3,3,0,0,1,11.68,142.14Z"/><path class="a4d45c89-3c8a-4ac4-b052-796ef1521146" d="M16.19,139.51c0-1.75.72-3,2.25-3s2.25,1.26,2.25,3-.71,3.09-2.26,3.09S16.19,141.34,16.19,139.51Zm3.32.14v-.39c0-1.47-.29-1.91-1.08-1.91s-1.07.46-1.07,1.93v.38c0,1.63.33,2.1,1.08,2.1S19.51,141.28,19.51,139.65Z"/><path class="a4d45c89-3c8a-4ac4-b052-796ef1521146" d="M11.82,203.7c0-1.75.72-3,2.25-3s2.25,1.25,2.25,3-.71,3.09-2.26,3.09S11.82,205.52,11.82,203.7Zm3.33.14v-.4c0-1.46-.3-1.9-1.09-1.9S13,202,13,203.46v.39c0,1.63.33,2.1,1.08,2.1S15.15,205.47,15.15,203.84Z"/></svg>