<svg id="Layer_1" data-name="Layer 1" xmlns="http://www.w3.org/2000/svg" viewBox="0 0 405.57 110.02"><defs><style>.cls-1{fill:#bbbddf;}.cls-2{fill:#484d80;}</style></defs><path class="cls-1" d="M70.92,35.79V48c0,4.26,0,8.52,0,12.77,0,2,1.11,3.39,2.62,3.39s2.44-1.22,2.57-3.24c0-.35,0-.7,0-1q0-13.47,0-26.94c0-5.07-2-7.57-6-7.6q-8.72-.07-17.42,0c-3.93,0-5.95,2.51-6,7.33q0,13.82,0,27.64c0,2.51,1,3.89,2.65,3.85s2.55-1.43,2.56-4V35.86l.38-.33a4.13,4.13,0,0,1,.7,1A5.33,5.33,0,0,1,53,38q0,28.34,0,56.68a9.26,9.26,0,0,0,.41,3,3.63,3.63,0,0,0,4.23,2.58c1.81-.55,3-2.42,3-4.86q0-14.79,0-29.57c0-.77-.3-2,1.16-1.53v2q0,14.16,0,28.34c0,2,.44,3.82,1.89,5,2.61,2.05,6-.17,6-4,.06-4.61,0-9.22,0-13.82q0-22.22,0-44.44C69.81,36.62,69.47,35.41,70.92,35.79Z"/><path class="cls-1" d="M61.41,7.22c-3.79,0-6.73,3.66-6.79,8.44,0,4.43,3.06,8.26,6.77,8.34s6.87-3.81,6.86-8.59C68.23,10.91,65.15,7.21,61.41,7.22Z"/><path class="cls-2" d="M13.16,35.79V48c0,4.26,0,8.52,0,12.77,0,2-1.12,3.39-2.62,3.39S8.09,62.91,8,60.89c0-.35,0-.7,0-1Q8,46.37,8,32.9c0-5.07,2-7.57,6-7.6q8.72-.07,17.42,0c3.92,0,6,2.51,6,7.33q0,13.82,0,27.64c0,2.51-1,3.89-2.65,3.85s-2.55-1.43-2.56-4V35.86l-.38-.33a4.13,4.13,0,0,0-.7,1A4.93,4.93,0,0,0,31,38q0,28.34,0,56.68a9.26,9.26,0,0,1-.41,3,3.63,3.63,0,0,1-4.23,2.58c-1.81-.55-3-2.42-3-4.86,0-9.86,0-19.71,0-29.57,0-.77.31-2-1.15-1.53v2q0,14.16,0,28.34c0,2-.44,3.82-1.89,5-2.61,2.05-6-.17-6-4-.06-4.61,0-9.22,0-13.82q0-22.22,0-44.44C14.26,36.62,14.61,35.41,13.16,35.79Z"/><path class="cls-2" d="M22.67,7.22c3.79,0,6.73,3.66,6.79,8.44,0,4.43-3.06,8.26-6.77,8.34s-6.87-3.81-6.86-8.59C15.85,10.91,18.93,7.21,22.67,7.22Z"/><path class="cls-2" d="M46.72,32.63c0-4.82,2-7.3,6-7.33q4.37,0,8.73,0v39c-.92,0-.68,1-.69,1.62q0,14.79,0,29.57c0,2.44-1.21,4.31-3,4.86a3.63,3.63,0,0,1-4.23-2.58,9.26,9.26,0,0,1-.41-3Q53,66.31,53,38a5.33,5.33,0,0,0,0-1.39,4.13,4.13,0,0,0-.7-1l-.38.33V60.15c0,2.54-.92,3.94-2.56,4s-2.65-1.34-2.65-3.85Q46.69,46.46,46.72,32.63Z"/><path class="cls-2" d="M61.39,24c-3.71-.08-6.82-3.91-6.77-8.34.06-4.78,3-8.44,6.79-8.44h0V24Z"/><path class="cls-1" d="M367.1,34.54V46.93c0,4.33,0,8.66,0,13,0,2.07-1.27,3.43-3,3.43s-2.79-1.24-2.94-3.29c0-.35,0-.71,0-1.06q0-13.71,0-27.4c0-5.15,2.25-7.7,6.88-7.73q9.93-.07,19.88,0c4.49,0,6.8,2.55,6.82,7.45,0,9.37,0,18.74,0,28.11,0,2.55-1.14,4-3,3.92s-2.91-1.46-2.91-4q0-11.39,0-22.78V34.6l-.44-.32a3.91,3.91,0,0,0-.8,1,4.72,4.72,0,0,0,0,1.41q0,28.83,0,57.65a8.43,8.43,0,0,1-.47,3.1,4.21,4.21,0,0,1-4.83,2.62,4.84,4.84,0,0,1-3.44-4.94q0-15,0-30.07c0-.79.35-2-1.32-1.56v2q0,14.42,0,28.82c0,2.09-.5,3.89-2.16,5.06-3,2.09-6.81-.17-6.87-4.08-.06-4.68,0-9.37,0-14q0-22.6,0-45.2C368.36,35.38,368.75,34.15,367.1,34.54Z"/><path class="cls-1" d="M378,5.51a8.46,8.46,0,0,1,8.47,8.56,8.5,8.5,0,1,1-17-.26A8.48,8.48,0,0,1,378,5.51Z"/><path class="cls-1" d="M328.92,34.77V47.15c0,4.33,0,8.66,0,13,0,2.07-1.27,3.44-3,3.44s-2.79-1.24-2.94-3.29c0-.36,0-.71,0-1.07,0-9.13,0-18.26,0-27.4,0-5.15,2.26-7.7,6.88-7.73q9.94-.06,19.89,0c4.48,0,6.79,2.55,6.81,7.46.05,9.37,0,18.74,0,28.11,0,2.55-1.14,4-3,3.92s-2.92-1.46-2.92-4V34.83l-.43-.33a4,4,0,0,0-.81,1.06,4.72,4.72,0,0,0,0,1.41q0,28.82,0,57.64a8.64,8.64,0,0,1-.47,3.1,4.21,4.21,0,0,1-4.83,2.62,4.85,4.85,0,0,1-3.45-4.94c0-10,0-20,0-30.06,0-.79.35-2-1.32-1.56v2q0,14.4,0,28.82c0,2.08-.5,3.89-2.16,5.05-3,2.09-6.81-.16-6.86-4.07-.07-4.69,0-9.37,0-14.06q0-22.59,0-45.19C330.18,35.61,330.58,34.38,328.92,34.77Z"/><path class="cls-1" d="M339.78,5.74a8.44,8.44,0,0,1,8.47,8.55,8.5,8.5,0,1,1-17-.25A8.47,8.47,0,0,1,339.78,5.74Z"/><path class="cls-1" d="M289.73,34.77V47.15c0,4.33,0,8.66,0,13,0,2.07-1.28,3.44-3,3.44s-2.79-1.24-2.94-3.29c0-.36,0-.71,0-1.07q0-13.69,0-27.4c0-5.15,2.25-7.7,6.88-7.73q9.94-.06,19.89,0c4.48,0,6.79,2.55,6.81,7.46.05,9.37,0,18.74,0,28.11,0,2.55-1.14,4-3,3.92s-2.92-1.46-2.92-4V34.83L311,34.5a4,4,0,0,0-.81,1.06,4.72,4.72,0,0,0,0,1.41q0,28.82,0,57.64a8.87,8.87,0,0,1-.47,3.1,4.21,4.21,0,0,1-4.84,2.62,4.84,4.84,0,0,1-3.44-4.94c0-10,0-20,0-30.06,0-.79.35-2-1.32-1.56v2q0,14.4,0,28.82c0,2.08-.5,3.89-2.16,5.05-3,2.09-6.81-.16-6.86-4.07-.07-4.69,0-9.37,0-14.06q0-22.59,0-45.19C291,35.61,291.39,34.38,289.73,34.77Z"/><path class="cls-1" d="M300.59,5.74a8.44,8.44,0,0,1,8.47,8.55,8.5,8.5,0,1,1-17-.25A8.47,8.47,0,0,1,300.59,5.74Z"/><path class="cls-1" d="M249.46,34.77V47.15c0,4.33,0,8.66,0,13,0,2.07-1.27,3.44-3,3.44s-2.79-1.24-2.94-3.29c0-.36,0-.71,0-1.07q0-13.69,0-27.4c0-5.15,2.25-7.7,6.88-7.73q9.94-.06,19.89,0c4.48,0,6.79,2.55,6.81,7.46.05,9.37,0,18.74,0,28.11,0,2.55-1.14,4-3,3.92s-2.92-1.46-2.92-4V34.83l-.43-.33a4,4,0,0,0-.81,1.06,4.72,4.72,0,0,0,0,1.41q0,28.82,0,57.64a8.87,8.87,0,0,1-.47,3.1,4.21,4.21,0,0,1-4.84,2.62,4.84,4.84,0,0,1-3.44-4.94c0-10,0-20,0-30.06,0-.79.35-2-1.32-1.56v2q0,14.4,0,28.82c0,2.08-.5,3.89-2.16,5.05-3,2.09-6.81-.16-6.86-4.07-.07-4.69,0-9.37,0-14.06q0-22.59,0-45.19C250.72,35.61,251.12,34.38,249.46,34.77Z"/><path class="cls-1" d="M260.32,5.74a8.44,8.44,0,0,1,8.47,8.55,8.5,8.5,0,1,1-17-.25A8.47,8.47,0,0,1,260.32,5.74Z"/><path class="cls-1" d="M208.83,34.77V47.15c0,4.33,0,8.66,0,13,0,2.07-1.27,3.44-3,3.44s-2.79-1.24-2.94-3.29c0-.36,0-.71,0-1.07,0-9.13,0-18.26,0-27.4,0-5.15,2.26-7.7,6.88-7.73q9.94-.06,19.89,0c4.48,0,6.79,2.55,6.81,7.46,0,9.37,0,18.74,0,28.11,0,2.55-1.14,4-3,3.92s-2.92-1.46-2.92-4V34.83l-.43-.33a4,4,0,0,0-.81,1.06,4.72,4.72,0,0,0,0,1.41q0,28.82,0,57.64a8.64,8.64,0,0,1-.47,3.1,4.21,4.21,0,0,1-4.83,2.62,4.85,4.85,0,0,1-3.45-4.94c0-10,0-20,0-30.06,0-.79.35-2-1.32-1.56v2q0,14.4,0,28.82c0,2.08-.5,3.89-2.16,5.05-3,2.09-6.81-.16-6.86-4.07-.07-4.69,0-9.37,0-14.06q0-22.59,0-45.19C210.09,35.61,210.49,34.38,208.83,34.77Z"/><path class="cls-1" d="M219.69,5.74a8.44,8.44,0,0,1,8.47,8.55,8.5,8.5,0,1,1-17-.25A8.47,8.47,0,0,1,219.69,5.74Z"/><path class="cls-1" d="M168.63,34V46.38c0,4.33,0,8.66,0,13,0,2.07-1.28,3.44-3,3.44s-2.79-1.24-2.94-3.29c0-.36,0-.71,0-1.07q0-13.7,0-27.4c0-5.15,2.25-7.7,6.88-7.73q9.93-.08,19.88,0c4.49,0,6.8,2.55,6.82,7.46,0,9.37,0,18.74,0,28.11,0,2.55-1.14,4-3,3.92s-2.91-1.47-2.91-4.05q0-11.38,0-22.77V34.06l-.44-.33a4,4,0,0,0-.8,1.06,4.69,4.69,0,0,0,0,1.41q0,28.81,0,57.64a8.43,8.43,0,0,1-.47,3.1,4.21,4.21,0,0,1-4.83,2.62,4.83,4.83,0,0,1-3.44-4.94q0-15,0-30.06c0-.79.35-2-1.32-1.57v2q0,14.41,0,28.83c0,2.08-.5,3.89-2.16,5-3,2.09-6.81-.16-6.86-4.08-.07-4.68,0-9.37,0-14q0-22.59,0-45.19C169.89,34.84,170.28,33.61,168.63,34Z"/><path class="cls-1" d="M179.49,5A8.45,8.45,0,0,1,188,13.52a8.5,8.5,0,1,1-17-.25A8.47,8.47,0,0,1,179.49,5Z"/><path class="cls-1" d="M129.73,34.41V46.79c0,4.33,0,8.66,0,13,0,2.07-1.28,3.44-3,3.44s-2.79-1.24-2.94-3.29c0-.35,0-.71,0-1.07q0-13.7,0-27.4c0-5.15,2.25-7.7,6.88-7.73q9.94-.06,19.89,0c4.48,0,6.79,2.56,6.81,7.46,0,9.37,0,18.74,0,28.11,0,2.55-1.14,4-3,3.92s-2.92-1.46-2.92-4V34.47l-.43-.33a4,4,0,0,0-.81,1.06,4.72,4.72,0,0,0,0,1.41q0,28.82,0,57.64a9,9,0,0,1-.47,3.11,4.22,4.22,0,0,1-4.84,2.61A4.84,4.84,0,0,1,141.38,95c0-10,0-20,0-30.06,0-.79.35-2-1.32-1.56v2q0,14.4,0,28.82c0,2.09-.5,3.89-2.16,5-3,2.09-6.81-.16-6.86-4.07-.07-4.69,0-9.37,0-14.06Q131,58.6,131,36C131,35.25,131.39,34,129.73,34.41Z"/><path class="cls-1" d="M140.59,5.38a8.44,8.44,0,0,1,8.47,8.55,8.5,8.5,0,1,1-17-.25A8.47,8.47,0,0,1,140.59,5.38Z"/><path class="cls-1" d="M90.9,34.05V46.43c0,4.33,0,8.66,0,13,0,2.07-1.28,3.44-3,3.44S85.11,61.62,85,59.57c0-.35,0-.71,0-1.07q0-13.7,0-27.4c0-5.14,2.25-7.7,6.88-7.73q9.94-.06,19.88,0c4.49,0,6.8,2.56,6.82,7.46q.06,14.06,0,28.11c0,2.55-1.14,4-3,3.92s-2.91-1.46-2.91-4q0-11.39,0-22.77V34.11l-.43-.33a4,4,0,0,0-.81,1.06,4.72,4.72,0,0,0,0,1.41q0,28.83,0,57.64a8.73,8.73,0,0,1-.46,3.11A4.22,4.22,0,0,1,106,99.61a4.84,4.84,0,0,1-3.44-4.93c0-10,0-20.05,0-30.07,0-.79.35-2-1.32-1.56v2q0,14.4,0,28.82c0,2.09-.5,3.89-2.16,5.06-3,2.08-6.81-.17-6.86-4.08-.07-4.69,0-9.37,0-14.06q0-22.59,0-45.19C92.16,34.89,92.55,33.66,90.9,34.05Z"/><path class="cls-1" d="M101.76,5a8.45,8.45,0,0,1,8.47,8.55,8.5,8.5,0,1,1-17-.25A8.47,8.47,0,0,1,101.76,5Z"/></svg>